<?xml version="1.0" encoding="UTF-8"?>
<!DOCTYPE svg PUBLIC "-//W3C//DTD SVG 1.1//EN" "http://www.w3.org/Graphics/SVG/1.1/DTD/svg11.dtd">
<!-- Creator: CorelDRAW 2021 (64-Bit) -->
<svg xmlns="http://www.w3.org/2000/svg" xml:space="preserve" width="6.0138in" height="3.01162in" version="1.1" style="shape-rendering:geometricPrecision; text-rendering:geometricPrecision; image-rendering:optimizeQuality; fill-rule:evenodd; clip-rule:evenodd"
viewBox="0 0 214.8 107.57"
 xmlns:xlink="http://www.w3.org/1999/xlink"
 xmlns:xodm="http://www.corel.com/coreldraw/odm/2003">
 <defs>
  <style type="text/css">
   <![CDATA[
    .fil0 {fill:black}
   ]]>
  </style>
 </defs>
 <g id="Layer_x0020_1">
  <metadata id="CorelCorpID_0Corel-Layer"/>
  <g id="_1647015980336">
   <path class="fil0" d="M33.3 55.48l0 -14.42 -18.58 0 0 33.21 0 0.09 0 1.97c0,6.94 -5.72,12.67 -12.67,12.67l-2.06 0 0 18.58 2.47 0c16.96,0 30.83,-13.87 30.83,-30.83l0 -2.38 26.14 0c8.36,0 15.97,-3.38 21.54,-8.83 5.57,5.45 13.18,8.83 21.54,8.83l4.95 0 0.06 -0 28.43 0c8.36,0 15.97,-3.37 21.54,-8.83 3.89,3.81 8.76,6.6 14.2,7.94 0.01,0 0.01,0 0.02,0.01 1.28,0.31 2.51,0.02 3.51,-0.84 3.97,-3.42 7.47,-7.72 10.06,-12.92 0.2,-0.4 0.15,-0.85 -0.13,-1.2 -0.28,-0.35 -0.71,-0.5 -1.14,-0.4 -3.97,0.94 -9.4,-1 -14.44,-7.3 -4.57,-5.72 -5.46,-13.19 -2.98,-19.55 2.07,-0.31 4.18,-0.29 6.23,0.05 -0.26,-2.41 0.41,-4.82 1.82,-6.75 2.37,0.26 4.59,1.39 6.2,3.2 1.13,-1.74 2.54,-3.29 4.16,-4.61 6.37,2.47 11.28,8.17 12.41,15.4 1.25,8.02 -1.02,13.35 -4.43,15.63 -0.82,0.55 -1.36,1.29 -1.61,2.24 -1.56,5.75 -4.26,11.2 -7.84,16.14 -0.26,0.35 -0.29,0.79 -0.09,1.18 0.2,0.39 0.58,0.61 1.02,0.61 16.74,-0.25 30.36,-14.03 30.36,-30.82l0 -4.95c0,-17.17 -14.1,-30.83 -30.83,-30.83l-4.95 0c-16.95,0 -30.83,13.87 -30.83,30.83l0 2.47 0 2.06c0,6.87 -5.62,12.55 -12.46,12.66 1.64,-3.76 2.55,-7.9 2.55,-12.25l0 -4.95c0,-16.96 -13.87,-30.83 -30.83,-30.83l-4.95 0c-3.52,0 -6.91,0.6 -10.07,1.7 -1.6,0.56 -2.46,2.28 -1.95,3.89 0.87,2.78 0.37,5.83 -0.87,8.52 -2.11,4.56 -6.29,8.28 -10.43,10.99 -1.74,1.14 -3.57,2.06 -5.47,2.77 -1.24,0.47 -2.03,1.6 -2.03,2.93 0,0.01 0,0.02 0,0.03l0 2.47 0 2.06c0,6.87 -5.62,12.56 -12.46,12.66 1.64,-3.76 2.55,-7.9 2.55,-12.25l0 -3.49c0,-1.53 -1.07,-2.81 -2.58,-3.08 -1.09,-0.19 -11.54,-2.49 -11.96,-2.62 -0.98,-0.3 -1.95,-0.13 -2.77,0.48 -0.82,0.61 -1.26,1.49 -1.26,2.51l0 5.78c0,5.99 -4.27,11.08 -9.91,12.36zm56.97 -12.36l0 -2.06 0 -2.06c0,-6.94 5.73,-12.67 12.67,-12.67l4.12 0c6.94,0 12.67,5.73 12.67,12.67l0 4.12c0,6.94 -5.72,12.67 -12.67,12.67l-1.38 0 -2.74 0c-6.94,0 -12.67,-5.72 -12.67,-12.67zm-18.15 50.33c-3.93,2.5 -9.27,1.8 -14.31,-1.32 -0.62,-5.88 1.08,-10.96 5.04,-13.4 11.44,-7.02 20.6,7.52 9.26,14.72zm-4.73 -1.44c-2,1.27 -4.71,0.92 -7.27,-0.67 -0.31,-2.98 0.55,-5.57 2.56,-6.81 5.81,-3.57 10.47,3.82 4.71,7.48zm-27.36 -69.75c2.52,3.88 6.63,6.11 10.92,6.38 1.45,-4.04 1.03,-8.7 -1.53,-12.55 -7.38,-11.1 -16.65,-5.02 -9.39,6.16zm-5.77 -0.9c4.47,6.88 11.76,10.83 19.36,11.32 2.56,-7.17 1.83,-15.42 -2.71,-22.25 -13.08,-19.69 -29.53,-8.9 -16.65,10.93z"/>
   <path class="fil0" d="M41.55 93.51c3.93,2.5 9.27,1.8 14.31,-1.32 0.62,-5.88 -1.08,-10.96 -5.04,-13.4 -11.44,-7.02 -20.6,7.52 -9.26,14.72zm30.51 -64.5c-3.87,2.53 -8.53,2.92 -12.56,1.44 0.31,-4.28 2.56,-8.37 6.46,-10.87 11.22,-7.19 17.26,2.12 6.11,9.42zm5.64 1.5c-6.87,4.5 -15.12,5.17 -22.28,2.56 0.55,-7.6 4.54,-14.85 11.45,-19.27 19.91,-12.74 30.61,3.76 10.83,16.71zm-62.27 3.73c2.67,3.82 7.86,5.23 13.72,4.29 2.83,-5.19 3.23,-10.53 0.5,-14.31 -7.86,-10.88 -21.9,-0.99 -14.22,10.02zm4.92 0.49c1.36,1.94 4,2.66 6.97,2.18 1.44,-2.63 1.64,-5.35 0.25,-7.27 -3.99,-5.53 -11.13,-0.5 -7.22,5.09zm25.93 57.34c2,1.27 4.71,0.92 7.27,-0.67 0.31,-2.99 -0.55,-5.57 -2.56,-6.81 -5.81,-3.57 -10.47,3.82 -4.71,7.48z"/>
  </g>
 </g>
</svg>
