<svg width="28" height="27" viewBox="0 0 28 27" fill="none" xmlns="http://www.w3.org/2000/svg">
<circle cx="14.0906" cy="13.6233" r="13.1687" fill="#199D00"/>
<path fill-rule="evenodd" clip-rule="evenodd" d="M7.18948 9.88714C7.15775 10.315 7.11973 11.0679 7.48324 11.1451C7.92294 11.1874 7.68047 10.4009 7.83964 10.2583C7.86972 10.1878 7.9252 10.1875 7.92978 10.2764V10.9435C7.92577 11.1604 8.06838 11.2243 8.17915 11.2691C8.29447 11.2602 8.37144 11.2641 8.41662 11.3763L8.4707 12.5302C8.4707 12.5302 8.73811 12.6067 8.75084 11.8811C8.76361 11.4551 8.66571 11.0985 8.72312 11.0156C8.72512 10.9342 8.82914 10.9293 8.90125 10.969C9.01621 11.05 9.06739 11.1502 9.24602 11.1101C9.51779 11.0352 9.68117 10.903 9.68518 10.6944C9.6693 10.496 9.64705 10.2977 9.56114 10.0994C9.57312 10.0633 9.50866 9.96984 9.52061 9.93375C9.56947 10.0103 9.6438 10.0039 9.66068 9.93375C9.61443 9.78134 9.54264 9.6353 9.42629 9.57206C9.33014 9.48736 9.1894 9.50467 9.13785 9.68137C9.114 9.88496 9.21125 10.1269 9.35951 10.3241C9.39099 10.4011 9.43523 10.5291 9.41577 10.6444C9.3369 10.6894 9.258 10.6707 9.1919 10.6009C9.1919 10.6009 8.97557 10.4386 8.97557 10.4026C9.03298 10.035 8.98831 9.99334 8.95651 9.89133C8.93426 9.75051 8.86744 9.70537 8.81333 9.60919C8.75921 9.55182 8.68599 9.55182 8.65101 9.60919C8.55537 9.77497 8.59997 10.1308 8.66904 10.2902C8.71897 10.4368 8.79523 10.5288 8.75917 10.5288C8.72952 10.6116 8.66818 10.5925 8.62354 10.4969C8.5598 10.2993 8.54703 10.0044 8.54703 9.87166C8.52793 9.70702 8.5069 9.35588 8.39856 9.26667C8.33246 9.17668 8.23449 9.22057 8.20026 9.30273C8.19314 9.46612 8.19239 9.62947 8.21081 9.78005C8.2851 10.0441 8.30846 10.2764 8.34451 10.5468C8.35453 10.9091 8.13505 10.704 8.14507 10.5244C8.19568 10.2911 8.18255 9.92391 8.13756 9.83085C8.10193 9.73778 8.05983 9.71481 7.97313 9.73012C7.90427 9.72594 7.72711 9.91937 7.67736 10.2403C7.67736 10.2403 7.63494 10.4054 7.61687 10.5521C7.59255 10.7178 7.48346 10.8348 7.40691 10.5288C7.34081 10.3064 7.30018 9.75888 7.18944 9.88711L7.18948 9.88714Z" fill="white"/>
<path fill-rule="evenodd" clip-rule="evenodd" d="M8.38433 11.6427C7.99631 11.8324 7.62106 12.0093 7.23938 12.1926C7.25333 11.9331 7.78374 11.4646 8.14543 11.458C8.38086 11.4646 8.3217 11.5492 8.38433 11.6427V11.6427Z" fill="white"/>
<path fill-rule="evenodd" clip-rule="evenodd" d="M8.18432 12.0014C7.5809 13.5568 9.59735 13.7736 9.82269 12.0651C9.8439 11.995 9.92892 11.9249 9.9438 12.0396C9.89705 13.5865 8.38408 13.6928 8.12698 13.2061C8.06328 13.0914 8.0441 12.8364 8.03774 12.6834C7.99947 12.3796 7.84015 12.4965 7.81465 12.7982C7.78911 12.966 7.79551 13.0128 7.79551 13.1743C7.87624 14.3961 9.82487 13.8713 10.1415 12.8619C10.3093 12.3031 10.1138 11.8909 10.2052 11.893C10.3986 12.1012 10.6684 11.9206 10.7279 11.8483C10.7534 11.8122 10.8172 11.7889 10.8618 11.8356C11.0126 11.944 11.2783 11.8929 11.3335 11.7017C11.3654 11.5147 11.391 11.3214 11.3973 11.1217C11.274 11.1599 11.1827 11.1854 11.1742 11.2364L11.1487 11.4021C11.1381 11.4553 11.0318 11.4573 11.0276 11.3893C10.9808 11.1768 10.7875 11.1492 10.6706 11.4786C10.5919 11.5424 10.4496 11.5551 10.4347 11.4595C10.4538 11.2385 10.3645 11.2088 10.1861 11.3129C10.1287 10.8751 10.0713 10.4566 10.0139 10.0188C10.0883 10.0167 10.1564 10.0719 10.2244 9.9869C10.1499 9.75534 9.99273 9.28144 9.90556 9.24743C9.86307 9.19646 9.82687 9.22833 9.77172 9.24106C9.67822 9.27082 9.59109 9.35159 9.61866 9.50882C9.72919 10.1803 9.80144 10.6924 9.91196 11.3639C9.92892 11.4425 9.86307 11.5465 9.77808 11.5359C9.63358 11.4382 9.59756 11.2406 9.35101 11.2491C9.17249 11.2512 8.96843 11.4446 8.943 11.6316C8.91324 11.7803 8.90258 11.9418 8.94293 12.0715C9.06837 12.2223 9.21924 12.2075 9.35097 12.1735C9.45935 12.1289 9.54856 12.0205 9.58683 12.0459C9.61237 12.0779 9.59316 12.4347 9.07681 12.7089C8.76448 12.8491 8.51582 12.8811 8.38201 12.626C8.29913 12.4667 8.38837 11.8611 8.18432 12.0013V12.0014Z" fill="white"/>
<path fill-rule="evenodd" clip-rule="evenodd" d="M10.7438 10.4201C10.8649 10.3755 11.4388 9.71889 11.4388 9.71889C11.409 9.69339 11.3824 9.67425 11.3526 9.64875C11.3207 9.62113 11.3239 9.59352 11.3526 9.56587C11.495 9.48303 11.4493 9.30133 11.375 9.21849C11.2517 9.16319 11.1444 9.18129 11.0657 9.22164C10.9659 9.31728 10.9425 9.47023 11.0212 9.56587C11.0977 9.602 11.1742 9.67958 11.1231 9.72207C10.8884 9.97281 10.2456 10.4052 10.32 10.4201C10.3358 10.4413 10.7311 10.4403 10.7438 10.4201ZM7.27879 12.744C7.06361 13.0868 7.04486 13.5989 7.16362 13.7516C7.22671 13.8238 7.33037 13.8554 7.40705 13.8328C7.54226 13.7741 7.60142 13.5002 7.56934 13.4C7.5242 13.3294 7.48868 13.3182 7.44361 13.3783C7.34847 13.5714 7.30898 13.4389 7.30064 13.331C7.28605 13.1263 7.30533 12.9377 7.32754 12.7884C7.35122 12.6354 7.32718 12.6822 7.27879 12.744ZM16.4743 12.1949C16.2662 11.7471 15.9782 11.3045 15.8865 11.1345C15.7949 10.9644 15.103 9.96033 15.0012 9.8474C14.7764 9.58032 15.3662 9.95864 14.9266 9.42834C14.759 9.28455 14.7492 9.27579 14.6101 9.15847C14.54 9.10868 14.3686 9.01772 14.3383 9.16849C14.323 9.30144 14.3312 9.37351 14.3536 9.48421C14.3707 9.558 14.4782 9.68158 14.5311 9.75319C15.233 10.6968 15.8555 11.6496 16.4557 12.8477C16.5505 12.8026 16.5297 12.2699 16.4743 12.1949H16.4743Z" fill="white"/>
<path fill-rule="evenodd" clip-rule="evenodd" d="M15.5611 13.6931C15.5202 13.7391 15.6621 13.9355 15.8465 13.9353C16.155 13.8995 16.4265 13.7263 16.6779 13.2702C16.7452 13.1638 16.8633 12.9363 16.8668 12.7599C16.8903 11.7253 16.815 10.9202 16.66 10.1724C16.6501 10.0996 16.6561 10.0139 16.6684 9.99212C16.6884 9.96826 16.7562 9.99223 16.7921 9.93332C16.8448 9.87948 16.6521 9.43363 16.5422 9.26191C16.5032 9.18522 16.4896 9.134 16.425 9.27092C16.3571 9.38216 16.3115 9.57631 16.3168 9.75773C16.464 10.7765 16.5092 11.6677 16.6054 12.6865C16.6132 12.785 16.5987 12.9282 16.5332 12.9853C16.291 13.2382 15.9413 13.5496 15.5611 13.6931ZM19.7278 13.6878C19.5064 13.8157 19.5061 13.9629 19.6851 13.9682C19.9935 13.9324 20.358 13.9068 20.6094 13.5273C20.6767 13.4209 20.7566 13.1333 20.76 12.9568C20.7835 11.9222 20.7465 11.15 20.5915 10.4022C20.5816 10.3294 20.5494 10.1617 20.5617 10.1399C20.5817 10.0887 20.6822 10.1455 20.7181 10.0865C20.7708 10.0327 20.4578 9.63057 20.3479 9.45885C20.309 9.3822 20.2954 9.33098 20.2308 9.46786C20.1628 9.57914 20.1391 9.77876 20.1663 9.9547C20.3299 11.061 20.4516 11.892 20.4767 12.8725C20.4626 12.9656 20.4591 13.0158 20.4155 13.133C20.319 13.2568 20.212 13.4115 20.1117 13.4863C20.0115 13.561 19.7975 13.6324 19.7278 13.6878V13.6878Z" fill="white"/>
<path fill-rule="evenodd" clip-rule="evenodd" d="M19.8938 12.696C19.8912 12.4373 19.8974 12.2138 19.8889 12.0209C19.8804 11.8279 19.8463 11.6708 19.7795 11.5338C19.7163 11.387 19.7555 11.269 19.7259 11.1125C19.6962 10.9562 19.7035 10.7219 19.6587 10.5364C19.6464 10.4639 19.6088 10.2318 19.6204 10.2096C19.6387 10.1578 19.7083 10.2112 19.7422 10.1511C19.7931 10.0956 19.5657 9.50703 19.4503 9.33896C19.4088 9.26359 19.3334 9.28942 19.2405 9.41192C19.1543 9.49258 19.1863 9.67647 19.2192 9.85137C19.4405 11.0064 19.6056 12.0518 19.5696 13.1513C19.5585 13.2448 19.896 12.8724 19.8938 12.696ZM18.2584 11.2634C18.1192 11.2609 17.8276 10.9925 17.7425 10.8353C17.7104 10.7451 17.731 10.6571 17.7594 10.6056C17.8109 10.5721 17.8902 10.5344 17.9495 10.5705C17.9495 10.5705 18.011 10.6565 17.9991 10.6675C18.0751 10.7039 18.1073 10.6829 18.1151 10.652C18.1203 10.5979 18.0926 10.5656 18.0923 10.506C18.1245 10.3443 18.3093 10.3192 18.3789 10.4223C18.4299 10.4851 18.4485 10.6187 18.4563 10.7089C18.4554 10.755 18.3808 10.7009 18.3385 10.712C18.2961 10.7231 18.2859 10.772 18.2826 10.8163C18.2749 10.9335 18.261 11.1217 18.2584 11.2634V11.2634ZM15.6892 12.9828C15.7275 12.6313 15.675 12.0052 15.6715 11.7978C15.6574 11.3078 15.5774 10.3613 15.5393 10.2032C15.4964 9.9051 15.6619 10.2358 15.639 10.0626C15.5853 9.76496 15.4202 9.56319 15.2261 9.29056C15.1635 9.20186 15.1657 9.18379 15.0691 9.31231C14.9621 9.55482 15.0544 9.72168 15.0821 9.91057C15.222 10.526 15.3037 11.0923 15.3417 11.652C15.3797 12.2118 15.3914 12.8171 15.3567 13.4066C15.4616 13.4108 15.6302 13.237 15.6892 12.9828V12.9828Z" fill="white"/>
<path fill-rule="evenodd" clip-rule="evenodd" d="M20.3676 12.42C20.1222 12.0081 19.7517 11.562 19.6528 11.3962C19.5538 11.2303 18.7169 10.1504 18.6102 10.042C18.304 9.72031 18.7506 9.98961 18.5516 9.74116C18.3832 9.55631 18.3341 9.4983 18.19 9.38713C18.1178 9.34045 18.074 9.25128 18.0502 9.40323C18.0408 9.53671 18.0309 9.69116 18.0399 9.80365C18.0394 9.86621 18.1045 9.98371 18.1604 10.053C18.9028 10.9651 19.7125 11.8964 20.3644 13.0672C20.4571 13.018 20.4263 12.4925 20.3676 12.42Z" fill="white"/>
<path fill-rule="evenodd" clip-rule="evenodd" d="M9.23013 11.6598C9.21246 11.6908 9.17311 11.731 9.18631 11.7725C9.21385 11.8098 9.23589 11.8174 9.28181 11.8194C9.32166 11.8194 9.37732 11.8289 9.3893 11.8054C9.41076 11.7817 9.42703 11.7335 9.40919 11.688C9.36769 11.5843 9.2518 11.6229 9.23013 11.6598Z" fill="#1BA400"/>
<path fill-rule="evenodd" clip-rule="evenodd" d="M17.5133 17.6635C17.8416 17.6755 18.0565 17.6784 18.3484 17.7132C18.3484 17.7132 18.6002 17.6883 18.6901 17.6747C19.0702 17.6385 19.087 18.2175 19.087 18.2175C19.0829 18.5572 18.9518 18.5749 18.7844 18.6108C18.6888 18.623 18.6386 18.5536 18.5883 18.4796C18.5252 18.506 18.4395 18.5098 18.3356 18.4954C18.1988 18.4868 18.062 18.4874 17.9252 18.4788C17.7799 18.466 17.7026 18.494 17.5572 18.4812C17.5273 18.5282 17.4884 18.5933 17.3995 18.5724C17.3255 18.5642 17.2379 18.3566 17.2637 18.1987C17.3171 18.0856 17.3025 18.122 17.2969 18.0722C15.9547 18.038 14.5996 17.9782 13.283 17.9953C12.2528 17.9996 11.2354 18.0423 10.2181 18.0851C9.67521 18.0765 9.26058 17.991 8.97418 17.5721C8.99983 17.5721 10.3591 17.649 10.7567 17.6234C11.4919 17.6148 12.163 17.555 12.9111 17.5336C14.3858 17.5593 15.8478 17.5593 17.3224 17.6618C17.1813 17.5653 17.1763 17.3374 17.3934 17.2817C17.4118 17.269 17.4214 17.395 17.4538 17.3927C17.6276 17.3796 17.5514 17.6149 17.5132 17.6634L17.5133 17.6635ZM11.5926 9.53474C11.3691 10.1735 11.7206 10.8723 11.9643 10.8042C12.1402 10.877 12.2521 10.5425 12.3241 10.176C12.3734 10.0732 12.4106 10.0622 12.4359 10.1151C12.4294 10.6024 12.4709 10.7104 12.5962 10.8583C12.8757 11.074 13.1069 10.8859 13.125 10.8677L13.3426 10.6501C13.3911 10.5991 13.4556 10.5961 13.524 10.641C13.5905 10.7015 13.5812 10.8058 13.7235 10.8782C13.8433 10.9262 14.0994 10.8893 14.1588 10.7861C14.2386 10.6492 14.2578 10.6022 14.2948 10.5503C14.3517 10.4745 14.4489 10.5082 14.4489 10.5322C14.4398 10.5745 14.3828 10.6168 14.4217 10.693C14.4895 10.7439 14.5052 10.7112 14.5453 10.6999C14.687 10.6321 14.7935 10.3236 14.7935 10.3236C14.7998 10.2089 14.7355 10.2184 14.6938 10.242C14.6394 10.2753 14.6358 10.2859 14.5814 10.3192C14.5121 10.3295 14.3776 10.3754 14.3111 10.2725C14.2432 10.1487 14.2423 9.97598 14.1904 9.85114C14.1904 9.84206 14.1003 9.65449 14.1841 9.64247C14.2264 9.65034 14.3167 9.67423 14.331 9.59823C14.3754 9.52411 14.236 9.3143 14.1406 9.20832C14.0578 9.11739 13.9431 9.10645 13.8323 9.19927C13.7548 9.27062 13.7659 9.35035 13.7507 9.42593C13.7309 9.5127 13.7352 9.61947 13.8233 9.73425C13.9007 9.88688 14.0419 10.0835 13.9955 10.3599C13.9955 10.3599 13.913 10.4905 13.7693 10.4734C13.7093 10.4604 13.6122 10.435 13.5603 10.0516C13.521 9.76144 13.5696 9.35543 13.4464 9.16511C13.4019 9.05018 13.3694 8.93919 13.261 9.13578C13.2319 9.21297 13.1069 9.33011 13.1976 9.57104C13.2718 9.72377 13.3019 9.97236 13.2683 10.249C13.2169 10.3276 13.2055 10.3542 13.1381 10.4328C13.0434 10.5346 12.9407 10.5086 12.8621 10.4706C12.7886 10.421 12.731 10.3954 12.6975 10.2381C12.7035 9.98721 12.7175 9.57655 12.6716 9.48946C12.604 9.35454 12.4926 9.40332 12.4449 9.4441C12.2161 9.65331 12.1031 10.0063 12.034 10.2874C11.9705 10.4923 11.903 10.4336 11.8555 10.3509C11.74 10.2426 11.7321 9.39553 11.5926 9.53481V9.53474Z" fill="white"/>
<path fill-rule="evenodd" clip-rule="evenodd" d="M12.2654 10.9234C12.3669 10.8515 12.3195 10.8013 12.4712 10.953C12.6612 11.2778 12.7834 11.6986 12.8017 12.0713C12.7937 12.1632 12.8584 12.2213 12.888 12.2013C12.9056 11.9857 13.43 11.6852 13.9109 11.6413C13.9844 11.6253 13.9486 11.4844 13.9606 11.4125C13.9318 11.1456 14.1106 10.9026 14.3613 10.8832C14.7025 10.9336 14.816 11.1157 14.8218 11.3938C14.7849 11.9275 14.2289 12.018 13.9165 12.0606C13.8686 12.0787 13.8486 12.1008 13.9165 12.127L15.2255 12.1329L15.2922 12.1714C15.3002 12.2027 15.2732 12.1766 15.2215 12.2617C15.1698 12.3468 15.0936 12.543 15.0897 12.6741C14.6997 12.7995 14.2963 12.8544 13.8864 12.904C13.7439 12.976 13.6733 13.072 13.7026 13.18C13.7505 13.2998 14.066 13.4195 14.066 13.4252C14.1259 13.4628 14.1968 13.5505 14.049 13.7301C13.4106 13.702 12.9158 13.4303 12.7445 13.0468C12.6929 13.0068 12.6373 13.0466 12.6017 13.0984C12.3524 13.4198 12.1071 13.7091 11.6821 13.8628C11.4287 13.9261 11.1693 13.8239 11.0467 13.6579C10.9647 13.5634 10.9678 13.4591 10.9377 13.4365C10.8007 13.4971 9.62195 13.998 9.77135 13.7647C10.0582 13.4576 10.5549 13.2321 10.9935 12.929C11.0252 12.8275 11.0827 12.484 11.256 12.3721C11.266 12.3729 11.2285 12.5738 11.2323 12.6585C11.2342 12.7281 11.2272 12.7553 11.2424 12.7374C11.272 12.7186 11.8042 12.3004 11.8453 12.1721C11.8972 12.0986 11.8609 11.9123 11.8609 11.9067C11.7611 11.6494 11.6211 11.6276 11.5692 11.4998C11.5225 11.33 11.5436 11.1362 11.6406 11.0822C11.7268 11.004 11.8289 11.0136 11.923 11.0991C12.0306 11.1954 12.126 11.3836 12.1536 11.5238C12.1352 11.5792 12.013 11.4869 11.9706 11.5145C12.0456 11.5921 12.0806 11.6818 12.1077 11.7914C12.1771 12.0851 12.1559 12.1992 12.0861 12.3891C11.8499 12.8859 11.5479 13.0341 11.2836 13.2182C11.2766 13.2207 11.2719 13.3443 11.3713 13.4111C11.4055 13.4471 11.5434 13.4655 11.7054 13.4136C12.0186 13.2429 12.3436 12.9283 12.505 12.5778C12.5519 12.3127 12.4869 12.0316 12.418 11.7865C12.3141 11.5469 12.1918 11.2048 12.1918 11.1992C12.1878 11.0498 12.2 10.9979 12.2655 10.9234H12.2654ZM8.83844 9.54165C8.9891 9.61351 9.27235 9.58293 9.26036 9.33999C9.26036 9.31853 9.25489 9.24584 9.25274 9.22614C9.22198 9.15453 9.13811 9.17223 9.11908 9.24617C9.1131 9.27038 9.12974 9.30983 9.10781 9.32199C9.09522 9.33469 9.04708 9.32722 9.04908 9.26012C9.04908 9.23873 9.03334 9.21576 9.02383 9.20217C9.01431 9.19595 9.00827 9.19423 8.99103 9.19423C8.97 9.19505 8.97035 9.20053 8.95884 9.21819C8.95394 9.23615 8.94721 9.25371 8.94721 9.2741C8.94456 9.29799 8.93555 9.30651 8.91799 9.31005C8.89835 9.31005 8.90279 9.31219 8.88687 9.30207C8.87743 9.2917 8.86562 9.28776 8.86562 9.27013C8.86562 9.25185 8.86147 9.22227 8.85597 9.21022C8.84763 9.1992 8.83422 9.19412 8.81912 9.19022C8.73686 9.19051 8.73113 9.28437 8.73589 9.31999C8.7297 9.32672 8.72623 9.49508 8.83844 9.54165Z" fill="white"/>
<path fill-rule="evenodd" clip-rule="evenodd" d="M13.2547 11.4109C13.4054 11.4827 13.764 11.4414 13.6766 11.2092C13.6766 11.1878 13.6712 11.1151 13.669 11.0954C13.6382 11.0238 13.5544 11.0415 13.5353 11.1154C13.5294 11.1396 13.546 11.1791 13.5241 11.1912C13.5115 11.2039 13.4633 11.1965 13.4653 11.1294C13.4653 11.108 13.4496 11.085 13.4401 11.0714C13.4306 11.0652 13.4245 11.0635 13.4073 11.0635C13.3863 11.0643 13.3866 11.0698 13.3751 11.0874C13.3702 11.1054 13.3635 11.123 13.3635 11.1433C13.3608 11.1672 13.3518 11.1758 13.3342 11.1793C13.3146 11.1793 13.319 11.1814 13.3031 11.1713C13.2937 11.1609 13.2819 11.157 13.2819 11.1394C13.2819 11.1211 13.2777 11.0915 13.2722 11.0795C13.2639 11.0684 13.2505 11.0634 13.2354 11.0595C13.1531 11.0598 13.1474 11.1536 13.1522 11.1892C13.146 11.196 13.1425 11.3643 13.2547 11.4109ZM15.83 10.6372C15.9807 10.7091 16.2639 10.6785 16.2519 10.4356C16.2519 10.4141 16.2465 10.3414 16.2443 10.3217C16.2136 10.2501 16.1297 10.2678 16.1107 10.3417C16.1047 10.366 16.1213 10.4054 16.0994 10.4176C16.0868 10.4303 16.0387 10.4228 16.0407 10.3557C16.0407 10.3343 16.0249 10.3113 16.0154 10.2977C16.0059 10.2915 15.9999 10.2898 15.9826 10.2898C15.9616 10.2906 15.9619 10.2961 15.9504 10.3138C15.9455 10.3317 15.9388 10.3493 15.9388 10.3697C15.9361 10.3936 15.9271 10.4021 15.9096 10.4056C15.8899 10.4056 15.8944 10.4078 15.8785 10.3976C15.869 10.3873 15.8572 10.3833 15.8572 10.3657C15.8572 10.3474 15.8531 10.3178 15.8475 10.3058C15.8392 10.2948 15.8258 10.2897 15.8107 10.2858C15.7284 10.2861 15.7227 10.3799 15.7275 10.4156C15.7213 10.4223 15.7178 10.5907 15.83 10.6372ZM17.1638 12.5805C16.9013 12.8764 17.017 13.3658 17.0763 13.4713C17.1629 13.6444 17.2326 13.7555 17.401 13.8412C17.5545 13.9541 17.674 13.8835 17.7399 13.8044C17.8943 13.6444 17.8961 13.2359 17.9686 13.155C18.0195 13.0063 18.1475 13.0317 18.2096 13.0976C18.2698 13.1841 18.3407 13.2399 18.4292 13.2871C18.5732 13.4141 18.7451 13.4373 18.9146 13.3216C19.0303 13.2566 19.1056 13.1727 19.1734 13.0061C19.2487 12.8047 19.2067 11.8741 19.1916 11.3226C19.1858 11.2793 19.042 10.5641 19.042 10.5561C19.042 10.5481 19.023 10.1911 19.0071 10.1061C19.0044 10.0715 18.9958 10.0616 19.032 10.066C19.0704 10.0983 19.0756 10.1003 19.0996 10.111C19.1383 10.118 19.1729 10.0521 19.1496 9.99149L18.7902 9.3286C18.7613 9.3002 18.7241 9.26901 18.6783 9.33661C18.6346 9.37492 18.5881 9.44427 18.5895 9.53344C18.6001 9.69054 18.6278 9.85035 18.6384 10.0075L18.7822 10.8141C18.8274 11.3891 18.8388 11.8597 18.884 12.4348C18.8777 12.6782 18.802 12.8905 18.731 12.9211C18.731 12.9211 18.623 12.9837 18.5506 12.9146C18.4979 12.8935 18.287 12.5632 18.287 12.5632C18.1792 12.4643 18.1081 12.4926 18.0314 12.5632C17.8199 12.7674 17.7242 13.1496 17.5804 13.4131C17.5434 13.472 17.4386 13.5223 17.3225 13.4088C17.0277 13.0062 17.2005 12.4332 17.1638 12.5805ZM15.8976 9.22687C16.0326 9.28339 16.1278 9.55677 16.0967 9.69025C16.0699 9.8554 15.9983 10.0337 15.9468 10.0105C15.8909 9.98978 15.985 9.84635 15.9312 9.6959C15.9013 9.59797 15.7172 9.41902 15.7366 9.36626C15.6985 9.25574 15.8149 9.20738 15.8976 9.22687Z" fill="white"/>
<path fill-rule="evenodd" clip-rule="evenodd" d="M17.5985 12.7426C17.6269 12.4143 17.5789 12.2141 17.5704 12.0211C17.5619 11.8282 17.3522 10.3558 17.3096 10.2098C17.2583 9.93372 17.5135 10.1728 17.4856 10.0122C17.3973 9.80975 17.1776 9.51502 17.1086 9.33918C17.0671 9.26385 17.0846 9.19682 16.9916 9.31937C16.9055 9.60108 16.8756 9.83136 16.9085 10.0063C17.1298 11.1613 17.3568 12.1216 17.3207 13.2211C17.4257 13.2218 17.5466 12.981 17.5985 12.7427V12.7426ZM19.9045 9.69229C20.0275 9.75345 20.0996 10.0961 20.086 10.194C20.0615 10.3728 19.9962 10.5659 19.9494 10.5407C19.8983 10.5183 19.9595 10.2756 19.935 10.2001C19.9079 10.0941 19.74 9.90035 19.7576 9.84323C19.7229 9.72359 19.829 9.67122 19.9045 9.69229ZM10.7596 12.1217C10.8772 12.1666 10.9463 12.4184 10.9333 12.4903C10.9098 12.6217 10.8473 12.7636 10.8025 12.7451C10.7537 12.7286 10.8123 12.5503 10.7889 12.4948C10.7789 12.3603 10.6156 12.2907 10.619 12.2326C10.5885 12.1258 10.6873 12.1062 10.7596 12.1217V12.1217Z" fill="white"/>
<path fill-rule="evenodd" clip-rule="evenodd" d="M13.6035 12.4997C13.7554 12.5093 13.8313 12.6285 13.689 12.6785C13.5486 12.7266 13.4138 12.7641 13.4131 12.967C13.465 13.2496 13.3419 13.1526 13.2685 13.1142C13.1819 13.0521 12.9391 12.9025 12.9045 12.5795C12.8993 12.5024 12.9594 12.4375 13.0561 12.438C13.2019 12.4776 13.4169 12.4805 13.6034 12.4997H13.6035Z" fill="#1B9D00"/>
<path fill-rule="evenodd" clip-rule="evenodd" d="M7.61365 9.14528C7.78731 9.19764 7.79757 9.45289 7.78477 9.5275C7.76162 9.66371 7.7001 9.81079 7.65593 9.79161C7.60786 9.77452 7.65403 9.58963 7.63096 9.53211C7.60521 9.45135 7.45849 9.30377 7.47512 9.26027C7.44246 9.1691 7.54247 9.12918 7.61365 9.14528ZM11.0432 10.3485C10.9099 10.4206 10.8582 10.6354 10.9412 10.7605C11.0187 10.8707 11.1411 10.8298 11.1574 10.8298C11.2879 10.8462 11.3654 10.5851 11.3654 10.5851C11.3654 10.5851 11.3695 10.5117 11.2145 10.6504C11.1492 10.6626 11.1411 10.6381 11.1247 10.6014C11.1112 10.5335 11.1139 10.4655 11.1451 10.3975C11.1682 10.3323 11.1179 10.3037 11.0432 10.3485ZM12.0425 9.04656C11.9756 9.09145 11.8423 9.22951 11.8382 9.38861C11.8342 9.47835 11.8175 9.47807 11.8762 9.53519C11.9187 9.59643 11.9615 9.59092 12.0472 9.54603C12.0964 9.50976 12.113 9.48569 12.1296 9.42488C12.15 9.32294 12.0218 9.47324 12.0055 9.35978C11.977 9.25441 12.0593 9.21127 12.1368 9.10933C12.1394 9.03948 12.1379 8.99001 12.0425 9.04656ZM12.8477 9.18963C12.8188 9.25337 12.7842 9.58641 12.79 9.58641C12.7669 9.68563 12.8938 9.72809 12.9515 9.60054C13.038 9.36672 13.038 9.26754 13.0438 9.16831C13.0169 9.01723 12.915 9.02195 12.8477 9.18963ZM17.9239 11.7728C17.9412 11.7555 18.6392 11.2594 18.6392 11.2594C18.7104 11.2344 18.6949 11.5152 18.6623 11.5133C18.6757 11.569 17.9739 12.0458 17.9239 12.0266C17.8893 12.0516 17.8547 11.8344 17.9239 11.7728H17.9239ZM18.5602 11.7685C18.6833 11.8297 18.7323 12.1896 18.7187 12.2875C18.7231 12.4779 18.6001 12.6306 18.5532 12.6054C18.5022 12.583 18.5577 12.3691 18.5332 12.2936C18.506 12.1876 18.4015 11.9881 18.4191 11.931C18.3845 11.8113 18.4848 11.7475 18.5602 11.7685ZM14.4086 13.3187C14.4571 13.2478 14.6071 13.1457 14.6105 13.1457C14.6797 13.111 14.7473 13.1728 14.7432 13.1687C14.7547 13.238 14.6994 13.3024 14.7168 13.3947C14.7318 13.4319 14.7429 13.4732 14.8111 13.4575C14.922 13.3703 15.0246 13.3647 15.1355 13.3591C15.2204 13.3642 15.2237 13.508 15.17 13.5091C14.9654 13.5536 14.8737 13.6084 14.7276 13.6641C14.6583 13.7045 14.599 13.6533 14.599 13.6475C14.599 13.6418 14.5585 13.6082 14.5867 13.5165C14.5917 13.443 14.5622 13.4027 14.5009 13.411C14.4547 13.436 14.4141 13.4525 14.391 13.3995C14.382 13.3603 14.379 13.3412 14.4086 13.3187ZM19.2946 13.5126C19.3245 13.5507 19.3438 13.5859 19.2922 13.6484C19.2432 13.6933 19.2087 13.718 19.1598 13.7628C19.1367 13.8023 19.1219 13.8621 19.1926 13.8811C19.3231 13.9178 19.625 13.722 19.625 13.7179C19.6739 13.6812 19.6576 13.6119 19.6535 13.6119C19.625 13.5793 19.5606 13.5987 19.5174 13.5934C19.4968 13.5934 19.4292 13.5831 19.4614 13.5233C19.4882 13.4861 19.4978 13.4633 19.516 13.4175C19.5364 13.3726 19.5189 13.3427 19.4455 13.3182C19.3707 13.3046 19.3408 13.3114 19.2579 13.3182C19.213 13.3277 19.1977 13.3478 19.1896 13.4022C19.1928 13.4847 19.2429 13.48 19.2946 13.5126Z" fill="white"/>
<path fill-rule="evenodd" clip-rule="evenodd" d="M14.4354 11.4829C14.4162 11.516 14.3515 11.5144 14.2909 11.4794C14.2302 11.4443 14.1965 11.389 14.2156 11.3558C14.2348 11.3227 14.2995 11.3244 14.3602 11.3595C14.4208 11.3946 14.4545 11.4498 14.4354 11.4829ZM11.2494 9.56596C11.2131 9.57483 11.1657 9.54249 11.1435 9.49374C11.1213 9.44499 11.1328 9.39828 11.169 9.38941C11.2052 9.38053 11.2527 9.41283 11.2749 9.46159C11.2971 9.51034 11.2857 9.55709 11.2494 9.56596Z" fill="#259F00"/>
<path fill-rule="evenodd" clip-rule="evenodd" d="M17.5516 18.1082C17.8861 18.1245 18.2004 18.1119 18.5348 18.1283C18.5954 18.1798 18.5521 18.3062 18.5118 18.2972C18.403 18.2944 18.3404 18.2918 18.2316 18.289C18.2279 18.1825 17.956 18.1999 17.9638 18.2924C17.817 18.3101 17.6845 18.2873 17.5377 18.2818C17.4943 18.2278 17.4999 18.1305 17.5517 18.1082H17.5516Z" fill="#209000"/>
</svg>
