<svg width="24" height="24" viewBox="0 0 24 24" fill="none" xmlns="http://www.w3.org/2000/svg">
<path d="M9.96199 17.9244C9.82799 17.924 9.69551 17.896 9.57278 17.8422C9.45005 17.7884 9.3397 17.71 9.24858 17.6117L4.49903 12.5592C4.32149 12.37 4.22638 12.118 4.23463 11.8587C4.24287 11.5993 4.3538 11.3539 4.54301 11.1764C4.73222 10.9988 4.98421 10.9037 5.24354 10.912C5.50287 10.9202 5.74831 11.0311 5.92585 11.2203L9.95221 15.5106L18.1711 6.51966C18.2545 6.41579 18.3582 6.33008 18.476 6.26778C18.5937 6.20547 18.723 6.1679 18.8557 6.15736C18.9885 6.14682 19.1221 6.16354 19.2482 6.20649C19.3743 6.24944 19.4902 6.31771 19.589 6.40712C19.6877 6.49652 19.7672 6.60517 19.8224 6.72639C19.8776 6.84761 19.9075 6.97884 19.9101 7.11202C19.9128 7.2452 19.8882 7.37752 19.8379 7.50085C19.7875 7.62418 19.7125 7.73592 19.6174 7.8292L10.6852 17.6019C10.5949 17.702 10.4849 17.7822 10.3622 17.8377C10.2394 17.8932 10.1065 17.9228 9.97176 17.9244H9.96199Z" fill="#0C4A81"/>
</svg>
