<svg width="94" height="82" viewBox="0 0 94 82" fill="none" xmlns="http://www.w3.org/2000/svg">
<path opacity="0.3" d="M64.9698 43.9958C64.9698 43.9958 68.4575 29.2135 80.2235 27.5885C80.2235 27.5885 82.5126 27.3071 83.2747 29.828C84.0369 32.3489 79.4853 32.3666 76.6721 33.3809C73.8589 34.3952 67.2997 38.6931 64.9698 43.9958Z" fill="#AEC3FF"/>
<path opacity="0.3" d="M64.7025 41.2296C64.7025 41.2296 63.4794 28.9849 72.0631 24.6395C72.0631 24.6395 73.743 23.8204 74.9911 25.5509C76.2393 27.2815 72.7574 28.4947 70.8671 30.0127C68.9769 31.5308 65.0898 36.5527 64.7025 41.2296Z" fill="#AEC3FF"/>
<path d="M1.22135 70.3646C-0.595311 66.2254 5.99374 62.6693 5.99374 62.6693C5.99374 62.6693 14.6761 65.4794 15.9227 64.7089C17.1693 63.9384 8.96878 60.8563 8.96878 60.8563C10.9922 58.8768 18.7506 57.0622 18.7506 57.0622C18.7506 57.0622 23.9844 64.2845 25.0029 63.2305C26.0214 62.1765 20.0436 57.0706 20.0436 57.0706C22.6804 55.9973 26.6577 56.8785 26.6577 56.8785C32.3854 58.9175 29.4709 66.1669 29.4709 66.1669C29.4709 66.1669 31.3388 68.6309 35.0488 70.1939C35.0488 70.1939 35.7948 70.4335 36.8336 71.0255L36.2547 71.4916C36.0824 71.3747 35.9096 71.2666 35.7358 71.169H35.7327L35.7248 71.1648C35.6131 71.1074 35.4539 71.026 35.255 70.9284C34.7993 70.7248 34.472 70.5629 34.2491 70.4413C32.8432 69.7809 30.9394 68.9796 30.1908 69.0929C30.177 68.9677 30.1468 68.8448 30.101 68.7275L30.1908 69.0929C30.9102 72.0163 26.2401 76.3601 23.0234 78.017C19.8066 79.6739 20.3829 77.9267 20.8517 75.4653C21.3205 73.004 24.7032 70.8287 25.2242 69.592C25.7452 68.3553 23.9975 68.9426 22.2748 70.5666C20.5521 72.1906 21.1106 74.7721 18.3658 77.4501C15.621 80.1281 8.85132 76.3601 8.85132 76.3601C11.4171 75.3437 14.1859 71.2442 13.7584 70.4246C13.3308 69.605 7.93621 74.0637 6.91564 74.5356C5.89507 75.0075 3.03749 74.5058 1.22135 70.3646Z" fill="#CDE0FB"/>
<path d="M84.1774 75.3431C86.8278 72.2162 82.022 67.4203 82.022 67.4203C82.022 67.4203 73.7494 67.615 72.8656 66.6226C71.9818 65.6303 79.9067 65.0748 79.9067 65.0748C78.6606 62.8301 72.3895 59.2453 72.3895 59.2453C72.3895 59.2453 65.9717 64.167 65.3593 62.9878C64.747 61.8085 71.264 58.9196 71.264 58.9196C69.2505 57.3044 65.5661 57.0403 65.5661 57.0403C60.0608 57.33 60.7169 64.3842 60.7169 64.3842C60.7169 64.3842 58.456 66.0416 54.8274 66.4399C54.8274 66.4399 54.1175 66.4546 53.0614 66.701L53.444 67.2564C53.6236 67.199 53.8018 67.1502 53.9786 67.1102C53.9791 67.11 53.9796 67.1099 53.9802 67.1099C53.9807 67.1099 53.9812 67.11 53.9817 67.1102H53.9896C54.1013 67.0893 54.261 67.058 54.4594 67.0257C54.9083 66.9667 55.2325 66.9124 55.4596 66.8628C56.8518 66.654 58.7144 66.4493 59.3351 66.7417C59.3797 66.6365 59.4378 66.5375 59.5079 66.4472C59.4557 66.5412 59.3957 66.6388 59.3351 66.7417C57.9539 69.0945 60.8876 74.0793 63.254 76.3522C65.6204 78.6251 65.5723 76.9567 65.802 74.6969C66.0317 72.437 63.6549 69.6703 63.5223 68.4607C63.3897 67.2512 64.7533 68.2133 65.8328 70.0717C66.9124 71.9301 65.7561 74.0276 67.4511 77.0669C69.1461 80.1061 76.0014 78.5808 76.0014 78.5808C74.0349 77.033 72.6891 72.756 73.2743 72.1525C73.8595 71.549 77.3921 76.8221 78.1569 77.496C78.9216 78.1699 81.5276 78.4696 84.1774 75.3431Z" fill="#CDE0FB"/>
<path opacity="0.5" d="M18.252 14.7759C20.9832 10.193 28.9175 14.0853 28.9175 14.0853C28.9175 14.0853 32.1708 24.3541 33.7656 25.0239C35.3604 25.6936 32.6991 15.701 32.6991 15.701C35.9884 16.2877 43.0514 22.4983 43.0514 22.4983C43.0514 22.4983 39.7005 32.4784 41.4112 32.7347C43.1219 32.9911 43.9274 23.7475 43.9274 23.7475C46.7667 25.5454 48.6471 29.9711 48.6471 29.9711C50.6146 36.8723 41.6519 39.0424 41.6519 39.0424C41.6519 39.0424 40.5655 42.5259 41.607 47.1626C41.607 47.1626 41.8884 48.0437 42.0319 49.4475L41.1873 49.211C41.1815 48.9651 41.1669 48.725 41.1413 48.4911C41.1418 48.4904 41.142 48.4896 41.142 48.4888C41.142 48.4879 41.1418 48.4871 41.1413 48.4864C41.1413 48.4833 41.1413 48.4796 41.1413 48.4765C41.1199 48.3298 41.0891 48.1205 41.0484 47.8652C40.932 47.2873 40.8621 46.8655 40.8271 46.5648C40.4977 44.7617 39.9621 42.3829 39.3398 41.7413C39.4507 41.6422 39.5481 41.529 39.6295 41.4046L39.3398 41.7413C37.0262 44.436 29.6494 42.9279 25.8516 40.9734C22.0539 39.0189 24.1289 38.3742 26.8143 37.137C29.4996 35.8998 33.9097 37.659 35.4554 37.3114C37.0011 36.9637 35.2403 35.6931 32.496 35.1465C29.7517 34.5999 27.6573 36.9115 23.2039 36.1096C18.7505 35.3078 17.7278 26.2209 17.7278 26.2209C20.4633 27.9895 26.2985 27.8392 26.7944 26.8651C27.2904 25.8909 19.3059 23.7663 18.1533 23.1065C17.0006 22.4466 15.5207 19.3593 18.252 14.7759Z" fill="#CDE0FB"/>
<path d="M48.7484 23.1643C48.7447 22.8829 48.798 22.6036 48.905 22.3432C49.0072 22.0966 49.1599 21.8741 49.3534 21.6901C49.5542 21.5012 49.7911 21.3548 50.0498 21.2595C50.3434 21.1516 50.6543 21.0985 50.967 21.1029C51.2819 21.099 51.5949 21.1521 51.891 21.2595C52.1522 21.3537 52.3915 21.5003 52.5942 21.6901C52.7875 21.8742 52.9402 22.0967 53.0426 22.3432C53.1493 22.6036 53.2026 22.8829 53.1992 23.1643C53.203 23.4436 53.1497 23.7207 53.0426 23.9787C52.9388 24.2225 52.7862 24.4424 52.5942 24.625C52.3914 24.8147 52.1521 24.9612 51.891 25.0557C51.5949 25.1628 51.2819 25.2158 50.967 25.2123C50.6543 25.2163 50.3435 25.1632 50.0498 25.0557C49.7912 24.9602 49.5544 24.8137 49.3534 24.625C49.1612 24.4426 49.0086 24.2226 48.905 23.9787C48.7977 23.7208 48.7444 23.4437 48.7484 23.1643ZM52.6239 19.3332H49.3158L48.846 8.02344H53.0938L52.6239 19.3332Z" fill="#F78248"/>
<path d="M38.7541 12.1062C38.7521 11.8914 38.7933 11.6784 38.8752 11.4798C38.9538 11.2906 39.0709 11.1199 39.2192 10.9786C39.3735 10.8338 39.5553 10.7215 39.7537 10.6482C39.9791 10.5658 40.2176 10.5255 40.4574 10.5291C40.6992 10.5258 40.9395 10.5662 41.1669 10.6482C41.3674 10.7206 41.551 10.833 41.7067 10.9786C41.8549 11.1199 41.9721 11.2906 42.0507 11.4798C42.133 11.6795 42.1744 11.8938 42.1723 12.1098C42.1749 12.3248 42.1335 12.5379 42.0507 12.7363C41.9712 12.9234 41.8541 13.0922 41.7067 13.2322C41.5511 13.3779 41.3674 13.4904 41.1669 13.5626C40.9395 13.6447 40.6992 13.685 40.4574 13.6817C40.2176 13.6853 39.9791 13.645 39.7537 13.5626C39.5552 13.4895 39.3734 13.3771 39.2192 13.2322C39.0713 13.0911 38.9542 12.9211 38.8752 12.7326C38.7922 12.5343 38.751 12.3211 38.7541 12.1062ZM41.7296 9.16613H39.1884L38.8287 0.48584H42.0888L41.7296 9.16613Z" fill="#AEC3FF"/>
<path d="M88.1051 26.7751C88.103 26.5591 88.1444 26.3448 88.2267 26.145C88.3055 25.956 88.4227 25.7854 88.5707 25.6439C88.7249 25.499 88.9067 25.3866 89.1053 25.3134C89.3308 25.2311 89.5695 25.1908 89.8095 25.1944C90.0511 25.1911 90.2912 25.2314 90.5184 25.3134C90.7191 25.3855 90.9028 25.498 91.0582 25.6439C91.2065 25.7852 91.3236 25.9559 91.4022 26.145C91.485 26.3447 91.5266 26.559 91.5244 26.7751C91.5271 26.9901 91.4855 27.2033 91.4022 27.4016C91.3227 27.5887 91.2057 27.7575 91.0582 27.8975C90.9027 28.0432 90.719 28.1557 90.5184 28.2279C90.2912 28.3097 90.051 28.35 89.8095 28.3469C89.5695 28.3503 89.3309 28.31 89.1053 28.2279C88.9068 28.1546 88.725 28.0423 88.5707 27.8975C88.4235 27.7573 88.3064 27.5886 88.2267 27.4016C88.1439 27.2032 88.1025 26.99 88.1051 26.7751ZM91.0807 23.8351H88.5405L88.1803 15.1548H91.4403L91.0807 23.8351Z" fill="#AEC3FF"/>
<path d="M82.5168 48.8648C81.9863 49.8536 81.3598 50.7878 80.6464 51.6539C79.9364 52.5017 79.2098 53.1459 78.5964 53.3641H78.5917C78.5593 53.3751 78.528 53.3855 78.4961 53.3939C78.4946 53.3944 78.493 53.3944 78.4914 53.3939C78.376 53.4284 78.2558 53.4439 78.1354 53.4398C76.1225 53.349 74.001 49.0313 74.001 49.0313C74.001 49.0313 74.0563 48.5197 74.4478 48.1579C74.7892 47.8447 75.0518 47.7601 75.0518 47.7601C75.0518 47.7601 77.2198 49.9866 77.7496 50.1469C78.0827 50.2471 78.5207 48.6925 79.1482 46.7401C79.7756 44.7877 81.9807 44.3064 81.9807 44.3064C81.9807 44.3064 84.2118 45.7248 82.5168 48.8648Z" fill="#AEC3FF"/>
<path d="M80.6469 51.654C79.9369 52.5018 79.2103 53.146 78.5969 53.3642H78.5922L78.4967 53.394H78.4915C78.5139 53.3794 79.1701 53.039 79.2745 52.4068C79.3789 51.7616 78.6966 51.2333 80.4136 50.2346C81.4127 49.6557 80.6469 51.654 80.6469 51.654Z" fill="#94B0ED"/>
<path d="M79.0756 81.2681H83.7932C84.1309 81.0389 83.7018 78.7979 83.7018 78.7979C83.7018 78.7979 82.4145 78.3093 82.1921 79.3027C81.9697 80.2961 80.5519 80.6114 79.8022 80.7325C79.2891 80.816 79.1267 81.0979 79.0756 81.2681Z" fill="#24406D"/>
<path d="M86.2697 58.0389C86.2697 58.0389 86.1209 60.791 85.9345 63.9801C85.8009 66.2666 85.6484 68.7781 85.5169 70.6589C85.4997 70.9085 85.4824 71.147 85.4647 71.3726C85.46 71.4425 85.4548 71.5119 85.4496 71.5814C85.1118 75.7988 83.9821 79.4938 83.9821 79.4938C82.6562 79.773 82.0569 79.262 82.0569 79.262C82.0569 79.262 81.1428 68.551 80.804 64.2312C80.555 61.0515 80.3425 56.4216 80.3425 56.4216L86.2697 58.0389Z" fill="#FF9E55"/>
<path d="M85.9345 63.98C85.8009 66.2665 85.6484 68.778 85.5169 70.6589C84.6498 68.6136 82.8781 60.6411 82.8781 60.6411L85.9345 63.98Z" fill="#ED7D2B"/>
<path d="M86.0719 81.2681H90.79C91.1277 81.0389 90.6986 78.7979 90.6986 78.7979C90.6986 78.7979 89.4108 78.3093 89.1884 79.3027C88.966 80.2961 87.5487 80.6114 86.7986 80.7325C86.2854 80.816 86.1236 81.0979 86.0719 81.2681Z" fill="#24406D"/>
<path d="M81.6262 57.4918C81.6262 57.4918 84.9949 65.8777 86.0718 69.0563C86.8392 71.3204 89.0025 79.2636 89.0025 79.2636C89.0025 79.2636 89.9421 79.5501 90.7341 78.9968C90.7341 78.9968 91.539 70.8813 89.9134 68.5933C89.0505 67.3791 89.6989 55.9727 86.2013 55.8751C82.7037 55.7775 81.6262 57.4918 81.6262 57.4918Z" fill="#FF9E55"/>
<path d="M88.5242 54.7945C88.5101 55.9868 88.4971 56.8622 88.5002 57.0836C88.5096 57.805 88.0481 57.9679 87.5726 58.078C87.5726 58.078 87.1335 58.1725 86.5807 58.2665C86.0378 58.3573 85.3801 58.4471 84.9201 58.444C83.4445 58.421 81.9804 58.18 80.5753 57.7288C80.13 57.7288 79.9275 57.0408 79.8544 56.0792C79.8048 55.4287 80.0058 48.9404 80.0308 47.3206C80.0481 46.1585 80.686 45.0847 80.8661 44.9276C82.5178 43.4659 87.3914 43.6512 88.2689 44.6587C88.4861 44.9077 88.5493 47.3096 88.5566 49.9412C88.5581 51.6351 88.5409 53.4236 88.5242 54.7945Z" fill="#AEC3FF"/>
<path d="M85.5967 44.0804C84.9745 44.7548 82.8822 44.6546 82.9464 44.0663C82.9547 43.9937 82.9683 43.563 82.9756 43.4962C82.9808 43.444 82.9861 43.3918 82.9902 43.3396C83.0043 43.1945 83.0158 43.0661 83.0252 42.9554C83.0534 42.6328 83.0623 42.4579 83.0623 42.4579C83.1218 42.4407 84.466 42.0591 85.1342 41.9009C85.3587 41.8487 85.5075 41.82 85.5048 41.8398C85.3028 43.3422 85.8019 43.859 85.5967 44.0804Z" fill="#FFB27D"/>
<path d="M85.2084 42.3453C85.2084 42.3453 84.6472 42.9153 83.0264 42.9566C83.0546 42.634 83.0634 42.4591 83.0634 42.4591C83.1229 42.4419 84.4671 42.0603 85.1353 41.9021C85.2554 41.9506 85.0993 42.2644 85.2084 42.3453Z" fill="#ED975D"/>
<path d="M82.6526 42.379C82.9562 42.4808 83.2687 42.5535 83.586 42.5962C84.3507 42.7006 85.3572 42.639 85.6741 41.7129C86.2065 40.1552 86.8862 39.2207 85.3196 38.5849C84.4812 38.244 83.9446 38.2263 83.5802 38.3563C83.2639 38.468 83.077 38.6924 82.9361 38.9138C82.6307 39.3909 82.0189 42.106 82.6526 42.379Z" fill="#FFB27D"/>
<path d="M83.053 37.7085C82.4934 38.0739 82.6761 38.9368 83.3354 39.0532C83.7306 39.1226 84.0621 39.1362 84.2537 39.2218C84.6431 39.3946 84.9782 39.5784 84.8858 40.1824C84.855 40.388 84.7548 40.6386 85.2836 40.5144C85.3467 40.493 85.4156 40.4971 85.4757 40.5258C85.695 40.6558 85.4146 41.287 85.3301 41.4237C85.3301 41.4237 85.2084 41.8758 85.4788 42.0956C85.5112 42.1222 86.0421 42.3566 87.3211 40.3969C87.522 40.09 87.7136 39.3977 87.4035 38.7311C87.0935 38.0645 86.2285 37.2219 84.5992 37.2219C84.1748 37.2219 83.5374 37.39 83.053 37.7085Z" fill="#233862"/>
<path d="M88.5243 54.7944C88.2863 55.9006 88.3468 55.9121 87.9819 55.6219C86.4941 54.4395 86.929 53.8198 87.2594 52.7951C87.5899 51.7703 86.4299 50.1677 87.2594 49.4843C88.0712 48.8167 88.5332 49.8931 88.5535 49.9411C88.5582 51.6351 88.541 53.4236 88.5243 54.7944Z" fill="#94B0ED"/>
<path d="M88.4877 54.6514C88.4877 54.6514 87.9271 55.5686 87.5596 55.5388C87.1921 55.5091 86.6956 55.3692 86.4111 55.6432C86.1266 55.9173 85.663 56.6215 85.7919 56.8095C85.9209 56.9974 86.4398 56.8309 86.812 56.6252C87.1842 56.4195 87.772 56.7265 88.0847 56.4926C88.3974 56.2587 89.1466 55.33 89.1466 55.33L88.4877 54.6514Z" fill="#FFB27D"/>
<path d="M88.2659 44.6587C88.2659 44.6587 92.9198 49.0375 92.3158 51.9509C92.0402 53.2784 91.1856 54.3982 88.9085 56.2112C88.9085 56.2112 87.831 55.4668 87.5945 54.8623C87.5945 54.8623 89.6618 51.9509 89.5819 51.455C89.4838 50.8484 88.0727 49.3267 87.5669 49.0902C87.061 48.8537 87.107 45.1666 88.2659 44.6587Z" fill="#AEC3FF"/>
<path d="M87.5596 55.5389C87.5596 55.5389 87.0689 55.3243 86.9112 55.2324C86.7536 55.1405 86.7886 55.2893 86.8371 55.3635C86.8857 55.4376 87.0167 55.6047 87.2093 55.6245C87.332 55.6317 87.4541 55.6019 87.5596 55.5389Z" fill="#FFB27D"/>
<path d="M5.72648 46.0209C5.55839 45.6962 9.39739 44.5279 9.45846 47.7305C9.45846 47.7305 16.6499 47.5535 13.2171 43.5449C12.0284 42.1573 12.1506 41.0099 12.1866 39.9429C12.2226 38.8759 11.4458 35.7703 8.784 36.083C8.784 36.083 8.0871 35.799 7.21792 36.2506C5.23734 37.2758 0.805321 47.2017 5.72648 46.0209Z" fill="#163560"/>
<path d="M17.484 48.9613C17.484 48.9613 17.9538 48.2487 18.3297 48.2346C18.7055 48.2205 19.4056 48.0258 19.3497 48.1647C19.2939 48.3035 18.8606 48.3213 18.8188 48.4022C18.7771 48.4831 19.4614 48.611 19.6572 48.6262C19.853 48.6413 20.3139 48.6262 20.2998 48.7238C20.2857 48.8214 19.4687 49.227 18.8903 49.1712C18.3119 49.1153 17.6009 49.3387 17.6009 49.3387L17.484 48.9613Z" fill="#FFB27D"/>
<path d="M10.7139 49.191C10.9188 49.5732 11.1585 49.9356 11.4301 50.2737C11.9866 50.9706 12.8443 51.7751 13.9212 51.9343C14.4354 52.01 14.9386 51.8993 15.4006 51.6941C16.7057 51.1136 17.6918 49.7783 17.6918 49.7783C17.9225 49.1493 17.5451 48.7233 17.5451 48.7233C17.5451 48.7233 14.9042 49.3173 14.6526 49.1931C14.4009 49.0689 12.8547 45.6365 12.5759 45.0649C11.984 43.8507 11.0443 43.502 11.0443 43.502L10.7139 49.191Z" fill="#AEC3FF"/>
<path d="M11.4301 50.2737C11.9866 50.9706 12.8443 51.7751 13.9213 51.9343C14.4355 52.01 14.9387 51.8993 15.4007 51.6942C15.3485 51.7004 14.0434 51.8623 13.5214 50.9304C12.99 49.9803 12.4157 48.4712 11.627 48.9744C11.2882 49.1916 11.3033 49.7308 11.4301 50.2737Z" fill="#94B0ED"/>
<path d="M0.861214 77.699C0.861214 77.699 0.0551995 78.4346 0.212331 78.9571C0.369462 79.4797 1.09665 79.8284 1.19531 80.4668C1.29398 81.1053 1.68655 81.454 2.04048 81.454H3.72716C3.72716 81.454 3.98818 81.0045 3.35861 80.8688C2.72904 80.733 2.49256 79.9813 2.53171 79.2865C2.57086 78.5917 2.47272 77.6604 2.47272 77.6604L1.13633 77.3508L0.861214 77.699Z" fill="#1D3356"/>
<path d="M7.68196 78.0117C7.68196 78.0117 7.39171 81.1272 7.74565 81.3005L12.2737 81.2916C12.2737 81.2916 12.2737 80.7696 11.546 80.6527C10.8183 80.5357 9.54143 80.1108 9.32531 79.1623C9.10919 78.2137 7.68196 78.0117 7.68196 78.0117Z" fill="#1D3356"/>
<path d="M4.19902 47.0894C4.15827 47.7864 4.15827 48.4852 4.19902 49.1822C4.24391 49.9392 5.00921 50.9524 5.11779 51.203C5.39029 51.8294 5.69724 51.9338 5.69724 51.9338L8.0756 52.517L8.91084 52.7216L11.5466 51.937C11.5466 51.937 12.7472 48.5856 12.2654 46.6995C11.7836 44.8134 11.0465 43.5026 11.0465 43.5026C11.0465 43.5026 9.25956 42.7978 6.09502 43.324L4.19902 47.0894Z" fill="#AEC3FF"/>
<path d="M4.8949 49.4912C4.93979 50.2476 5.00922 50.9528 5.1178 51.2029C5.3903 51.8293 5.69725 51.9337 5.69725 51.9337L8.07561 52.5168L9.10818 52.2135C9.10818 52.2135 5.6628 51.6915 6.04336 48.7253L4.8949 49.4912Z" fill="#F2CCAA"/>
<path d="M11.379 52.4429C11.379 52.4429 12.6841 56.5063 12.7681 57.8897C12.8522 59.2731 10.2728 77.542 10.1689 78.1794C10.0713 78.7802 9.32533 79.1629 9.32533 79.1629C9.32533 79.1629 8.98183 79.3654 8.49008 79.2271C7.81144 79.0355 7.59584 78.8058 7.59584 78.8058C7.59584 78.8058 6.57998 65.7765 7.2085 61.1221C7.59145 58.2441 7.80394 55.346 7.84485 52.4429H11.379Z" fill="#233862"/>
<path d="M5.84805 52.3218C5.84805 52.3218 3.85704 54.9935 3.6712 56.7997C3.48536 58.606 3.3799 64.9497 2.98473 66.7105C2.58955 68.4713 1.13623 71.8592 1.13623 77.351C1.13623 77.351 1.2871 77.6642 1.75327 77.8333C1.9313 77.8935 2.11255 77.9437 2.29617 77.9837C2.48309 78.0264 2.67893 78.0049 2.85214 77.9227C3.02535 77.8405 3.16584 77.7024 3.25097 77.5306C4.23342 75.5526 7.36298 69.1729 7.52324 67.849C7.63704 66.9094 8.62472 60.7092 10.7802 57.0702C11.2975 56.1963 10.4628 52.7217 10.4628 52.7217L5.84805 52.3218Z" fill="#2B478B"/>
<path d="M11.5873 51.8159C11.5873 51.8159 11.0653 52.2304 10.0212 52.2513C8.77775 52.2763 5.69674 51.9344 5.69674 51.9344C5.61172 52.1879 5.56732 52.4532 5.56519 52.7206C5.56519 52.7206 9.3285 53.6702 11.509 52.8595C11.5101 52.8595 11.7914 52.3301 11.5873 51.8159Z" fill="#233862"/>
<path d="M9.75342 52.6804C9.75342 52.3265 10.0076 52.0383 10.3209 52.0383C10.6341 52.0383 10.8883 52.3265 10.8883 52.6804C10.8883 53.0344 10.6336 53.3231 10.3203 53.3231C10.0071 53.3231 9.75342 53.0333 9.75342 52.6804ZM9.94135 52.6804C9.94135 52.931 10.1115 53.1346 10.3209 53.1346C10.5302 53.1346 10.7004 52.931 10.7004 52.6804C10.7004 52.4299 10.5302 52.2263 10.3209 52.2263C10.1115 52.2263 9.94135 52.4304 9.94135 52.6804Z" fill="white"/>
<path d="M2.04603 52.8989L5.10199 55.5613C5.20813 55.6535 5.34656 55.6998 5.48684 55.6901C5.62712 55.6803 5.75776 55.6152 5.85006 55.5091L9.7491 51.0311C9.79484 50.9786 9.82978 50.9176 9.85191 50.8515C9.87404 50.7855 9.88294 50.7157 9.87809 50.6463C9.87324 50.5768 9.85474 50.5089 9.82365 50.4466C9.79256 50.3843 9.74949 50.3287 9.6969 50.2831L6.64094 47.6207C6.58846 47.575 6.52747 47.5401 6.46148 47.5179C6.39548 47.4958 6.32577 47.4869 6.25634 47.4918C6.1869 47.4966 6.1191 47.5151 6.05682 47.5462C5.99454 47.5773 5.93901 47.6203 5.89339 47.6729L1.99383 52.1509C1.90159 52.257 1.85527 52.3954 1.86506 52.5357C1.87485 52.676 1.93994 52.8066 2.04603 52.8989Z" fill="#F78248"/>
<path d="M6.56687 52.5635C6.61073 52.575 8.1904 52.7608 8.19092 53.0855C8.19092 53.4629 7.72787 53.9687 7.29093 53.9447C7.11449 53.9353 6.29907 53.1857 6.29907 53.1857L6.56687 52.5635Z" fill="#FFB27D"/>
<path d="M7.37862 43.1486C7.5582 42.7127 7.66312 42.0487 7.65999 41.2271L7.77954 41.2505L9.78622 41.6478C9.78622 41.6478 9.7408 42.2795 9.73923 42.8746V42.8892C9.73923 43.406 10.0885 43.9244 9.25949 44.1295C9.00317 44.1927 7.00067 44.0643 7.37862 43.1486Z" fill="#FFB27D"/>
<path d="M9.78623 41.6478C9.78623 41.6478 9.74081 42.2794 9.73925 42.8745C8.61636 42.8427 8.02281 41.8185 7.77954 41.2505L9.78623 41.6478Z" fill="#E8945B"/>
<path d="M10.1637 42.211C10.1637 42.211 7.50658 42.2548 7.50449 40.6C7.50241 38.9452 7.15891 37.8332 8.85497 37.7377C10.551 37.6422 10.8815 38.2712 11.0167 38.8235C11.1519 39.3758 10.8522 42.1572 10.1637 42.211Z" fill="#FFB27D"/>
<path d="M10.0629 37.6977C10.0629 37.6977 9.33568 39.6391 8.21907 39.9262C7.10245 40.2133 6.61853 39.9142 6.61853 39.9142C6.61853 39.9142 7.47466 39.2356 7.65267 38.0464C7.65267 38.0464 9.51422 36.7731 10.0629 37.6977Z" fill="#163560"/>
<path d="M9.88281 37.8552C9.88281 37.8552 10.4221 38.0567 10.6445 38.4503C10.9123 38.9098 11.0373 39.4386 11.0036 39.9694C11.0036 39.9694 11.5518 38.6497 10.9358 37.9032C10.2822 37.1113 9.88281 37.8552 9.88281 37.8552Z" fill="#163560"/>
<path d="M6.56689 52.5633C6.56689 52.5633 6.94589 52.4417 7.19907 52.4772C7.45226 52.5127 7.63914 52.472 7.63914 52.543C7.63914 52.614 7.31235 52.6474 7.24292 52.6808C7.17349 52.7142 6.56689 52.5633 6.56689 52.5633Z" fill="#FFB27D"/>
<path d="M6.09508 43.3235C6.09508 43.3235 4.20898 43.4561 3.48493 45.2132C2.76087 46.9704 1.39368 49.9199 1.39368 50.4163C1.39368 50.9128 2.16002 52.4428 6.27518 53.323C6.27518 53.323 6.70063 52.8751 6.67505 52.5211C6.67505 52.5211 4.10615 50.3145 4.11293 50.0566C4.12598 49.5691 4.53421 48.9249 6.78938 46.6687C7.40015 46.0553 6.09508 43.3235 6.09508 43.3235Z" fill="#AEC3FF"/>
<path d="M58.8048 28.3455H38.4227C37.9299 28.3455 37.4573 28.5412 37.1087 28.8894L22.6966 43.3016C22.5239 43.4742 22.387 43.6791 22.2936 43.9046C22.2001 44.1302 22.1521 44.3719 22.1521 44.616V64.9976C22.1521 65.4906 22.348 65.9634 22.6966 66.3121L37.1087 80.7237C37.2813 80.8963 37.4861 81.0332 37.7115 81.1266C37.937 81.2201 38.1786 81.2682 38.4227 81.2682H58.8048C59.0488 81.2682 59.2905 81.2201 59.5159 81.1267C59.7414 81.0333 59.9462 80.8963 60.1187 80.7237L74.5298 66.3121C74.8785 65.9634 75.0743 65.4906 75.0743 64.9976V44.616C75.0743 44.3719 75.0263 44.1302 74.9328 43.9046C74.8394 43.6791 74.7025 43.4742 74.5298 43.3016L60.1187 28.8894C59.7702 28.5411 59.2976 28.3454 58.8048 28.3455Z" fill="#F78248"/>
<path d="M57.3707 78.6188H39.8566C39.5057 78.6196 39.1581 78.5508 38.8339 78.4164C38.5097 78.282 38.2154 78.0847 37.9679 77.8358L25.5838 65.4522C25.3349 65.2048 25.1375 64.9105 25.0031 64.5863C24.8687 64.2621 24.7999 63.9145 24.8008 63.5635V46.0495C24.8 45.6985 24.8688 45.3509 25.0033 45.0268C25.1377 44.7026 25.335 44.4082 25.5838 44.1608L37.9679 31.7767C38.2154 31.5278 38.5097 31.3305 38.8339 31.1961C39.1581 31.0617 39.5057 30.9929 39.8566 30.9937H57.3707C57.7217 30.9928 58.0693 31.0616 58.3935 31.196C58.7177 31.3304 59.012 31.5278 59.2594 31.7767L71.6435 44.1613C71.8925 44.4086 72.0899 44.7028 72.2243 45.0269C72.3587 45.351 72.4274 45.6986 72.4265 46.0495V63.5635C72.4275 63.9145 72.3588 64.2622 72.2243 64.5864C72.0899 64.9106 71.8925 65.2049 71.6435 65.4522L59.2594 77.8363C59.012 78.0852 58.7177 78.2826 58.3935 78.4169C58.0693 78.5512 57.7216 78.6199 57.3707 78.6188ZM39.8566 32.8103C39.7443 32.8101 39.6331 32.8322 39.5293 32.8752C39.4256 32.9182 39.3314 32.9813 39.2521 33.0609L26.8685 45.4455C26.7889 45.5246 26.7258 45.6187 26.6828 45.7224C26.6398 45.8261 26.6177 45.9372 26.618 46.0495V63.5635C26.6177 63.6759 26.6397 63.7871 26.6827 63.8909C26.7257 63.9947 26.7889 64.0889 26.8685 64.1681L39.2526 76.5527C39.3319 76.6322 39.4261 76.6953 39.5299 76.7382C39.6336 76.7811 39.7449 76.803 39.8572 76.8027H57.3712C57.4835 76.803 57.5947 76.7811 57.6985 76.7382C57.8023 76.6953 57.8965 76.6322 57.9757 76.5527L70.3598 64.1681C70.4396 64.0889 70.5028 63.9947 70.5458 63.891C70.5888 63.7872 70.6108 63.6759 70.6104 63.5635V46.0495C70.6108 45.9372 70.5888 45.826 70.5458 45.7223C70.5028 45.6186 70.4395 45.5245 70.3598 45.4455L57.9752 33.0609C57.896 32.9813 57.8018 32.9181 57.698 32.8751C57.5943 32.8321 57.483 32.8101 57.3707 32.8103H39.8566Z" fill="#FFE5D4"/>
<path d="M62.7393 55.4731L62.3828 55.1641C61.9498 54.7915 61.387 54.6054 60.8173 54.6464C60.2475 54.6873 59.7171 54.9521 59.342 55.3828L57.3264 57.7105C57.263 57.7843 57.1784 57.8369 57.0842 57.861C56.9899 57.8852 56.8905 57.8798 56.7994 57.8456C56.7083 57.8115 56.6299 57.7502 56.5747 57.67C56.5196 57.5898 56.4904 57.4946 56.4912 57.3973C56.4909 57.2149 56.4812 57.0327 56.4619 56.8513V42.1995C56.4606 41.7358 56.2758 41.2916 55.9479 40.9637C55.62 40.6358 55.1758 40.451 54.7121 40.4497H54.5826C54.1189 40.4509 53.6746 40.6357 53.3467 40.9636C53.0188 41.2914 52.834 41.7358 52.8328 42.1995V51.7365C52.8328 51.8472 52.7888 51.9534 52.7105 52.0318C52.6321 52.1101 52.5259 52.1541 52.4152 52.1541C52.2925 52.1541 52.1748 52.1053 52.0881 52.0186C52.0014 51.9319 51.9526 51.8142 51.9526 51.6916V40.3515C51.9513 39.9034 51.7726 39.474 51.4557 39.1571C51.1388 38.8402 50.7094 38.6615 50.2613 38.6602H50.0154C49.5672 38.6615 49.1378 38.8402 48.8209 39.1571C48.504 39.474 48.3254 39.9034 48.324 40.3515V51.7678C48.324 51.8706 48.2832 51.9693 48.2104 52.042C48.1377 52.1148 48.039 52.1556 47.9362 52.1556C47.8713 52.1557 47.807 52.143 47.7471 52.1182C47.6871 52.0934 47.6327 52.057 47.5868 52.0112C47.5409 51.9653 47.5046 51.9108 47.4798 51.8509C47.455 51.7909 47.4422 51.7267 47.4423 51.6618V42.5613C47.4411 42.0976 47.2563 41.6532 46.9284 41.3253C46.6005 40.9974 46.1562 40.8127 45.6925 40.8114H45.563C45.0993 40.8128 44.6551 40.9976 44.3272 41.3255C43.9993 41.6533 43.8145 42.0976 43.8132 42.5613V51.7359C43.8132 51.8467 43.7692 51.9529 43.6909 52.0312C43.6125 52.1096 43.5063 52.1536 43.3955 52.1536C43.3349 52.1536 43.2749 52.1416 43.2188 52.1184C43.1628 52.0952 43.1119 52.0611 43.0691 52.0182C43.0262 51.9753 42.9922 51.9244 42.9691 51.8683C42.9459 51.8123 42.934 51.7522 42.9341 51.6916V44.5137C42.9326 44.05 42.7477 43.6058 42.4199 43.278C42.0921 42.9502 41.6479 42.7653 41.1842 42.7638H41.0548C40.5911 42.7652 40.1468 42.95 39.819 43.2779C39.4911 43.6057 39.3063 44.05 39.3049 44.5137V57.117C39.3049 57.152 39.3049 57.1864 39.3086 57.2214C39.3086 57.2799 39.3049 57.3389 39.3049 57.3979V64.3351C39.3049 67.154 41.6118 69.4614 44.4313 69.4614H51.3685C52.2272 69.4597 53.0718 69.2427 53.825 68.8301C54.5781 68.4175 55.2157 67.8226 55.6794 67.0998C55.9532 66.67 56.2569 66.2601 56.5883 65.873L62.9607 58.5124C63.3326 58.0792 63.5181 57.5165 63.4766 56.9471C63.4351 56.3777 63.1701 55.8478 62.7393 55.4731Z" fill="#FFE5D4"/>
</svg>
