<svg width="12" height="8" viewBox="0 0 12 8" fill="none" xmlns="http://www.w3.org/2000/svg">
<path d="M10.996 4.18401C10.9954 4.13897 10.9873 4.09435 10.972 4.05201L10.372 2.55601C10.2833 2.33337 10.13 2.14237 9.93179 2.00763C9.7336 1.87289 9.4996 1.80058 9.25995 1.80001H6.99995V0.600012C6.99995 0.493926 6.95781 0.392184 6.88279 0.31717C6.80778 0.242155 6.70604 0.200012 6.59995 0.200012H0.599951C0.493865 0.200012 0.392123 0.242155 0.317108 0.31717C0.242094 0.392184 0.199951 0.493926 0.199951 0.600012V6.60001C0.199951 6.7061 0.242094 6.80784 0.317108 6.88286C0.392123 6.95787 0.493865 7.00001 0.599951 7.00001H1.87195C1.95603 7.23167 2.1094 7.43183 2.31122 7.57328C2.51303 7.71472 2.7535 7.7906 2.99995 7.7906C3.2464 7.7906 3.48687 7.71472 3.68869 7.57328C3.8905 7.43183 4.04387 7.23167 4.12795 7.00001H7.47195C7.55603 7.23167 7.7094 7.43183 7.91122 7.57328C8.11303 7.71472 8.3535 7.7906 8.59995 7.7906C8.8464 7.7906 9.08687 7.71472 9.28868 7.57328C9.4905 7.43183 9.64387 7.23167 9.72795 7.00001H10.6C10.706 7.00001 10.8078 6.95787 10.8828 6.88286C10.9578 6.80784 11 6.7061 11 6.60001V4.20001C11 4.20001 10.996 4.19201 10.996 4.18401ZM9.25995 2.58401C9.33938 2.58473 9.4168 2.60908 9.48233 2.65396C9.54787 2.69884 9.59856 2.76222 9.62795 2.83601L9.99995 3.80001H6.99995V2.60001L9.25995 2.58401ZM0.999951 1.00001H6.19995V6.20001H4.12795C4.04387 5.96835 3.8905 5.7682 3.68869 5.62675C3.48687 5.4853 3.2464 5.40942 2.99995 5.40942C2.7535 5.40942 2.51303 5.4853 2.31122 5.62675C2.1094 5.7682 1.95603 5.96835 1.87195 6.20001H0.999951V1.00001ZM2.99995 7.00001C2.92084 7.00001 2.8435 6.97655 2.77772 6.9326C2.71194 6.88865 2.66067 6.82618 2.6304 6.75309C2.60012 6.67999 2.5922 6.59957 2.60764 6.52198C2.62307 6.44438 2.66117 6.37311 2.71711 6.31717C2.77305 6.26123 2.84432 6.22313 2.92192 6.2077C2.99951 6.19226 3.07993 6.20019 3.15302 6.23046C3.22612 6.26074 3.28859 6.312 3.33254 6.37778C3.37649 6.44356 3.39995 6.5209 3.39995 6.60001C3.39995 6.7061 3.35781 6.80784 3.28279 6.88286C3.20778 6.95787 3.10604 7.00001 2.99995 7.00001ZM8.59995 7.00001C8.52084 7.00001 8.4435 6.97655 8.37772 6.9326C8.31194 6.88865 8.26067 6.82618 8.2304 6.75309C8.20012 6.67999 8.1922 6.59957 8.20764 6.52198C8.22307 6.44438 8.26117 6.37311 8.31711 6.31717C8.37305 6.26123 8.44432 6.22313 8.52191 6.2077C8.59951 6.19226 8.67993 6.20019 8.75302 6.23046C8.82611 6.26074 8.88859 6.312 8.93254 6.37778C8.97649 6.44356 8.99995 6.5209 8.99995 6.60001C8.99995 6.7061 8.95781 6.80784 8.88279 6.88286C8.80778 6.95787 8.70604 7.00001 8.59995 7.00001ZM10.2 6.20001H9.72795C9.64387 5.96835 9.4905 5.7682 9.28868 5.62675C9.08687 5.4853 8.8464 5.40942 8.59995 5.40942C8.3535 5.40942 8.11303 5.4853 7.91122 5.62675C7.7094 5.7682 7.55603 5.96835 7.47195 6.20001H6.99995V4.60001H10.2V6.20001Z" fill="white"/>
</svg>
