<svg width="14" height="17" viewBox="0 0 14 17" fill="none" xmlns="http://www.w3.org/2000/svg">
<path d="M4.2734 6.8477H5.09201C5.30912 6.8477 5.51734 6.76145 5.67086 6.60794C5.82438 6.45442 5.91062 6.2462 5.91062 6.02909C5.91062 5.81198 5.82438 5.60377 5.67086 5.45025C5.51734 5.29673 5.30912 5.21048 5.09201 5.21048H4.2734C4.0563 5.21048 3.84808 5.29673 3.69456 5.45025C3.54104 5.60377 3.4548 5.81198 3.4548 6.02909C3.4548 6.2462 3.54104 6.45442 3.69456 6.60794C3.84808 6.76145 4.0563 6.8477 4.2734 6.8477ZM4.2734 8.48492C4.0563 8.48492 3.84808 8.57117 3.69456 8.72468C3.54104 8.8782 3.4548 9.08642 3.4548 9.30353C3.4548 9.52064 3.54104 9.72885 3.69456 9.88237C3.84808 10.0359 4.0563 10.1221 4.2734 10.1221H9.18506C9.40217 10.1221 9.61038 10.0359 9.7639 9.88237C9.91742 9.72885 10.0037 9.52064 10.0037 9.30353C10.0037 9.08642 9.91742 8.8782 9.7639 8.72468C9.61038 8.57117 9.40217 8.48492 9.18506 8.48492H4.2734ZM13.2781 5.97997C13.2696 5.90477 13.2531 5.83069 13.229 5.75895V5.68528C13.1896 5.60111 13.1371 5.52374 13.0735 5.45607L8.1618 0.544411C8.09413 0.480736 8.01676 0.428235 7.93259 0.388875C7.90815 0.385404 7.88335 0.385404 7.85891 0.388875C7.77575 0.341184 7.68391 0.31057 7.58877 0.298828H2.63619C1.98486 0.298828 1.36021 0.557566 0.899654 1.01812C0.439097 1.47868 0.180359 2.10333 0.180359 2.75466V14.2152C0.180359 14.8665 0.439097 15.4912 0.899654 15.9517C1.36021 16.4123 1.98486 16.671 2.63619 16.671H10.8223C11.4736 16.671 12.0983 16.4123 12.5588 15.9517C13.0194 15.4912 13.2781 14.8665 13.2781 14.2152V6.02909C13.2781 6.02909 13.2781 6.02909 13.2781 5.97997ZM8.36645 3.09028L10.4866 5.21048H9.18506C8.96795 5.21048 8.75973 5.12424 8.60621 4.97072C8.4527 4.8172 8.36645 4.60898 8.36645 4.39187V3.09028ZM11.6409 14.2152C11.6409 14.4323 11.5546 14.6405 11.4011 14.794C11.2476 14.9475 11.0394 15.0338 10.8223 15.0338H2.63619C2.41908 15.0338 2.21086 14.9475 2.05734 14.794C1.90382 14.6405 1.81758 14.4323 1.81758 14.2152V2.75466C1.81758 2.53755 1.90382 2.32933 2.05734 2.17581C2.21086 2.02229 2.41908 1.93605 2.63619 1.93605H6.72923V4.39187C6.72923 5.0432 6.98797 5.66785 7.44853 6.12841C7.90908 6.58896 8.53373 6.8477 9.18506 6.8477H11.6409V14.2152ZM9.18506 11.7594H4.2734C4.0563 11.7594 3.84808 11.8456 3.69456 11.9991C3.54104 12.1526 3.4548 12.3609 3.4548 12.578C3.4548 12.7951 3.54104 13.0033 3.69456 13.1568C3.84808 13.3103 4.0563 13.3966 4.2734 13.3966H9.18506C9.40217 13.3966 9.61038 13.3103 9.7639 13.1568C9.91742 13.0033 10.0037 12.7951 10.0037 12.578C10.0037 12.3609 9.91742 12.1526 9.7639 11.9991C9.61038 11.8456 9.40217 11.7594 9.18506 11.7594Z" fill="#F94892"/>
</svg>
