<svg width="279" height="240" viewBox="0 0 279 240" fill="none" xmlns="http://www.w3.org/2000/svg">
<path d="M278.336 219.501H255.141V219.677H278.336V219.501Z" fill="#EBEBEB"/>
<path d="M195.221 221.406H189.136V221.582H195.221V221.406Z" fill="#EBEBEB"/>
<path d="M254.441 213.003H241.002V213.178H254.441V213.003Z" fill="#EBEBEB"/>
<path d="M30.2469 214.179H0V214.354H30.2469V214.179Z" fill="#EBEBEB"/>
<path d="M40.9197 214.179H36.4866V214.354H40.9197V214.179Z" fill="#EBEBEB"/>
<path d="M120.938 217.135H55.3323V217.31H120.938V217.135Z" fill="#EBEBEB"/>
<path d="M116.246 140.631H27.7116V146.878H116.246V140.631Z" fill="#EBEBEB"/>
<path d="M116.246 140.631H77.7495V146.878H116.246V140.631Z" fill="#E0E0E0"/>
<path d="M40.7936 146.878H27.7116V208.234H40.7936V146.878Z" fill="#EBEBEB"/>
<path d="M40.7936 153.209L27.7116 148.755V146.878H40.7936V153.209Z" fill="#E0E0E0"/>
<path d="M116.246 146.878H103.164V208.234H116.246V146.878Z" fill="#E0E0E0"/>
<path d="M90.8315 146.878H77.7495V208.234H90.8315V146.878Z" fill="#EBEBEB"/>
<path d="M90.8245 153.209L77.7495 148.755V146.878H90.8245V153.209Z" fill="#E0E0E0"/>
<path d="M66.2083 146.878H53.1263V208.234H66.2083V146.878Z" fill="#E0E0E0"/>
<path d="M124.566 1.47754H12.9839V96.4901H124.566V1.47754Z" fill="#EBEBEB"/>
<path d="M124.566 96.4834H125.813L125.813 1.47086H124.566L124.566 96.4834Z" fill="#E0E0E0"/>
<path d="M120.371 92.2813V5.67261L17.1928 5.67261V92.2813H120.371Z" fill="#F5F5F5"/>
<path d="M67.532 79.1362C73.8349 58.1266 75.5857 27.1374 88.9898 31.4094C102.394 35.6813 84.8369 81.5033 84.8369 81.5033L67.532 79.1362Z" fill="white"/>
<path d="M78.359 80.1797C71.944 49.7298 73.5618 9.30721 53.6306 10.2316C33.6995 11.1561 53.6306 81.5033 53.6306 81.5033L78.359 80.1797Z" fill="white"/>
<path d="M92.4425 76.7623H48.8054C47.915 76.7336 47.049 77.056 46.394 77.6599C45.739 78.2638 45.3475 79.1009 45.3038 79.9907C44.4144 100.09 47.7059 120.609 53.8338 140.632H87.2461C93.3739 120.574 96.6654 100.09 95.776 79.9907C95.7418 79.1273 95.3764 78.3102 94.7557 77.709C94.135 77.1078 93.3066 76.7688 92.4425 76.7623Z" fill="#EBEBEB"/>
<path d="M191.706 12.0735H189.248V208.233H191.706V12.0735Z" fill="#E0E0E0"/>
<path d="M249.475 12.0735H247.017V208.233H249.475V12.0735Z" fill="#E0E0E0"/>
<path d="M174.275 12.0735H171.817V208.233H174.275V12.0735Z" fill="#EBEBEB"/>
<path d="M232.044 12.0735H229.586V208.233H232.044V12.0735Z" fill="#EBEBEB"/>
<path d="M249.475 10.729H171.817V13.4112H249.475V10.729Z" fill="#EBEBEB"/>
<path d="M249.475 58.7639H171.817V61.4461H249.475V58.7639Z" fill="#EBEBEB"/>
<path d="M249.475 106.799H171.817V109.481H249.475V106.799Z" fill="#EBEBEB"/>
<path d="M249.475 154.834H171.817V157.516H249.475V154.834Z" fill="#EBEBEB"/>
<path d="M249.475 202.869H171.817V205.551H249.475V202.869Z" fill="#EBEBEB"/>
<path d="M249.475 10.729H232.044V13.4112H249.475V10.729Z" fill="#E0E0E0"/>
<path d="M249.475 58.7639H232.044V61.4461H249.475V58.7639Z" fill="#E0E0E0"/>
<path d="M249.475 106.799H232.044V109.481H249.475V106.799Z" fill="#E0E0E0"/>
<path d="M249.475 154.834H232.044V157.516H249.475V154.834Z" fill="#E0E0E0"/>
<path d="M249.475 202.869H232.044V205.551H249.475V202.869Z" fill="#E0E0E0"/>
<path d="M203.142 27.0676V23.2859H193.807V27.0676C193.807 28.2533 193.336 29.3905 192.499 30.2295C191.661 31.0685 190.524 31.5408 189.339 31.5427C188.153 31.5427 187.016 32.0132 186.177 32.8509C185.338 33.6886 184.866 34.8251 184.864 36.0107V58.7852H212.092V36.0107C212.09 34.8251 211.618 33.6886 210.779 32.8509C209.94 32.0132 208.803 31.5427 207.617 31.5427C206.43 31.5427 205.292 31.0712 204.453 30.232C203.614 29.3927 203.142 28.2545 203.142 27.0676Z" fill="#F0F0F0"/>
<path d="M222.464 91.1816H181.551V106.806H222.464V91.1816Z" fill="#F0F0F0"/>
<path d="M222.464 106.799H229.586V91.1747H222.464V106.799Z" fill="#E6E6E6"/>
<path d="M222.464 99.8518H229.586V98.129H222.464V99.8518Z" fill="#EBEBEB"/>
<path d="M222.464 98.1289H181.551V99.8517H222.464V98.1289Z" fill="#F5F5F5"/>
<path d="M211.504 175.248H179.548V202.869H211.504V175.248Z" fill="#F0F0F0"/>
<path d="M211.504 202.876H217.064V175.255H211.504V202.876Z" fill="#E6E6E6"/>
<path d="M211.504 190.585H217.064V187.539H211.504V190.585Z" fill="#EBEBEB"/>
<path d="M211.504 187.539H179.548V190.585H211.504V187.539Z" fill="#F5F5F5"/>
<path d="M211.504 185.403H217.064V184.318H211.504V185.403Z" fill="#EBEBEB"/>
<path d="M211.504 184.318H179.548V185.403H211.504V184.318Z" fill="#F5F5F5"/>
<path d="M187.336 126.751H181.551V154.834H187.336V126.751Z" fill="#F0F0F0"/>
<path d="M187.336 136.759H181.551V144.826H187.336V136.759Z" fill="#FAFAFA"/>
<path d="M187.336 154.841H207.015V126.758H187.336V154.841Z" fill="#E6E6E6"/>
<path d="M196.272 123.123H189.738V154.834H196.272V123.123Z" fill="#EBEBEB"/>
<path d="M196.272 133.201H189.738V138.082H196.272V133.201Z" fill="#FAFAFA"/>
<path d="M196.272 141.353H189.738V146.234H196.272V141.353Z" fill="#FAFAFA"/>
<path d="M196.279 154.834H218.5V123.123H196.279V154.834Z" fill="#E0E0E0"/>
<path d="M203.548 126.751H200.026V154.834H203.548V126.751Z" fill="#F0F0F0"/>
<path d="M202.939 130.309H200.628V151.276H202.939V130.309Z" fill="#FAFAFA"/>
<path d="M203.541 154.841H215.51V126.758H203.541V154.841Z" fill="#E6E6E6"/>
<path d="M212.954 125.273H208.976V154.834H212.954V125.273Z" fill="#EBEBEB"/>
<path d="M212.954 134.665H208.976V139.217H212.954V134.665Z" fill="#FAFAFA"/>
<path d="M212.954 142.27H208.976V146.822H212.954V142.27Z" fill="#FAFAFA"/>
<path d="M212.954 154.834H226.47V125.273H212.954V154.834Z" fill="#E0E0E0"/>
<path d="M211.145 88.6303C214.547 85.228 214.547 79.7119 211.145 76.3097C207.742 72.9074 202.226 72.9074 198.824 76.3097C195.422 79.7119 195.422 85.228 198.824 88.6303C202.226 92.0325 207.742 92.0325 211.145 88.6303Z" fill="#F5F5F5"/>
<path d="M215.595 91.0841C218.886 90.5499 221.121 87.449 220.586 84.1581C220.052 80.8671 216.951 78.6323 213.66 79.1665C210.369 79.7007 208.135 82.8016 208.669 86.0926C209.203 89.3835 212.304 91.6183 215.595 91.0841Z" fill="#EBEBEB"/>
<path d="M138.341 239.86C213.334 239.86 274.127 236.311 274.127 231.933C274.127 227.554 213.334 224.005 138.341 224.005C63.3493 224.005 2.5562 227.554 2.5562 231.933C2.5562 236.311 63.3493 239.86 138.341 239.86Z" fill="#F5F5F5"/>
<path d="M51.5786 177.623H141.528V224.061C141.528 224.656 141.411 225.245 141.183 225.795C140.955 226.345 140.621 226.844 140.201 227.265C139.78 227.686 139.28 228.019 138.731 228.247C138.181 228.475 137.592 228.592 136.997 228.592H56.1097C55.5146 228.592 54.9254 228.475 54.3757 228.247C53.826 228.019 53.3265 227.686 52.9057 227.265C52.485 226.844 52.1512 226.345 51.9235 225.795C51.6958 225.245 51.5786 224.656 51.5786 224.061V177.623Z" fill="#F94892"/>
<path d="M51.5786 177.623H115.231L107.401 167.601C106.54 166.501 104.411 165.612 102.639 165.612H45.3947C43.6299 165.612 42.8876 166.501 43.749 167.601L51.5786 177.623Z" fill="#F94892"/>
<path opacity="0.2" d="M51.5786 177.623H115.231L107.401 167.601C106.54 166.501 104.411 165.612 102.639 165.612H45.3947C43.6299 165.612 42.8876 166.501 43.749 167.601L51.5786 177.623Z" fill="black"/>
<path d="M141.528 177.623H77.8827L85.7123 171.089C86.5737 170.388 88.7026 169.793 90.4744 169.793H147.712C149.484 169.793 150.219 170.374 149.357 171.089L141.528 177.623Z" fill="#F94892"/>
<path opacity="0.2" d="M77.8827 177.623H141.528V224.061C141.528 224.656 141.411 225.245 141.183 225.795C140.955 226.345 140.621 226.844 140.201 227.265C139.78 227.686 139.28 228.019 138.731 228.247C138.181 228.475 137.592 228.592 136.997 228.592H82.4137C81.8187 228.592 81.2295 228.475 80.6798 228.247C80.13 228.019 79.6305 227.686 79.2098 227.265C78.789 226.844 78.4553 226.345 78.2276 225.795C77.9999 225.245 77.8827 224.656 77.8827 224.061V177.623Z" fill="white"/>
<path opacity="0.5" d="M59.4783 177.623V209.473L61.6773 207.736L63.225 209.473L64.5696 207.54L65.9493 209.473L67.8681 208.024L69.9831 209.473V177.623H59.4783Z" fill="white"/>
<path d="M73.7159 108.144L62.4057 98.6472" stroke="#F94892" stroke-miterlimit="10"/>
<path d="M79.5773 113.067L76.1317 110.167" stroke="#F94892" stroke-miterlimit="10"/>
<path d="M113.459 132.942L150.772 86.3076L101.091 44.5964L68.1763 82.3648L63.274 91.8121C63.0306 92.0803 62.8452 92.3958 62.7293 92.7389C62.6134 93.082 62.5695 93.4454 62.6004 93.8062C62.6313 94.1671 62.7363 94.5177 62.9088 94.8361C63.0814 95.1545 63.3177 95.4339 63.6032 95.6568L108.424 133.292C109.153 133.879 110.076 134.17 111.01 134.105C111.944 134.04 112.819 133.624 113.459 132.942Z" fill="#F94892"/>
<path opacity="0.5" d="M87.8692 98.5491L82.4977 107.198L84.6617 107.667L85.3971 109.67L86.8327 109.754L87.498 111.47L89.2558 111.981L90.6075 114.131L95.9789 105.482L87.8692 98.5491Z" fill="white"/>
<path opacity="0.1" d="M149.148 84.9419L115.686 122.269L68.1554 82.3648L101.091 44.5964L149.148 84.9419Z" fill="black"/>
<path d="M149.147 84.9421L115.686 122.269L129.538 123.292L162.482 85.5234L149.147 84.9421Z" fill="#F94892"/>
<path opacity="0.3" d="M149.147 84.9421L115.686 122.269L129.538 123.292L162.482 85.5234L149.147 84.9421Z" fill="black"/>
<path d="M87.7642 44.0081L54.2958 81.3422L68.1552 82.3647L101.091 44.5963L87.7642 44.0081Z" fill="#F94892"/>
<path opacity="0.4" d="M87.7642 44.0081L54.2958 81.3422L68.1552 82.3647L101.091 44.5963L87.7642 44.0081Z" fill="black"/>
<path opacity="0.1" d="M138.846 96.4342L149.148 84.9419L101.091 44.5964L94.9427 59.4152L138.846 96.4342Z" fill="black"/>
<path opacity="0.2" d="M68.1554 82.3648L101.091 44.5964L94.9427 59.4152L71.748 85.3831L68.1554 82.3648Z" fill="black"/>
<path d="M160.752 14.6647C160.885 15.1129 160.752 15.5541 160.457 15.6381C160.163 15.7222 159.82 15.428 159.687 14.9798C159.554 14.5316 159.687 14.0904 159.981 13.9994C160.275 13.9083 160.626 14.2165 160.752 14.6647Z" fill="#263238"/>
<path d="M160.801 15.5471C160.669 17.088 160.325 18.6034 159.778 20.0502C160.153 20.1801 160.551 20.2267 160.945 20.1867C161.34 20.1468 161.72 20.0214 162.061 19.8191L160.801 15.5471Z" fill="#ED847E"/>
<path d="M161.683 11.6743C161.743 11.6401 161.787 11.5853 161.809 11.5203C161.822 11.4863 161.828 11.45 161.827 11.4137C161.826 11.3773 161.817 11.3416 161.801 11.3088C161.785 11.2759 161.763 11.2467 161.735 11.2228C161.708 11.199 161.676 11.181 161.641 11.1701C161.231 11.0128 160.789 10.9568 160.352 11.0068C159.916 11.0567 159.498 11.2113 159.134 11.4572C159.087 11.5053 159.058 11.5688 159.054 11.6361C159.05 11.7034 159.07 11.77 159.111 11.8237C159.151 11.8773 159.21 11.9145 159.276 11.9282C159.342 11.9419 159.411 11.9314 159.47 11.8984C159.761 11.7076 160.093 11.589 160.439 11.5525C160.785 11.5159 161.135 11.5625 161.459 11.6883C161.495 11.7016 161.534 11.7072 161.573 11.7048C161.611 11.7024 161.649 11.692 161.683 11.6743Z" fill="#263238"/>
<path d="M176.327 17.6621C176.635 21.3738 177.552 28.1669 179.744 29.7356C179.744 29.7356 179.226 34.1967 171.34 35.3382C162.699 36.6128 166.578 31.6545 166.578 31.6545C171.123 29.8337 170.486 26.3531 169.184 23.1876L172.517 19.3639C173.799 17.9492 176.159 15.7642 176.327 17.6621Z" fill="#FFC3BD"/>
<path d="M182.567 31.5493C183.267 30.912 181.866 28.3629 181.005 28.0057C178.75 27.0603 169.527 28.0057 166.06 30.9821C165.773 31.4745 165.599 32.0251 165.552 32.5934C165.504 33.1617 165.585 33.7334 165.787 34.2666L182.567 31.5493Z" fill="white"/>
<path d="M211.938 218.745C211.71 218.849 211.464 218.906 211.214 218.914C210.964 218.921 210.715 218.878 210.482 218.787C210.389 218.714 210.322 218.615 210.288 218.502C210.254 218.389 210.256 218.269 210.292 218.157C210.311 218.066 210.35 217.979 210.405 217.904C210.461 217.829 210.532 217.767 210.615 217.723C211.371 217.282 213.241 217.863 213.318 217.891C213.343 217.898 213.367 217.912 213.384 217.932C213.401 217.952 213.413 217.977 213.416 218.003C213.42 218.031 213.415 218.059 213.402 218.084C213.39 218.109 213.37 218.129 213.346 218.143C212.898 218.391 212.427 218.593 211.938 218.745ZM210.916 217.891L210.755 217.961C210.707 217.987 210.665 218.023 210.633 218.066C210.6 218.11 210.577 218.16 210.566 218.213C210.517 218.465 210.615 218.542 210.643 218.563C210.979 218.801 212.12 218.458 212.912 218.059C212.267 217.857 211.585 217.799 210.916 217.891Z" fill="#F94892"/>
<path d="M213.318 218.15C213.295 218.157 213.271 218.157 213.248 218.15C212.548 218.01 211.084 217.134 211.007 216.476C210.996 216.373 211.021 216.268 211.079 216.181C211.136 216.094 211.222 216.03 211.322 216C211.419 215.957 211.524 215.934 211.63 215.934C211.736 215.934 211.841 215.957 211.938 216C212.751 216.336 213.381 217.905 213.402 217.968C213.416 217.989 213.423 218.013 213.423 218.038C213.423 218.063 213.416 218.087 213.402 218.108C213.392 218.121 213.379 218.132 213.365 218.139C213.35 218.146 213.334 218.15 213.318 218.15ZM211.497 216.238C211.476 216.232 211.455 216.232 211.434 216.238C211.273 216.308 211.28 216.392 211.287 216.427C211.329 216.819 212.323 217.527 213.031 217.786C212.821 217.331 212.33 216.448 211.833 216.238C211.725 216.197 211.605 216.197 211.497 216.238Z" fill="#F94892"/>
<path d="M170.892 226.267C170.143 226.267 169.422 226.162 169.176 225.825C169.114 225.738 169.08 225.632 169.08 225.524C169.08 225.416 169.114 225.311 169.176 225.223C169.223 225.142 169.286 225.071 169.36 225.015C169.435 224.958 169.52 224.917 169.611 224.894C170.584 224.635 172.629 225.797 172.713 225.846C172.739 225.859 172.76 225.88 172.774 225.905C172.787 225.931 172.792 225.96 172.787 225.988C172.782 226.017 172.768 226.043 172.747 226.063C172.726 226.083 172.7 226.095 172.671 226.099C172.084 226.208 171.489 226.264 170.892 226.267ZM169.968 225.132C169.878 225.129 169.788 225.14 169.702 225.167C169.59 225.192 169.492 225.26 169.429 225.356C169.331 225.531 169.366 225.615 169.429 225.664C169.702 226.043 171.179 226.05 172.23 225.896C171.532 225.497 170.764 225.238 169.968 225.132Z" fill="#F94892"/>
<path d="M172.657 226.106H172.601C171.901 225.791 170.5 224.523 170.605 223.865C170.605 223.711 170.745 223.515 171.123 223.48C171.26 223.464 171.399 223.478 171.53 223.518C171.662 223.559 171.783 223.627 171.887 223.718C172.636 224.327 172.79 225.903 172.797 225.966C172.801 225.99 172.798 226.015 172.788 226.037C172.778 226.059 172.762 226.078 172.741 226.092C172.715 226.105 172.686 226.11 172.657 226.106ZM171.256 223.739H171.172C170.92 223.739 170.906 223.865 170.899 223.893C170.836 224.292 171.789 225.293 172.503 225.721C172.442 225.052 172.173 224.42 171.733 223.914C171.601 223.798 171.432 223.735 171.256 223.739Z" fill="#F94892"/>
<path d="M179.086 225.966H173.238L172.657 212.436H178.505L179.086 225.966Z" fill="#FFC3BD"/>
<path d="M220.16 216.728L214.774 218.584L209.186 205.831L214.571 203.976L220.16 216.728Z" fill="#FFC3BD"/>
<path d="M213.493 217.247L219.796 215.321C219.907 215.287 220.027 215.292 220.135 215.335C220.244 215.378 220.334 215.457 220.391 215.559L223.017 220.181C223.08 220.294 223.117 220.42 223.125 220.549C223.133 220.678 223.111 220.808 223.062 220.927C223.013 221.047 222.937 221.154 222.841 221.241C222.745 221.328 222.63 221.391 222.506 221.428C220.3 222.065 219.201 222.261 216.441 223.108C214.739 223.627 210.453 225.251 208.037 225.735C205.621 226.218 204.844 223.907 205.782 223.494C209.984 221.638 211.707 219.53 212.709 217.891C212.883 217.588 213.162 217.359 213.493 217.247Z" fill="#263238"/>
<path d="M173.28 225.286H179.66C179.776 225.288 179.888 225.328 179.978 225.4C180.068 225.473 180.131 225.573 180.158 225.686L181.313 230.882C181.342 231.007 181.342 231.137 181.313 231.263C181.284 231.388 181.226 231.505 181.145 231.605C181.064 231.705 180.962 231.785 180.845 231.839C180.729 231.893 180.601 231.921 180.473 231.918C178.169 231.883 174.87 231.743 171.95 231.743C168.567 231.743 167.146 231.932 163.175 231.932C160.78 231.932 160.114 229.509 161.116 229.285C165.689 228.284 167.923 228.179 171.873 225.742C172.292 225.464 172.779 225.307 173.28 225.286Z" fill="#263238"/>
<path d="M190.263 33.4614C191.965 35.0231 193.436 36.5849 194.962 38.2166C196.489 39.8484 197.904 41.5361 199.276 43.336C200.71 45.1644 202.011 47.0929 203.17 49.1066C203.803 50.2165 204.351 51.3731 204.809 52.5662C204.928 52.8953 205.047 53.2105 205.145 53.5676C205.26 53.9289 205.356 54.2959 205.432 54.6671L205.551 55.2484L205.635 55.8927C205.714 56.4831 205.714 57.0812 205.635 57.6715C205.475 58.7859 205.063 59.8491 204.431 60.781C203.97 61.4615 203.429 62.0845 202.82 62.6368C201.841 63.5249 200.771 64.3067 199.627 64.9689C197.611 66.1217 195.503 67.1032 193.324 67.9032C189.189 69.4378 184.929 70.6095 180.592 71.4048L179.366 67.2029C183.169 65.5571 187.021 63.7783 190.571 61.8805C192.3 60.9738 193.963 59.9489 195.551 58.813C196.212 58.3434 196.82 57.8033 197.364 57.2023C197.53 57.0246 197.669 56.8242 197.778 56.607C197.834 56.488 197.778 56.502 197.708 56.7541C197.659 57.2233 197.666 56.8592 197.554 56.607C197.519 56.488 197.456 56.3269 197.392 56.1728C197.329 56.0188 197.252 55.8437 197.175 55.6756C196.796 54.9118 196.373 54.1706 195.908 53.4556C194.826 51.8497 193.657 50.3043 192.406 48.8265C191.118 47.2998 189.759 45.7801 188.365 44.2884C186.972 42.7967 185.508 41.291 184.163 39.9044L190.263 33.4614Z" fill="#FFC3BD"/>
<path d="M180.97 66.5376L175.458 68.2044L179.002 74.031C179.002 74.031 182.258 72.6864 182.98 69.9201L180.97 66.5376Z" fill="#FFC3BD"/>
<path d="M173.231 70.27L175.402 75.0743L178.967 74.0378L175.423 68.2041L173.231 70.27Z" fill="#FFC3BD"/>
<path d="M177.349 35.0441C176.824 40.6466 188.673 49.3166 188.673 49.3166L200.082 41.508C198.101 37.8544 195.205 34.7777 191.678 32.5789C185.137 28.391 178.008 28.0829 177.349 35.0441Z" fill="#F94892"/>
<g opacity="0.3">
<path opacity="0.3" d="M177.349 35.0441C176.824 40.6466 188.673 49.3166 188.673 49.3166L200.082 41.508C198.101 37.8544 195.205 34.7777 191.678 32.5789C185.137 28.391 178.008 28.0829 177.349 35.0441Z" fill="white"/>
</g>
<path d="M157.95 34.5959C157.95 34.5959 152.831 42.4535 164.989 84.5988L195.901 80.0327C195.467 75.7607 190.298 57.1252 190.123 36.7528C190.116 35.769 189.909 34.7969 189.516 33.895C189.123 32.9932 188.551 32.1803 187.835 31.5056C187.119 30.8308 186.274 30.3081 185.35 29.969C184.427 29.6299 183.444 29.4814 182.462 29.5325C181.565 29.5816 180.641 29.6446 179.723 29.7356C175.31 30.1291 170.924 30.7768 166.585 31.6755C163.636 32.4258 160.749 33.4022 157.95 34.5959Z" fill="#F94892"/>
<g opacity="0.3">
<path opacity="0.3" d="M157.95 34.5959C157.95 34.5959 152.831 42.4535 164.989 84.5988L195.901 80.0327C195.467 75.7607 190.298 57.1252 190.123 36.7528C190.116 35.769 189.909 34.7969 189.516 33.895C189.123 32.9932 188.551 32.1803 187.835 31.5056C187.119 30.8308 186.274 30.3081 185.35 29.969C184.427 29.6299 183.444 29.4814 182.462 29.5325C181.565 29.5816 180.641 29.6446 179.723 29.7356C175.31 30.1291 170.924 30.7768 166.585 31.6755C163.636 32.4258 160.749 33.4022 157.95 34.5959Z" fill="white"/>
</g>
<path opacity="0.2" d="M157.194 48.14L157.299 48.021L164.568 48.6653C165.675 53.3574 161.627 59.7584 159.491 62.7277C158.463 57.9102 157.696 53.0405 157.194 48.14Z" fill="black"/>
<path opacity="0.2" d="M172.657 212.442L172.958 219.418H178.806L178.505 212.442H172.657Z" fill="black"/>
<path opacity="0.2" d="M214.571 203.976L209.186 205.831L212.071 212.407L217.457 210.552L214.571 203.976Z" fill="black"/>
<path d="M175.563 9.28637C176.852 14.938 177.889 18.1805 175.921 21.8922C172.965 27.4177 165.36 26.8854 162.411 21.7311C159.757 17.0879 158.09 8.62807 162.881 4.81833C163.93 3.97547 165.178 3.41435 166.505 3.18805C167.832 2.96175 169.195 3.07775 170.465 3.52507C171.734 3.9724 172.869 4.73627 173.761 5.74441C174.654 6.75256 175.274 7.97165 175.563 9.28637Z" fill="#FFC3BD"/>
<path d="M164.211 14.826L162.061 16.1426L162.264 8.78919C160.878 8.84872 159.511 8.45271 158.371 7.66168C159.148 6.91934 171.25 2.68239 175.024 3.41773C175.416 3.25666 175.893 2.52832 175.893 2.52832C175.893 2.52832 176.04 3.44574 175.402 3.79591C175.865 3.70486 177.02 3.92896 177.342 4.60828C176.812 4.46347 176.249 4.49543 175.739 4.69932C175.739 4.69932 179.941 5.33661 178.449 11.1633C176.775 17.5852 177.328 21.2759 177.328 21.2759C177.328 21.2759 174.205 23.692 171.488 23.2438C168.588 20.0504 164.4 16.2126 164.211 14.826Z" fill="#263238"/>
<path d="M160.093 7.08016C156.683 7.08016 155.457 5.4134 154.582 4.01276C157.033 3.75364 162.138 2.17792 165.927 1.9118C169.716 1.64567 173.869 2.353 172.615 4.01276C171.362 5.67252 160.093 7.08016 160.093 7.08016Z" fill="#263238"/>
<path d="M160.843 5.56055C158.041 5.16837 155.31 2.52816 157.411 0C158.189 1.85585 163.434 1.63875 167.16 0.861398C172.062 -0.161072 175.458 1.49169 173.722 4.83222C172.769 6.66006 160.843 5.56055 160.843 5.56055Z" fill="#263238"/>
<path d="M167.237 13.1522C167.638 14.535 167.574 16.0112 167.055 17.3541C166.354 19.1119 164.8 18.7548 163.987 17.2351C163.287 15.8344 162.755 13.2923 163.945 12.0247C165.136 10.7571 166.732 11.4924 167.237 13.1522Z" fill="#FFC3BD"/>
<path d="M175.956 82.9811C175.956 82.9811 180.97 125.666 184.612 142.389C188.596 160.71 208.254 210.657 208.254 210.657L218.059 207.267C218.059 207.267 205.453 169.66 202.106 144.049C199.535 124.384 195.873 80.0327 195.873 80.0327L175.956 82.9811Z" fill="#263238"/>
<path d="M205.747 207.519C205.698 207.519 207.757 211.721 207.757 211.721L219.207 208.003L217.863 204.585L205.747 207.519Z" fill="#F94892"/>
<path opacity="0.3" d="M178.722 104.88C180.291 116.744 182.301 130.792 184.065 139.763C186.664 126.016 187.273 108.655 178.722 104.88Z" fill="black"/>
<path d="M164.989 84.5987C164.989 84.5987 160.829 124.699 161.487 142.515C162.145 161.046 170.801 218.066 170.801 218.066H180.697C180.697 218.066 178.876 162.124 179.296 143.93C179.779 124.09 187.217 81.3142 187.217 81.3142L164.989 84.5987Z" fill="#263238"/>
<path d="M168.875 214.123C168.833 214.123 169.436 218.227 169.436 218.227H181.474L181.803 214.564L168.875 214.123Z" fill="#F94892"/>
<path d="M163.07 44.4425C161.977 46.1793 160.871 47.741 159.722 49.3447C158.574 50.9484 157.369 52.4961 156.144 54.0369C153.645 57.1624 150.938 60.1151 148.041 62.8749C147.257 63.5752 146.535 64.2756 145.688 64.9128L145.072 65.4101L144.763 65.6552C144.651 65.7462 144.602 65.7952 144.371 65.9633C143.677 66.4582 142.915 66.8498 142.109 67.1259C140.861 67.5522 139.555 67.7883 138.236 67.8262C137.121 67.8636 136.004 67.8144 134.896 67.6791C130.845 67.148 126.894 66.0298 123.165 64.3596L124.377 60.1577C127.96 60.5828 131.569 60.7559 135.176 60.6759C135.974 60.6341 136.769 60.5476 137.557 60.4168C138.151 60.33 138.728 60.1504 139.266 59.8845C139.434 59.7935 139.525 59.7025 139.504 59.6814C139.483 59.6604 139.595 59.5904 139.658 59.5274L139.896 59.3103L140.365 58.8691C140.996 58.3088 141.591 57.6295 142.207 57.0132C143.419 55.7106 144.623 54.373 145.765 52.9514C146.906 51.5297 148.062 50.101 149.182 48.6304C150.303 47.1597 151.388 45.668 152.481 44.1763C153.573 42.6846 154.638 41.1159 155.646 39.6663L163.07 44.4425Z" fill="#FFC3BD"/>
<path d="M167.138 42.5864C169.492 50.2899 155.828 58.8268 155.828 58.8268L146.948 47.5166C148.95 43.7873 151.421 40.3299 154.302 37.2289C160.345 30.6529 165.346 36.7247 167.138 42.5864Z" fill="#F94892"/>
<g opacity="0.3">
<path opacity="0.3" d="M167.138 42.5864C169.492 50.2899 155.828 58.8268 155.828 58.8268L146.948 47.5166C148.95 43.7873 151.421 40.3299 154.302 37.2289C160.345 30.6529 165.346 36.7247 167.138 42.5864Z" fill="white"/>
</g>
<path d="M126.436 60.4167L119.244 59.1001L120 65.319C120 65.319 123.74 67.4199 126.45 64.1354L126.436 60.4167Z" fill="#FFC3BD"/>
<path d="M116.471 60.5007L118.025 64.9898L119.986 65.319L119.23 59.1001L116.471 60.5007Z" fill="#FFC3BD"/>
</svg>
