<svg width="269" height="200" viewBox="0 0 269 200" fill="none" xmlns="http://www.w3.org/2000/svg">
<path d="M268.413 175.757H0V175.891H268.413V175.757Z" fill="#EBEBEB"/>
<path d="M241.518 184.394H223.738V184.529H241.518V184.394Z" fill="#EBEBEB"/>
<path d="M177.808 185.855H173.143V185.989H177.808V185.855Z" fill="#EBEBEB"/>
<path d="M223.202 179.413H212.9V179.547H223.202V179.413Z" fill="#EBEBEB"/>
<path d="M51.3475 180.315H28.1619V180.449H51.3475V180.315Z" fill="#EBEBEB"/>
<path d="M59.5287 180.315H56.1306V180.449H59.5287V180.315Z" fill="#EBEBEB"/>
<path d="M120.866 182.58H70.5765V182.714H120.866V182.58Z" fill="#EBEBEB"/>
<path d="M127.228 151.814H23.5721C22.76 151.813 21.9817 151.489 21.408 150.915C20.8344 150.34 20.5121 149.561 20.5121 148.749V3.03844C20.5192 2.23106 20.8445 1.45908 21.4175 0.890175C21.9904 0.321268 22.7647 0.00138307 23.5721 0H127.228C128.041 0 128.82 0.322948 129.395 0.897799C129.97 1.47265 130.293 2.25232 130.293 3.06528V148.749C130.293 149.562 129.97 150.342 129.395 150.917C128.82 151.492 128.041 151.814 127.228 151.814ZM23.5721 0.107366C22.7956 0.108788 22.0515 0.418223 21.5029 0.967751C20.9544 1.51728 20.6464 2.262 20.6464 3.03844V148.749C20.6464 149.526 20.9544 150.27 21.5029 150.82C22.0515 151.369 22.7956 151.679 23.5721 151.68H127.228C128.005 151.679 128.749 151.37 129.299 150.82C129.848 150.271 130.157 149.526 130.159 148.749V3.03844C130.157 2.2615 129.848 1.5168 129.299 0.967423C128.749 0.418048 128.005 0.108785 127.228 0.107366H23.5721Z" fill="#EBEBEB"/>
<path d="M243.349 151.814H139.688C138.875 151.813 138.096 151.49 137.522 150.915C136.947 150.341 136.624 149.562 136.622 148.749V3.03844C136.631 2.23057 136.957 1.4586 137.531 0.889839C138.105 0.32108 138.88 0.00136799 139.688 0H243.349C244.155 0.00279391 244.928 0.323303 245.5 0.892059C246.072 1.46082 246.396 2.23199 246.403 3.03844V148.749C246.403 149.56 246.082 150.338 245.509 150.913C244.937 151.487 244.16 151.812 243.349 151.814ZM139.688 0.107366C138.911 0.108785 138.166 0.418048 137.617 0.967423C137.067 1.5168 136.758 2.2615 136.756 3.03844V148.749C136.758 149.526 137.067 150.271 137.617 150.82C138.166 151.37 138.911 151.679 139.688 151.68H243.349C244.126 151.679 244.87 151.37 245.42 150.82C245.969 150.271 246.278 149.526 246.28 148.749V3.03844C246.278 2.2615 245.969 1.5168 245.42 0.967423C244.87 0.418048 244.126 0.108785 243.349 0.107366H139.688Z" fill="#EBEBEB"/>
<path d="M119.546 69.1057H35.511V175.515H119.546V69.1057Z" fill="#F0F0F0"/>
<path d="M116.572 72.9869H38.4797V95.7429H116.572V72.9869Z" fill="#E0E0E0"/>
<path d="M42.9139 76.6696H38.4797V95.7376H42.9139V76.6696Z" fill="#EBEBEB"/>
<path d="M64.3655 76.6696H59.9313V95.7376H64.3655V76.6696Z" fill="#EBEBEB"/>
<path d="M88.7159 76.1854L84.3462 76.9387L87.5852 95.7296L91.9549 94.9764L88.7159 76.1854Z" fill="#EBEBEB"/>
<path d="M48.411 79.1819H43.9768V95.7376H48.411V79.1819Z" fill="#EBEBEB"/>
<path d="M58.6053 79.1819H54.1711V95.7376H58.6053V79.1819Z" fill="#EBEBEB"/>
<path d="M84.3408 79.1819H79.9066V95.7376H84.3408V79.1819Z" fill="#EBEBEB"/>
<path d="M70.1908 78.6112L65.8622 79.5732L69.454 95.7346L73.7826 94.7726L70.1908 78.6112Z" fill="#EBEBEB"/>
<path d="M52.2493 75.7194H50.0322V95.7376H52.2493V75.7194Z" fill="#EBEBEB"/>
<path d="M78.6343 75.7194H76.4172V95.7376H78.6343V75.7194Z" fill="#EBEBEB"/>
<path d="M38.4797 122.096L116.572 122.096V99.3397L38.4797 99.3397V122.096Z" fill="#E0E0E0"/>
<path d="M112.138 122.096H116.572V103.028H112.138V122.096Z" fill="#EBEBEB"/>
<path d="M90.686 122.096H95.1202V103.028H90.686V122.096Z" fill="#EBEBEB"/>
<path d="M63.0974 121.345L67.4672 122.098L70.7062 103.307L66.3364 102.554L63.0974 121.345Z" fill="#EBEBEB"/>
<path d="M106.635 122.096H111.069V105.54H106.635V122.096Z" fill="#EBEBEB"/>
<path d="M96.4462 122.096H100.88V105.54H96.4462V122.096Z" fill="#EBEBEB"/>
<path d="M70.7054 122.096H75.1396V105.54H70.7054V122.096Z" fill="#EBEBEB"/>
<path d="M81.2752 121.13L85.6038 122.092L89.1955 105.93L84.867 104.968L81.2752 121.13Z" fill="#EBEBEB"/>
<path d="M102.802 122.096H105.019V102.078H102.802V122.096Z" fill="#EBEBEB"/>
<path d="M76.4172 122.096H78.6343V102.078H76.4172V122.096Z" fill="#EBEBEB"/>
<path d="M42.9139 103.028H38.4797V122.096H42.9139V103.028Z" fill="#EBEBEB"/>
<path d="M48.411 105.54H43.9768V122.096H48.411V105.54Z" fill="#EBEBEB"/>
<path d="M58.6053 105.54H54.1711V122.096H58.6053V105.54Z" fill="#EBEBEB"/>
<path d="M52.2493 102.078H50.0322V122.096H52.2493V102.078Z" fill="#EBEBEB"/>
<path d="M116.572 125.698H38.4797V148.454H116.572V125.698Z" fill="#E0E0E0"/>
<path d="M87.7335 129.38H83.2993V148.449H87.7335V129.38Z" fill="#EBEBEB"/>
<path d="M112.088 128.9L107.719 129.653L110.958 148.444L115.327 147.691L112.088 128.9Z" fill="#EBEBEB"/>
<path d="M71.779 131.898H67.3448V148.454H71.779V131.898Z" fill="#EBEBEB"/>
<path d="M81.9787 131.898H77.5446V148.454H81.9787V131.898Z" fill="#EBEBEB"/>
<path d="M107.714 131.898H103.28V148.454H107.714V131.898Z" fill="#EBEBEB"/>
<path d="M93.5683 131.325L89.2397 132.287L92.8315 148.448L97.1601 147.486L93.5683 131.325Z" fill="#EBEBEB"/>
<path d="M75.6174 128.436H73.4003V148.454H75.6174V128.436Z" fill="#EBEBEB"/>
<path d="M102.002 128.436H99.7853V148.454H102.002V128.436Z" fill="#EBEBEB"/>
<path d="M61.0531 128.905L56.6833 129.658L59.9224 148.449L64.2921 147.696L61.0531 128.905Z" fill="#EBEBEB"/>
<path d="M56.6781 131.898H52.244V148.454H56.6781V131.898Z" fill="#EBEBEB"/>
<path d="M42.5292 131.328L38.2006 132.29L41.7924 148.451L46.121 147.489L42.5292 131.328Z" fill="#EBEBEB"/>
<path d="M50.9663 128.436H48.7492V148.454H50.9663V128.436Z" fill="#EBEBEB"/>
<path d="M163.882 111.998H211.241C212.464 111.998 213.676 112.239 214.805 112.708C215.935 113.177 216.961 113.865 217.825 114.731C218.689 115.597 219.373 116.625 219.839 117.756C220.305 118.888 220.543 120.099 220.539 121.323V158.299H154.606V121.323C154.6 118.856 155.574 116.489 157.314 114.74C159.053 112.991 161.416 112.005 163.882 111.998Z" fill="#E6E6E6"/>
<path d="M140.584 139.408H149.055C149.784 139.406 150.505 139.547 151.179 139.824C151.853 140.101 152.465 140.508 152.981 141.022C153.497 141.536 153.906 142.148 154.185 142.821C154.463 143.493 154.607 144.215 154.606 144.943V175.542H135.055V144.943C135.054 144.217 135.197 143.497 135.474 142.825C135.752 142.154 136.159 141.544 136.672 141.03C137.186 140.516 137.796 140.108 138.467 139.83C139.138 139.552 139.857 139.408 140.584 139.408Z" fill="#E0E0E0"/>
<path d="M140.584 139.408H140.761C141.488 139.408 142.207 139.552 142.878 139.83C143.55 140.108 144.159 140.516 144.673 141.03C145.186 141.544 145.594 142.154 145.871 142.826C146.149 143.497 146.291 144.217 146.291 144.943V175.542H135.055V144.943C135.054 144.217 135.197 143.497 135.474 142.826C135.752 142.154 136.159 141.544 136.672 141.03C137.186 140.516 137.796 140.108 138.467 139.83C139.138 139.552 139.857 139.408 140.584 139.408Z" fill="#EBEBEB"/>
<path d="M213.641 161.467H148.653V175.515H213.641V161.467Z" fill="#E6E6E6"/>
<path d="M211.236 148.62H148.561C145.457 148.62 142.941 151.137 142.941 154.241V157.736C142.941 160.84 145.457 163.356 148.561 163.356H211.236C214.34 163.356 216.856 160.84 216.856 157.736V154.241C216.856 151.137 214.34 148.62 211.236 148.62Z" fill="#F5F5F5"/>
<path d="M211.128 148.62H203.361C200.256 148.62 197.74 151.137 197.74 154.241V157.736C197.74 160.84 200.256 163.356 203.361 163.356H211.128C214.233 163.356 216.749 160.84 216.749 157.736V154.241C216.749 151.137 214.233 148.62 211.128 148.62Z" fill="#E0E0E0"/>
<path d="M211.971 139.408H220.448C221.174 139.408 221.893 139.552 222.564 139.83C223.235 140.108 223.844 140.516 224.358 141.03C224.871 141.544 225.277 142.154 225.554 142.826C225.831 143.497 225.973 144.217 225.972 144.943V175.542H206.447V144.943C206.446 144.217 206.588 143.497 206.865 142.826C207.142 142.154 207.548 141.544 208.061 141.03C208.574 140.516 209.184 140.108 209.855 139.83C210.526 139.552 211.245 139.408 211.971 139.408Z" fill="#E0E0E0"/>
<path d="M211.971 139.408H212.154C212.88 139.408 213.599 139.552 214.27 139.83C214.941 140.108 215.55 140.516 216.064 141.03C216.577 141.544 216.983 142.154 217.26 142.826C217.537 143.497 217.679 144.217 217.678 144.943V175.542H206.447V144.943C206.446 144.217 206.588 143.497 206.865 142.826C207.142 142.154 207.548 141.544 208.061 141.03C208.574 140.516 209.184 140.108 209.855 139.83C210.526 139.552 211.245 139.408 211.971 139.408Z" fill="#F0F0F0"/>
<path d="M80.6612 56.1701C87.5531 55.0514 92.2332 48.5575 91.1145 41.6655C89.9958 34.7736 83.5019 30.0935 76.61 31.2122C69.718 32.331 65.0379 38.8249 66.1567 45.7168C67.2754 52.6087 73.7693 57.2888 80.6612 56.1701Z" fill="#E0E0E0"/>
<path d="M80.3584 54.3049C86.2202 53.3534 90.2008 47.8301 89.2493 41.9683C88.2978 36.1065 82.7745 32.1259 76.9127 33.0774C71.0509 34.0289 67.0704 39.5522 68.0219 45.414C68.9734 51.2758 74.4966 55.2564 80.3584 54.3049Z" fill="#F0F0F0"/>
<path d="M78.1243 51.0737V43.5581L73.1479 46.3764" fill="#F0F0F0"/>
<path d="M78.1243 51.6105C77.9819 51.6105 77.8454 51.554 77.7447 51.4533C77.6441 51.3526 77.5875 51.2161 77.5875 51.0737V44.4761L73.411 46.8435C73.2871 46.913 73.1406 46.9306 73.0038 46.8924C72.8669 46.8541 72.7508 46.7632 72.6809 46.6395C72.6109 46.5162 72.5925 46.3703 72.6297 46.2335C72.6669 46.0967 72.7567 45.9802 72.8795 45.9094L77.8613 43.0911C77.9429 43.0452 78.0351 43.0215 78.1287 43.0222C78.2224 43.023 78.3141 43.0482 78.395 43.0955C78.4759 43.1427 78.543 43.2102 78.5897 43.2914C78.6363 43.3725 78.661 43.4645 78.6611 43.5581V51.0737C78.6611 51.2161 78.6046 51.3526 78.5039 51.4533C78.4032 51.554 78.2667 51.6105 78.1243 51.6105Z" fill="#E0E0E0"/>
<path d="M230.089 27.7432H149.163V99.5544H230.089V27.7432Z" fill="#E6E6E6"/>
<path d="M227.958 29.7133H151.186V97.6272H227.958V29.7133Z" fill="#F0F0F0"/>
<path d="M169.202 29.7133L151.186 97.4769V65.6377L160.699 29.7133H169.202Z" fill="white"/>
<path d="M175.585 29.7133L157.408 97.6272H154.509L172.686 29.7133H175.585Z" fill="white"/>
<path d="M227.958 72.5682V83.4174L224.281 97.6272H221.382L227.958 72.5682Z" fill="white"/>
<path d="M177.963 28.4948H176.669V99.1465H177.963V28.4948Z" fill="#E6E6E6"/>
<path d="M203.028 28.4948H201.734V99.1465H203.028V28.4948Z" fill="#E6E6E6"/>
<path d="M134.207 200C191.691 200 238.292 197.279 238.292 193.923C238.292 190.567 191.691 187.846 134.207 187.846C76.7219 187.846 30.1213 190.567 30.1213 193.923C30.1213 197.279 76.7219 200 134.207 200Z" fill="#F5F5F5"/>
<path d="M215.75 180.497C215.75 180.497 218.3 174.936 215.385 169.449C212.47 163.963 211.628 162.674 213.485 161.547C215.342 160.42 216.196 165.938 216.196 165.938C217.114 163.446 217.209 160.725 216.464 158.176C215.176 154.209 214.365 147.745 216.126 147.053C217.887 146.36 216.464 155.105 218 158.101C218.778 156.004 219.282 153.815 219.498 151.589C219.707 148.4 219.379 143.311 220.77 142.007C222.16 140.702 223.057 141.604 221.688 148.636C220.865 152.841 220.411 157.108 220.33 161.391C220.33 161.391 223.352 152.163 225.386 151.895C227.421 151.627 227.416 154.611 225.676 157.204C223.937 159.797 220.582 164.441 220.034 166.829C220.034 166.829 223.357 159.883 226.342 161.998C229.327 164.113 223.744 168.316 221.253 169.836C218.762 171.355 217.033 180.846 217.033 180.846L215.75 180.497Z" fill="#F94892"/>
<path opacity="0.2" d="M215.75 180.497C215.75 180.497 218.3 174.936 215.385 169.449C212.47 163.963 211.628 162.674 213.485 161.547C215.342 160.42 216.196 165.938 216.196 165.938C217.114 163.446 217.209 160.725 216.464 158.176C215.176 154.209 214.365 147.745 216.126 147.053C217.887 146.36 216.464 155.105 218 158.101C218.778 156.004 219.282 153.815 219.498 151.589C219.707 148.4 219.379 143.311 220.77 142.007C222.16 140.702 223.057 141.604 221.688 148.636C220.865 152.841 220.411 157.108 220.33 161.391C220.33 161.391 223.352 152.163 225.386 151.895C227.421 151.627 227.416 154.611 225.676 157.204C223.937 159.797 220.582 164.441 220.034 166.829C220.034 166.829 223.357 159.883 226.342 161.998C229.327 164.113 223.744 168.316 221.253 169.836C218.762 171.355 217.033 180.846 217.033 180.846L215.75 180.497Z" fill="black"/>
<path d="M217.764 182.779C217.764 182.779 215.278 177.18 218.257 171.736C221.237 166.293 222.096 165.015 220.254 163.866C218.413 162.717 217.49 168.215 217.49 168.215C216.6 165.713 216.538 162.992 217.313 160.452C218.649 156.501 219.54 150.048 217.785 149.329C216.03 148.61 217.35 157.381 215.783 160.35C215.028 158.243 214.55 156.047 214.36 153.817C214.188 150.628 214.58 145.544 213.201 144.218C211.821 142.892 210.919 143.784 212.207 150.837C212.979 155.05 213.381 159.321 213.41 163.603C213.41 163.603 210.495 154.332 208.471 154.037C206.447 153.742 206.41 156.721 208.117 159.341C209.824 161.96 213.12 166.652 213.657 169.047C213.657 169.047 210.436 162.068 207.408 164.14C204.38 166.212 209.931 170.496 212.401 172.053C214.87 173.61 216.491 183.128 216.491 183.128L217.764 182.779Z" fill="#F94892"/>
<path d="M206.308 178.785H226.82L225.161 193.467H207.966L206.308 178.785Z" fill="#263238"/>
<path d="M130.234 191.11V193.037C130.234 193.094 130.223 193.151 130.201 193.204C130.179 193.256 130.147 193.304 130.107 193.345C130.066 193.385 130.018 193.417 129.966 193.439C129.913 193.461 129.856 193.472 129.799 193.472H75.3543C74.8899 193.472 74.4326 193.358 74.0225 193.141C73.6123 192.923 73.2618 192.608 73.0017 192.223C72.7415 191.839 72.5797 191.396 72.5303 190.934C72.4809 190.473 72.5456 190.006 72.7185 189.575L89.9721 146.843L117.855 147.031L116.905 152.577L110.753 188.464C110.707 188.736 110.72 189.014 110.793 189.281C110.866 189.547 110.995 189.794 111.173 190.005C111.351 190.216 111.573 190.386 111.822 190.502C112.072 190.619 112.345 190.68 112.621 190.681H129.799C129.856 190.68 129.912 190.691 129.965 190.712C130.018 190.733 130.066 190.765 130.106 190.805C130.147 190.845 130.179 190.892 130.201 190.945C130.223 190.997 130.234 191.053 130.234 191.11Z" fill="#263238"/>
<path opacity="0.5" d="M130.234 191.11V193.037C130.234 193.094 130.223 193.151 130.201 193.204C130.179 193.256 130.147 193.304 130.107 193.345C130.066 193.385 130.018 193.417 129.966 193.439C129.913 193.461 129.856 193.472 129.799 193.472H75.3543C74.8899 193.472 74.4326 193.358 74.0225 193.141C73.6123 192.923 73.2618 192.608 73.0017 192.223C72.7415 191.839 72.5797 191.396 72.5303 190.934C72.4809 190.473 72.5456 190.006 72.7185 189.575L83.4174 163.082L89.9721 146.843L117.855 147.031L116.905 152.577L114.221 168.182L110.747 188.464C110.701 188.736 110.715 189.014 110.788 189.281C110.86 189.547 110.99 189.794 111.168 190.005C111.346 190.216 111.567 190.386 111.817 190.502C112.067 190.619 112.34 190.68 112.615 190.681H129.794C129.851 190.679 129.908 190.689 129.961 190.71C130.015 190.731 130.063 190.763 130.104 190.803C130.146 190.843 130.178 190.89 130.2 190.943C130.223 190.996 130.234 191.053 130.234 191.11Z" fill="white"/>
<path opacity="0.2" d="M112.621 190.675H77.1902C76.9861 190.675 76.7853 190.624 76.6054 190.528C76.4255 190.431 76.272 190.292 76.1585 190.122C76.0451 189.953 75.975 189.758 75.9546 189.554C75.9342 189.351 75.964 189.146 76.0414 188.957L91.1692 152.571H116.899L110.747 188.458C110.701 188.731 110.715 189.01 110.788 189.276C110.861 189.543 110.991 189.79 111.17 190.001C111.348 190.213 111.57 190.382 111.821 190.499C112.071 190.615 112.344 190.675 112.621 190.675Z" fill="black"/>
<path opacity="0.1" d="M117.855 147.026L116.905 152.571L114.226 168.177L83.4174 163.082L89.9721 146.838L117.855 147.026Z" fill="black"/>
<path d="M172.069 67.3717H42.989C42.5555 67.3717 42.1262 67.4571 41.7256 67.623C41.3251 67.7889 40.9611 68.0321 40.6545 68.3387C40.348 68.6453 40.1048 69.0092 39.9389 69.4098C39.773 69.8103 39.6876 70.2396 39.6876 70.6732V158.063C39.6876 158.939 40.0354 159.778 40.6545 160.398C41.2737 161.017 42.1134 161.365 42.989 161.365H172.069C172.945 161.365 173.785 161.017 174.405 160.398C175.025 159.779 175.374 158.939 175.376 158.063V70.6732C175.374 69.7971 175.025 68.9574 174.405 68.3384C173.785 67.7194 172.945 67.3717 172.069 67.3717Z" fill="#263238"/>
<path opacity="0.6" d="M172.069 67.3717H42.989C42.5555 67.3717 42.1262 67.4571 41.7256 67.623C41.3251 67.7889 40.9611 68.0321 40.6545 68.3387C40.348 68.6453 40.1048 69.0092 39.9389 69.4098C39.773 69.8103 39.6876 70.2396 39.6876 70.6732V158.063C39.6876 158.939 40.0354 159.778 40.6545 160.398C41.2737 161.017 42.1134 161.365 42.989 161.365H172.069C172.945 161.365 173.785 161.017 174.405 160.398C175.025 159.779 175.374 158.939 175.376 158.063V70.6732C175.374 69.7971 175.025 68.9574 174.405 68.3384C173.785 67.7194 172.945 67.3717 172.069 67.3717Z" fill="white"/>
<path opacity="0.2" d="M45.7269 161.359H42.989C42.1144 161.359 41.2754 161.012 40.6564 160.394C40.0374 159.776 39.689 158.938 39.6876 158.063V70.6785C39.6869 70.2445 39.7717 69.8146 39.9373 69.4135C40.1029 69.0123 40.346 68.6477 40.6526 68.3406C40.9593 68.0334 41.3235 67.7898 41.7244 67.6235C42.1253 67.4573 42.555 67.3717 42.989 67.3717H45.7269C45.2915 67.3696 44.86 67.4536 44.4572 67.6189C44.0545 67.7842 43.6884 68.0275 43.38 68.3348C43.0717 68.6422 42.8272 69.0075 42.6606 69.4097C42.494 69.812 42.4086 70.2432 42.4093 70.6785V158.063C42.4093 158.498 42.4952 158.928 42.6622 159.329C42.8292 159.731 43.0739 160.095 43.3823 160.401C43.6906 160.708 44.0565 160.95 44.4589 161.115C44.8613 161.279 45.2922 161.362 45.7269 161.359Z" fill="black"/>
<path d="M172.402 70.2115H45.4048V154.477H172.402V70.2115Z" fill="#F94892"/>
<path opacity="0.4" d="M107.151 102.287C113.24 102.287 118.177 97.3501 118.177 91.2604C118.177 85.1707 113.24 80.234 107.151 80.234C101.061 80.234 96.1241 85.1707 96.1241 91.2604C96.1241 97.3501 101.061 102.287 107.151 102.287Z" fill="white"/>
<path d="M104.52 89.5855V88.5763C104.52 88.0951 104.711 87.6336 105.052 87.2933C105.392 86.953 105.853 86.7618 106.335 86.7618H107.945C108.185 86.759 108.423 86.8038 108.646 86.8937C108.869 86.9837 109.071 87.1169 109.242 87.2856C109.413 87.4544 109.548 87.6554 109.641 87.8769C109.733 88.0985 109.781 88.3362 109.781 88.5763V89.607H110.957V88.5763C110.955 87.7837 110.64 87.024 110.079 86.4635C109.519 85.9031 108.759 85.5876 107.967 85.5862H106.356C105.563 85.5876 104.804 85.9031 104.243 86.4635C103.683 87.024 103.367 87.7837 103.366 88.5763V89.607L104.52 89.5855Z" fill="white"/>
<path d="M101.863 90.9437V96.3603C101.863 96.4393 101.878 96.5174 101.909 96.5904C101.939 96.6633 101.983 96.7296 102.039 96.7854C102.095 96.8413 102.161 96.8856 102.234 96.9158C102.307 96.946 102.385 96.9615 102.464 96.9615H111.837C111.916 96.9615 111.994 96.946 112.067 96.9158C112.14 96.8856 112.206 96.8413 112.262 96.7854C112.318 96.7296 112.362 96.6633 112.393 96.5904C112.423 96.5174 112.438 96.4393 112.438 96.3603V90.9437C112.438 90.7843 112.375 90.6313 112.262 90.5186C112.149 90.4058 111.996 90.3425 111.837 90.3425H102.464C102.385 90.3425 102.307 90.358 102.234 90.3882C102.161 90.4185 102.095 90.4627 102.039 90.5186C101.983 90.5744 101.939 90.6407 101.909 90.7136C101.878 90.7866 101.863 90.8648 101.863 90.9437ZM107.489 94.009V95.0826H106.828V94.009C106.732 93.9552 106.651 93.8777 106.592 93.7838C106.534 93.6898 106.501 93.5826 106.496 93.4722C106.496 93.2942 106.566 93.1235 106.692 92.9977C106.818 92.8718 106.989 92.8011 107.167 92.8011C107.345 92.8011 107.515 92.8718 107.641 92.9977C107.767 93.1235 107.838 93.2942 107.838 93.4722C107.831 93.5842 107.795 93.6925 107.734 93.7866C107.673 93.8806 107.588 93.9573 107.489 94.009Z" fill="white"/>
<path d="M80.2501 111.418H69.8357C69.2161 111.418 68.7137 111.921 68.7137 112.54V122.955C68.7137 123.574 69.2161 124.077 69.8357 124.077H80.2501C80.8698 124.077 81.3721 123.574 81.3721 122.955V112.54C81.3721 111.921 80.8698 111.418 80.2501 111.418Z" fill="white"/>
<path d="M96.3067 111.402H85.8922C85.2726 111.402 84.7703 111.904 84.7703 112.524V122.939C84.7703 123.558 85.2726 124.061 85.8922 124.061H96.3067C96.9263 124.061 97.4286 123.558 97.4286 122.939V112.524C97.4286 111.904 96.9263 111.402 96.3067 111.402Z" fill="white"/>
<path d="M112.358 111.386H101.943C101.324 111.386 100.821 111.888 100.821 112.508V122.922C100.821 123.542 101.324 124.044 101.943 124.044H112.358C112.977 124.044 113.48 123.542 113.48 122.922V112.508C113.48 111.888 112.977 111.386 112.358 111.386Z" fill="white"/>
<path d="M128.409 111.365H117.994C117.375 111.365 116.872 111.867 116.872 112.487V122.901C116.872 123.521 117.375 124.023 117.994 124.023H128.409C129.028 124.023 129.531 123.521 129.531 122.901V112.487C129.531 111.867 129.028 111.365 128.409 111.365Z" fill="white"/>
<path d="M144.46 111.349H134.045C133.426 111.349 132.924 111.851 132.924 112.47V122.885C132.924 123.505 133.426 124.007 134.045 124.007H144.46C145.08 124.007 145.582 123.505 145.582 122.885V112.47C145.582 111.851 145.08 111.349 144.46 111.349Z" fill="white"/>
<path d="M136.467 117.925C136.467 115.697 137.658 114.43 139.258 114.43C140.858 114.43 142.044 115.697 142.044 117.925C142.044 120.152 140.852 121.419 139.258 121.419C137.664 121.419 136.467 120.152 136.467 117.925ZM141.067 117.925C141.067 116.175 140.321 115.3 139.258 115.3C138.195 115.3 137.444 116.175 137.444 117.925C137.444 119.675 138.184 120.55 139.258 120.55C140.332 120.55 141.067 119.669 141.067 117.925Z" fill="#263238"/>
<path d="M77.5875 117.839C77.5875 120.169 76.2669 121.419 74.3665 121.419C73.7734 121.441 73.1855 121.301 72.6648 121.017L73.0083 120.249C73.4071 120.48 73.8634 120.591 74.3236 120.571C75.7086 120.571 76.589 119.702 76.589 117.989V117.747C76.3599 118.047 76.06 118.286 75.7162 118.441C75.3723 118.597 74.9953 118.665 74.6188 118.639C73.2607 118.639 72.2836 117.828 72.2836 116.572C72.2836 115.316 73.3573 114.424 74.694 114.424C76.5514 114.43 77.5875 115.659 77.5875 117.839ZM76.385 116.54C76.385 115.836 75.8482 115.219 74.7745 115.219C74.5866 115.196 74.396 115.214 74.2152 115.27C74.0344 115.326 73.8676 115.42 73.7256 115.545C73.5837 115.67 73.4698 115.824 73.3915 115.996C73.3132 116.169 73.2723 116.356 73.2714 116.545C73.2714 117.35 73.8673 117.866 74.8282 117.866C75.7891 117.866 76.385 117.291 76.385 116.54Z" fill="#263238"/>
<path d="M88.3079 117.925C88.3079 115.697 89.4997 114.43 91.0994 114.43C92.6992 114.43 93.8855 115.697 93.8855 117.925C93.8855 120.152 92.6938 121.419 91.0994 121.419C89.505 121.419 88.3079 120.152 88.3079 117.925ZM92.9085 117.925C92.9085 116.175 92.1677 115.3 91.0994 115.3C90.0311 115.3 89.285 116.175 89.285 117.925C89.285 119.675 90.0258 120.55 91.0994 120.55C92.1731 120.55 92.9085 119.675 92.9085 117.925Z" fill="#263238"/>
<path d="M109.62 120.491V121.323H104.708V120.679L107.489 117.994C108.213 117.291 108.348 116.862 108.348 116.432C108.348 115.729 107.854 115.3 106.893 115.3C106.565 115.281 106.237 115.339 105.934 115.467C105.632 115.595 105.363 115.792 105.148 116.04L104.482 115.466C104.796 115.118 105.184 114.845 105.617 114.666C106.049 114.487 106.516 114.406 106.984 114.43C108.407 114.43 109.325 115.16 109.325 116.33C109.325 116.996 109.131 117.592 108.203 118.478L106.114 120.485L109.62 120.491Z" fill="#263238"/>
<path d="M124.007 114.505V121.323H123.041V115.359H121.495V114.505H124.007Z" fill="#263238"/>
<g opacity="0.6">
<path opacity="0.6" d="M95.1417 108.326V108.568H93.2789V105.932H95.0827V106.173H93.5581V107.113H94.9163V107.365H93.5581V108.342L95.1417 108.326Z" fill="white"/>
<path opacity="0.6" d="M97.5575 107.419V108.568H97.289V107.446C97.305 107.362 97.301 107.276 97.2773 107.195C97.2536 107.113 97.211 107.039 97.1528 106.977C97.0947 106.915 97.0227 106.868 96.9428 106.839C96.8629 106.811 96.7773 106.801 96.6932 106.812C96.5986 106.806 96.5037 106.82 96.4152 106.853C96.3266 106.887 96.2466 106.94 96.1806 107.008C96.1146 107.076 96.0643 107.158 96.0332 107.247C96.0021 107.337 95.991 107.432 96.0007 107.526V108.568H95.7376V106.587H95.9899V106.952C96.0706 106.828 96.1827 106.728 96.3148 106.662C96.4469 106.596 96.5941 106.566 96.7415 106.576C96.8534 106.567 96.966 106.582 97.0712 106.621C97.1763 106.661 97.2714 106.723 97.3495 106.804C97.4277 106.884 97.4869 106.982 97.5228 107.088C97.5588 107.194 97.5706 107.307 97.5575 107.419Z" fill="white"/>
<path opacity="0.6" d="M99.3128 108.439C99.1947 108.535 99.046 108.584 98.8941 108.578C98.8168 108.585 98.739 108.574 98.6661 108.548C98.5933 108.521 98.527 108.479 98.4719 108.425C98.4168 108.37 98.3742 108.304 98.347 108.232C98.3198 108.159 98.3086 108.081 98.3143 108.004V106.828H97.96V106.603H98.3143V106.173H98.5827V106.603H99.184V106.828H98.5827V108.009C98.5827 108.246 98.7008 108.369 98.9209 108.369C99.0276 108.372 99.1321 108.338 99.2162 108.272L99.3128 108.439Z" fill="white"/>
<path opacity="0.6" d="M101.46 107.66H99.8067C99.8192 107.855 99.9081 108.036 100.054 108.165C100.2 108.294 100.391 108.359 100.585 108.348C100.699 108.351 100.812 108.33 100.917 108.286C101.022 108.241 101.115 108.174 101.192 108.09L101.342 108.262C101.196 108.399 101.014 108.493 100.817 108.532C100.62 108.571 100.416 108.554 100.228 108.483C100.04 108.412 99.8755 108.29 99.7537 108.13C99.6318 107.971 99.5572 107.78 99.5383 107.58C99.5309 107.449 99.5505 107.319 99.596 107.196C99.6414 107.073 99.7117 106.961 99.8024 106.867C99.8931 106.773 100.002 106.698 100.123 106.648C100.244 106.598 100.374 106.574 100.505 106.576C100.635 106.574 100.764 106.598 100.885 106.648C101.005 106.699 101.114 106.773 101.203 106.868C101.293 106.962 101.363 107.074 101.407 107.197C101.451 107.319 101.469 107.45 101.46 107.58C101.46 107.58 101.46 107.628 101.46 107.66ZM99.8067 107.462H101.208C101.193 107.287 101.112 107.123 100.982 107.005C100.853 106.886 100.683 106.82 100.507 106.82C100.331 106.82 100.162 106.886 100.032 107.005C99.9026 107.123 99.8221 107.287 99.8067 107.462Z" fill="white"/>
<path opacity="0.6" d="M103.001 106.576V106.828H102.936C102.842 106.823 102.748 106.839 102.66 106.875C102.573 106.911 102.495 106.966 102.431 107.036C102.367 107.106 102.32 107.189 102.292 107.279C102.264 107.37 102.257 107.465 102.271 107.558V108.568H101.997V106.587H102.255V106.973C102.324 106.839 102.432 106.729 102.566 106.658C102.699 106.587 102.851 106.558 103.001 106.576Z" fill="white"/>
<path opacity="0.6" d="M106.157 106.587L105.17 108.804C105.003 109.19 104.794 109.314 104.509 109.314C104.422 109.317 104.334 109.303 104.252 109.271C104.17 109.24 104.095 109.192 104.032 109.131L104.155 108.933C104.201 108.982 104.257 109.021 104.319 109.047C104.381 109.073 104.448 109.085 104.515 109.083C104.692 109.083 104.81 109.003 104.923 108.756L105.009 108.562L104.144 106.587H104.423L105.164 108.267L105.91 106.587H106.157Z" fill="white"/>
<path opacity="0.6" d="M106.292 107.58C106.291 107.38 106.349 107.184 106.459 107.018C106.569 106.851 106.727 106.721 106.911 106.644C107.095 106.567 107.298 106.546 107.494 106.584C107.691 106.622 107.871 106.718 108.013 106.859C108.154 107 108.251 107.18 108.29 107.376C108.33 107.572 108.31 107.775 108.234 107.96C108.157 108.144 108.028 108.302 107.862 108.413C107.696 108.525 107.501 108.584 107.301 108.584C107.167 108.589 107.034 108.567 106.91 108.518C106.785 108.47 106.672 108.396 106.577 108.302C106.483 108.208 106.408 108.095 106.359 107.971C106.31 107.846 106.287 107.713 106.292 107.58ZM108.031 107.58C108.025 107.436 107.976 107.297 107.891 107.18C107.806 107.063 107.689 106.974 107.554 106.923C107.419 106.873 107.272 106.863 107.131 106.895C106.991 106.928 106.863 107.001 106.763 107.105C106.664 107.21 106.597 107.341 106.572 107.483C106.547 107.626 106.564 107.772 106.621 107.904C106.678 108.037 106.773 108.149 106.894 108.228C107.015 108.307 107.157 108.349 107.301 108.348C107.399 108.347 107.496 108.327 107.586 108.287C107.676 108.248 107.757 108.19 107.824 108.118C107.891 108.046 107.942 107.961 107.975 107.869C108.008 107.776 108.021 107.678 108.015 107.58H108.031Z" fill="white"/>
<path opacity="0.6" d="M110.613 106.587V108.568H110.361V108.203C110.287 108.325 110.182 108.425 110.056 108.492C109.931 108.559 109.789 108.591 109.647 108.584C109.533 108.595 109.419 108.581 109.312 108.542C109.204 108.503 109.107 108.44 109.028 108.359C108.948 108.278 108.887 108.179 108.85 108.071C108.813 107.964 108.801 107.849 108.815 107.736V106.587H109.078V107.709C109.062 107.792 109.066 107.878 109.089 107.96C109.113 108.041 109.156 108.116 109.214 108.178C109.272 108.239 109.344 108.287 109.424 108.315C109.504 108.344 109.589 108.353 109.674 108.342C109.767 108.348 109.86 108.332 109.947 108.298C110.034 108.263 110.112 108.21 110.176 108.142C110.24 108.074 110.288 107.993 110.317 107.904C110.346 107.815 110.356 107.721 110.345 107.628V106.587H110.613Z" fill="white"/>
<path opacity="0.6" d="M112.358 106.576V106.828H112.293C112.199 106.823 112.105 106.839 112.017 106.875C111.93 106.911 111.851 106.966 111.788 107.036C111.724 107.106 111.677 107.189 111.649 107.279C111.621 107.37 111.614 107.465 111.628 107.558V108.568H111.359V106.587H111.617V106.973C111.686 106.84 111.793 106.73 111.926 106.659C112.058 106.589 112.209 106.559 112.358 106.576Z" fill="white"/>
<path opacity="0.6" d="M113.673 107.252C113.663 106.977 113.736 106.704 113.883 106.47C114.029 106.236 114.242 106.051 114.494 105.939C114.746 105.827 115.026 105.792 115.297 105.84C115.569 105.888 115.82 106.016 116.019 106.208C116.218 106.399 116.354 106.646 116.412 106.916C116.469 107.186 116.445 107.467 116.342 107.722C116.238 107.978 116.061 108.198 115.832 108.352C115.604 108.506 115.334 108.589 115.058 108.589C114.878 108.596 114.699 108.567 114.531 108.503C114.363 108.439 114.209 108.342 114.08 108.217C113.95 108.092 113.848 107.942 113.778 107.776C113.708 107.611 113.672 107.432 113.673 107.252ZM116.158 107.252C116.165 107.031 116.105 106.813 115.986 106.626C115.867 106.44 115.694 106.293 115.491 106.205C115.288 106.118 115.063 106.093 114.845 106.135C114.628 106.176 114.428 106.282 114.271 106.439C114.115 106.595 114.009 106.795 113.967 107.013C113.925 107.23 113.95 107.455 114.038 107.659C114.125 107.862 114.272 108.034 114.459 108.153C114.645 108.272 114.863 108.332 115.085 108.326C115.37 108.326 115.643 108.213 115.844 108.012C116.045 107.81 116.158 107.537 116.158 107.252Z" fill="white"/>
<path opacity="0.6" d="M117.533 106.173H116.609V105.932H118.757V106.173H117.828V108.568H117.549L117.533 106.173Z" fill="white"/>
<path opacity="0.6" d="M121.242 106.828C121.242 107.365 120.834 107.725 120.169 107.725H119.465V108.557H119.175V105.921H120.158C120.834 105.932 121.242 106.292 121.242 106.828ZM120.963 106.828C120.963 106.404 120.684 106.163 120.158 106.163H119.46V107.478H120.158C120.684 107.489 120.963 107.252 120.963 106.828Z" fill="white"/>
</g>
<g opacity="0.6">
<path opacity="0.6" d="M96.7092 130.927L96.8166 130.717C97.0575 130.926 97.3672 131.039 97.6863 131.034C98.1748 131.034 98.3895 130.83 98.3895 130.567C98.3895 129.848 96.779 130.288 96.779 129.316C96.779 128.93 97.0796 128.597 97.7453 128.597C98.0339 128.593 98.3175 128.673 98.5613 128.828L98.47 129.048C98.2534 128.91 98.0022 128.835 97.7453 128.833C97.2675 128.833 97.0528 129.048 97.0528 129.311C97.0528 130.03 98.6633 129.595 98.6633 130.551C98.6633 130.943 98.3573 131.27 97.6863 131.27C97.3288 131.284 96.9796 131.161 96.7092 130.927Z" fill="white"/>
<path opacity="0.6" d="M100.923 130.341H99.2699C99.2823 130.536 99.3712 130.717 99.5171 130.846C99.663 130.975 99.854 131.04 100.048 131.029C100.162 131.032 100.275 131.011 100.38 130.967C100.485 130.922 100.579 130.855 100.655 130.771L100.805 130.943C100.711 131.051 100.593 131.136 100.461 131.193C100.329 131.25 100.186 131.276 100.043 131.27C99.9067 131.278 99.7703 131.258 99.6424 131.211C99.5144 131.163 99.3978 131.09 99.2998 130.995C99.2018 130.9 99.1247 130.786 99.0733 130.659C99.022 130.533 98.9975 130.397 99.0015 130.261C98.9949 130.13 99.015 130 99.0608 129.878C99.1065 129.756 99.1768 129.644 99.2674 129.55C99.3579 129.456 99.4668 129.381 99.5872 129.331C99.7077 129.281 99.8372 129.255 99.9678 129.257C100.099 129.254 100.229 129.278 100.35 129.328C100.47 129.377 100.58 129.452 100.67 129.547C100.761 129.641 100.83 129.753 100.875 129.876C100.919 129.999 100.938 130.13 100.929 130.261C100.929 130.261 100.923 130.315 100.923 130.341ZM99.2699 130.143H100.671C100.656 129.968 100.575 129.804 100.446 129.686C100.316 129.567 100.146 129.501 99.9704 129.501C99.7946 129.501 99.6251 129.567 99.4954 129.686C99.3657 129.804 99.2852 129.968 99.2699 130.143Z" fill="white"/>
<path opacity="0.6" d="M103.301 130.1V131.249H103.038V130.127C103.053 130.044 103.049 129.958 103.025 129.878C103 129.797 102.958 129.723 102.9 129.662C102.842 129.601 102.77 129.554 102.691 129.526C102.611 129.497 102.526 129.488 102.443 129.499C102.348 129.492 102.253 129.506 102.165 129.54C102.076 129.573 101.996 129.626 101.93 129.694C101.864 129.762 101.814 129.844 101.783 129.934C101.751 130.023 101.74 130.118 101.75 130.213V131.249H101.46V129.273H101.718V129.638C101.798 129.514 101.91 129.412 102.042 129.345C102.174 129.278 102.322 129.248 102.469 129.257C102.583 129.245 102.697 129.259 102.804 129.297C102.911 129.335 103.009 129.397 103.089 129.478C103.169 129.559 103.229 129.657 103.266 129.765C103.303 129.872 103.315 129.987 103.301 130.1Z" fill="white"/>
<path opacity="0.6" d="M105.841 128.457V131.249H105.583V130.857C105.504 130.987 105.392 131.095 105.258 131.167C105.124 131.24 104.973 131.276 104.821 131.27C104.566 131.252 104.329 131.137 104.155 130.951C103.981 130.764 103.885 130.519 103.885 130.264C103.885 130.009 103.981 129.763 104.155 129.576C104.329 129.39 104.566 129.276 104.821 129.257C104.969 129.252 105.116 129.285 105.248 129.354C105.38 129.422 105.492 129.524 105.572 129.649V128.457H105.841ZM105.578 130.261C105.571 130.117 105.523 129.978 105.438 129.861C105.354 129.745 105.237 129.656 105.102 129.605C104.967 129.554 104.82 129.544 104.68 129.576C104.539 129.608 104.411 129.68 104.312 129.784C104.212 129.888 104.145 130.019 104.119 130.161C104.093 130.303 104.11 130.449 104.166 130.581C104.223 130.714 104.317 130.827 104.437 130.906C104.557 130.986 104.698 131.028 104.842 131.029C104.942 131.03 105.041 131.011 105.133 130.973C105.225 130.934 105.308 130.877 105.377 130.805C105.447 130.733 105.5 130.648 105.534 130.554C105.569 130.46 105.584 130.361 105.578 130.261Z" fill="white"/>
<path opacity="0.6" d="M109.062 130.025V131.249H108.804V130.943C108.729 131.053 108.627 131.141 108.507 131.198C108.387 131.256 108.255 131.281 108.122 131.27C107.677 131.27 107.403 131.034 107.403 130.69C107.403 130.347 107.596 130.154 108.165 130.154H108.793V130.035C108.801 129.963 108.792 129.89 108.768 129.821C108.744 129.753 108.704 129.691 108.653 129.639C108.601 129.588 108.539 129.548 108.47 129.524C108.402 129.5 108.329 129.491 108.256 129.499C108.015 129.495 107.78 129.579 107.596 129.735L107.478 129.536C107.705 129.355 107.988 129.26 108.278 129.268C108.381 129.255 108.486 129.266 108.585 129.3C108.684 129.333 108.774 129.388 108.849 129.46C108.924 129.533 108.982 129.621 109.019 129.719C109.056 129.816 109.07 129.921 109.062 130.025ZM108.793 130.653V130.331H108.17C107.789 130.331 107.666 130.481 107.666 130.685C107.666 130.889 107.848 131.055 108.165 131.055C108.299 131.064 108.432 131.03 108.545 130.957C108.658 130.885 108.745 130.778 108.793 130.653Z" fill="white"/>
<path opacity="0.6" d="M111.622 129.273V130.986C111.643 131.12 111.632 131.258 111.59 131.387C111.548 131.517 111.476 131.634 111.38 131.731C111.283 131.827 111.166 131.899 111.036 131.941C110.907 131.983 110.769 131.994 110.635 131.973C110.301 131.986 109.973 131.88 109.711 131.673L109.845 131.469C110.065 131.647 110.341 131.742 110.624 131.737C111.128 131.737 111.354 131.512 111.354 131.023V130.771C111.269 130.895 111.154 130.994 111.02 131.061C110.885 131.128 110.736 131.159 110.586 131.152C110.454 131.162 110.322 131.144 110.197 131.101C110.072 131.057 109.958 130.988 109.861 130.898C109.764 130.808 109.687 130.699 109.634 130.578C109.581 130.457 109.554 130.326 109.554 130.194C109.554 130.062 109.581 129.931 109.634 129.81C109.687 129.688 109.764 129.579 109.861 129.489C109.958 129.399 110.072 129.33 110.197 129.287C110.322 129.243 110.454 129.226 110.586 129.236C110.739 129.228 110.891 129.26 111.027 129.329C111.163 129.398 111.28 129.501 111.365 129.627V129.252L111.622 129.273ZM111.365 130.213C111.37 130.063 111.33 129.915 111.251 129.788C111.172 129.661 111.057 129.56 110.92 129.499C110.783 129.438 110.631 129.42 110.484 129.445C110.336 129.471 110.2 129.541 110.092 129.645C109.984 129.749 109.91 129.882 109.879 130.029C109.847 130.175 109.861 130.328 109.917 130.467C109.973 130.606 110.069 130.725 110.193 130.809C110.317 130.892 110.463 130.937 110.613 130.937C110.711 130.943 110.809 130.929 110.901 130.895C110.993 130.861 111.077 130.808 111.148 130.74C111.219 130.672 111.274 130.59 111.312 130.499C111.349 130.408 111.367 130.311 111.365 130.213Z" fill="white"/>
<path opacity="0.6" d="M113.861 130.025V131.249H113.609V130.943C113.534 131.052 113.431 131.14 113.311 131.198C113.192 131.255 113.059 131.28 112.927 131.27C112.476 131.27 112.202 131.034 112.202 130.69C112.202 130.347 112.401 130.154 112.97 130.154H113.592V130.035C113.592 129.697 113.405 129.499 113.056 129.499C112.816 129.496 112.583 129.58 112.401 129.735L112.277 129.536C112.506 129.355 112.791 129.26 113.082 129.268C113.186 129.256 113.29 129.268 113.388 129.302C113.486 129.335 113.576 129.39 113.65 129.463C113.725 129.535 113.782 129.623 113.819 129.72C113.855 129.817 113.869 129.921 113.861 130.025ZM113.592 130.653V130.331H112.975C112.589 130.331 112.465 130.481 112.465 130.685C112.465 130.889 112.653 131.055 112.97 131.055C113.103 131.065 113.236 131.031 113.348 130.958C113.461 130.885 113.546 130.778 113.592 130.653Z" fill="white"/>
<path opacity="0.6" d="M114.526 128.645C114.534 128.599 114.558 128.556 114.594 128.526C114.63 128.496 114.675 128.479 114.722 128.479C114.769 128.479 114.815 128.496 114.851 128.526C114.887 128.556 114.911 128.599 114.918 128.645C114.911 128.691 114.887 128.734 114.851 128.764C114.815 128.794 114.769 128.811 114.722 128.811C114.675 128.811 114.63 128.794 114.594 128.764C114.558 128.734 114.534 128.691 114.526 128.645ZM114.586 129.273H114.854V131.249H114.586V129.273Z" fill="white"/>
<path opacity="0.6" d="M117.415 130.1V131.249H117.152V130.127C117.167 130.044 117.162 129.958 117.138 129.878C117.114 129.797 117.071 129.723 117.013 129.662C116.955 129.601 116.883 129.554 116.804 129.526C116.724 129.497 116.639 129.488 116.556 129.499C116.461 129.492 116.366 129.506 116.278 129.54C116.189 129.573 116.109 129.626 116.043 129.694C115.977 129.762 115.927 129.844 115.896 129.934C115.865 130.023 115.854 130.118 115.863 130.213V131.249H115.6V129.273H115.852V129.638C115.932 129.514 116.044 129.412 116.176 129.345C116.309 129.278 116.456 129.248 116.604 129.257C116.715 129.248 116.828 129.264 116.932 129.304C117.037 129.344 117.131 129.406 117.208 129.487C117.286 129.568 117.345 129.664 117.38 129.77C117.416 129.876 117.428 129.989 117.415 130.1Z" fill="white"/>
</g>
<path opacity="0.4" d="M122.107 144.669H92.1892C91.007 144.668 89.8737 144.197 89.0382 143.361C88.2028 142.524 87.7335 141.39 87.7335 140.208C87.7335 139.026 88.2028 137.892 89.0382 137.056C89.8737 136.219 91.007 135.749 92.1892 135.747H122.107C123.29 135.747 124.424 136.217 125.261 137.054C126.098 137.89 126.568 139.025 126.568 140.208C126.568 141.391 126.098 142.526 125.261 143.363C124.424 144.199 123.29 144.669 122.107 144.669Z" fill="white"/>
<path d="M95.4799 139.983C95.4774 139.774 95.5178 139.567 95.5988 139.374C95.6797 139.181 95.7994 139.007 95.9505 138.863C96.1015 138.718 96.2806 138.606 96.4767 138.534C96.6728 138.462 96.8817 138.43 97.0904 138.442C97.3037 138.435 97.5161 138.473 97.7134 138.554C97.9106 138.636 98.0881 138.759 98.2338 138.915L97.9547 139.183C97.8468 139.067 97.7152 138.975 97.5689 138.914C97.4226 138.853 97.265 138.824 97.1065 138.829C96.9159 138.83 96.7287 138.879 96.5617 138.971C96.3946 139.063 96.2529 139.195 96.1492 139.355C96.0455 139.515 95.983 139.698 95.9673 139.888C95.9516 140.078 95.9832 140.269 96.0593 140.443C96.1353 140.618 96.2535 140.771 96.4032 140.889C96.553 141.007 96.7296 141.086 96.9173 141.119C97.105 141.152 97.298 141.139 97.479 141.079C97.66 141.019 97.8235 140.916 97.9547 140.777L98.2338 141.046C98.0873 141.202 97.9089 141.325 97.7107 141.407C97.5125 141.488 97.2992 141.526 97.085 141.518C96.877 141.53 96.6689 141.499 96.4734 141.427C96.278 141.355 96.0994 141.243 95.9489 141.099C95.7984 140.955 95.679 140.782 95.5984 140.59C95.5177 140.398 95.4774 140.191 95.4799 139.983Z" fill="white"/>
<path d="M98.5237 139.983C98.5087 139.662 98.5903 139.343 98.7579 139.069C98.9254 138.794 99.1714 138.576 99.464 138.442C99.7567 138.309 100.083 138.266 100.4 138.32C100.717 138.373 101.011 138.52 101.244 138.742C101.477 138.964 101.638 139.251 101.706 139.565C101.774 139.879 101.747 140.207 101.628 140.505C101.509 140.804 101.302 141.06 101.036 141.241C100.77 141.421 100.456 141.518 100.134 141.518C99.9262 141.529 99.7181 141.497 99.5227 141.425C99.3273 141.353 99.1488 141.241 98.998 141.098C98.8472 140.954 98.7273 140.781 98.6458 140.589C98.5642 140.397 98.5227 140.191 98.5237 139.983ZM101.288 139.983C101.292 139.75 101.226 139.522 101.099 139.328C100.972 139.133 100.79 138.981 100.576 138.89C100.362 138.799 100.126 138.774 99.8978 138.817C99.6696 138.861 99.4596 138.972 99.2945 139.135C99.1295 139.299 99.0168 139.508 98.971 139.736C98.9251 139.964 98.9481 140.2 99.037 140.415C99.1259 140.629 99.2767 140.813 99.4702 140.941C99.6637 141.07 99.8911 141.138 100.123 141.137C100.277 141.142 100.43 141.116 100.573 141.06C100.716 141.004 100.846 140.919 100.955 140.811C101.064 140.703 101.15 140.574 101.207 140.431C101.264 140.289 101.292 140.136 101.288 139.983Z" fill="white"/>
<path d="M104.96 138.501V141.507H104.606L102.802 139.263V141.507H102.373V138.501H102.727L104.531 140.74V138.501H104.96Z" fill="white"/>
<path d="M106.458 138.85H105.427V138.501H107.902V138.872H106.882V141.507H106.458V138.85Z" fill="white"/>
<path d="M108.38 138.501H108.809V141.507H108.38V138.501Z" fill="white"/>
<path d="M112.299 138.501V141.507H111.944L110.141 139.263V141.507H109.711V138.501H110.049L111.853 140.74V138.501H112.299Z" fill="white"/>
<path d="M113.174 140.187V138.501H113.603V140.192C113.603 140.858 113.909 141.158 114.451 141.158C114.994 141.158 115.3 140.858 115.3 140.192V138.501H115.718V140.208C115.718 140.546 115.584 140.869 115.346 141.108C115.107 141.346 114.783 141.481 114.446 141.481C114.109 141.481 113.785 141.346 113.546 141.108C113.308 140.869 113.174 140.546 113.174 140.208V140.187Z" fill="white"/>
<path d="M118.778 141.11V141.486H116.599V138.501H118.746V138.872H117.028V139.795H118.531V140.16H117.028V141.132L118.778 141.11Z" fill="white"/>
<path opacity="0.1" d="M159.164 70.6034C141.604 88.1952 96.5053 127.351 45.4048 124.452V70.6034H159.164Z" fill="white"/>
<path opacity="0.1" d="M172.396 102.936V154.874H95.9416C98.8727 144.385 104.735 130.019 116.105 119.755C136.558 101.288 160.296 101.342 172.396 102.936Z" fill="white"/>
<path d="M188.549 62.3201L190.332 70.19L192.114 62.3201H188.549Z" fill="#F94892"/>
<path opacity="0.7" d="M188.549 62.3201L190.332 70.19L192.114 62.3201H188.549Z" fill="white"/>
<path d="M210.28 40.0365H170.389C167.842 40.0365 165.777 42.1011 165.777 44.6478V59.4535C165.777 62.0003 167.842 64.0648 170.389 64.0648H210.28C212.827 64.0648 214.892 62.0003 214.892 59.4535V44.6478C214.892 42.1011 212.827 40.0365 210.28 40.0365Z" fill="#F94892"/>
<path opacity="0.7" d="M210.28 40.0365H170.389C167.842 40.0365 165.777 42.1011 165.777 44.6478V59.4535C165.777 62.0003 167.842 64.0648 170.389 64.0648H210.28C212.827 64.0648 214.892 62.0003 214.892 59.4535V44.6478C214.892 42.1011 212.827 40.0365 210.28 40.0365Z" fill="white"/>
<g opacity="0.5">
<path opacity="0.5" d="M175.585 48.8511V49.8872H175.161V48.8511L173.969 46.8971H174.431L175.392 48.5076L176.358 46.8971H176.782L175.585 48.8511Z" fill="#263238"/>
<path opacity="0.5" d="M176.686 48.7546C176.681 48.519 176.747 48.2876 176.875 48.0897C177.003 47.8918 177.187 47.7364 177.403 47.6433C177.619 47.5502 177.858 47.5236 178.09 47.5669C178.322 47.6103 178.535 47.7215 178.703 47.8866C178.871 48.0516 178.986 48.2629 179.034 48.4936C179.081 48.7243 179.059 48.964 178.97 49.182C178.881 49.4 178.729 49.5866 178.533 49.7179C178.338 49.8493 178.108 49.9194 177.872 49.9195C177.716 49.9269 177.56 49.9021 177.414 49.8465C177.268 49.7909 177.136 49.7057 177.024 49.5963C176.913 49.4869 176.825 49.3557 176.767 49.2108C176.709 49.066 176.681 48.9106 176.686 48.7546ZM178.634 48.7546C178.643 48.6487 178.63 48.5422 178.596 48.4417C178.561 48.3412 178.506 48.249 178.434 48.1708C178.362 48.0926 178.275 48.0302 178.178 47.9875C178.081 47.9448 177.976 47.9228 177.869 47.9228C177.763 47.9228 177.658 47.9448 177.561 47.9875C177.464 48.0302 177.376 48.0926 177.304 48.1708C177.232 48.249 177.177 48.3412 177.143 48.4417C177.109 48.5422 177.095 48.6487 177.104 48.7546C177.095 48.8604 177.109 48.9669 177.143 49.0674C177.177 49.1679 177.232 49.2602 177.304 49.3383C177.376 49.4165 177.464 49.4789 177.561 49.5216C177.658 49.5643 177.763 49.5864 177.869 49.5864C177.976 49.5864 178.081 49.5643 178.178 49.5216C178.275 49.4789 178.362 49.4165 178.434 49.3383C178.506 49.2602 178.561 49.1679 178.596 49.0674C178.63 48.9669 178.643 48.8604 178.634 48.7546Z" fill="#263238"/>
<path opacity="0.5" d="M181.743 47.6165V49.8926H181.356V49.549C181.267 49.6687 181.15 49.7649 181.015 49.8294C180.88 49.8939 180.732 49.9248 180.583 49.9194C180.45 49.9331 180.315 49.9168 180.189 49.8715C180.063 49.8263 179.948 49.7534 179.854 49.6581C179.76 49.5628 179.688 49.4476 179.644 49.321C179.6 49.1943 179.585 49.0595 179.601 48.9263V47.6165H180.014V48.8834C180.014 49.3289 180.239 49.549 180.631 49.549C180.73 49.5554 180.828 49.54 180.92 49.5038C181.011 49.4675 181.093 49.4115 181.161 49.3396C181.228 49.2677 181.278 49.1818 181.308 49.0881C181.339 48.9943 181.347 48.8951 181.335 48.7975V47.6165H181.743Z" fill="#263238"/>
<path opacity="0.5" d="M183.756 47.595V47.9976H183.659C183.559 47.9911 183.459 48.0069 183.365 48.044C183.272 48.081 183.188 48.1384 183.12 48.2119C183.051 48.2854 183 48.3732 182.97 48.4689C182.94 48.5646 182.931 48.6658 182.945 48.7652V49.8979H182.521V47.6164H182.918V48.0029C183.004 47.8621 183.129 47.7488 183.277 47.6765C183.426 47.6042 183.592 47.5759 183.756 47.595Z" fill="#263238"/>
<path opacity="0.5" d="M185.264 48.3895C185.25 48.0684 185.333 47.7504 185.501 47.4766C185.669 47.2027 185.916 46.9855 186.208 46.8528C186.501 46.7201 186.827 46.6781 187.144 46.7321C187.461 46.7862 187.754 46.9338 187.986 47.156C188.219 47.3782 188.379 47.6648 188.447 47.979C188.515 48.2931 188.488 48.6204 188.368 48.9188C188.248 49.2172 188.042 49.4729 187.776 49.6532C187.51 49.8334 187.196 49.9299 186.875 49.9302C186.666 49.942 186.457 49.9107 186.261 49.8384C186.065 49.7661 185.886 49.6542 185.735 49.5097C185.584 49.3652 185.464 49.1912 185.383 48.9985C185.302 48.8058 185.262 48.5985 185.264 48.3895ZM188.029 48.3895C188.032 48.1571 187.966 47.9291 187.839 47.7344C187.712 47.5398 187.53 47.3873 187.316 47.2964C187.102 47.2055 186.866 47.1803 186.638 47.2241C186.41 47.2678 186.2 47.3785 186.035 47.5421C185.87 47.7056 185.757 47.9146 185.711 48.1424C185.665 48.3702 185.688 48.6065 185.777 48.8212C185.866 49.0359 186.017 49.2192 186.211 49.3479C186.404 49.4766 186.631 49.5447 186.864 49.5437C187.017 49.5488 187.17 49.5226 187.313 49.4666C187.456 49.4105 187.586 49.3259 187.695 49.2178C187.804 49.1097 187.89 48.9805 187.947 48.8381C188.005 48.6957 188.032 48.543 188.029 48.3895Z" fill="#263238"/>
<path opacity="0.5" d="M189.671 47.2407H188.641V46.8702H191.11V47.2407H190.079V49.8711H189.655L189.671 47.2407Z" fill="#263238"/>
<path opacity="0.5" d="M194.02 47.9385C194.02 48.5881 193.547 48.9853 192.764 48.9853H192.023V49.8926H191.593V46.8917H192.764C193.547 46.8917 194.02 47.2836 194.02 47.9385ZM193.59 47.9385C193.59 47.5091 193.3 47.2621 192.753 47.2621H192.023V48.6096H192.753C193.3 48.6096 193.59 48.368 193.59 47.9385Z" fill="#263238"/>
<path opacity="0.5" d="M195.603 48.3895C195.618 48.0788 195.722 47.779 195.903 47.5262C196.084 47.2734 196.335 47.0785 196.624 46.9649C196.914 46.8514 197.23 46.8241 197.535 46.8864C197.839 46.9486 198.119 47.0978 198.341 47.3158L198.062 47.5896C197.954 47.4728 197.823 47.3802 197.677 47.3182C197.531 47.2562 197.373 47.2261 197.214 47.2299C196.908 47.2299 196.614 47.3515 196.398 47.568C196.181 47.7844 196.06 48.078 196.06 48.3841C196.06 48.6902 196.181 48.9838 196.398 49.2002C196.614 49.4167 196.908 49.5383 197.214 49.5383C197.373 49.5421 197.531 49.512 197.677 49.45C197.823 49.388 197.954 49.2955 198.062 49.1786L198.341 49.4524C198.119 49.6704 197.839 49.8196 197.535 49.8819C197.23 49.9441 196.914 49.9168 196.624 49.8033C196.335 49.6898 196.084 49.4948 195.903 49.242C195.722 48.9892 195.618 48.6894 195.603 48.3787V48.3895Z" fill="#263238"/>
<path opacity="0.5" d="M198.588 48.7546C198.584 48.519 198.65 48.2876 198.778 48.0897C198.905 47.8918 199.089 47.7364 199.305 47.6433C199.522 47.5502 199.761 47.5236 199.993 47.5669C200.224 47.6103 200.437 47.7215 200.606 47.8866C200.774 48.0516 200.889 48.2629 200.936 48.4936C200.984 48.7243 200.962 48.964 200.873 49.182C200.783 49.4 200.631 49.5866 200.436 49.7179C200.24 49.8493 200.01 49.9194 199.775 49.9195C199.619 49.9269 199.463 49.9021 199.317 49.8465C199.171 49.7909 199.038 49.7057 198.927 49.5963C198.815 49.4869 198.728 49.3557 198.669 49.2108C198.611 49.066 198.584 48.9106 198.588 48.7546ZM200.537 48.7546C200.546 48.6487 200.533 48.5422 200.498 48.4417C200.464 48.3412 200.409 48.249 200.337 48.1708C200.265 48.0926 200.178 48.0302 200.08 47.9875C199.983 47.9448 199.878 47.9228 199.772 47.9228C199.666 47.9228 199.561 47.9448 199.463 47.9875C199.366 48.0302 199.279 48.0926 199.207 48.1708C199.135 48.249 199.08 48.3412 199.046 48.4417C199.011 48.5422 198.998 48.6487 199.007 48.7546C198.998 48.8604 199.011 48.9669 199.046 49.0674C199.08 49.1679 199.135 49.2602 199.207 49.3383C199.279 49.4165 199.366 49.4789 199.463 49.5216C199.561 49.5643 199.666 49.5864 199.772 49.5864C199.878 49.5864 199.983 49.5643 200.08 49.5216C200.178 49.4789 200.265 49.4165 200.337 49.3383C200.409 49.2602 200.464 49.1679 200.498 49.0674C200.533 48.9669 200.546 48.8604 200.537 48.7546Z" fill="#263238"/>
<path opacity="0.5" d="M203.672 46.7039V49.8872H203.28V49.5276C203.186 49.6528 203.064 49.7534 202.922 49.8207C202.781 49.888 202.626 49.9201 202.469 49.9141C202.175 49.894 201.899 49.7629 201.697 49.5471C201.496 49.3314 201.384 49.0471 201.384 48.7519C201.384 48.4566 201.496 48.1723 201.697 47.9566C201.899 47.7408 202.175 47.6097 202.469 47.5896C202.621 47.585 202.772 47.6155 202.91 47.6789C203.047 47.7422 203.169 47.8366 203.264 47.9547V46.7039H203.672ZM203.264 48.7492C203.257 48.5989 203.205 48.4542 203.116 48.3329C203.027 48.2115 202.905 48.119 202.764 48.0668C202.623 48.0146 202.469 48.005 202.323 48.0392C202.176 48.0733 202.043 48.1498 201.94 48.259C201.836 48.3682 201.767 48.5055 201.741 48.6536C201.715 48.8017 201.733 48.9543 201.793 49.0923C201.853 49.2303 201.952 49.3476 202.078 49.4298C202.204 49.5119 202.351 49.5553 202.502 49.5544C202.606 49.5569 202.709 49.5377 202.805 49.4978C202.901 49.458 202.988 49.3986 203.06 49.3232C203.132 49.2479 203.187 49.1584 203.222 49.0605C203.257 48.9625 203.271 48.8583 203.264 48.7545V48.7492Z" fill="#263238"/>
<path opacity="0.5" d="M206.501 48.8941H204.66C204.685 49.0892 204.785 49.267 204.937 49.3909C205.09 49.5148 205.285 49.5752 205.481 49.5598C205.603 49.5642 205.725 49.542 205.838 49.4947C205.952 49.4474 206.053 49.3762 206.136 49.286L206.367 49.5491C206.199 49.7195 205.985 49.8376 205.751 49.8892C205.517 49.9407 205.273 49.9234 205.049 49.8394C204.825 49.7553 204.63 49.6082 204.487 49.4157C204.345 49.2232 204.261 48.9936 204.246 48.7546C204.24 48.6021 204.266 48.45 204.321 48.3077C204.376 48.1654 204.46 48.0359 204.567 47.9273C204.674 47.8186 204.802 47.733 204.944 47.6759C205.085 47.6188 205.237 47.5912 205.39 47.595C205.544 47.5874 205.698 47.613 205.841 47.6701C205.984 47.7272 206.113 47.8145 206.22 47.9261C206.326 48.0376 206.407 48.1708 206.458 48.3166C206.508 48.4623 206.527 48.6172 206.512 48.7707C206.51 48.812 206.507 48.8532 206.501 48.8941ZM204.66 48.5989H206.141C206.126 48.4167 206.042 48.2471 205.907 48.1235C205.773 47.9999 205.597 47.9313 205.414 47.9313C205.231 47.9313 205.055 47.9999 204.92 48.1235C204.786 48.2471 204.702 48.4167 204.686 48.5989H204.66Z" fill="#263238"/>
</g>
<g opacity="0.5">
<path opacity="0.5" d="M184.131 54.5952C184.131 56.2862 183.181 57.1881 181.791 57.1881C181.363 57.2032 180.938 57.1031 180.562 56.8982L180.83 56.3614C181.12 56.5267 181.452 56.6067 181.786 56.5922C182.789 56.5922 183.428 55.9641 183.428 54.7241V54.5523C183.262 54.77 183.045 54.9432 182.796 55.0565C182.547 55.1699 182.273 55.2198 182 55.2018C181.789 55.2251 181.575 55.2038 181.372 55.1393C181.169 55.0749 180.982 54.9687 180.823 54.8277C180.664 54.6866 180.536 54.5137 180.447 54.3202C180.359 54.1267 180.312 53.9168 180.309 53.7041C180.314 53.4845 180.364 53.2682 180.456 53.0686C180.548 52.869 180.68 52.6903 180.843 52.5434C181.006 52.3966 181.198 52.2848 181.406 52.2148C181.615 52.1448 181.835 52.1182 182.054 52.1366C183.38 52.1258 184.131 53.017 184.131 54.5952ZM183.256 53.6826C183.256 53.1726 182.848 52.7271 182.075 52.7271C181.94 52.7128 181.804 52.727 181.675 52.7687C181.546 52.8105 181.427 52.8788 181.325 52.9693C181.224 53.0599 181.143 53.1706 181.087 53.2944C181.032 53.4181 181.003 53.5522 181.002 53.688C181.002 54.2678 181.431 54.6435 182.124 54.6435C182.262 54.6575 182.401 54.6435 182.534 54.6024C182.666 54.5612 182.789 54.4938 182.895 54.4041C183 54.3144 183.087 54.2042 183.149 54.0802C183.211 53.9563 183.248 53.821 183.256 53.6826Z" fill="#263238"/>
<path opacity="0.5" d="M184.808 54.6597C184.808 53.0492 185.672 52.1259 186.832 52.1259C187.991 52.1259 188.845 53.0492 188.845 54.6597C188.845 56.2702 187.98 57.1881 186.832 57.1881C185.683 57.1881 184.808 56.2702 184.808 54.6597ZM188.136 54.6597C188.136 53.3928 187.599 52.7593 186.832 52.7593C186.064 52.7593 185.516 53.3928 185.516 54.6597C185.516 55.9266 186.053 56.56 186.832 56.56C187.61 56.56 188.136 55.9266 188.136 54.6597Z" fill="#263238"/>
<path opacity="0.5" d="M192.984 56.5171V57.1344H189.425V56.6513L191.443 54.708C191.98 54.198 192.06 53.8866 192.06 53.5753C192.06 53.0707 191.701 52.7593 190.987 52.7593C190.749 52.7453 190.512 52.7865 190.293 52.8796C190.074 52.9728 189.88 53.1153 189.725 53.2961L189.242 52.8774C189.469 52.6259 189.749 52.4281 190.062 52.2981C190.375 52.1681 190.713 52.1093 191.051 52.1258C192.082 52.1258 192.748 52.6627 192.748 53.5055C192.74 53.8095 192.662 54.1077 192.522 54.3774C192.381 54.6472 192.181 54.8814 191.937 55.0623L190.423 56.5171H192.984Z" fill="#263238"/>
<path opacity="0.5" d="M195.099 52.1849V57.1344H194.396V52.8022H193.258V52.1849H195.099Z" fill="#263238"/>
<path opacity="0.5" d="M196.178 54.6597C196.178 53.0492 197.042 52.1259 198.202 52.1259C199.361 52.1259 200.215 53.0492 200.215 54.6597C200.215 56.2702 199.356 57.1881 198.202 57.1881C197.048 57.1881 196.178 56.2702 196.178 54.6597ZM199.512 54.6597C199.512 53.3928 198.975 52.7593 198.202 52.7593C197.429 52.7593 196.886 53.3928 196.886 54.6597C196.886 55.9266 197.423 56.56 198.202 56.56C198.98 56.56 199.512 55.9266 199.512 54.6597Z" fill="#263238"/>
</g>
<path d="M185.919 85.4037C189.124 87.6213 192.708 89.2316 196.495 90.1546H196.532C196.249 90.1465 195.97 90.2251 195.732 90.3801C195.498 90.526 195.312 90.7367 195.195 90.9867C195.156 91.0633 195.134 91.1476 195.131 91.2336C195.217 90.1063 194.728 88.8394 194.385 87.6208C193.767 85.6936 193.043 83.7181 192.318 81.7801L194.39 80.6689C196.103 83.294 201.82 91.604 197.917 94.009C197.248 94.3992 196.457 94.5256 195.7 94.3633C191.448 93.7334 187.392 92.1516 183.836 89.7359C183.589 89.5641 183.374 89.4138 183.085 89.1991L185.93 85.393L185.919 85.4037Z" fill="#DC897C"/>
<path d="M185.318 84.8185C187.197 85.0451 188.982 85.7698 190.487 86.9175L188.34 93.5634C188.34 93.5634 177.904 83.9435 185.318 84.8185Z" fill="#F94892"/>
<path opacity="0.6" d="M185.296 90.4069C186.252 91.501 187.262 92.5456 188.324 93.5366L189.21 90.8042L190.487 86.8907C188.984 85.7438 187.201 85.0192 185.323 84.7917C180.76 84.2817 182.94 87.696 185.296 90.4069Z" fill="white"/>
<path opacity="0.2" d="M185.296 90.4069C186.252 91.501 187.262 92.5456 188.324 93.5366L189.21 90.8042C188.096 89.9363 186.725 89.4641 185.312 89.4621C185.28 89.776 185.275 90.0921 185.296 90.4069Z" fill="black"/>
<path d="M162.122 74.9893C162.122 74.9893 157.129 91.5879 167.645 93.8158C178.162 96.0436 179.3 88.4045 179.3 88.4045C179.3 88.4045 170.657 75.3275 162.122 74.9893Z" fill="#263238"/>
<path d="M159.657 80.4863C159.638 80.4919 159.618 80.4919 159.598 80.4863C159.583 80.479 159.57 80.4686 159.559 80.4558C159.548 80.4431 159.539 80.4282 159.534 80.4121C159.529 80.396 159.528 80.379 159.529 80.3622C159.531 80.3455 159.536 80.3292 159.545 80.3146C159.702 80.0281 159.923 79.7821 160.191 79.5958C160.46 79.4094 160.768 79.288 161.091 79.2409C161.124 79.242 161.156 79.255 161.181 79.2777C161.205 79.3004 161.221 79.3311 161.225 79.3644C161.226 79.3813 161.225 79.3984 161.219 79.4146C161.214 79.4307 161.206 79.4458 161.195 79.4587C161.184 79.4717 161.171 79.4824 161.155 79.4902C161.14 79.4979 161.124 79.5026 161.107 79.504C160.827 79.5496 160.561 79.6585 160.33 79.8222C160.098 79.9859 159.907 80.2001 159.77 80.4488C159.756 80.4644 159.739 80.4762 159.719 80.4828C159.699 80.4894 159.678 80.4906 159.657 80.4863Z" fill="#263238"/>
<path d="M161.161 82.5478C161.093 83.1948 160.947 83.8311 160.726 84.4428C160.892 84.5421 161.082 84.5945 161.276 84.5945C161.47 84.5945 161.66 84.5421 161.826 84.4428L161.161 82.5478Z" fill="#DE5753"/>
<path d="M160.146 81.8231C160.259 82.1183 160.511 82.2955 160.683 82.2203C160.855 82.1452 160.951 81.8499 160.838 81.5547C160.726 81.2594 160.473 81.0822 160.302 81.1574C160.13 81.2326 160.039 81.5278 160.146 81.8231Z" fill="#263238"/>
<path d="M160.388 81.1413H159.652C159.652 81.1413 160.178 81.5493 160.388 81.1413Z" fill="#263238"/>
<path d="M170.834 84.6092C170.816 84.6573 170.79 84.7025 170.759 84.7434C170.711 84.8346 170.657 84.9205 170.603 85.0118C170.289 85.5775 169.87 86.0784 169.369 86.4881C167.758 87.7711 166.357 88.1576 165.138 87.7872L164.961 87.7281C163.152 86.9927 161.74 84.8293 160.618 81.968C160.121 80.8483 159.807 79.6555 159.69 78.4357C159.69 78.4357 159.69 78.3927 159.69 78.382C159.69 78.3712 159.69 78.2853 159.69 78.2424C159.648 77.5433 159.781 76.8448 160.077 76.2102C160.373 75.5756 160.823 75.0249 161.386 74.6081C161.867 74.2304 162.389 73.908 162.943 73.6472C168.306 71.0328 173.524 79.5469 170.834 84.6092Z" fill="#E4897B"/>
<path opacity="0.2" d="M170.603 85.0118C170.289 85.5775 169.87 86.0784 169.369 86.4881C167.758 87.7711 166.357 88.1576 165.138 87.7872C166.323 87.5 167.39 86.8531 168.193 85.9352C168.503 85.6143 168.879 85.3654 169.296 85.2059C169.712 85.0463 170.159 84.9801 170.603 85.0118Z" fill="black"/>
<path d="M159.663 78.4034C159.663 78.4034 161.161 82.3437 165.536 82.274C165.536 82.274 168.95 85.4949 171.253 84.4696C174.393 83.0792 175.038 77.3674 171.838 73.3788C167.683 68.2037 158.621 71.9347 159.663 78.4034Z" fill="#263238"/>
<path d="M163.195 82.0485C162.916 81.4526 162.921 80.234 163.904 79.9334C164.886 79.6328 166.588 81.7211 164.473 83.353C164.172 83.5892 163.775 83.2832 163.195 82.0485Z" fill="#E4897B"/>
<path d="M164.371 71.2314C164.371 71.2314 160.312 72.0313 159.003 74.4524C157.467 77.2654 157.392 79.4449 161.472 80.8943C161.472 80.8943 166.631 76.0629 168.853 75.5261C170.148 75.2047 171.468 74.9928 172.799 74.8926C171.317 70.6034 166.008 69.4546 164.371 71.2314Z" fill="#263238"/>
<path d="M168.306 86.59C168.306 86.59 171.097 88.5226 171.822 91.7114L180.524 86.633C180.524 86.633 173.712 85.0816 172.541 82.4457C172.541 82.4457 167.989 83.0094 168.306 86.59Z" fill="#E4897B"/>
<path d="M176.949 107.499C176.949 107.499 165.675 96.4247 164.462 92.9461C164.462 92.9461 169.202 85.5647 178.677 85.2534C188.152 84.942 194.6 102.969 194.6 102.969L176.949 107.499Z" fill="#F94892"/>
<path opacity="0.6" d="M194.6 102.974L176.954 107.505C176.954 107.505 174.495 105.084 171.747 102.137C170.899 101.219 170.013 100.252 169.159 99.2967C166.921 96.7576 164.945 94.2774 164.467 92.93C164.467 92.93 169.202 85.5486 178.677 85.2373C188.152 84.9259 194.6 102.974 194.6 102.974Z" fill="white"/>
<path d="M166.416 80.3844C166.416 80.3844 168.064 85.86 173.851 87.6745C179.638 89.4889 178.183 95.3994 183.793 94.7015C186.778 94.3311 189.333 88.2596 180.18 82.8913C174.844 79.7724 176.916 69.519 165.589 70.4799C165.579 70.4853 167.93 77.5123 166.416 80.3844Z" fill="#263238"/>
<path d="M172.037 190.965L169.353 190.353C169.755 176.933 171.693 160.704 173.406 148.513C173.674 146.602 173.942 144.798 174.189 143.113C174.313 142.313 174.426 141.545 174.538 140.804C175.075 137.148 175.569 134.26 175.864 132.473C176.084 131.168 176.208 130.454 176.208 130.454L185.871 132.811L185.178 135.248L182.897 143.3L182.639 144.218L181.125 149.528L178.559 158.562C178.72 172.203 172.037 190.965 172.037 190.965Z" fill="#E4897B"/>
<path d="M195.013 188.721L192.264 188.582C190.171 174.152 189.29 156.104 188.909 143.558C188.855 141.615 188.807 139.8 188.77 138.147C188.77 138.066 188.77 137.986 188.77 137.905C188.7 134.636 188.668 132.038 188.651 130.39C188.651 129.101 188.651 128.398 188.651 128.398L198.567 129.048L198.143 133.181L197.52 139.247L197.396 140.439L196.967 144.573L195.807 155.68C198.341 169.1 195.013 188.721 195.013 188.721Z" fill="#E4897B"/>
<path d="M196.044 188.184C196.044 187.841 191.803 188.109 191.803 188.109C191.803 188.109 189.199 190.756 186.671 191.33C184.142 191.905 185.559 193.445 188.383 193.445H195.362C197.38 193.467 196.124 191.754 196.044 188.184Z" fill="#263238"/>
<path d="M189.204 189.092C189.143 189.036 189.1 188.963 189.082 188.882C189.064 188.802 189.071 188.717 189.102 188.641C189.119 188.581 189.148 188.525 189.186 188.476C189.225 188.427 189.273 188.386 189.328 188.356C189.629 188.233 189.958 188.196 190.278 188.249C189.935 188.066 189.634 187.846 189.618 187.621C189.618 187.476 189.704 187.358 189.897 187.266C189.981 187.228 190.073 187.208 190.165 187.208C190.258 187.208 190.349 187.228 190.434 187.266C191.008 187.508 191.362 188.496 191.379 188.533C191.39 188.561 191.39 188.592 191.379 188.619V188.646C191.368 188.658 191.355 188.667 191.341 188.673C190.794 188.953 190.201 189.135 189.591 189.21C189.452 189.219 189.314 189.177 189.204 189.092ZM189.441 188.555C189.411 188.57 189.386 188.59 189.364 188.615C189.343 188.64 189.327 188.669 189.317 188.7C189.274 188.866 189.317 188.909 189.317 188.925C189.521 189.092 190.294 188.855 190.928 188.592C190.446 188.44 189.931 188.425 189.441 188.55V188.555ZM189.977 187.481C189.918 187.481 189.822 187.562 189.827 187.621C189.827 187.809 190.444 188.158 191.067 188.378C190.928 188.006 190.675 187.688 190.342 187.47C190.289 187.445 190.23 187.432 190.171 187.433C190.11 187.433 190.049 187.446 189.994 187.47L189.977 187.481Z" fill="#263238"/>
<path d="M173.395 188.184C173.395 187.841 169.159 188.109 169.159 188.109C169.159 188.109 166.556 190.756 164.027 191.33C161.499 191.905 162.911 193.445 165.734 193.445H172.713C174.737 193.467 173.486 191.754 173.395 188.184Z" fill="#263238"/>
<path d="M166.561 189.092C166.501 189.035 166.459 188.962 166.441 188.882C166.423 188.801 166.429 188.718 166.459 188.641C166.476 188.581 166.504 188.525 166.543 188.476C166.582 188.427 166.63 188.386 166.685 188.356C166.985 188.234 167.314 188.197 167.635 188.249C167.291 188.066 166.991 187.846 166.98 187.621C166.98 187.478 167.071 187.36 167.254 187.266C167.338 187.228 167.429 187.208 167.522 187.208C167.615 187.208 167.706 187.228 167.79 187.266C168.365 187.508 168.719 188.496 168.735 188.533C168.742 188.547 168.745 188.561 168.745 188.576C168.745 188.591 168.742 188.606 168.735 188.619C168.735 188.619 168.735 188.619 168.735 188.646L168.698 188.673C168.148 188.952 167.554 189.134 166.942 189.21C166.805 189.217 166.67 189.175 166.561 189.092ZM166.797 188.555C166.769 188.57 166.744 188.59 166.723 188.615C166.703 188.64 166.688 188.669 166.679 188.7C166.636 188.866 166.679 188.909 166.706 188.925C166.905 189.092 167.678 188.855 168.317 188.592C167.824 188.434 167.298 188.419 166.797 188.55V188.555ZM167.334 187.481C167.275 187.481 167.178 187.562 167.184 187.621C167.184 187.809 167.801 188.158 168.429 188.378C168.288 188.005 168.033 187.688 167.699 187.47C167.646 187.445 167.587 187.432 167.527 187.433C167.466 187.433 167.406 187.446 167.35 187.47L167.334 187.481Z" fill="#263238"/>
<path d="M174.662 134.491L176.949 118.386V107.489C182.977 102.958 194.6 102.958 194.6 102.958C194.6 102.958 203.527 115.342 199.189 135.704L187.98 137.315L187.266 133.514L185.86 137.315L174.662 134.491Z" fill="#263238"/>
<path opacity="0.2" d="M174.662 134.491L176.949 118.386V107.489C182.977 102.958 194.6 102.958 194.6 102.958C194.6 102.958 203.527 115.342 199.189 135.704L187.98 137.315L187.266 133.514L185.86 137.315L174.662 134.491Z" fill="white"/>
<path opacity="0.2" d="M187.266 133.573L189.414 126.868C189.414 126.868 191.679 126.181 194.589 121.682C194.6 121.682 194.095 129.338 187.266 133.573Z" fill="black"/>
<path opacity="0.2" d="M182.489 110.586L187.519 110.108C188.322 111.989 188.6 114.052 188.324 116.078L185.103 118.016L182.768 116.357C182.768 116.357 182.693 112.1 182.489 110.586Z" fill="black"/>
<path opacity="0.2" d="M194.599 109.357C195.274 111.016 195.773 112.742 196.086 114.505L197.869 115.262L198.83 114.065C198.83 114.065 198.18 110.559 197.08 108.841L194.599 109.357Z" fill="black"/>
<path d="M174.452 133.573L186.349 137.062L185.602 138.662L174.302 135.184L174.452 133.573Z" fill="#263238"/>
<path d="M187.519 136.832L187.717 138.303L199.383 136.832L199.56 134.98L187.519 136.832Z" fill="#263238"/>
<path d="M189.967 105.218C191.875 104.896 193.803 104.707 195.738 104.654L195.018 103.468C193.137 103.418 191.255 103.53 189.392 103.801L189.967 105.218Z" fill="#263238"/>
<path d="M179.268 106.678C177.727 107.344 176.841 107.843 176.841 107.843V109.309C177.707 108.872 178.575 108.473 179.445 108.111L179.268 106.678Z" fill="#263238"/>
<path d="M180.009 107.902C182.992 106.732 186.088 105.871 189.247 105.331L188.711 103.903C185.648 104.413 182.654 105.274 179.788 106.469L180.009 107.902Z" fill="#263238"/>
<path d="M147.756 112.095L144.707 110.871L144.17 113.748C144.17 113.748 146.919 115.412 148.067 113.431L147.756 112.095Z" fill="#E4897B"/>
<path d="M143.193 111.048L142.216 113.27L144.192 113.748L144.707 110.871L143.193 111.048Z" fill="#E4897B"/>
<path d="M194.551 81.1681L194.192 77.9042L191.411 78.8061C191.411 78.8061 191.239 82.0271 193.531 82.0915L194.551 81.1681Z" fill="#E4897B"/>
<path d="M193.316 76.6534L190.895 76.8466L191.411 78.8061L194.191 77.9042L193.316 76.6534Z" fill="#E4897B"/>
<path opacity="0.2" d="M171.747 102.153C170.899 101.235 170.013 100.268 169.159 99.3128C168.832 97.3158 168.622 95.5551 168.622 95.5551C169.645 96.3136 170.465 97.3124 171.01 98.4631C171.555 99.6137 171.808 100.881 171.747 102.153Z" fill="black"/>
<path d="M168.934 94.6317C167.704 99.5891 165.848 104.37 163.41 108.858C160.994 113.447 151.809 114 147.192 114.119L146.978 111.778C149.758 111.123 158.401 109.4 159.582 106.893C161.51 102.549 163.097 98.0622 164.328 93.4722L168.934 94.621V94.6317Z" fill="#DC897C"/>
<path d="M166.303 90.5841C163.678 92.3019 162.272 96.7683 161.826 98.9532L167.28 102.969L170.034 100.285C171.151 94.1218 167.302 89.9345 166.303 90.5841Z" fill="#F94892"/>
<path opacity="0.6" d="M166.303 90.5841C163.678 92.3019 162.272 96.7683 161.826 98.9532L167.28 102.969L170.034 100.285C171.151 94.1218 167.302 89.9345 166.303 90.5841Z" fill="white"/>
<path d="M192.93 82.215L189.033 82.6337C188.978 82.6352 188.923 82.6254 188.872 82.6048C188.821 82.5841 188.775 82.5532 188.737 82.5138C188.698 82.4745 188.669 82.4276 188.649 82.3761C188.63 82.3247 188.622 82.2698 188.625 82.215L188.388 73.9639C188.381 73.8473 188.416 73.7319 188.487 73.6391C188.558 73.5463 188.66 73.4824 188.775 73.4593L192.667 73.046C192.722 73.0436 192.777 73.0528 192.828 73.0732C192.88 73.0935 192.926 73.1245 192.965 73.164C193.003 73.2035 193.033 73.2507 193.052 73.3026C193.071 73.3544 193.079 73.4096 193.075 73.4647L193.311 81.7157C193.319 81.8309 193.284 81.945 193.214 82.0368C193.144 82.1285 193.043 82.1918 192.93 82.215Z" fill="#263238"/>
<path opacity="0.6" d="M192.93 82.215L189.033 82.6337C188.978 82.6352 188.923 82.6254 188.872 82.6048C188.821 82.5841 188.775 82.5532 188.737 82.5138C188.698 82.4745 188.669 82.4276 188.649 82.3761C188.63 82.3247 188.622 82.2698 188.625 82.215L188.388 73.9639C188.381 73.8473 188.416 73.7319 188.487 73.6391C188.558 73.5463 188.66 73.4824 188.775 73.4593L192.667 73.046C192.722 73.0436 192.777 73.0528 192.828 73.0732C192.88 73.0935 192.926 73.1245 192.965 73.164C193.003 73.2035 193.033 73.2507 193.052 73.3026C193.071 73.3544 193.079 73.4096 193.075 73.4647L193.311 81.7157C193.319 81.8309 193.284 81.945 193.214 82.0368C193.144 82.1285 193.043 82.1918 192.93 82.215Z" fill="white"/>
<path d="M192.586 82.2525L188.694 82.6658C188.639 82.669 188.584 82.6604 188.533 82.6407C188.481 82.621 188.434 82.5907 188.395 82.5517C188.356 82.5127 188.326 82.4658 188.306 82.4143C188.287 82.3627 188.278 82.3076 188.281 82.2525L188.05 73.9961C188.04 73.8804 188.074 73.7651 188.144 73.6728C188.215 73.5805 188.317 73.5178 188.431 73.4968L192.323 73.0835C192.378 73.0812 192.433 73.0903 192.483 73.1103C192.534 73.1303 192.581 73.1608 192.619 73.1997C192.657 73.2387 192.687 73.2852 192.707 73.3364C192.726 73.3876 192.734 73.4422 192.731 73.4968L192.968 81.7532C192.977 81.8689 192.944 81.9842 192.873 82.0765C192.803 82.1688 192.701 82.2315 192.586 82.2525Z" fill="#263238"/>
<path opacity="0.7" d="M192.586 82.2525L188.694 82.6658C188.639 82.669 188.584 82.6604 188.533 82.6407C188.481 82.621 188.434 82.5907 188.395 82.5517C188.356 82.5127 188.326 82.4658 188.306 82.4143C188.287 82.3627 188.278 82.3076 188.281 82.2525L188.05 73.9961C188.04 73.8804 188.074 73.7651 188.144 73.6728C188.215 73.5805 188.317 73.5178 188.431 73.4968L192.323 73.0835C192.378 73.0812 192.433 73.0903 192.483 73.1103C192.534 73.1303 192.581 73.1608 192.619 73.1997C192.657 73.2387 192.687 73.2852 192.707 73.3364C192.726 73.3876 192.734 73.4422 192.731 73.4968L192.968 81.7532C192.977 81.8689 192.944 81.9842 192.873 82.0765C192.803 82.1688 192.701 82.2315 192.586 82.2525Z" fill="white"/>
<path d="M192.329 73.2446L191.309 73.3519L191.18 73.6686L189.602 73.8351L189.457 73.5505L188.437 73.6579C188.363 73.6733 188.297 73.715 188.252 73.7752C188.206 73.8355 188.184 73.9101 188.19 73.9854L188.421 82.2364C188.418 82.2723 188.424 82.3082 188.436 82.3419C188.449 82.3755 188.469 82.406 188.494 82.4315C188.519 82.4569 188.55 82.4766 188.584 82.4892C188.617 82.5019 188.653 82.5072 188.689 82.5048L192.581 82.0915C192.654 82.0772 192.72 82.0366 192.766 81.9772C192.811 81.9179 192.833 81.8439 192.828 81.7694L192.597 73.513C192.599 73.4773 192.593 73.4417 192.58 73.4085C192.567 73.3752 192.547 73.345 192.522 73.3198C192.497 73.2946 192.466 73.2748 192.433 73.2619C192.4 73.2489 192.364 73.243 192.329 73.2446Z" fill="#F94892"/>
<path opacity="0.8" d="M191.808 76.2293L188.947 76.5353C188.912 76.5368 188.877 76.5311 188.844 76.5184C188.812 76.5057 188.782 76.4864 188.757 76.4617C188.733 76.4369 188.713 76.4073 188.701 76.3747C188.688 76.3421 188.682 76.3072 188.684 76.2723V75.4778C188.677 75.4037 188.698 75.3298 188.743 75.2703C188.787 75.2108 188.852 75.17 188.925 75.1557L191.792 74.8497C191.827 74.8489 191.862 74.8553 191.894 74.8687C191.926 74.882 191.956 74.9019 191.98 74.9272C192.004 74.9524 192.023 74.9824 192.035 75.0153C192.047 75.0482 192.052 75.0832 192.05 75.1181L192.076 75.9126C192.081 75.9898 192.056 76.0658 192.006 76.1247C191.956 76.1837 191.885 76.2212 191.808 76.2293Z" fill="white"/>
</svg>
