<svg width="10" height="13" viewBox="0 0 10 13" fill="none" xmlns="http://www.w3.org/2000/svg">
<path d="M9.2602 5.0828L5.58243 10.3352C4.87566 11.3446 3.48566 11.5897 2.47628 10.8829C1.46691 10.1761 1.22182 8.78612 1.92859 7.77675L5.92616 2.06762C6.3675 1.43733 7.23722 1.28397 7.86751 1.72531C8.49779 2.16664 8.65115 3.03636 8.20982 3.66665L4.85185 8.46232C4.67596 8.71352 4.3288 8.77673 4.07532 8.59924C3.82183 8.42175 3.7625 8.07391 3.93839 7.82271L6.97655 3.48377L6.29145 3.00406L3.2533 7.343C2.81196 7.97329 2.96532 8.84301 3.59561 9.28434C4.22589 9.72567 5.09561 9.57232 5.53695 8.94203L8.89491 4.14636C9.60168 3.13698 9.35659 1.74698 8.34722 1.04021C7.33784 0.333439 5.94784 0.578534 5.24107 1.58791L1.24349 7.29704C0.271281 8.6855 0.610398 10.5974 1.99657 11.568C3.38275 12.5386 5.29531 12.2034 6.26753 10.8149L9.9453 5.56251L9.2602 5.0828Z" fill="#F94892"/>
</svg>
