<svg width="327" height="163" viewBox="0 0 327 163" fill="none" xmlns="http://www.w3.org/2000/svg">
<g opacity="0.66">
<g opacity="0.66">
<g opacity="0.66">
<path opacity="0.66" d="M190.017 60.1849H188.35C187.645 60.1849 187.09 59.608 187.09 58.9243V57.0439C187.09 56.702 186.876 56.3815 186.534 56.2533C186.342 56.1892 186.149 56.1037 185.957 56.0183C185.637 55.8687 185.252 55.9328 184.996 56.1892L183.671 57.514C183.436 57.749 183.115 57.8772 182.773 57.8772C182.432 57.8772 182.111 57.749 181.876 57.514L180.701 56.3388C180.209 55.8473 180.209 55.0354 180.701 54.5439L182.026 53.2191C182.282 52.9627 182.346 52.5781 182.196 52.2576C182.111 52.0653 182.026 51.873 181.961 51.6806C181.833 51.3601 181.513 51.1251 181.171 51.1251H179.29C178.585 51.1251 178.03 50.5482 178.03 49.8644V48.1977C178.03 47.4926 178.607 46.937 179.29 46.937H181.171C181.513 46.937 181.833 46.7234 181.961 46.3815C182.026 46.1892 182.111 45.9969 182.196 45.8046C182.346 45.4841 182.282 45.0994 182.026 44.843L180.701 43.5182C180.209 43.0268 180.209 42.2148 180.701 41.7234L181.876 40.5481C182.367 40.0567 183.179 40.0567 183.671 40.5481L184.996 41.8729C185.252 42.1293 185.637 42.1934 185.957 42.0439C186.149 41.9584 186.342 41.8729 186.534 41.8088C186.855 41.6806 187.09 41.3601 187.09 41.0182V39.1379C187.09 38.4328 187.667 37.8772 188.35 37.8772H190.017C190.722 37.8772 191.278 38.4541 191.278 39.1379V41.0182C191.278 41.3601 191.491 41.6806 191.833 41.8088C192.026 41.8729 192.218 41.9584 192.41 42.0439C192.731 42.1934 193.115 42.1293 193.372 41.8729L194.696 40.5481C195.188 40.0567 196 40.0567 196.491 40.5481L197.667 41.7234C198.158 42.2148 198.158 43.0268 197.667 43.5182L196.342 44.843C196.085 45.0994 196.021 45.4841 196.171 45.8046C196.256 45.9969 196.342 46.1892 196.406 46.3815C196.534 46.702 196.855 46.937 197.196 46.937H199.077C199.782 46.937 200.338 47.514 200.338 48.1977V49.8644C200.338 50.5695 199.761 51.1251 199.077 51.1251H197.196C196.855 51.1251 196.534 51.3388 196.406 51.6806C196.342 51.873 196.256 52.0653 196.171 52.2576C196.021 52.5781 196.085 52.9627 196.342 53.2191L197.667 54.5439C198.158 55.0354 198.158 55.8473 197.667 56.3388L196.491 57.514C196.256 57.749 195.936 57.8772 195.594 57.8772C195.252 57.8772 194.932 57.749 194.696 57.514L193.372 56.1892C193.115 55.9328 192.731 55.8687 192.41 56.0183C192.218 56.1037 192.026 56.1892 191.833 56.2533C191.513 56.3815 191.278 56.702 191.278 57.0439V58.9243C191.278 59.608 190.701 60.1849 190.017 60.1849ZM185.573 55.5054C185.765 55.5054 185.936 55.5482 186.107 55.6336C186.278 55.7191 186.47 55.7832 186.662 55.8687C187.154 56.061 187.496 56.5311 187.496 57.0653V58.9456C187.496 59.4157 187.88 59.779 188.329 59.779H189.996C190.466 59.779 190.829 59.3943 190.829 58.9456V57.0653C190.829 56.5311 191.171 56.061 191.662 55.8687C191.855 55.8046 192.026 55.7191 192.218 55.6336C192.709 55.3986 193.286 55.5054 193.649 55.8901L194.974 57.2148C195.295 57.5354 195.829 57.5354 196.171 57.2148L197.346 56.0396C197.667 55.7191 197.667 55.1849 197.346 54.843L196.021 53.5183C195.637 53.1336 195.551 52.5567 195.765 52.0866C195.85 51.9157 195.936 51.7234 196 51.5311C196.192 51.0396 196.662 50.6977 197.196 50.6977H199.077C199.547 50.6977 199.91 50.3131 199.91 49.8644V48.1977C199.91 47.7276 199.526 47.3644 199.077 47.3644H197.196C196.662 47.3644 196.192 47.0225 196 46.5311C195.936 46.3388 195.85 46.1678 195.765 45.9755C195.53 45.4841 195.637 44.9071 196.021 44.5439L197.367 43.1764C197.688 42.8558 197.688 42.3217 197.367 41.9798L196.192 40.8046C195.872 40.484 195.338 40.484 194.996 40.8046L193.671 42.1293C193.286 42.514 192.709 42.5994 192.239 42.3858C192.068 42.3003 191.876 42.2148 191.684 42.1507C191.192 41.9584 190.85 41.4883 190.85 40.9541V39.0738C190.85 38.6037 190.466 38.2404 190.017 38.2404H188.35C187.88 38.2404 187.517 38.6251 187.517 39.0738V40.9541C187.517 41.4883 187.175 41.9584 186.684 42.1507C186.491 42.2148 186.32 42.3003 186.128 42.3858C185.637 42.6208 185.06 42.514 184.696 42.1293L183.372 40.8046C183.051 40.484 182.517 40.484 182.175 40.8046L181 41.9798C180.679 42.3003 180.679 42.8345 181 43.1764L182.325 44.5011C182.709 44.8858 182.795 45.4627 182.581 45.9328C182.496 46.1037 182.432 46.296 182.346 46.4883C182.154 46.9798 181.684 47.3217 181.149 47.3217H179.269C178.799 47.3217 178.436 47.7063 178.436 48.155V49.8217C178.436 50.2918 178.82 50.655 179.269 50.655H181.149C181.684 50.655 182.154 50.9969 182.346 51.4883C182.41 51.6806 182.496 51.8516 182.581 52.0439C182.816 52.5353 182.709 53.1123 182.325 53.4755L181 54.8003C180.679 55.1208 180.679 55.655 181 55.9969L182.175 57.1721C182.496 57.4926 183.03 57.4926 183.372 57.1721L184.696 55.8473C184.91 55.6336 185.252 55.5054 185.573 55.5054ZM189.184 54.8644C185.957 54.8644 183.308 52.2362 183.308 49.0097C183.308 45.7832 185.936 43.1336 189.184 43.1336C192.41 43.1336 195.06 45.7618 195.06 49.0097C195.038 52.2362 192.41 54.8644 189.184 54.8644ZM189.184 43.561C186.192 43.561 183.735 45.9969 183.735 49.0097C183.735 52.0225 186.171 54.4371 189.184 54.4371C192.196 54.4371 194.632 52.0012 194.632 49.0097C194.632 46.0182 192.175 43.561 189.184 43.561Z" fill="white"/>
</g>
<g opacity="0.84">
<path opacity="0.84" d="M186.897 90.6765H184.825C184.333 90.6765 183.884 90.3774 183.735 89.9073C183.649 89.6936 183.564 89.48 183.478 89.2877C183.265 88.8389 183.35 88.3048 183.714 87.9629L185.188 86.4885C185.637 86.0398 185.637 85.2919 185.188 84.8218L183.884 83.5184C183.436 83.0697 182.688 83.0697 182.218 83.5184L180.743 84.9928C180.402 85.3347 179.867 85.4201 179.419 85.2278C179.205 85.1423 179.013 85.0355 178.799 84.9714C178.329 84.8005 178.03 84.3731 178.03 83.8817V81.809C178.03 81.168 177.496 80.6338 176.855 80.6338H174.996C174.355 80.6338 173.82 81.168 173.82 81.809V83.8817C173.82 84.3731 173.521 84.8218 173.051 84.9714C172.837 85.0569 172.624 85.1423 172.431 85.2278C171.983 85.4415 171.449 85.356 171.107 84.9928L169.632 83.5184C169.184 83.0697 168.436 83.0697 167.966 83.5184L166.662 84.8218C166.213 85.2706 166.213 86.0184 166.662 86.4885L168.137 87.9629C168.478 88.3048 168.564 88.8389 168.372 89.2877C168.286 89.5013 168.179 89.6936 168.115 89.9073C167.944 90.3774 167.517 90.6765 167.025 90.6765H164.953C164.312 90.6765 163.778 91.2107 163.778 91.8518V93.7107C163.778 94.3518 164.312 94.886 164.953 94.886H167.025C167.517 94.886 167.966 95.1851 168.115 95.6552C168.201 95.8689 168.286 96.0825 168.372 96.2749C168.585 96.7236 168.5 97.2578 168.137 97.5996L166.662 99.074C166.213 99.5227 166.213 100.271 166.662 100.741L167.966 102.044C168.414 102.493 169.162 102.493 169.632 102.044L171.107 100.57C171.449 100.228 171.983 100.142 172.431 100.335C172.645 100.42 172.837 100.527 173.051 100.591C173.521 100.762 173.82 101.189 173.82 101.681V103.754C173.82 104.395 174.355 104.929 174.996 104.929H176.855C177.496 104.929 178.03 104.395 178.03 103.754V101.681C178.03 101.189 178.329 100.741 178.799 100.591C179.013 100.506 179.226 100.42 179.419 100.335C179.867 100.121 180.402 100.206 180.743 100.57L182.218 102.044C182.667 102.493 183.414 102.493 183.884 102.044L185.188 100.741C185.637 100.292 185.637 99.5441 185.188 99.074L183.714 97.5996C183.372 97.2578 183.286 96.7236 183.478 96.2749C183.564 96.0612 183.671 95.8689 183.735 95.6552C183.906 95.1851 184.333 94.886 184.825 94.886H186.897C187.538 94.886 188.073 94.3518 188.073 93.7107V91.8518C188.073 91.2107 187.56 90.6765 186.897 90.6765ZM175.914 99.0313C172.453 99.0313 169.654 96.2321 169.654 92.7706C169.654 89.309 172.453 86.5099 175.914 86.5099C179.376 86.5099 182.175 89.309 182.175 92.7706C182.175 96.2321 179.376 99.0313 175.914 99.0313Z" fill="white"/>
</g>
<g opacity="0.66">
<path opacity="0.66" d="M154.355 103.134H152.944C152.346 103.134 151.833 102.642 151.833 102.023V100.441C151.833 100.164 151.662 99.9073 151.384 99.8005C151.214 99.7364 151.064 99.6723 150.893 99.5868C150.637 99.4586 150.316 99.5227 150.124 99.715L149.013 100.826C148.799 101.04 148.521 101.147 148.243 101.147C147.944 101.147 147.667 101.04 147.474 100.826L146.491 99.8432C146.278 99.6295 146.171 99.3517 146.171 99.074C146.171 98.7748 146.278 98.497 146.491 98.3047L147.602 97.1936C147.795 97.0013 147.859 96.6808 147.731 96.4244C147.667 96.2535 147.581 96.1039 147.517 95.9329C147.41 95.6765 147.175 95.4842 146.876 95.4842H145.295C144.696 95.4842 144.184 94.9928 144.184 94.3731V92.9628C144.184 92.3646 144.675 91.8517 145.295 91.8517H146.876C147.154 91.8517 147.41 91.6808 147.517 91.403C147.581 91.2321 147.645 91.0611 147.731 90.9116C147.859 90.6551 147.795 90.3346 147.602 90.1423L146.491 89.0312C146.278 88.8175 146.171 88.5398 146.171 88.262C146.171 87.9842 146.278 87.6851 146.491 87.4928L147.474 86.5098C147.902 86.0825 148.607 86.0825 149.034 86.5098L150.145 87.621C150.337 87.8133 150.658 87.8774 150.914 87.7492C151.064 87.6851 151.235 87.5996 151.406 87.5355C151.662 87.4287 151.855 87.1936 151.855 86.8945V85.3133C151.855 84.715 152.346 84.2021 152.966 84.2021H154.376C154.974 84.2021 155.487 84.6936 155.487 85.3133V86.8945C155.487 87.1722 155.658 87.4287 155.936 87.5355C156.107 87.5996 156.278 87.6637 156.427 87.7492C156.684 87.8774 157.004 87.8133 157.196 87.621L158.308 86.5098C158.735 86.0825 159.44 86.0825 159.867 86.5098L160.85 87.4928C161.064 87.7064 161.171 87.9842 161.171 88.262C161.171 88.5398 161.064 88.8389 160.85 89.0312L159.739 90.1423C159.547 90.3346 159.483 90.6551 159.611 90.9116C159.675 91.0611 159.761 91.2321 159.825 91.403C159.931 91.6594 160.167 91.8517 160.466 91.8517H162.047C162.645 91.8517 163.158 92.3432 163.158 92.9628V94.3731C163.158 94.9714 162.667 95.4842 162.047 95.4842H160.466C160.188 95.4842 159.931 95.6552 159.825 95.9329C159.761 96.1039 159.696 96.2748 159.611 96.4244C159.483 96.6808 159.547 97.0013 159.739 97.1936L160.85 98.3047C161.064 98.5184 161.171 98.7962 161.171 99.074C161.171 99.3731 161.064 99.6509 160.85 99.8432L159.867 100.826C159.654 101.04 159.376 101.147 159.098 101.147C158.799 101.147 158.521 101.04 158.329 100.826L157.218 99.715C157.026 99.5227 156.705 99.4586 156.449 99.5868C156.278 99.6723 156.128 99.7364 155.957 99.8005C155.701 99.9073 155.508 100.142 155.508 100.441V102.023C155.466 102.642 154.974 103.134 154.355 103.134ZM150.637 99.1381C150.786 99.1381 150.957 99.1808 151.107 99.2449C151.256 99.309 151.406 99.3731 151.577 99.4372C152.004 99.5868 152.303 100.014 152.303 100.463V102.044C152.303 102.407 152.602 102.728 152.987 102.728H154.397C154.761 102.728 155.081 102.429 155.081 102.044V100.463C155.081 99.9928 155.38 99.5868 155.808 99.4372C155.957 99.3731 156.107 99.309 156.278 99.2449C156.705 99.0526 157.196 99.1381 157.517 99.4586L158.628 100.57C158.884 100.826 159.333 100.826 159.59 100.57L160.573 99.5868C160.701 99.4586 160.765 99.2876 160.765 99.1167C160.765 98.9458 160.701 98.7748 160.573 98.6466L159.461 97.5355C159.141 97.215 159.055 96.7022 159.248 96.2962C159.312 96.1466 159.376 95.997 159.44 95.8261C159.59 95.3987 160.017 95.0996 160.466 95.0996H162.047C162.41 95.0996 162.731 94.8005 162.731 94.4158V93.0056C162.731 92.6423 162.431 92.3218 162.047 92.3218H160.466C159.996 92.3218 159.59 92.0227 159.44 91.5953C159.376 91.4458 159.312 91.2748 159.248 91.1252C159.055 90.6979 159.141 90.2064 159.461 89.8859L160.573 88.7748C160.701 88.6466 160.765 88.4757 160.765 88.3047C160.765 88.1338 160.701 87.9628 160.573 87.8346L159.59 86.8517C159.333 86.5953 158.906 86.5953 158.628 86.8517L157.517 87.9628C157.196 88.2834 156.684 88.3688 156.278 88.1765C156.128 88.1124 155.978 88.0483 155.808 87.9842C155.38 87.8346 155.081 87.4073 155.081 86.9586V85.3774C155.081 85.0141 154.782 84.6936 154.397 84.6936H152.987C152.624 84.6936 152.303 84.9927 152.303 85.3774V86.9586C152.303 87.4286 152.004 87.8346 151.577 87.9842C151.427 88.0483 151.256 88.1124 151.107 88.1765C150.679 88.3688 150.188 88.2834 149.867 87.9628L148.756 86.8517C148.5 86.5953 148.072 86.5953 147.795 86.8517L146.812 87.8346C146.684 87.9628 146.619 88.1338 146.619 88.3047C146.619 88.4757 146.684 88.6466 146.812 88.7748L147.923 89.8859C148.243 90.2064 148.329 90.7193 148.137 91.1252C148.072 91.2748 148.008 91.4244 147.944 91.5953C147.795 92.0227 147.367 92.3218 146.919 92.3218H145.337C144.974 92.3218 144.654 92.621 144.654 93.0056V94.4158C144.654 94.7791 144.953 95.0996 145.337 95.0996H146.919C147.389 95.0996 147.795 95.3987 147.944 95.8261C148.008 95.9757 148.072 96.1466 148.137 96.2962C148.329 96.7235 148.243 97.215 147.923 97.5355L146.812 98.6466C146.684 98.7748 146.619 98.9458 146.619 99.1167C146.619 99.2876 146.684 99.4586 146.812 99.5868L147.795 100.57C148.051 100.826 148.5 100.826 148.756 100.57L149.867 99.4586C150.06 99.2449 150.337 99.1381 150.637 99.1381ZM153.671 98.668C150.936 98.668 148.714 96.4458 148.714 93.7107C148.714 90.9757 150.936 88.7534 153.671 88.7534C156.406 88.7534 158.628 90.9757 158.628 93.7107C158.628 96.4458 156.406 98.668 153.671 98.668ZM153.671 89.1594C151.171 89.1594 149.141 91.1893 149.141 93.6893C149.141 96.1893 151.171 98.2193 153.671 98.2193C156.171 98.2193 158.201 96.1893 158.201 93.6893C158.201 91.1893 156.171 89.1594 153.671 89.1594Z" fill="white"/>
</g>
</g>
</g>
<g opacity="0.81">
<path opacity="0.81" d="M199.697 79.9498H196.919C196.791 79.9498 196.705 79.8643 196.705 79.7361C196.705 79.6079 196.791 79.5225 196.919 79.5225H199.697C199.825 79.5225 199.91 79.6079 199.91 79.7361C199.91 79.8643 199.804 79.9498 199.697 79.9498Z" fill="white"/>
<path opacity="0.81" d="M199.697 84.5438H196.919C196.791 84.5438 196.705 84.4583 196.705 84.3301C196.705 84.2019 196.791 84.1165 196.919 84.1165H199.697C199.825 84.1165 199.91 84.2019 199.91 84.3301C199.91 84.4583 199.804 84.5438 199.697 84.5438Z" fill="white"/>
<g opacity="0.81">
<g opacity="0.81">
<g opacity="0.81">
<path opacity="0.81" d="M201.663 89.1807H184.718C184.398 89.1807 184.141 88.9242 184.141 88.6037V74.437C184.141 74.1165 184.398 73.8601 184.718 73.8601H201.663C201.983 73.8601 202.239 74.1165 202.239 74.437V88.6037C202.239 88.9242 201.983 89.1807 201.663 89.1807ZM184.718 74.2875C184.633 74.2875 184.568 74.3516 184.568 74.437V88.6037C184.568 88.6892 184.633 88.7533 184.718 88.7533H201.663C201.748 88.7533 201.812 88.6892 201.812 88.6037V74.437C201.812 74.3516 201.748 74.2875 201.663 74.2875H184.718Z" fill="white"/>
<path opacity="0.66" d="M201.663 89.1807H184.718C184.398 89.1807 184.141 88.9242 184.141 88.6037V74.437C184.141 74.1165 184.398 73.8601 184.718 73.8601H201.663C201.983 73.8601 202.239 74.1165 202.239 74.437V88.6037C202.239 88.9242 201.983 89.1807 201.663 89.1807ZM184.718 74.2875C184.633 74.2875 184.568 74.3516 184.568 74.437V88.6037C184.568 88.6892 184.633 88.7533 184.718 88.7533H201.663C201.748 88.7533 201.812 88.6892 201.812 88.6037V74.437C201.812 74.3516 201.748 74.2875 201.663 74.2875H184.718Z" fill="white"/>
</g>
</g>
<path opacity="0.81" d="M199.697 77.7276H186.428C186.299 77.7276 186.214 77.6422 186.214 77.514C186.214 77.3858 186.299 77.3003 186.428 77.3003H199.697C199.825 77.3003 199.91 77.3858 199.91 77.514C199.91 77.6422 199.804 77.7276 199.697 77.7276Z" fill="white"/>
<path opacity="0.81" d="M199.697 82.1935H186.428C186.299 82.1935 186.214 82.108 186.214 81.9798C186.214 81.8516 186.299 81.7661 186.428 81.7661H199.697C199.825 81.7661 199.91 81.8516 199.91 81.9798C199.91 82.0866 199.804 82.1935 199.697 82.1935Z" fill="white"/>
<path opacity="0.81" d="M193.564 79.9498H186.406C186.278 79.9498 186.192 79.8643 186.192 79.7361C186.192 79.6079 186.278 79.5225 186.406 79.5225H193.564C193.692 79.5225 193.778 79.6079 193.778 79.7361C193.778 79.8643 193.692 79.9498 193.564 79.9498Z" fill="white"/>
<path opacity="0.81" d="M193.564 84.5438H186.406C186.278 84.5438 186.192 84.4583 186.192 84.3301C186.192 84.2019 186.278 84.1165 186.406 84.1165H193.564C193.692 84.1165 193.778 84.2019 193.778 84.3301C193.778 84.4583 193.692 84.5438 193.564 84.5438Z" fill="white"/>
<path opacity="0.81" d="M191.235 86.6808H186.406C186.278 86.6808 186.192 86.5953 186.192 86.4671C186.192 86.3389 186.278 86.2534 186.406 86.2534H191.235C191.363 86.2534 191.449 86.3389 191.449 86.4671C191.449 86.5739 191.363 86.6808 191.235 86.6808Z" fill="white"/>
</g>
</g>
<g opacity="0.81">
<path opacity="0.81" d="M145.487 56.5951H142.346C142.218 56.5951 142.132 56.5096 142.132 56.3814C142.132 56.2532 142.218 56.1677 142.346 56.1677H145.508C145.637 56.1677 145.722 56.2532 145.722 56.3814C145.701 56.4882 145.615 56.5951 145.487 56.5951Z" fill="white"/>
<path opacity="0.81" d="M145.487 61.8089H142.346C142.218 61.8089 142.132 61.7235 142.132 61.5953C142.132 61.4671 142.218 61.3816 142.346 61.3816H145.508C145.637 61.3816 145.722 61.4671 145.722 61.5953C145.701 61.7021 145.615 61.8089 145.487 61.8089Z" fill="white"/>
<g opacity="0.81">
<g opacity="0.81">
<g opacity="0.81">
<path opacity="0.81" d="M147.773 67.0653H128.457C128.137 67.0653 127.88 66.8089 127.88 66.4884V50.3345C127.88 50.014 128.137 49.7576 128.457 49.7576H147.773C148.094 49.7576 148.35 50.014 148.35 50.3345V66.4884C148.35 66.8089 148.094 67.0653 147.773 67.0653ZM128.457 50.1636C128.372 50.1636 128.308 50.2277 128.308 50.3131V66.467C128.308 66.5525 128.372 66.6166 128.457 66.6166H147.773C147.859 66.6166 147.923 66.5525 147.923 66.467V50.3131C147.923 50.2277 147.859 50.1636 147.773 50.1636H128.457Z" fill="white"/>
<path opacity="0.66" d="M147.773 67.0653H128.457C128.137 67.0653 127.88 66.8089 127.88 66.4884V50.3345C127.88 50.014 128.137 49.7576 128.457 49.7576H147.773C148.094 49.7576 148.35 50.014 148.35 50.3345V66.4884C148.35 66.8089 148.094 67.0653 147.773 67.0653ZM128.457 50.1636C128.372 50.1636 128.308 50.2277 128.308 50.3131V66.467C128.308 66.5525 128.372 66.6166 128.457 66.6166H147.773C147.859 66.6166 147.923 66.5525 147.923 66.467V50.3131C147.923 50.2277 147.859 50.1636 147.773 50.1636H128.457Z" fill="white"/>
</g>
</g>
<path opacity="0.81" d="M145.487 54.0738H130.444C130.316 54.0738 130.231 53.9884 130.231 53.8602C130.231 53.732 130.316 53.6465 130.444 53.6465H145.509C145.637 53.6465 145.722 53.732 145.722 53.8602C145.701 53.967 145.615 54.0738 145.487 54.0738Z" fill="white"/>
<path opacity="0.81" d="M145.487 59.1166H130.444C130.316 59.1166 130.231 59.0311 130.231 58.9029C130.231 58.7747 130.316 58.6892 130.444 58.6892H145.509C145.637 58.6892 145.722 58.7747 145.722 58.9029C145.701 59.0311 145.615 59.1166 145.487 59.1166Z" fill="white"/>
<path opacity="0.81" d="M138.564 56.5951H130.444C130.316 56.5951 130.231 56.5096 130.231 56.3814C130.231 56.2532 130.316 56.1677 130.444 56.1677H138.564C138.692 56.1677 138.778 56.2532 138.778 56.3814C138.778 56.4882 138.671 56.5951 138.564 56.5951Z" fill="white"/>
<path opacity="0.81" d="M138.564 61.8089H130.444C130.316 61.8089 130.231 61.7235 130.231 61.5953C130.231 61.4671 130.316 61.3816 130.444 61.3816H138.564C138.692 61.3816 138.778 61.4671 138.778 61.5953C138.778 61.7021 138.671 61.8089 138.564 61.8089Z" fill="white"/>
<path opacity="0.81" d="M135.914 64.202H130.444C130.316 64.202 130.231 64.1165 130.231 63.9883C130.231 63.8601 130.316 63.7747 130.444 63.7747H135.914C136.043 63.7747 136.128 63.8601 136.128 63.9883C136.128 64.1165 136.021 64.202 135.914 64.202Z" fill="white"/>
</g>
</g>
<path d="M201.128 49.4158H199.44H192.667H191.513C191.086 49.4158 190.701 49.7363 190.551 50.2064L190.231 51.2534C190.081 51.7235 189.718 52.044 189.269 52.044H175.53C174.974 52.044 174.526 52.5568 174.526 53.1978V68.7748C174.526 69.4158 174.974 69.9286 175.53 69.9286H175.594H199.419H201.107C201.705 69.9286 202.175 69.4158 202.175 68.7748V54.4372V52.044V50.591C202.218 49.95 201.727 49.4158 201.128 49.4158Z" fill="#F94892"/>
<path d="M191.321 52.2148L191.662 51.1678C191.812 50.6977 192.218 50.3772 192.688 50.3772H201.15C201.748 50.3772 202.218 50.89 202.218 51.531V52.984V55.3772V69.7149C202.218 70.3559 201.727 70.8687 201.15 70.8687H175.637C175.038 70.8687 174.568 70.3559 174.568 69.7149V54.1379C174.568 53.4969 175.06 52.984 175.637 52.984H190.316C190.765 52.984 191.171 52.6849 191.321 52.2148Z" fill="#F94892"/>
<path opacity="0.12" d="M191.94 53.2833L192.261 52.279C192.41 51.8303 192.795 51.5525 193.222 51.5525H201.192C201.748 51.5525 202.218 52.0439 202.218 52.6422V54.0098V56.2747V69.779C202.218 70.3773 201.769 70.8688 201.192 70.8688H177.154C176.598 70.8688 176.128 70.3773 176.128 69.779V55.0995C176.128 54.5012 176.577 54.0098 177.154 54.0098H191C191.427 54.0098 191.812 53.732 191.94 53.2833Z" fill="white"/>
<path d="M199.291 69.5654H192.987C192.859 69.5654 192.773 69.4799 192.773 69.3517C192.773 69.2235 192.859 69.1381 192.987 69.1381H199.291C199.697 69.1381 200.038 68.7962 200.038 68.3902V63.3902C200.038 63.262 200.124 63.1765 200.252 63.1765C200.38 63.1765 200.466 63.262 200.466 63.3902V68.3902C200.466 69.0526 199.932 69.5654 199.291 69.5654Z" fill="white"/>
<path d="M125.808 67.1294H127.496H134.312H135.466C135.893 67.1294 136.278 67.4926 136.427 68.0055L136.748 69.202C136.897 69.7362 137.282 70.0781 137.709 70.0781H151.556C152.111 70.0781 152.581 70.655 152.581 71.3815V88.9029C152.581 89.6294 152.132 90.2064 151.556 90.2064H151.491H127.496H125.808C125.209 90.2064 124.718 89.6294 124.718 88.9029V72.7918V70.0995V68.4542C124.718 67.7063 125.209 67.1294 125.808 67.1294Z" fill="#FFA1C9"/>
<path opacity="0.12" d="M135.679 70.2492L135.338 69.0526C135.188 68.5184 134.782 68.1765 134.312 68.1765H125.808C125.209 68.1765 124.718 68.7534 124.718 69.4799V71.1252V73.8176V89.9287C124.718 90.6552 125.209 91.2321 125.808 91.2321H151.491C152.09 91.2321 152.581 90.6552 152.581 89.9287V72.4073C152.581 71.6808 152.09 71.1039 151.491 71.1039H136.705C136.235 71.1466 135.829 70.7834 135.679 70.2492Z" fill="white"/>
<path opacity="0.12" d="M135.038 71.4669L134.718 70.3558C134.568 69.8643 134.184 69.5225 133.756 69.5225H125.744C125.188 69.5225 124.718 70.078 124.718 70.7618V72.3002V74.843V90.0353C124.718 90.7191 125.167 91.2747 125.744 91.2747H149.932C150.487 91.2747 150.957 90.7191 150.957 90.0353V73.5396C150.957 72.8558 150.509 72.3002 149.932 72.3002H136.021C135.573 72.3002 135.188 71.9584 135.038 71.4669Z" fill="white"/>
<path d="M126.684 74.6507C126.577 74.6507 126.491 74.5653 126.491 74.4371V71.467C126.491 71.061 126.791 70.7405 127.154 70.7405H131.128C131.235 70.7405 131.321 70.8259 131.321 70.9542C131.321 71.0824 131.235 71.1678 131.128 71.1678H127.154C127.004 71.1678 126.876 71.296 126.876 71.467V74.4371C126.876 74.5439 126.791 74.6507 126.684 74.6507Z" fill="white"/>
<path d="M178.436 57.9413H150.979C146.427 57.9413 142.731 54.2447 142.731 49.6934C142.731 45.1421 146.427 41.4456 150.979 41.4456H178.436C182.987 41.4456 186.684 45.1421 186.684 49.6934C186.705 54.2447 183.009 57.9413 178.436 57.9413Z" fill="#FFA1C9"/>
<path d="M164.718 54.2875C171.126 54.2875 176.321 49.0928 176.321 42.6849C176.321 36.2769 171.126 31.0823 164.718 31.0823C158.31 31.0823 153.115 36.2769 153.115 42.6849C153.115 49.0928 158.31 54.2875 164.718 54.2875Z" fill="#F94892"/>
<path d="M178.436 55.5055H150.979C146.427 55.5055 142.731 51.8089 142.731 47.2576C142.731 42.7064 146.427 39.0098 150.979 39.0098H178.436C182.987 39.0098 186.684 42.7064 186.684 47.2576C186.705 51.8089 183.009 55.5055 178.436 55.5055Z" fill="#F94892"/>
<path d="M169.306 50.9029C175.191 48.3672 177.906 41.5409 175.37 35.6559C172.835 29.7709 166.008 27.0556 160.123 29.5912C154.238 32.1268 151.523 38.9531 154.059 44.8382C156.594 50.7232 163.421 53.4385 169.306 50.9029Z" fill="#F94892"/>
<g opacity="0.35">
<g opacity="0.35">
<path opacity="0.35" d="M178.436 55.5055H150.979C146.427 55.5055 142.731 51.8089 142.731 47.2576C142.731 42.7064 146.427 39.0098 150.979 39.0098H178.436C182.987 39.0098 186.684 42.7064 186.684 47.2576C186.705 51.8089 183.009 55.5055 178.436 55.5055Z" fill="#ECF1F7"/>
<path opacity="0.35" d="M169.306 50.9029C175.191 48.3672 177.906 41.5409 175.37 35.6559C172.835 29.7709 166.008 27.0556 160.123 29.5912C154.238 32.1268 151.523 38.9531 154.059 44.8382C156.594 50.7232 163.421 53.4385 169.306 50.9029Z" fill="#ECF1F7"/>
</g>
</g>
<path d="M162.004 41.9799C161.876 41.9799 161.726 41.9371 161.619 41.8303C161.406 41.6166 161.406 41.2747 161.619 41.0824L164.739 38.0269L167.816 41.1038C168.03 41.3175 168.03 41.6593 167.816 41.8516C167.602 42.0653 167.261 42.0653 167.068 41.8516L164.761 39.544L162.41 41.873C162.261 41.9371 162.132 41.9799 162.004 41.9799Z" fill="white"/>
<path d="M164.718 46.2321C164.419 46.2321 164.184 45.997 164.184 45.6979V38.7534C164.184 38.4543 164.419 38.2192 164.718 38.2192C165.017 38.2192 165.252 38.4543 165.252 38.7534V45.6979C165.252 45.997 165.017 46.2321 164.718 46.2321Z" fill="white"/>
<path d="M169.761 49.5226H159.59C158.863 49.5226 158.265 48.9243 158.265 48.1978V44.5012C158.265 44.2021 158.5 43.967 158.799 43.967C159.098 43.967 159.333 44.2021 159.333 44.5012V48.1978C159.333 48.3474 159.44 48.4542 159.59 48.4542H169.761C169.953 48.4542 170.103 48.3047 170.103 48.1124V44.5012C170.103 44.2021 170.338 43.967 170.637 43.967C170.936 43.967 171.171 44.2021 171.171 44.5012V48.1124C171.171 48.903 170.53 49.5226 169.761 49.5226Z" fill="white"/>
<path opacity="0.36" d="M180.872 84.8861L151.748 94.5015C151.043 94.7365 150.274 94.3519 150.038 93.6468L140.423 64.5228C140.188 63.8176 140.573 63.0484 141.278 62.8134L170.402 53.198C171.107 52.9629 171.876 53.3475 172.111 54.0527L181.727 83.1767C181.962 83.8818 181.577 84.651 180.872 84.8861Z" fill="#F94892"/>
<path d="M178.714 83.7962L149.59 93.4116C148.885 93.6467 148.115 93.2621 147.88 92.5569L138.265 63.4329C138.03 62.7278 138.414 61.9586 139.12 61.7235L168.244 52.1081C168.949 51.8731 169.718 52.2577 169.953 52.9628L179.568 82.0868C179.825 82.792 179.44 83.5612 178.714 83.7962Z" fill="white"/>
<path d="M167.724 55.2515L141.41 63.9453L150.103 90.2595L176.418 81.5657L167.724 55.2515Z" fill="#FFA1C9"/>
<path opacity="0.47" d="M149.867 90.4841L147.902 84.5225L150.786 77.5781C151.192 76.6165 152.239 76.1251 153.222 76.4242L158.543 78.0695C158.863 78.1764 159.205 78.0482 159.376 77.749L163.82 70.3558C164.761 68.796 166.748 68.155 168.414 68.8815L173.308 70.9755L173.35 71.1037L176.791 81.5311L176.491 81.6379L149.867 90.4841ZM148.585 84.5653L150.273 89.6935L175.979 81.2106L172.773 71.5311L168.158 69.5439C166.769 68.9456 165.145 69.4798 164.355 70.7618L159.91 78.155C159.59 78.6892 158.949 78.9456 158.35 78.7533L153.03 77.108C152.346 76.8943 151.641 77.2362 151.363 77.8772L148.585 84.5653Z" fill="white"/>
<path opacity="0.47" d="M158.65 69.9714C157.218 69.9714 155.872 69.0526 155.402 67.621C154.803 65.8261 155.786 63.903 157.56 63.3047C159.355 62.7064 161.278 63.6893 161.876 65.4628C162.474 67.2577 161.491 69.1808 159.718 69.7791C159.376 69.9073 159.013 69.9714 158.65 69.9714ZM158.65 63.7962C158.372 63.7962 158.073 63.8389 157.773 63.9457C156.32 64.4158 155.53 65.997 156.021 67.45C156.491 68.903 158.073 69.6936 159.526 69.2022C160.979 68.7321 161.769 67.1509 161.278 65.6979C160.893 64.5227 159.803 63.7962 158.65 63.7962Z" fill="white"/>
<path opacity="0.36" d="M189.632 90.1208H166.897C166.149 90.1208 165.53 89.5225 165.53 88.7533V66.0182C165.53 65.2703 166.128 64.6506 166.897 64.6506H189.632C190.38 64.6506 191 65.2489 191 66.0182V88.7533C191 89.5225 190.38 90.1208 189.632 90.1208Z" fill="#F94892"/>
<path d="M188.35 88.8388H165.594C164.846 88.8388 164.226 88.2405 164.226 87.4713V64.7362C164.226 63.9883 164.825 63.3687 165.594 63.3687H188.329C189.077 63.3687 189.696 63.9669 189.696 64.7362V87.4713C189.696 88.2191 189.098 88.8388 188.35 88.8388Z" fill="white"/>
<path opacity="0.39" d="M187.517 65.5481H166.406V86.6593H187.517V65.5481Z" fill="#FBE5E5"/>
<path opacity="0.47" d="M187.859 86.8516H166.107V81.9584L169.867 77.5995C170.402 76.9798 171.342 76.8516 172.004 77.3431L175.466 79.8217C175.637 79.9499 175.872 79.9285 176.043 79.8003L181.021 75.5268C182.111 74.5866 183.735 74.608 184.803 75.5482L187.859 78.2619V86.8516ZM166.748 86.2106H187.218V78.5396L184.376 76.0183C183.543 75.2704 182.282 75.2704 181.427 75.9969L176.449 80.2704C176.064 80.6123 175.508 80.6337 175.081 80.3345L171.62 77.8559C171.214 77.5567 170.658 77.6422 170.337 78.0054L166.726 82.1721V86.2106H166.748Z" fill="white"/>
<path opacity="0.47" d="M178.265 74.2232C176.791 74.2232 175.594 73.0267 175.594 71.5523C175.594 70.0779 176.791 68.8813 178.265 68.8813C179.739 68.8813 180.936 70.0779 180.936 71.5523C180.936 73.0267 179.739 74.2232 178.265 74.2232ZM178.265 69.5224C177.132 69.5224 176.235 70.4412 176.235 71.5523C176.235 72.6634 177.154 73.5822 178.265 73.5822C179.376 73.5822 180.295 72.6634 180.295 71.5523C180.295 70.4412 179.376 69.5224 178.265 69.5224Z" fill="white"/>
<path opacity="0.36" d="M173.393 92.3005L160.53 97.1082C159.825 97.3646 159.034 97.0227 158.778 96.3176L153.97 83.4543C153.713 82.7492 154.055 81.9586 154.761 81.7022L167.624 76.8945C168.329 76.638 169.12 76.9799 169.376 77.6851L174.184 90.5483C174.461 91.2535 174.098 92.0441 173.393 92.3005Z" fill="#F94892"/>
<path d="M172.325 91.809L159.461 96.6167C158.756 96.8731 157.966 96.5313 157.709 95.8261L152.902 82.9628C152.645 82.2577 152.987 81.4671 153.692 81.2107L166.555 76.403C167.261 76.1466 168.051 76.4885 168.308 77.1936L173.115 90.0569C173.393 90.762 173.03 91.5526 172.325 91.809Z" fill="white"/>
<path d="M167.014 77.7245L154.229 82.5156L159.02 95.3011L171.806 90.51L167.014 77.7245Z" fill="#F94892"/>
<path opacity="0.47" d="M158.799 95.6339L157.645 92.5356L158.949 89.0099C159.162 88.4544 159.739 88.1552 160.316 88.3048L162.966 89.0099C163.051 89.0313 163.137 88.9885 163.179 88.9244L165.209 85.2065C165.679 84.3518 166.726 83.9672 167.645 84.309L170.167 85.2706L172.175 90.6338L158.799 95.6339ZM158.329 92.5356L159.184 94.8219L171.363 90.2492L169.675 85.762L167.432 84.9073C166.812 84.6723 166.107 84.9287 165.786 85.5056L163.756 89.2236C163.564 89.5655 163.179 89.715 162.816 89.6296L160.167 88.9244C159.91 88.8603 159.654 88.9885 159.568 89.245L158.329 92.5356Z" fill="white"/>
<path opacity="0.47" d="M162.752 85.3132C162.004 85.3132 161.299 84.8644 161.021 84.1166C160.658 83.155 161.15 82.108 162.09 81.7448C163.03 81.3815 164.098 81.873 164.462 82.8131C164.825 83.7747 164.333 84.8217 163.393 85.1849C163.201 85.2918 162.987 85.3132 162.752 85.3132ZM162.752 82.279C162.603 82.279 162.474 82.3003 162.325 82.3644C161.705 82.5995 161.385 83.2832 161.62 83.9029C161.855 84.5226 162.538 84.8431 163.158 84.608C163.778 84.373 164.098 83.6892 163.863 83.0696C163.714 82.5781 163.244 82.279 162.752 82.279Z" fill="white"/>
<path d="M121.59 117.917C120.917 117.917 120.417 117.757 120.09 117.437C119.763 117.117 119.6 116.597 119.6 115.877V110.517H120.8V115.677C120.8 115.977 120.86 116.177 120.98 116.277C121.1 116.37 121.307 116.417 121.6 116.417H121.9V117.617L121.6 117.917H121.59ZM121.6 116.717L121.9 116.417H122.2C122.734 116.417 123 116.184 123 115.717V114.287H124.1V115.717C124.1 116.184 124.334 116.417 124.8 116.417H125.2V117.617L124.9 117.917C124.367 117.917 123.96 117.81 123.68 117.597C123.407 117.377 123.224 117.034 123.13 116.567H123.07C122.977 117.034 122.817 117.377 122.59 117.597C122.364 117.81 122.034 117.917 121.6 117.917V116.717ZM123.45 113.487C123.277 113.487 123.134 113.434 123.02 113.327C122.914 113.22 122.86 113.05 122.86 112.817C122.86 112.584 122.914 112.414 123.02 112.307C123.134 112.2 123.277 112.147 123.45 112.147H123.65C123.824 112.147 123.964 112.2 124.07 112.307C124.184 112.414 124.24 112.584 124.24 112.817C124.24 113.05 124.184 113.22 124.07 113.327C123.964 113.434 123.824 113.487 123.65 113.487H123.45ZM124.901 116.717L125.201 116.417H126.281L126.301 116.367C125.921 115.967 125.731 115.51 125.731 114.997C125.731 114.717 125.775 114.454 125.861 114.207C125.948 113.96 126.068 113.744 126.221 113.557C126.375 113.364 126.555 113.207 126.761 113.087C126.975 112.967 127.205 112.897 127.451 112.877L127.751 112.257L129.341 113.017C130.121 113.39 130.695 113.85 131.061 114.397C131.428 114.937 131.611 115.59 131.611 116.357V116.557L130.711 117.917H129.621C129.261 117.917 128.911 117.877 128.571 117.797C128.231 117.71 127.908 117.57 127.601 117.377C127.295 117.57 126.971 117.71 126.631 117.797C126.291 117.877 125.941 117.917 125.581 117.917H124.901V116.717ZM127.601 116.287C127.915 116.107 128.151 115.92 128.311 115.727C128.471 115.527 128.551 115.3 128.551 115.047C128.551 114.747 128.471 114.51 128.311 114.337C128.151 114.157 127.935 114.067 127.661 114.067H127.541C127.268 114.067 127.051 114.157 126.891 114.337C126.731 114.51 126.651 114.747 126.651 115.047C126.651 115.3 126.731 115.527 126.891 115.727C127.051 115.92 127.288 116.107 127.601 116.287ZM129.441 114.597C129.461 114.73 129.471 114.864 129.471 114.997C129.471 115.51 129.281 115.967 128.901 116.367L128.921 116.417H130.611V116.357C130.611 115.957 130.518 115.614 130.331 115.327C130.151 115.034 129.861 114.78 129.461 114.567L129.441 114.597ZM133.625 118.817H134.025C134.631 118.817 135.075 118.694 135.355 118.447C135.641 118.2 135.781 117.79 135.775 117.217C135.775 117.064 135.765 116.904 135.745 116.737C135.725 116.564 135.698 116.38 135.665 116.187L135.455 114.857L136.545 114.687L136.695 115.617C136.748 115.937 136.788 116.234 136.815 116.507C136.848 116.774 136.865 116.994 136.865 117.167C136.865 117.647 136.805 118.08 136.685 118.467C136.565 118.854 136.385 119.184 136.145 119.457C135.905 119.737 135.608 119.95 135.255 120.097C134.901 120.244 134.495 120.317 134.035 120.317H133.625V118.817ZM137.513 118.817H138.153C138.786 118.817 139.293 118.737 139.673 118.577C140.06 118.417 140.333 118.197 140.493 117.917H139.333C138.793 117.917 138.37 117.76 138.063 117.447C137.763 117.127 137.613 116.684 137.613 116.117C137.613 115.77 137.663 115.45 137.763 115.157C137.87 114.857 138.013 114.6 138.193 114.387C138.38 114.167 138.596 113.997 138.843 113.877C139.096 113.75 139.37 113.687 139.663 113.687C140.27 113.687 140.75 113.927 141.103 114.407C141.456 114.887 141.65 115.557 141.683 116.417H142.193V117.617L141.893 117.917H141.553C141.366 118.684 140.996 119.274 140.443 119.687C139.896 120.107 139.166 120.317 138.253 120.317H137.513V118.817ZM138.613 115.917C138.613 116.097 138.686 116.227 138.833 116.307C138.98 116.38 139.18 116.417 139.433 116.417H140.683V116.387C140.683 116.027 140.573 115.737 140.353 115.517C140.14 115.297 139.866 115.187 139.533 115.187C139.273 115.187 139.053 115.257 138.873 115.397C138.7 115.53 138.613 115.704 138.613 115.917ZM144.393 115.717C144.393 116.004 144.473 116.2 144.633 116.307L145.073 115.547C145.307 115.14 145.543 114.794 145.783 114.507C146.03 114.22 146.287 113.987 146.553 113.807C146.82 113.627 147.1 113.497 147.393 113.417C147.693 113.33 148.013 113.287 148.353 113.287C149.14 113.287 149.73 113.504 150.123 113.937C150.517 114.364 150.713 114.96 150.713 115.727C150.713 116.48 150.5 117.034 150.073 117.387C149.647 117.74 148.973 117.917 148.053 117.917H145.193C144.66 117.917 144.253 117.81 143.973 117.597C143.7 117.377 143.517 117.034 143.423 116.567H143.363C143.27 117.034 143.11 117.377 142.883 117.597C142.657 117.81 142.327 117.917 141.893 117.917V116.717L142.193 116.417H142.493C143.027 116.417 143.293 116.184 143.293 115.717V115.087H144.393V115.717ZM148.053 116.417C148.373 116.417 148.637 116.407 148.843 116.387C149.057 116.36 149.227 116.32 149.353 116.267C149.487 116.207 149.58 116.127 149.633 116.027C149.687 115.927 149.713 115.797 149.713 115.637C149.713 115.35 149.62 115.137 149.433 114.997C149.247 114.857 148.937 114.787 148.503 114.787H148.203C147.903 114.787 147.64 114.8 147.413 114.827C147.187 114.847 146.987 114.89 146.813 114.957C146.64 115.024 146.483 115.117 146.343 115.237C146.203 115.357 146.07 115.514 145.943 115.707L145.513 116.357L145.543 116.417H148.053ZM153.724 118.817H154.364C155.237 118.817 155.877 118.664 156.284 118.357C156.69 118.057 156.894 117.667 156.894 117.187V116.927H156.834C156.734 117.267 156.57 117.517 156.344 117.677C156.124 117.837 155.844 117.917 155.504 117.917C154.964 117.917 154.54 117.76 154.234 117.447C153.934 117.127 153.784 116.684 153.784 116.117C153.784 115.77 153.834 115.45 153.934 115.157C154.04 114.857 154.184 114.6 154.364 114.387C154.55 114.167 154.767 113.997 155.014 113.877C155.267 113.75 155.54 113.687 155.834 113.687C156.16 113.687 156.45 113.757 156.704 113.897C156.964 114.03 157.18 114.227 157.354 114.487C157.534 114.74 157.67 115.054 157.764 115.427C157.857 115.8 157.904 116.22 157.904 116.687C157.904 117.827 157.61 118.717 157.024 119.357C156.444 119.997 155.59 120.317 154.464 120.317H153.724V118.817ZM155.814 116.417C156.074 116.417 156.29 116.407 156.464 116.387C156.637 116.36 156.777 116.32 156.884 116.267C156.857 115.94 156.734 115.68 156.514 115.487C156.294 115.287 156.024 115.187 155.704 115.187C155.444 115.187 155.224 115.257 155.044 115.397C154.87 115.53 154.784 115.704 154.784 115.917C154.784 116.097 154.857 116.227 155.004 116.307C155.15 116.38 155.35 116.417 155.604 116.417H155.814ZM158.958 111.737H160.158V117.917H158.958V111.737ZM158.368 110.127H158.788L158.798 110.077C158.664 109.93 158.598 109.754 158.598 109.547C158.598 109.267 158.698 109.037 158.898 108.857C159.104 108.67 159.368 108.577 159.688 108.577C159.881 108.577 160.068 108.617 160.248 108.697C160.428 108.777 160.584 108.887 160.718 109.027L160.238 109.697C160.078 109.537 159.894 109.457 159.688 109.457C159.574 109.457 159.481 109.484 159.408 109.537C159.341 109.59 159.308 109.654 159.308 109.727C159.308 109.947 159.538 110.057 159.998 110.057H160.738V110.937H158.368V110.127ZM167.529 118.037C166.802 118.037 166.189 117.997 165.689 117.917C165.195 117.837 164.795 117.707 164.489 117.527C164.182 117.34 163.959 117.1 163.819 116.807C163.685 116.514 163.619 116.15 163.619 115.717C163.619 115.45 163.652 115.157 163.719 114.837C163.792 114.517 163.892 114.2 164.019 113.887L164.979 114.167C164.865 114.394 164.775 114.614 164.709 114.827C164.649 115.034 164.619 115.22 164.619 115.387C164.619 115.58 164.659 115.744 164.739 115.877C164.819 116.004 164.949 116.107 165.129 116.187C165.309 116.267 165.545 116.327 165.839 116.367C166.132 116.4 166.495 116.417 166.929 116.417H168.329C168.769 116.417 169.139 116.407 169.439 116.387C169.739 116.367 169.979 116.334 170.159 116.287C170.345 116.234 170.479 116.17 170.559 116.097C170.645 116.017 170.689 115.92 170.689 115.807C170.689 115.707 170.679 115.58 170.659 115.427C170.645 115.267 170.615 115.06 170.569 114.807L170.399 113.877L171.489 113.697L171.639 114.627C171.672 114.807 171.699 115.007 171.719 115.227C171.739 115.447 171.749 115.64 171.749 115.807C171.749 116.254 171.685 116.62 171.559 116.907C171.439 117.194 171.219 117.42 170.899 117.587C170.585 117.754 170.155 117.87 169.609 117.937C169.069 118.004 168.375 118.037 167.529 118.037ZM168.309 114.287C168.135 114.287 167.992 114.234 167.879 114.127C167.772 114.02 167.719 113.85 167.719 113.617C167.719 113.384 167.772 113.214 167.879 113.107C167.992 113 168.135 112.947 168.309 112.947H168.509C168.682 112.947 168.822 113 168.929 113.107C169.042 113.214 169.099 113.384 169.099 113.617C169.099 113.85 169.042 114.02 168.929 114.127C168.822 114.234 168.682 114.287 168.509 114.287H168.309ZM166.729 114.287C166.555 114.287 166.412 114.234 166.299 114.127C166.192 114.02 166.139 113.85 166.139 113.617C166.139 113.384 166.192 113.214 166.299 113.107C166.412 113 166.555 112.947 166.729 112.947H166.929C167.102 112.947 167.242 113 167.349 113.107C167.462 113.214 167.519 113.384 167.519 113.617C167.519 113.85 167.462 114.02 167.349 114.127C167.242 114.234 167.102 114.287 166.929 114.287H166.729ZM174.637 117.917C173.964 117.917 173.464 117.757 173.137 117.437C172.81 117.117 172.647 116.597 172.647 115.877V110.517H173.847V115.677C173.847 115.977 173.907 116.177 174.027 116.277C174.147 116.37 174.354 116.417 174.647 116.417H174.947V117.617L174.647 117.917H174.637ZM174.647 116.717L174.947 116.417H176.017L176.037 116.367C175.784 116.114 175.607 115.847 175.507 115.567C175.414 115.28 175.367 115.004 175.367 114.737C175.367 114.437 175.414 114.157 175.507 113.897C175.601 113.63 175.734 113.4 175.907 113.207C176.081 113.007 176.287 112.85 176.527 112.737C176.774 112.624 177.044 112.567 177.337 112.567C177.631 112.567 177.897 112.624 178.137 112.737C178.384 112.85 178.594 113.007 178.767 113.207C178.941 113.4 179.074 113.63 179.167 113.897C179.261 114.157 179.307 114.437 179.307 114.737C179.307 115.004 179.257 115.28 179.157 115.567C179.064 115.847 178.891 116.114 178.637 116.367L178.657 116.417H179.767V117.617L179.467 117.917H179.367C179.007 117.917 178.657 117.87 178.317 117.777C177.977 117.684 177.654 117.517 177.347 117.277C177.041 117.517 176.717 117.684 176.377 117.777C176.037 117.87 175.687 117.917 175.327 117.917H174.647V116.717ZM177.337 116.287C177.677 116.094 177.934 115.894 178.107 115.687C178.281 115.474 178.367 115.234 178.367 114.967C178.367 114.687 178.274 114.467 178.087 114.307C177.901 114.147 177.671 114.067 177.397 114.067H177.277C177.004 114.067 176.774 114.147 176.587 114.307C176.401 114.467 176.307 114.687 176.307 114.967C176.307 115.234 176.394 115.474 176.567 115.687C176.741 115.894 176.997 116.094 177.337 116.287ZM177.237 111.767C177.064 111.767 176.921 111.714 176.807 111.607C176.701 111.5 176.647 111.33 176.647 111.097C176.647 110.864 176.701 110.694 176.807 110.587C176.921 110.48 177.064 110.427 177.237 110.427H177.437C177.611 110.427 177.751 110.48 177.857 110.587C177.971 110.694 178.027 110.864 178.027 111.097C178.027 111.33 177.971 111.5 177.857 111.607C177.751 111.714 177.611 111.767 177.437 111.767H177.237ZM179.471 116.717L179.771 116.417H180.021C180.555 116.417 180.821 116.184 180.821 115.717V110.517H182.021V115.717C182.021 116.184 182.255 116.417 182.721 116.417H183.071V117.617L182.771 117.917C182.225 117.917 181.808 117.81 181.521 117.597C181.235 117.377 181.045 117.034 180.951 116.567H180.891C180.805 117.034 180.651 117.377 180.431 117.597C180.211 117.81 179.891 117.917 179.471 117.917V116.717ZM184.242 117.357C184.089 117.564 183.896 117.71 183.662 117.797C183.436 117.877 183.139 117.917 182.772 117.917V116.717L183.072 116.417C183.319 116.417 183.499 116.38 183.612 116.307C183.726 116.234 183.819 116.104 183.892 115.917L184.172 115.227C184.259 115.014 184.356 114.814 184.462 114.627C184.569 114.44 184.696 114.277 184.842 114.137C184.989 113.997 185.152 113.887 185.332 113.807C185.519 113.727 185.732 113.687 185.972 113.687C186.599 113.687 187.069 113.934 187.382 114.427C187.702 114.92 187.862 115.604 187.862 116.477V116.767L186.912 118.177L184.242 117.357ZM184.792 115.967L186.802 116.577V116.477C186.802 116.077 186.706 115.764 186.512 115.537C186.319 115.31 186.056 115.197 185.722 115.197C185.509 115.197 185.322 115.254 185.162 115.367C185.009 115.48 184.892 115.66 184.812 115.907L184.792 115.967ZM193.802 120.957C192.896 120.957 192.192 120.76 191.692 120.367C191.192 119.98 190.942 119.424 190.942 118.697C190.942 118.49 190.969 118.287 191.022 118.087C191.082 117.894 191.186 117.697 191.332 117.497C191.486 117.297 191.692 117.09 191.952 116.877C192.219 116.657 192.559 116.424 192.972 116.177L191.672 114.577V113.027C192.006 112.874 192.356 112.757 192.722 112.677C193.096 112.59 193.459 112.547 193.812 112.547C194.586 112.547 195.152 112.684 195.512 112.957C195.872 113.23 196.052 113.66 196.052 114.247C196.052 114.654 195.956 115.014 195.762 115.327C195.576 115.634 195.282 115.914 194.882 116.167L194.632 116.327C194.759 116.367 194.902 116.394 195.062 116.407C195.222 116.414 195.422 116.417 195.662 116.417H196.832V117.617L196.632 117.917H195.562C195.369 117.917 195.192 117.904 195.032 117.877C194.879 117.85 194.729 117.804 194.582 117.737C194.436 117.664 194.286 117.567 194.132 117.447C193.979 117.32 193.812 117.157 193.632 116.957C193.319 117.157 193.059 117.33 192.852 117.477C192.652 117.617 192.492 117.744 192.372 117.857C192.252 117.964 192.166 118.064 192.112 118.157C192.066 118.25 192.042 118.347 192.042 118.447V118.507C192.042 118.787 192.196 119.014 192.502 119.187C192.809 119.367 193.269 119.457 193.882 119.457C194.289 119.457 194.682 119.37 195.062 119.197C195.449 119.03 195.782 118.79 196.062 118.477L196.812 119.657C196.432 120.07 195.979 120.39 195.452 120.617C194.926 120.844 194.376 120.957 193.802 120.957ZM192.632 114.237L193.852 115.677L194.452 115.337C194.852 115.104 195.052 114.85 195.052 114.577C195.052 114.384 194.959 114.247 194.772 114.167C194.592 114.087 194.272 114.047 193.812 114.047C193.606 114.047 193.396 114.06 193.182 114.087C192.969 114.114 192.786 114.144 192.632 114.177V114.237ZM196.532 116.717L196.832 116.417H198.772C198.999 116.417 199.205 116.404 199.392 116.377C199.585 116.35 199.745 116.304 199.872 116.237C200.005 116.17 200.109 116.08 200.182 115.967C200.255 115.854 200.292 115.71 200.292 115.537V115.077H200.232C200.039 115.604 199.595 115.867 198.902 115.867C198.362 115.867 197.939 115.727 197.632 115.447C197.332 115.16 197.182 114.767 197.182 114.267C197.182 113.92 197.232 113.6 197.332 113.307C197.439 113.007 197.582 112.75 197.762 112.537C197.949 112.317 198.165 112.147 198.412 112.027C198.665 111.9 198.939 111.837 199.232 111.837C199.885 111.837 200.392 112.11 200.752 112.657C201.119 113.204 201.302 113.964 201.302 114.937C201.302 115.544 201.249 116.04 201.142 116.427C201.035 116.814 200.875 117.117 200.662 117.337C200.455 117.557 200.192 117.71 199.872 117.797C199.559 117.877 199.192 117.917 198.772 117.917H196.532V116.717ZM199.212 114.567C199.465 114.567 199.679 114.557 199.852 114.537C200.025 114.51 200.165 114.47 200.272 114.417C200.232 114.09 200.102 113.83 199.882 113.637C199.669 113.437 199.409 113.337 199.102 113.337C198.842 113.337 198.622 113.407 198.442 113.547C198.269 113.68 198.182 113.854 198.182 114.067C198.182 114.247 198.255 114.377 198.402 114.457C198.549 114.53 198.749 114.567 199.002 114.567H199.212ZM199.132 111.037C198.959 111.037 198.815 110.984 198.702 110.877C198.595 110.77 198.542 110.6 198.542 110.367C198.542 110.134 198.595 109.964 198.702 109.857C198.815 109.75 198.959 109.697 199.132 109.697H199.332C199.505 109.697 199.645 109.75 199.752 109.857C199.865 109.964 199.922 110.134 199.922 110.367C199.922 110.6 199.865 110.77 199.752 110.877C199.645 110.984 199.505 111.037 199.332 111.037H199.132ZM201.056 118.817H201.456C202.063 118.817 202.506 118.694 202.786 118.447C203.073 118.2 203.213 117.79 203.206 117.217C203.206 117.064 203.196 116.904 203.176 116.737C203.156 116.564 203.13 116.38 203.096 116.187L202.886 114.857L203.976 114.687L204.126 115.617C204.18 115.937 204.22 116.234 204.246 116.507C204.28 116.774 204.296 116.994 204.296 117.167C204.296 117.647 204.236 118.08 204.116 118.467C203.996 118.854 203.816 119.184 203.576 119.457C203.336 119.737 203.04 119.95 202.686 120.097C202.333 120.244 201.926 120.317 201.466 120.317H201.056V118.817ZM205.245 110.517H206.445V117.917H205.245V110.517ZM204.775 119.767H205.195L205.205 119.717C205.071 119.57 205.005 119.394 205.005 119.187C205.005 118.907 205.105 118.674 205.305 118.487C205.511 118.307 205.775 118.217 206.095 118.217C206.288 118.217 206.475 118.257 206.655 118.337C206.835 118.417 206.991 118.527 207.125 118.667L206.645 119.337C206.485 119.177 206.301 119.097 206.095 119.097C205.981 119.097 205.888 119.124 205.815 119.177C205.748 119.23 205.715 119.294 205.715 119.367C205.715 119.587 205.945 119.697 206.405 119.697H207.145V120.577H204.775V119.767Z" fill="#F94892"/>
<path d="M118.876 128.943V133.079C118.876 133.313 118.836 133.527 118.756 133.719C118.681 133.911 118.572 134.073 118.428 134.207C118.289 134.34 118.121 134.444 117.924 134.519C117.727 134.588 117.511 134.623 117.276 134.623C116.844 134.623 116.495 134.508 116.228 134.279C115.967 134.044 115.799 133.735 115.724 133.351L116.332 133.207C116.385 133.447 116.487 133.644 116.636 133.799C116.785 133.948 117.004 134.023 117.292 134.023C117.58 134.023 117.804 133.935 117.964 133.759C118.124 133.583 118.204 133.316 118.204 132.959V129.535H116.284V128.943H118.876ZM120.322 134.527V128.943H122.546C123.047 128.943 123.431 129.087 123.698 129.375C123.97 129.657 124.106 130.047 124.106 130.543C124.106 131.039 123.97 131.431 123.698 131.719C123.431 132.001 123.047 132.143 122.546 132.143H120.994V134.527H120.322ZM120.994 131.551H122.546C122.813 131.551 123.018 131.481 123.162 131.343C123.311 131.204 123.386 131.007 123.386 130.751V130.335C123.386 130.079 123.311 129.881 123.162 129.743C123.018 129.604 122.813 129.535 122.546 129.535H120.994V131.551ZM125.174 134.527V128.943H128.582V129.535H125.846V131.407H128.422V131.999H125.846V133.935H128.582V134.527H125.174ZM133.454 133.711H133.43C133.36 133.972 133.19 134.191 132.918 134.367C132.651 134.537 132.304 134.623 131.878 134.623C131.536 134.623 131.222 134.561 130.934 134.439C130.651 134.311 130.408 134.127 130.206 133.887C130.003 133.641 129.843 133.34 129.726 132.983C129.614 132.62 129.558 132.204 129.558 131.735C129.558 131.271 129.614 130.86 129.726 130.503C129.838 130.14 129.998 129.839 130.206 129.599C130.414 129.353 130.664 129.167 130.958 129.039C131.251 128.911 131.576 128.847 131.934 128.847C132.435 128.847 132.854 128.959 133.19 129.183C133.526 129.407 133.784 129.703 133.966 130.071L133.414 130.407C133.286 130.108 133.094 129.873 132.838 129.703C132.587 129.532 132.286 129.447 131.934 129.447C131.688 129.447 131.464 129.492 131.262 129.583C131.059 129.668 130.883 129.791 130.734 129.951C130.59 130.111 130.478 130.303 130.398 130.527C130.318 130.751 130.278 131.001 130.278 131.279V132.183C130.278 132.46 130.318 132.713 130.398 132.943C130.478 133.167 130.59 133.359 130.734 133.519C130.883 133.679 131.064 133.804 131.278 133.895C131.491 133.98 131.731 134.023 131.998 134.023C132.19 134.023 132.371 133.999 132.542 133.951C132.718 133.897 132.87 133.82 132.998 133.719C133.131 133.617 133.235 133.492 133.31 133.343C133.384 133.188 133.422 133.007 133.422 132.799V132.247H132.19V131.655H134.078V134.527H133.454V133.711ZM136.819 135.759H137.371C138.016 135.759 138.494 135.617 138.803 135.335C139.112 135.052 139.267 134.657 139.267 134.151V133.975H139.227C139.152 134.151 139.027 134.289 138.851 134.391C138.68 134.492 138.478 134.543 138.243 134.543C137.816 134.543 137.486 134.431 137.251 134.207C137.016 133.977 136.899 133.657 136.899 133.247C136.899 133.007 136.934 132.78 137.003 132.567C137.078 132.353 137.179 132.169 137.307 132.015C137.435 131.855 137.587 131.729 137.763 131.639C137.944 131.543 138.142 131.495 138.355 131.495C138.814 131.495 139.174 131.692 139.435 132.087C139.696 132.481 139.827 133.036 139.827 133.751C139.827 134.599 139.622 135.26 139.211 135.735C138.806 136.209 138.192 136.447 137.371 136.447H136.819V135.759ZM138.403 133.839C138.632 133.839 138.814 133.82 138.947 133.783C139.086 133.74 139.192 133.676 139.267 133.591C139.267 133.159 139.182 132.817 139.011 132.567C138.84 132.311 138.606 132.183 138.307 132.183C138.035 132.183 137.824 132.273 137.675 132.455C137.531 132.636 137.459 132.873 137.459 133.167C137.459 133.401 137.52 133.572 137.643 133.679C137.771 133.785 137.971 133.839 138.243 133.839H138.403ZM140.788 129.583H141.38V134.527H140.788V129.583ZM140.268 128.463H140.556L140.564 128.431C140.521 128.377 140.486 128.316 140.46 128.247C140.433 128.172 140.42 128.097 140.42 128.023C140.42 127.815 140.489 127.641 140.628 127.503C140.766 127.364 140.942 127.295 141.156 127.295C141.278 127.295 141.404 127.327 141.532 127.391C141.66 127.449 141.756 127.529 141.82 127.631L141.524 127.991C141.417 127.868 141.294 127.807 141.156 127.807C141.06 127.807 140.98 127.833 140.916 127.887C140.852 127.935 140.82 127.996 140.82 128.071C140.82 128.183 140.87 128.271 140.972 128.335C141.073 128.399 141.214 128.431 141.396 128.431H141.908V128.943H140.268V128.463ZM147.243 128.943V133.079C147.243 133.313 147.203 133.527 147.123 133.719C147.049 133.911 146.939 134.073 146.795 134.207C146.657 134.34 146.489 134.444 146.291 134.519C146.094 134.588 145.878 134.623 145.643 134.623C145.211 134.623 144.862 134.508 144.595 134.279C144.334 134.044 144.166 133.735 144.091 133.351L144.699 133.207C144.753 133.447 144.854 133.644 145.003 133.799C145.153 133.948 145.371 134.023 145.659 134.023C145.947 134.023 146.171 133.935 146.331 133.759C146.491 133.583 146.571 133.316 146.571 132.959V129.535H144.651V128.943H147.243ZM148.689 134.527V128.943H150.913C151.415 128.943 151.799 129.087 152.065 129.375C152.337 129.657 152.473 130.047 152.473 130.543C152.473 131.039 152.337 131.431 152.065 131.719C151.799 132.001 151.415 132.143 150.913 132.143H149.361V134.527H148.689ZM149.361 131.551H150.913C151.18 131.551 151.385 131.481 151.529 131.343C151.679 131.204 151.753 131.007 151.753 130.751V130.335C151.753 130.079 151.679 129.881 151.529 129.743C151.385 129.604 151.18 129.535 150.913 129.535H149.361V131.551ZM157.157 133.711H157.133C157.064 133.972 156.893 134.191 156.621 134.367C156.354 134.537 156.008 134.623 155.581 134.623C155.24 134.623 154.925 134.561 154.637 134.439C154.354 134.311 154.112 134.127 153.909 133.887C153.706 133.641 153.546 133.34 153.429 132.983C153.317 132.62 153.261 132.204 153.261 131.735C153.261 131.271 153.317 130.86 153.429 130.503C153.541 130.14 153.701 129.839 153.909 129.599C154.117 129.353 154.368 129.167 154.661 129.039C154.954 128.911 155.28 128.847 155.637 128.847C156.138 128.847 156.557 128.959 156.893 129.183C157.229 129.407 157.488 129.703 157.669 130.071L157.117 130.407C156.989 130.108 156.797 129.873 156.541 129.703C156.29 129.532 155.989 129.447 155.637 129.447C155.392 129.447 155.168 129.492 154.965 129.583C154.762 129.668 154.586 129.791 154.437 129.951C154.293 130.111 154.181 130.303 154.101 130.527C154.021 130.751 153.981 131.001 153.981 131.279V132.183C153.981 132.46 154.021 132.713 154.101 132.943C154.181 133.167 154.293 133.359 154.437 133.519C154.586 133.679 154.768 133.804 154.981 133.895C155.194 133.98 155.434 134.023 155.701 134.023C155.893 134.023 156.074 133.999 156.245 133.951C156.421 133.897 156.573 133.82 156.701 133.719C156.834 133.617 156.938 133.492 157.013 133.343C157.088 133.188 157.125 133.007 157.125 132.799V132.247H155.893V131.655H157.781V134.527H157.157V133.711ZM161.338 133.591C161.509 133.591 161.631 133.636 161.706 133.727C161.786 133.812 161.826 133.924 161.826 134.063V134.175C161.826 134.393 161.762 134.633 161.634 134.895C161.506 135.161 161.327 135.393 161.098 135.591H160.562C160.722 135.42 160.85 135.257 160.946 135.103C161.047 134.953 161.119 134.785 161.162 134.599C161.055 134.572 160.975 134.521 160.922 134.447C160.874 134.372 160.85 134.281 160.85 134.175V134.063C160.85 133.924 160.887 133.812 160.962 133.727C161.042 133.636 161.167 133.591 161.338 133.591ZM163.174 134.527V128.943H165.398C165.899 128.943 166.283 129.087 166.55 129.375C166.822 129.657 166.958 130.047 166.958 130.543C166.958 131.039 166.822 131.431 166.55 131.719C166.283 132.001 165.899 132.143 165.398 132.143H163.846V134.527H163.174ZM163.846 131.551H165.398C165.664 131.551 165.87 131.481 166.014 131.343C166.163 131.204 166.238 131.007 166.238 130.751V130.335C166.238 130.079 166.163 129.881 166.014 129.743C165.87 129.604 165.664 129.535 165.398 129.535H163.846V131.551ZM169.377 131.119L168.705 129.879H168.681V134.527H168.025V128.943H168.801L170.841 132.351L171.513 133.591H171.537V128.943H172.193V134.527H171.417L169.377 131.119ZM177.298 133.711H177.274C177.204 133.972 177.034 134.191 176.762 134.367C176.495 134.537 176.148 134.623 175.722 134.623C175.38 134.623 175.066 134.561 174.778 134.439C174.495 134.311 174.252 134.127 174.05 133.887C173.847 133.641 173.687 133.34 173.57 132.983C173.458 132.62 173.402 132.204 173.402 131.735C173.402 131.271 173.458 130.86 173.57 130.503C173.682 130.14 173.842 129.839 174.05 129.599C174.258 129.353 174.508 129.167 174.802 129.039C175.095 128.911 175.42 128.847 175.778 128.847C176.279 128.847 176.698 128.959 177.034 129.183C177.37 129.407 177.628 129.703 177.81 130.071L177.258 130.407C177.13 130.108 176.938 129.873 176.682 129.703C176.431 129.532 176.13 129.447 175.778 129.447C175.532 129.447 175.308 129.492 175.106 129.583C174.903 129.668 174.727 129.791 174.578 129.951C174.434 130.111 174.322 130.303 174.242 130.527C174.162 130.751 174.122 131.001 174.122 131.279V132.183C174.122 132.46 174.162 132.713 174.242 132.943C174.322 133.167 174.434 133.359 174.578 133.519C174.727 133.679 174.908 133.804 175.122 133.895C175.335 133.98 175.575 134.023 175.842 134.023C176.034 134.023 176.215 133.999 176.386 133.951C176.562 133.897 176.714 133.82 176.842 133.719C176.975 133.617 177.079 133.492 177.154 133.343C177.228 133.188 177.266 133.007 177.266 132.799V132.247H176.034V131.655H177.922V134.527H177.298V133.711ZM183.735 134.623C183.175 134.623 182.703 134.593 182.319 134.535C181.94 134.476 181.633 134.383 181.399 134.255C181.164 134.127 180.993 133.959 180.887 133.751C180.785 133.537 180.735 133.279 180.735 132.975C180.735 132.761 180.761 132.543 180.815 132.319C180.873 132.095 180.961 131.847 181.079 131.575L181.575 131.727C181.356 132.18 181.247 132.569 181.247 132.895C181.247 133.22 181.401 133.46 181.711 133.615C182.02 133.764 182.508 133.839 183.175 133.839H185.735L185.751 133.807C185.479 133.593 185.268 133.364 185.119 133.119C184.969 132.868 184.895 132.577 184.895 132.247C184.895 132.033 184.929 131.833 184.999 131.647C185.068 131.46 185.167 131.297 185.295 131.159C185.423 131.015 185.575 130.903 185.751 130.823C185.932 130.737 186.129 130.695 186.343 130.695C186.556 130.695 186.751 130.737 186.927 130.823C187.108 130.903 187.263 131.012 187.391 131.151C187.519 131.289 187.617 131.455 187.687 131.647C187.756 131.833 187.791 132.033 187.791 132.247C187.791 132.577 187.716 132.868 187.567 133.119C187.417 133.364 187.207 133.593 186.935 133.807L186.951 133.839H188.111V134.367L187.951 134.527H187.839C187.567 134.527 187.305 134.497 187.055 134.439C186.804 134.375 186.567 134.281 186.343 134.159C186.231 134.233 186.103 134.3 185.959 134.359C185.815 134.412 185.641 134.46 185.439 134.503C185.236 134.54 184.993 134.569 184.711 134.591C184.433 134.612 184.108 134.623 183.735 134.623ZM186.343 133.599C186.615 133.449 186.831 133.273 186.991 133.071C187.151 132.863 187.231 132.615 187.231 132.327C187.231 132.039 187.153 131.809 186.999 131.639C186.844 131.468 186.639 131.383 186.383 131.383H186.303C186.047 131.383 185.841 131.468 185.687 131.639C185.532 131.809 185.455 132.039 185.455 132.327C185.455 132.615 185.535 132.863 185.695 133.071C185.855 133.273 186.071 133.449 186.343 133.599ZM186.295 129.735C186.188 129.735 186.103 129.705 186.039 129.647C185.975 129.583 185.943 129.481 185.943 129.343C185.943 129.204 185.975 129.105 186.039 129.047C186.103 128.983 186.188 128.951 186.295 128.951H186.383C186.489 128.951 186.575 128.983 186.639 129.047C186.703 129.105 186.735 129.204 186.735 129.343C186.735 129.481 186.703 129.583 186.639 129.647C186.575 129.705 186.489 129.735 186.383 129.735H186.295ZM187.949 133.999L188.109 133.839H188.389C188.843 133.839 189.069 133.612 189.069 133.159V128.607H189.661V133.159C189.661 133.612 189.888 133.839 190.341 133.839H190.621V134.367L190.461 134.527C189.704 134.527 189.261 134.265 189.133 133.743H189.093C189.035 134.036 188.92 134.241 188.749 134.359C188.579 134.471 188.312 134.527 187.949 134.527V133.999ZM190.465 133.999L190.625 133.839C190.801 133.839 190.934 133.831 191.025 133.815C191.121 133.799 191.198 133.767 191.257 133.719C191.241 133.66 191.23 133.601 191.225 133.543C191.22 133.484 191.217 133.42 191.217 133.351C191.217 133.063 191.31 132.801 191.497 132.567C191.689 132.327 191.977 132.081 192.361 131.831L192.753 131.575H193.377L193.945 133.119C193.998 133.263 194.046 133.383 194.089 133.479C194.137 133.569 194.188 133.641 194.241 133.695C194.3 133.748 194.361 133.785 194.425 133.807C194.494 133.828 194.574 133.839 194.665 133.839H194.817V134.367L194.657 134.527C194.406 134.527 194.206 134.492 194.057 134.423C193.908 134.348 193.774 134.204 193.657 133.991L193.609 134.007V134.527H192.657C191.969 134.527 191.526 134.327 191.329 133.927H191.297C191.228 134.129 191.132 134.281 191.009 134.383C190.886 134.479 190.705 134.527 190.465 134.527V133.999ZM191.745 133.279C191.745 133.471 191.822 133.612 191.977 133.703C192.132 133.793 192.374 133.839 192.705 133.839H193.577C193.518 133.716 193.454 133.559 193.385 133.367L192.937 132.159L192.633 132.343C192.393 132.487 192.185 132.636 192.009 132.791C191.833 132.945 191.745 133.108 191.745 133.279ZM194.66 133.999L194.82 133.839H195.052C195.308 133.839 195.492 133.78 195.604 133.663C195.722 133.545 195.78 133.359 195.78 133.103V128.607H196.372V133.103C196.372 133.593 196.266 133.953 196.052 134.183C195.844 134.412 195.511 134.527 195.052 134.527H194.66V133.999ZM197.569 128.607H198.161V134.527H197.569V128.607ZM203.344 136.959C202.998 136.959 202.68 136.913 202.392 136.823C202.11 136.737 201.867 136.607 201.664 136.431C201.462 136.255 201.304 136.039 201.192 135.783C201.086 135.527 201.032 135.231 201.032 134.895C201.032 134.463 201.163 134.071 201.424 133.719C201.691 133.361 202.067 133.079 202.552 132.871V132.831C202.248 132.644 202.011 132.417 201.84 132.151C201.675 131.879 201.592 131.593 201.592 131.295C201.592 131.055 201.632 130.836 201.712 130.639C201.792 130.441 201.899 130.273 202.032 130.135C202.171 129.991 202.334 129.881 202.52 129.807C202.707 129.727 202.904 129.687 203.112 129.687C203.416 129.687 203.68 129.751 203.904 129.879C204.128 130.001 204.315 130.177 204.464 130.407L204.064 130.871C203.926 130.7 203.776 130.575 203.616 130.495C203.462 130.415 203.283 130.375 203.08 130.375C202.776 130.375 202.544 130.46 202.384 130.631C202.23 130.796 202.152 131.017 202.152 131.295C202.152 131.471 202.184 131.623 202.248 131.751C202.318 131.879 202.411 131.983 202.528 132.063C202.646 132.143 202.784 132.204 202.944 132.247C203.11 132.284 203.288 132.303 203.48 132.303C203.704 132.303 203.936 132.279 204.176 132.231L204.824 132.111L204.944 132.735L203.888 132.959C203.115 133.124 202.544 133.345 202.176 133.623C201.808 133.895 201.624 134.244 201.624 134.671V134.831C201.624 135.279 201.776 135.625 202.08 135.871C202.39 136.116 202.811 136.239 203.344 136.239C203.691 136.239 204.008 136.175 204.296 136.047C204.59 135.924 204.872 135.721 205.144 135.439L205.576 135.975C205.246 136.321 204.902 136.572 204.544 136.727C204.192 136.881 203.792 136.959 203.344 136.959ZM205.686 135.759H206.11C206.691 135.759 207.139 135.649 207.454 135.431C207.774 135.217 207.971 134.916 208.046 134.527H207.11C206.683 134.527 206.353 134.415 206.118 134.191C205.883 133.967 205.766 133.652 205.766 133.247C205.766 133.007 205.801 132.78 205.87 132.567C205.945 132.353 206.046 132.169 206.174 132.015C206.302 131.855 206.454 131.729 206.63 131.639C206.811 131.543 207.009 131.495 207.222 131.495C207.665 131.495 208.011 131.692 208.262 132.087C208.518 132.481 208.646 133.036 208.646 133.751V133.839H209.014V134.367L208.854 134.527H208.574C208.457 135.14 208.193 135.612 207.782 135.943C207.377 136.279 206.819 136.447 206.11 136.447H205.686V135.759ZM206.326 133.167C206.326 133.401 206.387 133.572 206.51 133.679C206.638 133.785 206.838 133.839 207.11 133.839H208.086V133.591C208.086 133.159 208.003 132.817 207.838 132.567C207.678 132.311 207.457 132.183 207.174 132.183C206.902 132.183 206.691 132.273 206.542 132.455C206.398 132.636 206.326 132.873 206.326 133.167ZM208.856 133.999L209.016 133.839H209.136C209.488 133.839 209.741 133.796 209.896 133.711C210.056 133.62 210.136 133.449 210.136 133.199C210.136 133.103 210.128 132.98 210.112 132.831C210.101 132.681 210.074 132.484 210.032 132.239L209.92 131.575L210.48 131.487L210.576 132.151C210.613 132.412 210.64 132.625 210.656 132.791C210.672 132.956 210.68 133.092 210.68 133.199C210.68 133.647 210.546 133.98 210.28 134.199C210.018 134.417 209.637 134.527 209.136 134.527H208.856V133.999ZM210.064 130.527C209.957 130.527 209.872 130.497 209.808 130.439C209.744 130.375 209.712 130.273 209.712 130.135C209.712 129.996 209.744 129.897 209.808 129.839C209.872 129.775 209.957 129.743 210.064 129.743H210.152C210.258 129.743 210.344 129.775 210.408 129.839C210.472 129.897 210.504 129.996 210.504 130.135C210.504 130.273 210.472 130.375 210.408 130.439C210.344 130.497 210.258 130.527 210.152 130.527H210.064Z" fill="#736E6E"/>
<rect x="0.9" y="0.9" width="325.2" height="161.2" rx="5.1" stroke="#F94892" stroke-width="1.8" stroke-dasharray="6 6"/>
</svg>
