<svg width="12" height="12" viewBox="0 0 12 12" fill="none" xmlns="http://www.w3.org/2000/svg">
<path fill-rule="evenodd" clip-rule="evenodd" d="M0.771375 3.99976L1.34813 2.26912C1.5015 1.80975 1.93125 1.5 2.41575 1.5C3.91088 1.5 8.08912 1.5 9.58425 1.5C10.0687 1.5 10.4985 1.80975 10.6519 2.26912L11.2286 3.99976C11.2403 4.03276 11.2474 4.06801 11.2496 4.10476V4.11037L11.25 4.12126V4.125C11.25 4.125 11.25 4.79288 11.25 5.40075C11.25 5.7585 11.1079 6.10201 10.8547 6.35476C10.7501 6.45938 10.6301 6.54525 10.5 6.60975V9.375C10.5 9.6735 10.3815 9.95963 10.1704 10.1704C9.95962 10.3815 9.6735 10.5 9.375 10.5H2.625C2.3265 10.5 2.04038 10.3815 1.82963 10.1704C1.6185 9.95963 1.5 9.6735 1.5 9.375V6.60975C1.36987 6.54525 1.24988 6.45938 1.14525 6.35476C0.892125 6.10201 0.75 5.7585 0.75 5.40075V4.125V4.11563L0.750375 4.10476C0.752625 4.06801 0.75975 4.03276 0.771375 3.99976ZM3.075 6.33413C3.06825 6.34126 3.0615 6.34801 3.05475 6.35476C2.83725 6.57263 2.553 6.708 2.25 6.74175V9.375C2.25 9.47437 2.28937 9.57 2.35987 9.64013C2.43 9.71063 2.52563 9.75 2.625 9.75H4.5V8.625C4.5 8.22713 4.65788 7.84575 4.9395 7.5645C5.22075 7.28325 5.60213 7.125 6 7.125C6 7.125 6 7.125 6 7.5V7.125C6.39787 7.125 6.77925 7.28325 7.0605 7.5645C7.34212 7.84575 7.5 8.22713 7.5 8.625V9.75H9.375C9.47437 9.75 9.57 9.71063 9.64013 9.64013C9.71063 9.57 9.75 9.47437 9.75 9.375V6.74175C9.447 6.708 9.16275 6.57263 8.94525 6.35476C8.9385 6.34801 8.93175 6.34126 8.925 6.33413C8.91825 6.34126 8.9115 6.34801 8.90475 6.35476C8.65162 6.60788 8.3085 6.75 7.95075 6.75C7.95037 6.75 7.94963 6.75 7.94925 6.75C7.5915 6.75 7.24837 6.60788 6.99525 6.35476C6.9885 6.34801 6.98175 6.34126 6.975 6.33413C6.96825 6.34126 6.9615 6.34801 6.95475 6.35476C6.70163 6.60788 6.3585 6.75 6.00075 6.75C6.00037 6.75 5.99963 6.75 5.99925 6.75C5.6415 6.75 5.29837 6.60788 5.04525 6.35476C5.0385 6.34801 5.03175 6.34126 5.025 6.33413C5.01825 6.34126 5.0115 6.34801 5.00475 6.35476C4.75163 6.60788 4.4085 6.75 4.05075 6.75C4.05037 6.75 4.04963 6.75 4.04925 6.75C3.6915 6.75 3.34838 6.60788 3.09525 6.35476C3.0885 6.34801 3.08175 6.34126 3.075 6.33413ZM6.75 9.75V8.625C6.75 8.42625 6.67088 8.23537 6.53025 8.09475C6.38963 7.95412 6.19875 7.875 6 7.875V7.5V7.875C5.80125 7.875 5.61037 7.95412 5.46975 8.09475C5.32912 8.23537 5.25 8.42625 5.25 8.625V9.75H6.75ZM4.65 4.5H3.45V5.40075C3.45 5.55975 3.513 5.712 3.6255 5.8245C3.738 5.937 3.89025 6 4.04925 6C4.04963 6 4.05037 6 4.05075 6C4.20975 6 4.362 5.937 4.4745 5.8245C4.587 5.712 4.65 5.55975 4.65 5.40075V4.5ZM10.5 4.5H9.3V5.40075C9.3 5.55975 9.363 5.712 9.4755 5.8245C9.588 5.937 9.74025 6 9.89925 6C9.89962 6 9.90038 6 9.90075 6C10.0598 6 10.212 5.937 10.3245 5.8245C10.437 5.712 10.5 5.55975 10.5 5.40075V4.5ZM6.6 4.5H5.4V5.40075C5.4 5.55975 5.463 5.712 5.5755 5.8245C5.688 5.937 5.84025 6 5.99925 6C5.99963 6 6.00037 6 6.00075 6C6.15975 6 6.312 5.937 6.4245 5.8245C6.537 5.712 6.6 5.55975 6.6 5.40075V4.5ZM2.7 4.5H1.5V5.40075C1.5 5.55975 1.563 5.712 1.6755 5.8245C1.788 5.937 1.94025 6 2.09925 6C2.09962 6 2.10038 6 2.10075 6C2.25975 6 2.412 5.937 2.5245 5.8245C2.637 5.712 2.7 5.55975 2.7 5.40075V4.5ZM8.55 4.5H7.35V5.40075C7.35 5.55975 7.413 5.712 7.5255 5.8245C7.638 5.937 7.79025 6 7.94925 6C7.94963 6 7.95037 6 7.95075 6C8.10975 6 8.262 5.937 8.3745 5.8245C8.487 5.712 8.55 5.55975 8.55 5.40075V4.5ZM1.64513 3.75H10.3549L9.94012 2.50651C9.88912 2.35351 9.74587 2.25 9.58425 2.25C8.08912 2.25 3.91088 2.25 2.41575 2.25C2.25413 2.25 2.11088 2.35351 2.05988 2.50651L1.64513 3.75Z" fill="white"/>
</svg>
