<svg width="6" height="10" viewBox="0 0 6 10" fill="none" xmlns="http://www.w3.org/2000/svg">
<path d="M3.85742 6.95343C3.85742 6.68649 3.78254 6.4749 3.63283 6.31867C3.48636 6.15914 3.23571 6.01267 2.88089 5.8792C2.52607 5.74572 2.22007 5.6139 1.96289 5.48372C1.70574 5.35025 1.48438 5.1989 1.29884 5.02961C1.11654 4.85708 0.973313 4.65525 0.869148 4.42414C0.768236 4.19302 0.717778 3.91795 0.717778 3.59894C0.717778 3.04881 0.89356 2.59796 1.24512 2.2464C1.59669 1.89484 2.06383 1.68976 2.64648 1.63117V0.976866C2.64648 0.761131 2.82136 0.586243 3.03713 0.586243C3.25283 0.586243 3.42771 0.761131 3.42771 0.976866V1.64581C4.00389 1.7272 4.45477 1.96808 4.7803 2.36847C4.99924 2.63562 5.1446 2.95654 5.21624 3.33122C5.2773 3.65031 5.00518 3.91632 4.6803 3.91632H4.44565C4.12077 3.91632 3.8806 3.64375 3.77518 3.33646C3.73554 3.22093 3.6816 3.12288 3.6133 3.0423C3.45377 2.84698 3.23895 2.74933 2.96877 2.74933C2.70183 2.74933 2.49512 2.82582 2.34865 2.97882C2.20218 3.12856 2.12889 3.3369 2.12889 3.60382C2.12889 3.85122 2.20054 4.04978 2.34377 4.19955C2.48701 4.34925 2.7523 4.50225 3.13965 4.65849C3.5303 4.81478 3.85089 4.96284 4.1016 5.10284C4.35224 5.23955 4.56383 5.39584 4.73636 5.57161C4.90889 5.74414 5.04071 5.94267 5.13183 6.16731C5.22301 6.38867 5.26854 6.64743 5.26854 6.94367C5.26854 7.49708 5.09601 7.94625 4.75101 8.29131C4.40595 8.63637 3.93065 8.83984 3.32518 8.90167V9.48519C3.32518 9.69955 3.15142 9.87337 2.93701 9.87337C2.72265 9.87337 2.54883 9.69955 2.54883 9.48519V8.90655C1.88154 8.83496 1.36394 8.59896 0.996101 8.19855C0.745031 7.92055 0.580407 7.58008 0.502236 7.17708C0.440378 6.85814 0.712589 6.59208 1.03746 6.59208H1.27212C1.597 6.59208 1.8383 6.86549 1.95036 7.17043C1.99495 7.29178 2.05607 7.39684 2.13377 7.48567C2.31936 7.69072 2.58465 7.79325 2.92971 7.79325C3.21613 7.79325 3.44242 7.71843 3.60842 7.56867C3.77442 7.41567 3.85742 7.21061 3.85742 6.95343Z" fill="white"/>
</svg>
