<svg width="20" height="20" viewBox="0 0 20 20" fill="none" xmlns="http://www.w3.org/2000/svg">
<circle cx="10" cy="10" r="10" fill="#F94892"/>
<path d="M15.996 10.184C15.9954 10.139 15.9873 10.0943 15.972 10.052L15.372 8.55601C15.2833 8.33337 15.13 8.14237 14.9318 8.00763C14.7336 7.87289 14.4996 7.80058 14.26 7.80001H12V6.60001C12 6.49393 11.9578 6.39218 11.8828 6.31717C11.8078 6.24216 11.706 6.20001 11.6 6.20001H5.59995C5.49386 6.20001 5.39212 6.24216 5.31711 6.31717C5.24209 6.39218 5.19995 6.49393 5.19995 6.60001V12.6C5.19995 12.7061 5.24209 12.8078 5.31711 12.8829C5.39212 12.9579 5.49386 13 5.59995 13H6.87195C6.95603 13.2317 7.1094 13.4318 7.31122 13.5733C7.51303 13.7147 7.7535 13.7906 7.99995 13.7906C8.2464 13.7906 8.48687 13.7147 8.68869 13.5733C8.8905 13.4318 9.04387 13.2317 9.12795 13H12.472C12.556 13.2317 12.7094 13.4318 12.9112 13.5733C13.113 13.7147 13.3535 13.7906 13.6 13.7906C13.8464 13.7906 14.0869 13.7147 14.2887 13.5733C14.4905 13.4318 14.6439 13.2317 14.728 13H15.6C15.706 13 15.8078 12.9579 15.8828 12.8829C15.9578 12.8078 16 12.7061 16 12.6V10.2C16 10.2 15.996 10.192 15.996 10.184ZM14.26 8.58401C14.3394 8.58473 14.4168 8.60908 14.4823 8.65396C14.5479 8.69884 14.5986 8.76222 14.628 8.83601L15 9.80001H12V8.60001L14.26 8.58401ZM5.99995 7.00001H11.2V12.2H9.12795C9.04387 11.9684 8.8905 11.7682 8.68869 11.6267C8.48687 11.4853 8.2464 11.4094 7.99995 11.4094C7.7535 11.4094 7.51303 11.4853 7.31122 11.6267C7.1094 11.7682 6.95603 11.9684 6.87195 12.2H5.99995V7.00001ZM7.99995 13C7.92084 13 7.8435 12.9766 7.77772 12.9326C7.71194 12.8886 7.66067 12.8262 7.6304 12.7531C7.60012 12.68 7.5922 12.5996 7.60764 12.522C7.62307 12.4444 7.66117 12.3731 7.71711 12.3172C7.77305 12.2612 7.84432 12.2231 7.92192 12.2077C7.99951 12.1923 8.07993 12.2002 8.15302 12.2305C8.22612 12.2607 8.28859 12.312 8.33254 12.3778C8.37649 12.4436 8.39995 12.5209 8.39995 12.6C8.39995 12.7061 8.35781 12.8078 8.28279 12.8829C8.20778 12.9579 8.10604 13 7.99995 13ZM13.6 13C13.5208 13 13.4435 12.9766 13.3777 12.9326C13.3119 12.8886 13.2607 12.8262 13.2304 12.7531C13.2001 12.68 13.1922 12.5996 13.2076 12.522C13.2231 12.4444 13.2612 12.3731 13.3171 12.3172C13.373 12.2612 13.4443 12.2231 13.5219 12.2077C13.5995 12.1923 13.6799 12.2002 13.753 12.2305C13.8261 12.2607 13.8886 12.312 13.9325 12.3778C13.9765 12.4436 14 12.5209 14 12.6C14 12.7061 13.9578 12.8078 13.8828 12.8829C13.8078 12.9579 13.706 13 13.6 13ZM15.2 12.2H14.728C14.6439 11.9684 14.4905 11.7682 14.2887 11.6267C14.0869 11.4853 13.8464 11.4094 13.6 11.4094C13.3535 11.4094 13.113 11.4853 12.9112 11.6267C12.7094 11.7682 12.556 11.9684 12.472 12.2H12V10.6H15.2V12.2Z" fill="white"/>
</svg>
