<svg width="20" height="20" viewBox="0 0 20 20" fill="none" xmlns="http://www.w3.org/2000/svg">
<circle cx="10" cy="10" r="10" fill="#F94892"/>
<path fill-rule="evenodd" clip-rule="evenodd" d="M4.77137 7.99976L5.34813 6.26912C5.5015 5.80975 5.93125 5.5 6.41575 5.5C7.91088 5.5 12.0891 5.5 13.5842 5.5C14.0687 5.5 14.4985 5.80975 14.6519 6.26912L15.2286 7.99976C15.2403 8.03276 15.2474 8.06801 15.2496 8.10476V8.11037L15.25 8.12126V8.125C15.25 8.125 15.25 8.79288 15.25 9.40075C15.25 9.7585 15.1079 10.102 14.8547 10.3548C14.7501 10.4594 14.6301 10.5453 14.5 10.6098V13.375C14.5 13.6735 14.3815 13.9596 14.1704 14.1704C13.9596 14.3815 13.6735 14.5 13.375 14.5H6.625C6.3265 14.5 6.04038 14.3815 5.82963 14.1704C5.6185 13.9596 5.5 13.6735 5.5 13.375V10.6098C5.36988 10.5453 5.24988 10.4594 5.14525 10.3548C4.89213 10.102 4.75 9.7585 4.75 9.40075V8.125V8.11563L4.75037 8.10476C4.75262 8.06801 4.75975 8.03276 4.77137 7.99976ZM7.075 10.3341C7.06825 10.3413 7.0615 10.348 7.05475 10.3548C6.83725 10.5726 6.553 10.708 6.25 10.7417V13.375C6.25 13.4744 6.28937 13.57 6.35987 13.6401C6.43 13.7106 6.52562 13.75 6.625 13.75H8.5V12.625C8.5 12.2271 8.65788 11.8457 8.9395 11.5645C9.22075 11.2832 9.60213 11.125 10 11.125C10 11.125 10 11.125 10 11.5V11.125C10.3979 11.125 10.7792 11.2832 11.0605 11.5645C11.3421 11.8457 11.5 12.2271 11.5 12.625V13.75H13.375C13.4744 13.75 13.57 13.7106 13.6401 13.6401C13.7106 13.57 13.75 13.4744 13.75 13.375V10.7417C13.447 10.708 13.1628 10.5726 12.9452 10.3548C12.9385 10.348 12.9317 10.3413 12.925 10.3341C12.9183 10.3413 12.9115 10.348 12.9047 10.3548C12.6516 10.6079 12.3085 10.75 11.9507 10.75C11.9504 10.75 11.9496 10.75 11.9493 10.75C11.5915 10.75 11.2484 10.6079 10.9952 10.3548C10.9885 10.348 10.9817 10.3413 10.975 10.3341C10.9682 10.3413 10.9615 10.348 10.9548 10.3548C10.7016 10.6079 10.3585 10.75 10.0007 10.75C10.0004 10.75 9.99963 10.75 9.99925 10.75C9.6415 10.75 9.29837 10.6079 9.04525 10.3548C9.0385 10.348 9.03175 10.3413 9.025 10.3341C9.01825 10.3413 9.0115 10.348 9.00475 10.3548C8.75163 10.6079 8.4085 10.75 8.05075 10.75C8.05037 10.75 8.04963 10.75 8.04925 10.75C7.6915 10.75 7.34838 10.6079 7.09525 10.3548C7.0885 10.348 7.08175 10.3413 7.075 10.3341ZM10.75 13.75V12.625C10.75 12.4262 10.6709 12.2354 10.5303 12.0947C10.3896 11.9541 10.1988 11.875 10 11.875V11.5V11.875C9.80125 11.875 9.61037 11.9541 9.46975 12.0947C9.32912 12.2354 9.25 12.4262 9.25 12.625V13.75H10.75ZM8.65 8.5H7.45V9.40075C7.45 9.55975 7.513 9.712 7.6255 9.8245C7.738 9.93701 7.89025 10 8.04925 10C8.04963 10 8.05037 10 8.05075 10C8.20975 10 8.362 9.93701 8.4745 9.8245C8.587 9.712 8.65 9.55975 8.65 9.40075V8.5ZM14.5 8.5H13.3V9.40075C13.3 9.55975 13.363 9.712 13.4755 9.8245C13.588 9.93701 13.7402 10 13.8993 10C13.8996 10 13.9004 10 13.9008 10C14.0598 10 14.212 9.93701 14.3245 9.8245C14.437 9.712 14.5 9.55975 14.5 9.40075V8.5ZM10.6 8.5H9.4V9.40075C9.4 9.55975 9.463 9.712 9.5755 9.8245C9.688 9.93701 9.84025 10 9.99925 10C9.99963 10 10.0004 10 10.0007 10C10.1597 10 10.312 9.93701 10.4245 9.8245C10.537 9.712 10.6 9.55975 10.6 9.40075V8.5ZM6.7 8.5H5.5V9.40075C5.5 9.55975 5.563 9.712 5.6755 9.8245C5.788 9.93701 5.94025 10 6.09925 10C6.09962 10 6.10038 10 6.10075 10C6.25975 10 6.412 9.93701 6.5245 9.8245C6.637 9.712 6.7 9.55975 6.7 9.40075V8.5ZM12.55 8.5H11.35V9.40075C11.35 9.55975 11.413 9.712 11.5255 9.8245C11.638 9.93701 11.7903 10 11.9493 10C11.9496 10 11.9504 10 11.9507 10C12.1097 10 12.262 9.93701 12.3745 9.8245C12.487 9.712 12.55 9.55975 12.55 9.40075V8.5ZM5.64513 7.75H14.3549L13.9401 6.50651C13.8891 6.35351 13.7459 6.25 13.5842 6.25C12.0891 6.25 7.91088 6.25 6.41575 6.25C6.25413 6.25 6.11088 6.35351 6.05988 6.50651L5.64513 7.75Z" fill="white"/>
</svg>
