<svg width="20" height="20" viewBox="0 0 20 20" fill="none" xmlns="http://www.w3.org/2000/svg">
<circle cx="10" cy="10" r="10" fill="#F94892"/>
<path d="M10.8574 11.9534C10.8574 11.6865 10.7825 11.4749 10.6328 11.3187C10.4864 11.1591 10.2357 11.0127 9.88089 10.8792C9.52607 10.7457 9.22007 10.6139 8.96289 10.4837C8.70574 10.3503 8.48438 10.1989 8.29884 10.0296C8.11654 9.85708 7.97331 9.65525 7.86915 9.42414C7.76824 9.19302 7.71778 8.91795 7.71778 8.59894C7.71778 8.04881 7.89356 7.59796 8.24512 7.2464C8.59669 6.89484 9.06383 6.68976 9.64648 6.63117V5.97687C9.64648 5.76113 9.82136 5.58624 10.0371 5.58624C10.2528 5.58624 10.4277 5.76113 10.4277 5.97687V6.64581C11.0039 6.7272 11.4548 6.96808 11.7803 7.36847C11.9992 7.63562 12.1446 7.95654 12.2162 8.33122C12.2773 8.65031 12.0052 8.91632 11.6803 8.91632H11.4457C11.1208 8.91632 10.8806 8.64375 10.7752 8.33646C10.7355 8.22093 10.6816 8.12288 10.6133 8.0423C10.4538 7.84698 10.2389 7.74933 9.96877 7.74933C9.70183 7.74933 9.49512 7.82582 9.34865 7.97882C9.20218 8.12856 9.12889 8.3369 9.12889 8.60382C9.12889 8.85122 9.20054 9.04978 9.34377 9.19955C9.48701 9.34925 9.7523 9.50225 10.1397 9.65849C10.5303 9.81478 10.8509 9.96284 11.1016 10.1028C11.3522 10.2395 11.5638 10.3958 11.7364 10.5716C11.9089 10.7441 12.0407 10.9427 12.1318 11.1673C12.223 11.3887 12.2685 11.6474 12.2685 11.9437C12.2685 12.4971 12.096 12.9463 11.751 13.2913C11.4059 13.6364 10.9307 13.8398 10.3252 13.9017V14.4852C10.3252 14.6995 10.1514 14.8734 9.93701 14.8734C9.72265 14.8734 9.54883 14.6995 9.54883 14.4852V13.9065C8.88154 13.835 8.36394 13.599 7.9961 13.1985C7.74503 12.9205 7.58041 12.5801 7.50224 12.1771C7.44038 11.8581 7.71259 11.5921 8.03746 11.5921H8.27212C8.597 11.5921 8.8383 11.8655 8.95036 12.1704C8.99495 12.2918 9.05607 12.3968 9.13377 12.4857C9.31936 12.6907 9.58465 12.7933 9.92971 12.7933C10.2161 12.7933 10.4424 12.7184 10.6084 12.5687C10.7744 12.4157 10.8574 12.2106 10.8574 11.9534Z" fill="white"/>
</svg>
