<svg width="14" height="17" viewBox="0 0 14 17" fill="none" xmlns="http://www.w3.org/2000/svg">
<path d="M12.4642 8.83602L7.52018 13.788C6.87203 14.364 6.02829 14.6706 5.16156 14.6451C4.29482 14.6196 3.47058 14.2639 2.85744 13.6508C2.24429 13.0376 1.88858 12.2134 1.86307 11.3466C1.83756 10.4799 2.14416 9.63617 2.72018 8.98802L9.12018 2.58802C9.50228 2.22506 10.0092 2.02269 10.5362 2.02269C11.0632 2.02269 11.5701 2.22506 11.9522 2.58802C12.3245 2.9653 12.5332 3.474 12.5332 4.00402C12.5332 4.53405 12.3245 5.04275 11.9522 5.42002L6.43218 10.932C6.37755 10.9909 6.31186 11.0384 6.23888 11.0718C6.16589 11.1052 6.08704 11.124 6.00681 11.127C5.92658 11.1299 5.84655 11.1171 5.77129 11.0891C5.69603 11.0612 5.62701 11.0187 5.56818 10.964C5.50935 10.9094 5.46185 10.8437 5.4284 10.7707C5.39495 10.6977 5.37621 10.6189 5.37324 10.5387C5.37027 10.4584 5.38313 10.3784 5.41108 10.3031C5.43904 10.2279 5.48155 10.1589 5.53618 10.1L9.64018 6.00402C9.79082 5.85338 9.87545 5.64906 9.87545 5.43602C9.87545 5.22298 9.79082 5.01867 9.64018 4.86802C9.48954 4.71738 9.28522 4.63275 9.07218 4.63275C8.85914 4.63275 8.65482 4.71738 8.50418 4.86802L4.40018 8.98002C4.19482 9.18379 4.03183 9.42618 3.9206 9.69324C3.80937 9.9603 3.75211 10.2467 3.75211 10.536C3.75211 10.8253 3.80937 11.1117 3.9206 11.3788C4.03183 11.6459 4.19482 11.8883 4.40018 12.092C4.81968 12.4916 5.37682 12.7145 5.95618 12.7145C6.53553 12.7145 7.09268 12.4916 7.51218 12.092L13.0242 6.57202C13.6601 5.88958 14.0063 4.98696 13.9898 4.05432C13.9734 3.12167 13.5955 2.23182 12.936 1.57224C12.2764 0.912656 11.3865 0.534839 10.4539 0.518383C9.52124 0.501928 8.61862 0.848119 7.93618 1.48402L1.53618 7.88402C0.673136 8.83989 0.212199 10.0919 0.249403 11.3792C0.286608 12.6665 0.819083 13.8898 1.73589 14.7942C2.65269 15.6987 3.88312 16.2145 5.1708 16.2342C6.45849 16.2539 7.70413 15.776 8.64818 14.9L13.6002 9.95602C13.6748 9.88143 13.7339 9.79288 13.7743 9.69542C13.8147 9.59797 13.8355 9.49351 13.8355 9.38802C13.8355 9.28254 13.8147 9.17808 13.7743 9.08062C13.7339 8.98317 13.6748 8.89461 13.6002 8.82002C13.5256 8.74543 13.437 8.68626 13.3396 8.6459C13.2421 8.60553 13.1377 8.58475 13.0322 8.58475C12.9267 8.58475 12.8222 8.60553 12.7248 8.6459C12.6273 8.68626 12.5388 8.74543 12.4642 8.82002V8.83602Z" fill="#828282"/>
</svg>
