<svg width="295" height="220" viewBox="0 0 295 220" fill="none" xmlns="http://www.w3.org/2000/svg">
<path d="M147.382 220C210.541 220 261.741 217.011 261.741 213.323C261.741 209.636 210.541 206.647 147.382 206.647C84.2236 206.647 33.0234 209.636 33.0234 213.323C33.0234 217.011 84.2236 220 147.382 220Z" fill="#F5F5F5"/>
<path d="M294.906 193.105H0V193.252H294.906V193.105Z" fill="#E0E0E0"/>
<path d="M64.5373 200.176H30.4639V200.324H64.5373V200.176Z" fill="#E0E0E0"/>
<path d="M138.995 196.974H123.471V197.121H138.995V196.974Z" fill="#E0E0E0"/>
<path d="M174.915 196.897H144.669V197.045H174.915V196.897Z" fill="#E0E0E0"/>
<path d="M232.486 198.667H225.12V198.814H232.486V198.667Z" fill="#E0E0E0"/>
<path d="M199.681 198.667H170.296V198.814H199.681V198.667Z" fill="#E0E0E0"/>
<path d="M76.0858 200.176H70.2467V200.324H76.0858V200.176Z" fill="#E0E0E0"/>
<path d="M262.809 198.667H237.299V198.814H262.809V198.667Z" fill="#E0E0E0"/>
<path d="M139.786 0H25.881C25.164 0.000660992 24.4659 0.22971 23.8879 0.653927C23.3099 1.07814 22.8821 1.67547 22.6665 2.35925C22.5693 2.66644 22.5196 2.98666 22.519 3.30885V163.431C22.519 164.323 22.8731 165.179 23.5034 165.81C24.1337 166.442 24.9888 166.797 25.881 166.799H139.786C140.679 166.799 141.535 166.444 142.167 165.813C142.799 165.181 143.153 164.324 143.153 163.431V3.36783C143.153 2.47462 142.799 1.618 142.167 0.986414C141.535 0.354824 140.679 0 139.786 0ZM143.006 163.431C143.004 164.285 142.665 165.103 142.061 165.707C141.457 166.31 140.639 166.65 139.786 166.651H25.881C25.0279 166.65 24.2103 166.31 23.6076 165.706C23.005 165.102 22.6665 164.284 22.6665 163.431V3.33834C22.6665 2.48526 23.005 1.66704 23.6076 1.06327C24.2103 0.459502 25.0279 0.119523 25.881 0.117961H139.786C140.639 0.121069 141.456 0.461355 142.059 1.06462C142.662 1.66789 143.003 2.4852 143.006 3.33834V163.431Z" fill="#E0E0E0"/>
<path d="M267.368 0H153.475C152.587 0.00150301 151.736 0.352772 151.106 0.977669C150.475 1.60257 150.116 2.45074 150.107 3.33834V163.431C150.107 164.324 150.462 165.181 151.094 165.813C151.725 166.444 152.582 166.799 153.475 166.799H267.368C268.259 166.796 269.113 166.44 269.742 165.808C270.371 165.177 270.724 164.322 270.724 163.431V3.33834C270.716 2.45229 270.359 1.605 269.731 0.980108C269.103 0.355214 268.254 0.00306968 267.368 0ZM270.588 163.431C270.587 164.285 270.247 165.103 269.643 165.707C269.04 166.31 268.221 166.65 267.368 166.651H153.475C152.621 166.651 151.802 166.312 151.198 165.708C150.594 165.104 150.255 164.285 150.255 163.431V3.33834C150.256 2.48472 150.596 1.66651 151.2 1.06291C151.803 0.459311 152.621 0.11952 153.475 0.117961H267.368C268.221 0.121069 269.038 0.461355 269.641 1.06462C270.245 1.66789 270.585 2.4852 270.588 3.33834V163.431Z" fill="#E0E0E0"/>
<path d="M218.838 28.9775H281.27C281.27 28.9775 277.501 22.1474 269.727 24.259C269.727 24.259 270.671 12.8461 264.542 11.0177C258.414 9.18927 255.105 16.2493 255.105 16.2493C255.105 16.2493 250.865 3.05522 242.855 4.7067C234.845 6.35817 231.548 20.0418 231.548 20.0418C231.548 20.0418 219.782 15.7834 218.838 28.9775Z" fill="#F5F5F5"/>
<path d="M128.573 51.3137H191.028C191.028 51.3137 187.254 44.4778 179.48 46.5952C179.48 46.5952 180.424 35.1823 174.295 33.348C168.167 31.5137 164.859 38.5855 164.859 38.5855C164.859 38.5855 160.618 25.3914 152.608 27.037C144.598 28.6826 141.295 42.3721 141.295 42.3721C141.295 42.3721 129.517 38.1196 128.573 51.3137Z" fill="#F5F5F5"/>
<path d="M127.441 9.22467H22.7313V193.105H127.441V9.22467Z" fill="#F5F5F5"/>
<path d="M109.994 67.9464H43.6167V193.252H109.994V67.9464Z" fill="#FAFAFA"/>
<path d="M105.8 71.9276H48.3999V193.252H105.8V71.9276Z" fill="#E6E6E6"/>
<path d="M131.233 10.5635H22.7076V2.38871C22.9808 1.67757 23.4679 1.06871 24.1018 0.646142C24.7356 0.223569 25.485 0.00810196 26.2465 0.0294629H127.523L127.57 0.147426L130.23 7.73831L131.233 10.5635Z" fill="#EBEBEB"/>
<path d="M27.9688 15.5003C30.9689 15.5003 33.401 13.29 33.401 10.5636C33.401 7.83708 30.9689 5.62683 27.9688 5.62683C24.9687 5.62683 22.5366 7.83708 22.5366 10.5636C22.5366 13.29 24.9687 15.5003 27.9688 15.5003Z" fill="#EBEBEB"/>
<path d="M38.8392 15.5003C41.8393 15.5003 44.2713 13.29 44.2713 10.5636C44.2713 7.83708 41.8393 5.62683 38.8392 5.62683C35.8391 5.62683 33.407 7.83708 33.407 10.5636C33.407 13.29 35.8391 15.5003 38.8392 15.5003Z" fill="#EBEBEB"/>
<path d="M49.7094 15.5003C52.7095 15.5003 55.1416 13.29 55.1416 10.5636C55.1416 7.83708 52.7095 5.62683 49.7094 5.62683C46.7093 5.62683 44.2772 7.83708 44.2772 10.5636C44.2772 13.29 46.7093 15.5003 49.7094 15.5003Z" fill="#EBEBEB"/>
<path d="M60.5796 15.5003C63.5797 15.5003 66.0118 13.29 66.0118 10.5636C66.0118 7.83708 63.5797 5.62683 60.5796 5.62683C57.5795 5.62683 55.1475 7.83708 55.1475 10.5636C55.1475 13.29 57.5795 15.5003 60.5796 15.5003Z" fill="#EBEBEB"/>
<path d="M71.45 15.5003C74.4501 15.5003 76.8822 13.29 76.8822 10.5636C76.8822 7.83708 74.4501 5.62683 71.45 5.62683C68.4499 5.62683 66.0178 7.83708 66.0178 10.5636C66.0178 13.29 68.4499 15.5003 71.45 15.5003Z" fill="#EBEBEB"/>
<path d="M82.3201 15.5003C85.3202 15.5003 87.7523 13.29 87.7523 10.5636C87.7523 7.83708 85.3202 5.62683 82.3201 5.62683C79.32 5.62683 76.8879 7.83708 76.8879 10.5636C76.8879 13.29 79.32 15.5003 82.3201 15.5003Z" fill="#EBEBEB"/>
<path d="M93.1845 15.5003C96.1846 15.5003 98.6167 13.29 98.6167 10.5636C98.6167 7.83708 96.1846 5.62683 93.1845 5.62683C90.1844 5.62683 87.7523 7.83708 87.7523 10.5636C87.7523 13.29 90.1844 15.5003 93.1845 15.5003Z" fill="#EBEBEB"/>
<path d="M104.055 15.5003C107.055 15.5003 109.487 13.29 109.487 10.5636C109.487 7.83708 107.055 5.62683 104.055 5.62683C101.055 5.62683 98.6226 7.83708 98.6226 10.5636C98.6226 13.29 101.055 15.5003 104.055 15.5003Z" fill="#EBEBEB"/>
<path d="M114.925 15.5003C117.925 15.5003 120.357 13.29 120.357 10.5636C120.357 7.83708 117.925 5.62683 114.925 5.62683C111.925 5.62683 109.493 7.83708 109.493 10.5636C109.493 13.29 111.925 15.5003 114.925 15.5003Z" fill="#EBEBEB"/>
<path d="M131.233 10.5635C131.233 13.2884 128.797 15.5002 125.795 15.5002C122.793 15.5002 120.357 13.2884 120.357 10.5635C120.357 7.83858 122.793 5.62678 125.795 5.62678C126.644 5.61478 127.484 5.79598 128.253 6.15669C129.021 6.5174 129.698 7.04816 130.231 7.70882L131.233 10.5635Z" fill="#EBEBEB"/>
<path d="M127.441 25.185H22.7313V26.9072H127.441V25.185Z" fill="#FAFAFA"/>
<path d="M208.664 154.13H127.447V157.781H208.664V154.13Z" fill="#E0E0E0"/>
<path d="M144.528 193.099H132.266V136.188L138.394 130.95L144.528 136.188V193.099Z" fill="#E6E6E6"/>
<path d="M162.092 193.099H149.83V136.188L155.964 130.95L162.092 136.188V193.099Z" fill="#E6E6E6"/>
<path d="M179.663 193.099H167.4V136.188L173.529 130.95L179.663 136.188V193.099Z" fill="#E6E6E6"/>
<path d="M197.227 193.099H184.965V136.188L191.099 130.95L197.227 136.188V193.099Z" fill="#E6E6E6"/>
<path d="M214.792 193.099H202.536V136.188L208.664 130.95L214.792 136.188V193.099Z" fill="#E6E6E6"/>
<path d="M88.0886 20.6552C88.0886 20.6552 86.9502 17.8713 79.9374 18.697C72.9245 19.5228 72.199 28.8064 68.6955 35.4064C65.1921 42.0064 61.4703 45.2091 61.4703 45.2091C61.4703 45.2091 60.9572 49.2316 68.5894 51.5024C76.2216 53.7732 91.1792 49.9807 91.1792 49.9807C91.1792 49.9807 93.1138 32.4102 90.2414 27.0488C87.369 21.6874 88.0886 20.6552 88.0886 20.6552Z" fill="#263238"/>
<path d="M108.591 196.166L99.0887 196.755C99.0887 196.755 95.0603 160.14 90.6249 133.48C90.6249 133.392 90.6249 133.292 90.5836 133.191C88.767 122.309 86.8855 113.138 85.1868 108.838C85.1868 108.838 83.0045 142.971 82.3557 158.123C81.7069 173.275 78.6812 199.787 78.6812 199.787L69.8989 201.091C69.8989 201.091 68.4479 148.314 69.3091 138.346C70.1702 128.379 66.248 91.4563 73.0072 82.3142H97.4549C97.4549 82.3142 106.921 134.182 107.606 148.562C108.29 162.942 108.591 196.166 108.591 196.166Z" fill="#263238"/>
<path d="M76.6165 199.905L76.4749 202.736L76.1447 209.289L71.2256 210.02L71.1136 202.949L71.0723 200.229L76.6165 199.905Z" fill="#FF8B7B"/>
<path d="M106.479 207.083L100.976 208.617C100.976 208.617 100.846 205.308 100.716 202.129C100.634 200.082 100.551 198.088 100.498 197.068C100.498 196.673 100.463 196.431 100.451 196.378L106.385 195.788V197.652L106.426 201.863L106.479 207.083Z" fill="#FF8B7B"/>
<path d="M78.1267 207.838C78.1267 207.838 79.0409 204.175 80.486 204.358C81.931 204.541 78.1267 207.838 78.1267 207.838Z" stroke="#F94892" stroke-miterlimit="10"/>
<path d="M78.5394 207.838C78.5394 207.838 81.978 205.414 82.615 206.658C83.252 207.903 78.5394 207.838 78.5394 207.838Z" stroke="#F94892" stroke-miterlimit="10"/>
<path d="M108.59 208.21C108.59 208.21 109.357 204.335 110.224 204.335C111.091 204.335 108.59 208.21 108.59 208.21Z" stroke="#F94892" stroke-miterlimit="10"/>
<path d="M108.408 209.413C108.408 209.413 110.425 205.443 111.481 206.299C112.536 207.154 108.408 209.413 108.408 209.413Z" stroke="#F94892" stroke-miterlimit="10"/>
<path d="M82.4205 212.592C82.4205 212.592 71.9337 212.863 71.1728 212.769C70.4119 212.675 69.5685 212.633 69.5095 211.808C69.5095 211.406 69.8693 208.971 69.9283 208.121C69.9873 207.272 69.7749 206.829 70.8425 206.558C71.9101 206.287 77.0945 205.685 77.7197 206.328C78.3449 206.971 80.48 209.419 82.0607 209.702C83.6414 209.985 84.9685 209.873 85.0806 210.769C85.1926 211.666 85.228 212.527 82.4205 212.592Z" fill="#263238"/>
<path d="M112.613 212.592C112.613 212.592 102.132 212.863 101.365 212.769C100.598 212.675 99.8435 212.445 99.7196 212.061C99.5958 211.678 100.068 208.971 100.121 208.121C100.174 207.272 99.9673 206.829 101.035 206.558C102.102 206.287 107.287 205.685 107.912 206.328C108.537 206.971 110.672 209.419 112.259 209.702C113.846 209.985 115.161 209.873 115.273 210.769C115.385 211.666 115.42 212.527 112.613 212.592Z" fill="#263238"/>
<path opacity="0.3" d="M90.5835 133.186C88.7669 122.303 86.8854 113.132 85.1868 108.832L86.3133 102.651C86.3133 102.651 89.2329 124.71 90.5835 133.186Z" fill="black"/>
<path opacity="0.2" d="M76.6049 199.905L76.4633 202.736C75.0832 202.789 72.3347 202.89 71.102 202.949L71.0607 200.229L76.6049 199.905Z" fill="black"/>
<path opacity="0.2" d="M106.438 201.857L100.717 202.129C100.634 200.082 100.551 198.088 100.498 197.068L106.396 197.658L106.438 201.857Z" fill="black"/>
<path d="M110.213 195.782L109.334 200.271L98.8586 201.085L97.4844 195.782H110.213Z" fill="#F94892"/>
<path d="M80.0908 197.245L79.1707 201.68L68.2356 202.199L68.2415 197.245H80.0908Z" fill="#F94892"/>
<path d="M112.525 68.6128C110.165 69.7394 103.677 70.9721 103.677 70.9721C103.677 70.9721 99.4307 59.9957 98.31 53.7555C97.9584 51.5246 96.8928 49.4679 95.2732 47.894C93.6536 46.3201 91.5672 45.3139 89.3272 45.0262C86.4607 44.6547 74.3578 44.7785 70.1111 45.6514C65.8645 46.5244 65.1272 52.7587 64.7497 56.504C64.3722 60.2493 62.0071 74.1984 64.0007 78.327C65.9942 82.4557 72.9835 80.8161 72.9835 80.8161V82.3142H97.4371L96.8473 70.8718C96.8473 70.8718 99.1594 76.9469 102.745 77.1946C106.332 77.4423 114.471 71.4616 114.471 71.4616L112.525 68.6128ZM69.4682 75.0123C69.4682 75.0123 69.7395 67.8874 70.2232 65.8348L70.9604 69.6391L71.9985 75.0123H69.4682Z" fill="#F94892"/>
<path d="M85.0214 73.3962L88.8669 68.7426L94.2637 67.9169L95.0894 72.712L90.9608 74.222C90.9608 74.222 88.9731 76.6166 85.0037 76.2037L85.0214 73.3962Z" fill="#FF8B7B"/>
<path d="M112.524 68.6128L114.524 64.9442L119.402 62.8917L121.248 67.8874L117.208 69.4622C117.208 69.4622 116.152 71.786 114.524 71.4852L112.524 68.6128Z" fill="#FF8B7B"/>
<path d="M85.1041 40.5555C85.0777 40.9797 85.0777 41.4052 85.1041 41.8295C85.1631 42.6375 85.0098 44.1179 86.5964 44.8965C85.7765 46.6659 83.8006 51.1013 82.6033 52.6054C80.7808 51.1131 76.4988 45.0911 76.4988 45.0911C76.4988 45.0911 79.5068 41.8295 77.3481 35.6836C77.3481 35.6836 74.3165 33.4659 74.924 32.245C75.62 30.8236 77.5958 31.5903 78.0146 32.1919C77.5722 31.5432 75.5138 24.4241 78.0146 21.8054C79.5717 20.1716 81.1288 20.1539 84.0307 20.0359H84.2725C86.1304 19.971 87.5106 20.0359 87.5106 20.0359C88.1413 20.7154 88.697 21.4609 89.1679 22.2595C90.4839 24.4079 91.2909 26.8289 91.5272 29.3373C92.0757 35.1823 90.9256 39.9185 85.1041 40.5555Z" fill="#FF8B7B"/>
<path d="M86.7084 33.289C86.7084 33.289 84.066 34.1855 83.1046 32.1801" stroke="#263238" stroke-width="0.5" stroke-linecap="round" stroke-linejoin="round"/>
<path d="M83.5175 24.8547C83.0755 24.8416 82.6388 24.9531 82.2571 25.1762C81.8755 25.3994 81.5642 25.7253 81.3588 26.1169" stroke="#263238" stroke-linecap="round" stroke-linejoin="round"/>
<path d="M90.2415 24.2472C90.0273 24.0128 89.768 23.8241 89.4792 23.6924C89.1904 23.5606 88.8779 23.4885 88.5605 23.4804" stroke="#263238" stroke-linecap="round" stroke-linejoin="round"/>
<path d="M87.8113 32.2037L87.2922 27.786L89.8933 31.1244C89.8933 31.1244 89.6397 32.2745 87.8113 32.2037Z" fill="#FF5652"/>
<path d="M83.541 27.8214C83.5705 28.2697 83.8359 28.6177 84.1308 28.6C84.4257 28.5823 84.6322 28.1989 84.5968 27.7448C84.5614 27.2906 84.3078 26.9485 84.007 26.9721C83.7062 26.9957 83.5056 27.3909 83.541 27.8214Z" fill="#263238"/>
<path d="M88.6841 27.0842C88.7195 27.5383 88.9791 27.8863 89.274 27.8627C89.5689 27.8391 89.7753 27.4617 89.7399 27.0075C89.7045 26.5534 89.445 26.2113 89.1501 26.2349C88.8552 26.2584 88.6547 26.6359 88.6841 27.0842Z" fill="#263238"/>
<path d="M76.2217 28.9244C76.2217 28.9244 73.2077 24.8842 75.6967 22.2654C77.2538 20.6316 81.4415 19.564 84.3375 19.4402C84.2726 20.1244 84.3375 26.1169 76.2217 28.9244Z" fill="#263238"/>
<path d="M89.2151 22.2772C87.3635 22.0901 85.6257 21.2959 84.2725 20.0182L84.0425 19.7764C85.2041 19.7284 86.3675 19.8115 87.5106 20.0241C88.1413 20.7036 88.697 21.4491 89.168 22.2477L89.2151 22.2772Z" fill="#263238"/>
<path opacity="0.2" d="M85.1218 41.8294C83.84 41.4397 82.7027 40.6781 81.8542 39.6412C82.8702 40.1482 83.9729 40.4584 85.1041 40.5554C85.0836 40.9801 85.0895 41.4056 85.1218 41.8294Z" fill="black"/>
<path opacity="0.2" d="M70.9664 69.6391L70.2291 65.8348V60.3732C70.2291 60.3732 71.0785 66.1356 70.9664 69.6391Z" fill="black"/>
<path d="M179.361 51.9695L136.368 54.4033L138.241 87.4919L181.234 85.0581L179.361 51.9695Z" fill="#F94892"/>
<path opacity="0.3" d="M179.361 51.9695L136.368 54.4033L138.241 87.4919L181.234 85.0581L179.361 51.9695Z" fill="black"/>
<path d="M163.736 52.8571L120.742 55.2909L122.615 88.3795L165.609 85.9457L163.736 52.8571Z" fill="#F94892"/>
<path opacity="0.3" d="M163.736 52.8571L120.742 55.2909L122.615 88.3795L165.609 85.9457L163.736 52.8571Z" fill="white"/>
<path opacity="0.3" d="M169.054 55.7165L159.876 56.2672L160.062 59.3637L169.24 58.813L169.054 55.7165Z" fill="black"/>
<path opacity="0.5" d="M132.589 58.761L123.427 59.2797L123.71 64.2851L132.873 63.7664L132.589 58.761Z" fill="white"/>
<path opacity="0.3" d="M135.79 71.8136L121.727 72.6097L121.948 76.5139L136.011 75.7178L135.79 71.8136Z" fill="black"/>
<path d="M191.784 24.6954L189.424 27.7035C190.078 28.1597 190.829 28.4567 191.618 28.5705L191.784 24.6954Z" fill="#A02724"/>
<path d="M232.504 209.177L225.651 208.788L224.259 202.943L223.498 199.74L223.215 198.56L228.488 198.201L228.865 198.171L229.986 201.562L232.504 209.177Z" fill="#B55B52"/>
<path d="M193.093 210.138C193.223 210.604 186.729 209.773 186.729 209.773L186.499 204.317L186.322 200.106V199.876H186.375L192.969 200.53C192.969 200.53 192.969 202.3 192.969 204.311C192.981 206.894 193.016 209.885 193.093 210.138Z" fill="#B55B52"/>
<path d="M206.847 40.5142C206.847 40.5142 197.587 43.0209 198.271 41.2043C198.616 40.1048 198.754 38.9509 198.678 37.8011C198.678 37.0461 198.584 36.5094 198.584 36.5094C195.234 36.704 192.981 34.2799 191.978 31.2954C190.687 27.4676 191.158 23.1914 192.727 19.5582C192.851 19.2633 193.205 18.0129 193.518 17.8595L197.151 16.1844C197.151 16.1844 200.69 18.5024 202.53 19.9416C204.37 21.3807 205.851 28.0692 205.851 33.2713C205.851 38.4735 206.847 40.5142 206.847 40.5142Z" fill="#B55B52"/>
<path d="M191.506 23.5925C191.343 23.6372 191.198 23.7327 191.092 23.8651C190.986 23.9976 190.924 24.1603 190.917 24.3297C190.892 24.4871 190.917 24.6482 190.986 24.7915C191.056 24.9348 191.167 25.0535 191.306 25.1319L191.506 23.5925Z" fill="#263238"/>
<path d="M191.506 20.5963C191.892 20.5876 192.271 20.6922 192.598 20.8971" stroke="#263238" stroke-linecap="round" stroke-linejoin="round"/>
<path d="M194.727 30.1689C194.727 30.1689 197.416 34.3683 201.698 35.3297C205.98 36.2911 207.331 34.8048 207.903 32.3807C208.399 30.095 209.496 27.9834 211.082 26.2643C212.563 24.7367 211.672 20.5903 209.79 17.1812C209.79 17.1812 211.808 15.4885 208.558 13.8606C205.308 12.2327 204.11 14.9399 201.291 13.3592C198.472 11.7785 202.235 11.2536 199.575 16.1844C196.915 21.1153 195.446 17.5292 195.051 19.7233C194.656 21.9174 192.597 25.7276 194.727 30.1689Z" fill="#263238"/>
<path d="M195.051 20.7437C194.786 20.6552 186.257 17.5705 186.174 16.1726C186.092 14.7748 192.786 17.3169 193.04 17.4171L194.768 20.148L195.051 20.7437Z" fill="#F94892"/>
<path d="M212.262 24.1233C212.179 24.3769 211.672 26.0579 211.454 26.0579L210.74 26.0166C210.076 25.9616 209.415 25.8849 208.758 25.7866C208.033 25.6745 207.319 25.533 206.617 25.3678H206.588C205.874 25.1968 205.172 25.008 204.488 24.778C202.809 24.2709 201.16 23.6663 199.551 22.9673C198.643 22.5721 197.841 22.1887 197.192 21.8584C195.865 21.1979 195.075 20.7319 195.075 20.7319L194.957 20.5373L194.473 19.7764L193.441 18.1426L193.087 17.5941V17.5528C193.07 17.5031 193.07 17.4492 193.087 17.3995C193.122 16.7743 194.402 15.0402 194.632 14.7453C195.58 13.4792 196.786 12.4296 198.171 11.6665C200.07 10.6166 202.211 11.0767 204.229 11.4306C204.896 11.5691 205.546 11.7787 206.169 12.0558L206.564 12.2268L206.641 12.2622C206.712 12.3035 206.788 12.333 206.859 12.3684L206.989 12.4332C208.488 13.1352 209.851 14.0955 211.017 15.2702C213.672 18.2488 212.592 23.1619 212.262 24.1233Z" fill="#F94892"/>
<path d="M209.377 43.6815C209.377 43.6815 208.953 40.7324 208.027 40.1426C207.101 39.5528 197.9 39.6413 196.466 40.6498C195.033 41.6584 195.287 44.9555 195.287 44.9555L209.377 43.6815Z" fill="#F94892"/>
<path d="M193.046 25.5093C193.046 25.5093 194.615 23.4804 196.296 24.7367C197.977 25.993 196.644 28.9715 194.668 29.8091C194.668 29.8091 192.114 30.6407 191.784 28.0396C191.453 25.4386 193.046 25.5093 193.046 25.5093Z" fill="#B55B52"/>
<path d="M186.752 96.1217C186.752 96.1217 183.243 129.7 182.264 145.141C181.285 160.582 184.883 200.07 184.883 200.07H193.417C193.417 200.07 194.396 160.842 195.871 149.075C197.345 137.308 202.241 121.354 202.241 121.354C202.241 121.354 205.19 146.604 208.139 156.902C211.088 167.2 220.667 198.661 220.667 198.661L230.493 196.773C230.493 196.773 218.697 156.412 218.697 143.908C218.697 131.404 218.809 106.16 215.871 96.1335L186.752 96.1217Z" fill="#F94892"/>
<path opacity="0.3" d="M230.475 196.785L220.655 198.678C220.655 198.678 211.082 167.218 208.133 156.92C206.511 151.257 204.895 141.06 203.768 133.032C202.825 126.479 202.235 121.372 202.235 121.372C202.235 121.372 197.334 137.297 195.859 149.093C194.384 160.889 193.411 200.088 193.411 200.088H184.883C184.883 200.088 181.285 160.606 182.264 145.165C183.243 129.723 186.752 96.1394 186.752 96.1394H215.842C218.791 106.166 218.673 131.44 218.673 143.914C218.673 156.389 230.475 196.785 230.475 196.785Z" fill="black"/>
<path opacity="0.3" d="M203.763 133.032C202.825 126.479 202.235 121.372 202.235 121.372L202.825 112.206L203.763 133.032Z" fill="black"/>
<path d="M183.957 198.431H194.184L193.683 202.642H184.358L183.957 198.431Z" fill="#263238"/>
<path d="M219.422 197.817L230.481 193.706L231.879 199.687L221.085 202.642L219.422 197.817Z" fill="#263238"/>
<path opacity="0.2" d="M228.487 198.201L223.498 199.74L224.258 202.943L229.985 201.562L228.487 198.201Z" fill="black"/>
<path opacity="0.2" d="M192.969 204.335H186.481L186.304 200.123L186.345 199.899L192.94 200.554C192.94 200.554 192.957 202.3 192.969 204.335Z" fill="black"/>
<path d="M183.361 212.232C183.402 212.344 179.279 209.944 180.412 208.823C181.544 207.702 183.361 212.232 183.361 212.232Z" stroke="#F94892" stroke-miterlimit="10"/>
<path d="M183.951 212.061C183.921 212.179 181.651 207.986 183.196 207.614C184.741 207.242 183.951 212.061 183.951 212.061Z" stroke="#F94892" stroke-miterlimit="10"/>
<path d="M224.701 209.684C224.701 209.684 223.35 205.337 222.041 206.051C220.731 206.765 224.701 209.684 224.701 209.684Z" stroke="#F94892" stroke-miterlimit="10"/>
<path d="M224.335 210.062C224.335 210.062 221.286 206.694 220.395 207.873C219.505 209.053 224.335 210.062 224.335 210.062Z" stroke="#F94892" stroke-miterlimit="10"/>
<path d="M232.758 208.776H225.432C225.432 208.776 221.197 211.324 219.339 211.56C217.482 211.796 216.39 211.908 216.444 213.241C216.497 214.574 217.623 214.692 221.427 214.633C225.232 214.574 232.781 215.04 233.601 214.285C234.421 213.53 233.902 212.108 232.758 208.776Z" fill="#263238"/>
<path d="M193.093 209.684L186.015 209.737C186.015 209.737 181.78 212.285 179.928 212.521C178.076 212.757 176.979 212.869 177.026 214.202C177.074 215.535 178.206 215.653 182.016 215.594C185.826 215.535 192.544 216.084 193.364 215.329C194.184 214.574 193.73 213.335 193.093 209.684Z" fill="#263238"/>
<path opacity="0.3" d="M193.04 17.4172C193.223 18.355 193.411 19.0745 194.963 20.7083C192.993 19.9769 186.245 17.37 186.174 16.1727C186.104 14.9753 191.341 16.7743 193.04 17.4172Z" fill="black"/>
<path opacity="0.3" d="M193.04 17.5646C193.023 17.5148 193.023 17.461 193.04 17.4113C193.04 17.4113 193.04 17.4761 193.04 17.6V17.5646Z" fill="black"/>
<path opacity="0.3" d="M195.051 20.7437L194.868 20.673C194.878 20.6482 194.89 20.6245 194.904 20.6022L195.051 20.7437Z" fill="black"/>
<path d="M212.262 24.1233C212.179 24.3769 211.672 26.0579 211.454 26.0579L210.74 26.0166C210.076 25.9616 209.415 25.8849 208.758 25.7866C208.033 25.6745 207.319 25.533 206.617 25.3678H206.588C205.874 25.1968 205.172 25.008 204.488 24.778C202.809 24.2709 201.16 23.6663 199.551 22.9673C198.643 22.5721 197.841 22.1887 197.192 21.8584C195.865 21.1979 195.075 20.7319 195.075 20.7319L194.957 20.5373L194.473 19.7764L193.441 18.1426L193.087 17.5941V17.5528C193.07 17.5031 193.07 17.4492 193.087 17.3995C193.122 16.7743 194.402 15.0402 194.632 14.7453C195.58 13.4792 196.786 12.4296 198.171 11.6665C200.07 10.6166 202.211 11.0767 204.229 11.4306C204.896 11.5691 205.546 11.7787 206.169 12.0558L206.564 12.2268L206.641 12.2622C206.712 12.3035 206.788 12.333 206.859 12.3684L206.989 12.4332C208.488 13.1352 209.851 14.0955 211.017 15.2702C213.672 18.2488 212.592 23.1619 212.262 24.1233Z" fill="#F94892"/>
<path opacity="0.2" d="M200.66 35.9432C200.032 36.5965 199.371 37.2166 198.678 37.8011C198.678 37.0461 198.584 36.5094 198.584 36.5094C199.296 36.401 199.992 36.2111 200.66 35.9432Z" fill="black"/>
<path d="M186.752 96.452V66.2418L181.238 63.9947C181.238 63.9947 182.293 47.8751 190.144 45.333C197.994 42.7909 211.967 41.7233 215.812 45.333C218.242 47.6274 218.567 51.3078 218.655 54.4633C218.844 60.8922 217.163 67.1796 216.792 73.5732C216.497 78.7754 216.32 83.9775 216.202 89.1855C216.202 89.5866 216.048 96.452 216.037 96.452H186.752Z" fill="#263238"/>
<path d="M189.772 67.274C189.772 67.274 185.691 80.7571 181.656 81.6006C177.622 82.444 163.844 74.9239 163.844 74.9239H157.692L156.819 69.5153C156.819 69.5153 162.546 67.392 166.362 69.9341C166.362 69.9341 175.275 73.8209 178.241 74.9534L182.541 64.5491L189.772 67.274Z" fill="#B55B52"/>
</svg>
