<svg width="18" height="18" viewBox="0 0 18 18" fill="none" xmlns="http://www.w3.org/2000/svg">
<path d="M1.1958 1.15173C1.61392 0.723913 2.23273 0.564529 2.80973 0.732302L16.2647 4.63302C16.8735 4.80163 17.305 5.28565 17.4212 5.90054C17.54 6.52633 17.1252 7.32074 16.5833 7.65293L12.3762 10.2308C11.9447 10.495 11.3878 10.4287 11.0307 10.0697L6.2132 5.237C5.97069 4.98534 5.5693 4.98534 5.32679 5.237C5.08429 5.48027 5.08429 5.87454 5.32679 6.1262L10.1527 10.9597C10.5106 11.3179 10.5775 11.8758 10.3141 12.3086L7.74351 16.5449C7.44246 17.0482 6.924 17.3334 6.35536 17.3334C6.28846 17.3334 6.2132 17.3334 6.1463 17.325C5.49404 17.2411 4.97558 16.7965 4.78324 16.1674L0.794413 2.77074C0.618803 2.20031 0.777687 1.57955 1.1958 1.15173Z" fill="#F94892"/>
</svg>
