<svg width="24" height="22" viewBox="0 0 24 22" fill="none" xmlns="http://www.w3.org/2000/svg">
<path fill-rule="evenodd" clip-rule="evenodd" d="M20.8067 6.90396L20.1842 5.9312C19.6577 5.10809 18.4907 4.82414 17.5755 5.29643V5.29643C17.1399 5.52755 16.6201 5.59313 16.1307 5.47869C15.6413 5.36425 15.2226 5.07919 14.9668 4.68639C14.8023 4.43671 14.7139 4.15233 14.7105 3.86201V3.86201C14.7254 3.39655 14.5304 2.94549 14.17 2.6116C13.8096 2.27771 13.3145 2.08941 12.7975 2.0896H11.5435C11.037 2.08959 10.5513 2.27138 10.194 2.59474C9.83669 2.91809 9.63717 3.35635 9.63961 3.81255V3.81255C9.6246 4.75443 8.77248 5.51086 7.72657 5.51076C7.40421 5.50775 7.08846 5.42812 6.81123 5.27994V5.27994C5.89606 4.80765 4.72911 5.0916 4.20254 5.91471L3.53435 6.90396C3.00841 7.72604 3.3194 8.77637 4.23 9.25344V9.25344C4.8219 9.56121 5.18653 10.13 5.18653 10.7456C5.18653 11.3611 4.8219 11.9299 4.23 12.2377V12.2377C3.32056 12.7115 3.00923 13.7593 3.53435 14.5789V14.5789L4.16593 15.5599C4.41265 15.9609 4.8266 16.2567 5.31619 16.3821C5.80578 16.5074 6.33064 16.4518 6.77462 16.2277V16.2277C7.21108 15.9983 7.73119 15.9355 8.21934 16.0531C8.70749 16.1708 9.12324 16.4592 9.37416 16.8542C9.5387 17.1039 9.62711 17.3882 9.63046 17.6786V17.6786C9.63046 18.6301 10.487 19.4015 11.5435 19.4015H12.7975C13.8505 19.4015 14.7055 18.6352 14.7105 17.6868V17.6868C14.7081 17.2292 14.9089 16.7897 15.2682 16.4661C15.6275 16.1425 16.1155 15.9617 16.6236 15.9639C16.9452 15.9716 17.2596 16.0509 17.5389 16.1947V16.1947C18.4517 16.6684 19.6179 16.3883 20.1476 15.5682V15.5682L20.8067 14.5789C21.0618 14.1846 21.1318 13.7149 21.0012 13.2739C20.8706 12.8329 20.5502 12.457 20.111 12.2294V12.2294C19.6718 12.0018 19.3514 11.6259 19.2208 11.185C19.0902 10.744 19.1603 10.2743 19.4154 9.87996C19.5812 9.61912 19.8214 9.40284 20.111 9.25344V9.25344C21.0161 8.77663 21.3264 7.73243 20.8067 6.91221V6.91221V6.90396Z" stroke="#130F26" stroke-width="1.5" stroke-linecap="round" stroke-linejoin="round"/>
<ellipse cx="12.175" cy="10.7455" rx="2.63616" ry="2.37421" stroke="#130F26" stroke-width="1.5" stroke-linecap="round" stroke-linejoin="round"/>
</svg>
