<svg width="27" height="18" viewBox="0 0 27 18" fill="none" xmlns="http://www.w3.org/2000/svg">
<path d="M2.16529 7.10728L5.38895 4.12363C6.09397 3.47117 7.01927 3.10884 7.97988 3.10908H9.62716V2.77635C9.62742 2.05311 9.91484 1.35957 10.4263 0.848162C10.9377 0.336754 11.6312 0.0493325 12.3545 0.0490723H24.2618C24.985 0.0493325 25.6786 0.336754 26.19 0.848162C26.7014 1.35957 26.9888 2.05311 26.9891 2.77635V14.9891C26.9887 15.1337 26.9311 15.2722 26.8289 15.3744C26.7267 15.4766 26.5882 15.5342 26.4436 15.5346H24.7418C24.6278 16.2102 24.2782 16.8235 23.7549 17.2658C23.2317 17.7081 22.5687 17.9508 21.8836 17.9508C21.1985 17.9508 20.5355 17.7081 20.0123 17.2658C19.489 16.8235 19.1394 16.2102 19.0254 15.5346H8.86897C8.75496 16.2102 8.40533 16.8235 7.88211 17.2658C7.35889 17.7081 6.69591 17.9508 6.01077 17.9508C5.32565 17.9508 4.66266 17.7081 4.13944 17.2658C3.61622 16.8235 3.26659 16.2102 3.15257 15.5346H1.48893C1.34439 15.5342 1.20589 15.4766 1.10369 15.3744C1.00149 15.2722 0.943886 15.1337 0.943468 14.9891V9.91093C0.941637 9.38443 1.04931 8.86331 1.25965 8.38066C1.46999 7.89801 1.7784 7.46437 2.16529 7.10728ZM2.90712 7.9091H6.13623V4.92L6.13078 4.92545L2.90712 7.9091ZM24.2618 1.13999H12.3545C11.9208 1.14125 11.5054 1.31406 11.1988 1.62067C10.8922 1.92727 10.7193 2.34275 10.7181 2.77635V4.74545V9.02183V9.0982H25.8982V2.77635C25.8969 2.34275 25.7241 1.92727 25.4175 1.62067C25.1109 1.31406 24.6954 1.14125 24.2618 1.13999ZM21.8836 16.86C22.2407 16.86 22.5898 16.7542 22.8867 16.5558C23.1836 16.3574 23.415 16.0754 23.5516 15.7455C23.6883 15.4156 23.724 15.0526 23.6544 14.7024C23.5847 14.3521 23.4128 14.0304 23.1603 13.7779C22.9078 13.5254 22.5861 13.3535 22.2358 13.2838C21.8856 13.2141 21.5226 13.2499 21.1927 13.3866C20.8628 13.5232 20.5808 13.7546 20.3824 14.0515C20.184 14.3484 20.0781 14.6975 20.0781 15.0546C20.0787 15.5332 20.2691 15.9921 20.6076 16.3306C20.946 16.6691 21.4049 16.8595 21.8836 16.86ZM21.8836 12.1528C22.5468 12.1537 23.1898 12.3814 23.7057 12.7981C24.2217 13.2148 24.5796 13.7955 24.72 14.4437H25.8982V10.1891H10.7181V14.4437H19.0472C19.1869 13.7951 19.5446 13.214 20.0607 12.7971C20.5768 12.3803 21.2202 12.1528 21.8836 12.1528ZM6.01077 16.86C6.36786 16.86 6.71693 16.7542 7.01384 16.5558C7.31075 16.3574 7.54216 16.0754 7.67881 15.7455C7.81546 15.4156 7.85121 15.0526 7.78155 14.7024C7.71189 14.3521 7.53993 14.0304 7.28743 13.7779C7.03493 13.5254 6.71323 13.3535 6.363 13.2838C6.01278 13.2141 5.64976 13.2499 5.31985 13.3866C4.98995 13.5232 4.70797 13.7546 4.50958 14.0515C4.3112 14.3484 4.20531 14.6975 4.20531 15.0546C4.20587 15.5332 4.39627 15.9921 4.73474 16.3306C5.07321 16.6691 5.53211 16.8595 6.01077 16.86ZM2.02893 14.4437H3.17439C3.31395 13.795 3.6716 13.2138 4.18774 12.7969C4.70387 12.3801 5.3473 12.1527 6.01077 12.1527C6.67425 12.1527 7.31768 12.3801 7.83381 12.7969C8.34994 13.2138 8.7076 13.795 8.84716 14.4437H9.62716V9.02183V4.2H7.97988C7.72549 4.20116 7.47238 4.23601 7.22715 4.30363V7.9091C7.2263 8.19817 7.11109 8.47515 6.90668 8.67955C6.70228 8.88396 6.4253 8.99917 6.13623 9.00001H2.18711C2.08218 9.29224 2.02866 9.60043 2.02893 9.91093V14.4437Z" fill="#FFA1C9"/>
<path d="M21.8836 13.5001C22.19 13.5001 22.4895 13.5909 22.7443 13.7611C22.999 13.9313 23.1976 14.1733 23.3148 14.4563C23.4321 14.7394 23.4627 15.0509 23.403 15.3514C23.3432 15.6519 23.1956 15.9279 22.979 16.1445C22.7624 16.3612 22.4863 16.5087 22.1858 16.5685C21.8853 16.6282 21.5739 16.5976 21.2908 16.4803C21.0077 16.3631 20.7658 16.1645 20.5956 15.9098C20.4254 15.655 20.3345 15.3555 20.3345 15.0491C20.3352 14.6385 20.4986 14.2449 20.7889 13.9545C21.0793 13.6641 21.473 13.5007 21.8836 13.5001ZM21.8836 15.5128C21.9742 15.5128 22.0628 15.4859 22.1382 15.4356C22.2135 15.3852 22.2722 15.3137 22.3069 15.2299C22.3416 15.1462 22.3507 15.0541 22.333 14.9652C22.3153 14.8763 22.2717 14.7947 22.2076 14.7306C22.1435 14.6665 22.0619 14.6229 21.973 14.6052C21.8841 14.5875 21.792 14.5966 21.7083 14.6313C21.6246 14.666 21.553 14.7247 21.5026 14.8C21.4523 14.8754 21.4254 14.964 21.4254 15.0546C21.4262 15.1759 21.4747 15.292 21.5604 15.3778C21.6462 15.4635 21.7623 15.5121 21.8836 15.5128ZM6.01072 13.5001C6.3171 13.5001 6.6166 13.5909 6.87135 13.7611C7.1261 13.9313 7.32466 14.1733 7.4419 14.4563C7.55915 14.7394 7.58983 15.0509 7.53006 15.3514C7.47028 15.6519 7.32275 15.9279 7.1061 16.1445C6.88945 16.3612 6.61343 16.5087 6.31293 16.5685C6.01243 16.6282 5.70096 16.5976 5.4179 16.4803C5.13483 16.3631 4.8929 16.1645 4.72268 15.9098C4.55246 15.655 4.46161 15.3555 4.46161 15.0491C4.46226 14.6385 4.62567 14.2449 4.91605 13.9545C5.20642 13.6641 5.60007 13.5007 6.01072 13.5001ZM6.01072 15.5128C6.10134 15.5128 6.18992 15.4859 6.26527 15.4356C6.34062 15.3852 6.39935 15.3137 6.43402 15.2299C6.4687 15.1462 6.47778 15.0541 6.4601 14.9652C6.44242 14.8763 6.39878 14.7947 6.3347 14.7306C6.27062 14.6665 6.18898 14.6229 6.1001 14.6052C6.01122 14.5875 5.9191 14.5966 5.83537 14.6313C5.75165 14.666 5.68009 14.7247 5.62975 14.8C5.5794 14.8754 5.55253 14.964 5.55253 15.0546C5.55326 15.1759 5.60176 15.292 5.68753 15.3778C5.7733 15.4635 5.88942 15.5121 6.01072 15.5128ZM19.4563 6.62187C19.4058 6.67343 19.3456 6.71444 19.2791 6.74253C19.2126 6.77062 19.1412 6.78523 19.069 6.78551C18.9244 6.78445 18.7858 6.72781 18.6818 6.62733L16.0581 4.00369C15.9561 3.9017 15.8988 3.76338 15.8988 3.61915C15.8988 3.47491 15.9561 3.33659 16.0581 3.2346C16.1601 3.13261 16.2984 3.07532 16.4426 3.07532C16.5869 3.07532 16.7252 3.13261 16.8272 3.2346L19.0636 5.47096L20.1491 4.36369C20.2503 4.26098 20.3882 4.2027 20.5325 4.20168C20.6767 4.20066 20.8154 4.25697 20.9182 4.35824C21.0209 4.4595 21.0791 4.59742 21.0802 4.74165C21.0812 4.88589 21.0249 5.02462 20.9236 5.12733L19.4563 6.62187Z" fill="#FFA1C9"/>
</svg>
