<svg width="327" height="163" viewBox="0 0 327 163" fill="none" xmlns="http://www.w3.org/2000/svg">
<g opacity="0.66">
<g opacity="0.66">
<g opacity="0.66">
<path opacity="0.66" d="M190.017 60.185H188.35C187.645 60.185 187.09 59.6081 187.09 58.9243V57.044C187.09 56.7021 186.876 56.3816 186.534 56.2534C186.342 56.1893 186.15 56.1038 185.957 56.0183C185.637 55.8688 185.252 55.9329 184.996 56.1893L183.671 57.5141C183.436 57.7491 183.115 57.8773 182.774 57.8773C182.432 57.8773 182.111 57.7491 181.876 57.5141L180.701 56.3388C180.209 55.8474 180.209 55.0354 180.701 54.544L182.026 53.2192C182.282 52.9628 182.346 52.5781 182.197 52.2576C182.111 52.0653 182.026 51.873 181.962 51.6807C181.833 51.3602 181.513 51.1251 181.171 51.1251H179.291C178.585 51.1251 178.03 50.5482 178.03 49.8645V48.1978C178.03 47.4927 178.607 46.9371 179.291 46.9371H181.171C181.513 46.9371 181.833 46.7234 181.962 46.3815C182.026 46.1892 182.111 45.9969 182.197 45.8046C182.346 45.4841 182.282 45.0995 182.026 44.8431L180.701 43.5183C180.209 43.0268 180.209 42.2149 180.701 41.7234L181.876 40.5482C182.368 40.0568 183.179 40.0568 183.671 40.5482L184.996 41.873C185.252 42.1294 185.637 42.1935 185.957 42.0439C186.15 41.9585 186.342 41.873 186.534 41.8089C186.855 41.6807 187.09 41.3602 187.09 41.0183V39.1379C187.09 38.4328 187.667 37.8773 188.35 37.8773H190.017C190.722 37.8773 191.278 38.4542 191.278 39.1379V41.0183C191.278 41.3602 191.491 41.6807 191.833 41.8089C192.026 41.873 192.218 41.9585 192.41 42.0439C192.731 42.1935 193.115 42.1294 193.372 41.873L194.697 40.5482C195.188 40.0568 196 40.0568 196.491 40.5482L197.667 41.7234C198.158 42.2149 198.158 43.0268 197.667 43.5183L196.342 44.8431C196.086 45.0995 196.021 45.4841 196.171 45.8046C196.256 45.9969 196.342 46.1892 196.406 46.3815C196.534 46.7021 196.855 46.9371 197.197 46.9371H199.077C199.782 46.9371 200.338 47.514 200.338 48.1978V49.8645C200.338 50.5696 199.761 51.1251 199.077 51.1251H197.197C196.855 51.1251 196.534 51.3388 196.406 51.6807C196.342 51.873 196.256 52.0653 196.171 52.2576C196.021 52.5781 196.086 52.9628 196.342 53.2192L197.667 54.544C198.158 55.0354 198.158 55.8474 197.667 56.3388L196.491 57.5141C196.256 57.7491 195.936 57.8773 195.594 57.8773C195.252 57.8773 194.932 57.7491 194.697 57.5141L193.372 56.1893C193.115 55.9329 192.731 55.8688 192.41 56.0183C192.218 56.1038 192.026 56.1893 191.833 56.2534C191.513 56.3816 191.278 56.7021 191.278 57.044V58.9243C191.278 59.6081 190.701 60.185 190.017 60.185ZM185.573 55.5055C185.765 55.5055 185.936 55.5482 186.107 55.6337C186.278 55.7192 186.47 55.7833 186.662 55.8687C187.154 56.0611 187.496 56.5311 187.496 57.0653V58.9457C187.496 59.4158 187.88 59.779 188.329 59.779H189.996C190.466 59.779 190.829 59.3944 190.829 58.9457V57.0653C190.829 56.5311 191.171 56.0611 191.662 55.8687C191.855 55.8046 192.026 55.7192 192.218 55.6337C192.709 55.3987 193.286 55.5055 193.65 55.8901L194.974 57.2149C195.295 57.5354 195.829 57.5354 196.171 57.2149L197.346 56.0397C197.667 55.7192 197.667 55.185 197.346 54.8431L196.021 53.5183C195.637 53.1337 195.551 52.5568 195.765 52.0867C195.85 51.9158 195.936 51.7234 196 51.5311C196.192 51.0397 196.662 50.6978 197.197 50.6978H199.077C199.547 50.6978 199.91 50.3132 199.91 49.8645V48.1978C199.91 47.7277 199.526 47.3645 199.077 47.3645H197.197C196.662 47.3645 196.192 47.0226 196 46.5311C195.936 46.3388 195.85 46.1679 195.765 45.9756C195.53 45.4841 195.637 44.9072 196.021 44.5439L197.368 43.1764C197.688 42.8559 197.688 42.3217 197.368 41.9798L196.192 40.8046C195.872 40.4841 195.338 40.4841 194.996 40.8046L193.671 42.1294C193.286 42.514 192.709 42.5995 192.239 42.3858C192.068 42.3003 191.876 42.2149 191.684 42.1508C191.192 41.9585 190.85 41.4884 190.85 40.9542V39.0738C190.85 38.6038 190.466 38.2405 190.017 38.2405H188.35C187.88 38.2405 187.517 38.6251 187.517 39.0738V40.9542C187.517 41.4884 187.175 41.9585 186.684 42.1508C186.491 42.2149 186.321 42.3003 186.128 42.3858C185.637 42.6209 185.06 42.514 184.697 42.1294L183.372 40.8046C183.051 40.4841 182.517 40.4841 182.175 40.8046L181 41.9798C180.679 42.3003 180.679 42.8345 181 43.1764L182.325 44.5012C182.709 44.8858 182.795 45.4627 182.581 45.9328C182.496 46.1038 182.432 46.2961 182.346 46.4884C182.154 46.9798 181.684 47.3217 181.15 47.3217H179.269C178.799 47.3217 178.436 47.7063 178.436 48.1551V49.8217C178.436 50.2918 178.821 50.6551 179.269 50.6551H181.15C181.684 50.6551 182.154 50.9969 182.346 51.4884C182.41 51.6807 182.496 51.8516 182.581 52.044C182.816 52.5354 182.709 53.1123 182.325 53.4756L181 54.8004C180.679 55.1209 180.679 55.6551 181 55.997L182.175 57.1722C182.496 57.4927 183.03 57.4927 183.372 57.1722L184.697 55.8474C184.91 55.6337 185.252 55.5055 185.573 55.5055ZM189.184 54.8645C185.957 54.8645 183.308 52.2363 183.308 49.0098C183.308 45.7833 185.936 43.1337 189.184 43.1337C192.41 43.1337 195.06 45.7619 195.06 49.0098C195.038 52.2363 192.41 54.8645 189.184 54.8645ZM189.184 43.561C186.192 43.561 183.735 45.9969 183.735 49.0098C183.735 52.0226 186.171 54.4371 189.184 54.4371C192.197 54.4371 194.633 52.0012 194.633 49.0098C194.633 46.0183 192.175 43.561 189.184 43.561Z" fill="white"/>
</g>
<g opacity="0.84">
<path opacity="0.84" d="M186.898 90.6765H184.825C184.333 90.6765 183.885 90.3774 183.735 89.9073C183.65 89.6936 183.564 89.48 183.479 89.2877C183.265 88.8389 183.351 88.3048 183.714 87.9629L185.188 86.4885C185.637 86.0398 185.637 85.2919 185.188 84.8218L183.885 83.5184C183.436 83.0697 182.688 83.0697 182.218 83.5184L180.744 84.9928C180.402 85.3347 179.868 85.4201 179.419 85.2278C179.205 85.1423 179.013 85.0355 178.799 84.9714C178.329 84.8005 178.03 84.3731 178.03 83.8817V81.809C178.03 81.168 177.496 80.6338 176.855 80.6338H174.996C174.355 80.6338 173.821 81.168 173.821 81.809V83.8817C173.821 84.3731 173.521 84.8218 173.051 84.9714C172.838 85.0569 172.624 85.1423 172.432 85.2278C171.983 85.4415 171.449 85.356 171.107 84.9928L169.633 83.5184C169.184 83.0697 168.436 83.0697 167.966 83.5184L166.662 84.8218C166.214 85.2706 166.214 86.0184 166.662 86.4885L168.137 87.9629C168.479 88.3048 168.564 88.8389 168.372 89.2877C168.286 89.5013 168.18 89.6936 168.115 89.9073C167.945 90.3774 167.517 90.6765 167.026 90.6765H164.953C164.312 90.6765 163.778 91.2107 163.778 91.8518V93.7107C163.778 94.3518 164.312 94.886 164.953 94.886H167.026C167.517 94.886 167.966 95.1851 168.115 95.6552C168.201 95.8689 168.286 96.0825 168.372 96.2749C168.586 96.7236 168.5 97.2578 168.137 97.5996L166.662 99.074C166.214 99.5227 166.214 100.271 166.662 100.741L167.966 102.044C168.415 102.493 169.162 102.493 169.633 102.044L171.107 100.57C171.449 100.228 171.983 100.142 172.432 100.335C172.645 100.42 172.838 100.527 173.051 100.591C173.521 100.762 173.821 101.189 173.821 101.681V103.754C173.821 104.395 174.355 104.929 174.996 104.929H176.855C177.496 104.929 178.03 104.395 178.03 103.754V101.681C178.03 101.189 178.329 100.741 178.799 100.591C179.013 100.506 179.227 100.42 179.419 100.335C179.868 100.121 180.402 100.206 180.744 100.57L182.218 102.044C182.667 102.493 183.415 102.493 183.885 102.044L185.188 100.741C185.637 100.292 185.637 99.5441 185.188 99.074L183.714 97.5996C183.372 97.2578 183.286 96.7236 183.479 96.2749C183.564 96.0612 183.671 95.8689 183.735 95.6552C183.906 95.1851 184.333 94.886 184.825 94.886H186.898C187.539 94.886 188.073 94.3518 188.073 93.7107V91.8518C188.073 91.2107 187.56 90.6765 186.898 90.6765ZM175.915 99.0313C172.453 99.0313 169.654 96.2321 169.654 92.7706C169.654 89.309 172.453 86.5099 175.915 86.5099C179.376 86.5099 182.175 89.309 182.175 92.7706C182.175 96.2321 179.376 99.0313 175.915 99.0313Z" fill="white"/>
</g>
<g opacity="0.66">
<path opacity="0.66" d="M154.355 103.134H152.944C152.346 103.134 151.833 102.642 151.833 102.023V100.441C151.833 100.164 151.662 99.9073 151.385 99.8005C151.214 99.7364 151.064 99.6723 150.893 99.5868C150.637 99.4586 150.316 99.5227 150.124 99.715L149.013 100.826C148.799 101.04 148.521 101.147 148.244 101.147C147.944 101.147 147.667 101.04 147.474 100.826L146.491 99.8432C146.278 99.6295 146.171 99.3517 146.171 99.074C146.171 98.7748 146.278 98.497 146.491 98.3047L147.603 97.1936C147.795 97.0013 147.859 96.6808 147.731 96.4244C147.667 96.2535 147.581 96.1039 147.517 95.9329C147.41 95.6765 147.175 95.4842 146.876 95.4842H145.295C144.697 95.4842 144.184 94.9928 144.184 94.3731V92.9628C144.184 92.3646 144.675 91.8517 145.295 91.8517H146.876C147.154 91.8517 147.41 91.6808 147.517 91.403C147.581 91.2321 147.645 91.0611 147.731 90.9116C147.859 90.6551 147.795 90.3346 147.603 90.1423L146.491 89.0312C146.278 88.8175 146.171 88.5398 146.171 88.262C146.171 87.9842 146.278 87.6851 146.491 87.4928L147.474 86.5098C147.902 86.0825 148.607 86.0825 149.034 86.5098L150.145 87.621C150.338 87.8133 150.658 87.8774 150.915 87.7492C151.064 87.6851 151.235 87.5996 151.406 87.5355C151.662 87.4287 151.855 87.1936 151.855 86.8945V85.3133C151.855 84.715 152.346 84.2021 152.966 84.2021H154.376C154.974 84.2021 155.487 84.6936 155.487 85.3133V86.8945C155.487 87.1722 155.658 87.4287 155.936 87.5355C156.107 87.5996 156.278 87.6637 156.427 87.7492C156.684 87.8774 157.004 87.8133 157.197 87.621L158.308 86.5098C158.735 86.0825 159.44 86.0825 159.868 86.5098L160.85 87.4928C161.064 87.7064 161.171 87.9842 161.171 88.262C161.171 88.5398 161.064 88.8389 160.85 89.0312L159.739 90.1423C159.547 90.3346 159.483 90.6551 159.611 90.9116C159.675 91.0611 159.761 91.2321 159.825 91.403C159.932 91.6594 160.167 91.8517 160.466 91.8517H162.047C162.645 91.8517 163.158 92.3432 163.158 92.9628V94.3731C163.158 94.9714 162.667 95.4842 162.047 95.4842H160.466C160.188 95.4842 159.932 95.6552 159.825 95.9329C159.761 96.1039 159.697 96.2748 159.611 96.4244C159.483 96.6808 159.547 97.0013 159.739 97.1936L160.85 98.3047C161.064 98.5184 161.171 98.7962 161.171 99.074C161.171 99.3731 161.064 99.6509 160.85 99.8432L159.868 100.826C159.654 101.04 159.376 101.147 159.098 101.147C158.799 101.147 158.521 101.04 158.329 100.826L157.218 99.715C157.026 99.5227 156.705 99.4586 156.449 99.5868C156.278 99.6723 156.128 99.7364 155.957 99.8005C155.701 99.9073 155.509 100.142 155.509 100.441V102.023C155.466 102.642 154.974 103.134 154.355 103.134ZM150.637 99.1381C150.786 99.1381 150.957 99.1808 151.107 99.2449C151.256 99.309 151.406 99.3731 151.577 99.4372C152.004 99.5868 152.303 100.014 152.303 100.463V102.044C152.303 102.407 152.603 102.728 152.987 102.728H154.397C154.761 102.728 155.081 102.429 155.081 102.044V100.463C155.081 99.9928 155.38 99.5868 155.808 99.4372C155.957 99.3731 156.107 99.309 156.278 99.2449C156.705 99.0526 157.197 99.1381 157.517 99.4586L158.628 100.57C158.885 100.826 159.333 100.826 159.59 100.57L160.573 99.5868C160.701 99.4586 160.765 99.2876 160.765 99.1167C160.765 98.9458 160.701 98.7748 160.573 98.6466L159.462 97.5355C159.141 97.215 159.056 96.7022 159.248 96.2962C159.312 96.1466 159.376 95.997 159.44 95.8261C159.59 95.3987 160.017 95.0996 160.466 95.0996H162.047C162.41 95.0996 162.731 94.8005 162.731 94.4158V93.0056C162.731 92.6423 162.432 92.3218 162.047 92.3218H160.466C159.996 92.3218 159.59 92.0227 159.44 91.5953C159.376 91.4458 159.312 91.2748 159.248 91.1252C159.056 90.6979 159.141 90.2064 159.462 89.8859L160.573 88.7748C160.701 88.6466 160.765 88.4757 160.765 88.3047C160.765 88.1338 160.701 87.9628 160.573 87.8346L159.59 86.8517C159.333 86.5953 158.906 86.5953 158.628 86.8517L157.517 87.9628C157.197 88.2834 156.684 88.3688 156.278 88.1765C156.128 88.1124 155.979 88.0483 155.808 87.9842C155.38 87.8346 155.081 87.4073 155.081 86.9586V85.3774C155.081 85.0141 154.782 84.6936 154.397 84.6936H152.987C152.624 84.6936 152.303 84.9927 152.303 85.3774V86.9586C152.303 87.4286 152.004 87.8346 151.577 87.9842C151.427 88.0483 151.256 88.1124 151.107 88.1765C150.679 88.3688 150.188 88.2834 149.867 87.9628L148.756 86.8517C148.5 86.5953 148.073 86.5953 147.795 86.8517L146.812 87.8346C146.684 87.9628 146.62 88.1338 146.62 88.3047C146.62 88.4757 146.684 88.6466 146.812 88.7748L147.923 89.8859C148.244 90.2064 148.329 90.7193 148.137 91.1252C148.073 91.2748 148.009 91.4244 147.944 91.5953C147.795 92.0227 147.367 92.3218 146.919 92.3218H145.338C144.974 92.3218 144.654 92.621 144.654 93.0056V94.4158C144.654 94.7791 144.953 95.0996 145.338 95.0996H146.919C147.389 95.0996 147.795 95.3987 147.944 95.8261C148.009 95.9757 148.073 96.1466 148.137 96.2962C148.329 96.7235 148.244 97.215 147.923 97.5355L146.812 98.6466C146.684 98.7748 146.62 98.9458 146.62 99.1167C146.62 99.2876 146.684 99.4586 146.812 99.5868L147.795 100.57C148.051 100.826 148.5 100.826 148.756 100.57L149.867 99.4586C150.06 99.2449 150.338 99.1381 150.637 99.1381ZM153.671 98.668C150.936 98.668 148.714 96.4458 148.714 93.7107C148.714 90.9757 150.936 88.7534 153.671 88.7534C156.406 88.7534 158.628 90.9757 158.628 93.7107C158.628 96.4458 156.406 98.668 153.671 98.668ZM153.671 89.1594C151.171 89.1594 149.141 91.1893 149.141 93.6893C149.141 96.1893 151.171 98.2193 153.671 98.2193C156.171 98.2193 158.201 96.1893 158.201 93.6893C158.201 91.1893 156.171 89.1594 153.671 89.1594Z" fill="white"/>
</g>
</g>
</g>
<g opacity="0.81">
<path opacity="0.81" d="M199.697 79.95H196.919C196.791 79.95 196.705 79.8645 196.705 79.7363C196.705 79.6081 196.791 79.5226 196.919 79.5226H199.697C199.825 79.5226 199.91 79.6081 199.91 79.7363C199.91 79.8645 199.804 79.95 199.697 79.95Z" fill="white"/>
<path opacity="0.81" d="M199.697 84.5441H196.919C196.791 84.5441 196.705 84.4586 196.705 84.3304C196.705 84.2022 196.791 84.1167 196.919 84.1167H199.697C199.825 84.1167 199.91 84.2022 199.91 84.3304C199.91 84.4586 199.804 84.5441 199.697 84.5441Z" fill="white"/>
<g opacity="0.81">
<g opacity="0.81">
<g opacity="0.81">
<path opacity="0.81" d="M201.663 89.1808H184.718C184.398 89.1808 184.141 88.9244 184.141 88.6039V74.4372C184.141 74.1166 184.398 73.8602 184.718 73.8602H201.663C201.983 73.8602 202.239 74.1166 202.239 74.4372V88.6039C202.239 88.9244 201.983 89.1808 201.663 89.1808ZM184.718 74.2876C184.633 74.2876 184.568 74.3517 184.568 74.4372V88.6039C184.568 88.6893 184.633 88.7534 184.718 88.7534H201.663C201.748 88.7534 201.812 88.6893 201.812 88.6039V74.4372C201.812 74.3517 201.748 74.2876 201.663 74.2876H184.718Z" fill="white"/>
<path opacity="0.66" d="M201.663 89.1808H184.718C184.398 89.1808 184.141 88.9244 184.141 88.6039V74.4372C184.141 74.1166 184.398 73.8602 184.718 73.8602H201.663C201.983 73.8602 202.239 74.1166 202.239 74.4372V88.6039C202.239 88.9244 201.983 89.1808 201.663 89.1808ZM184.718 74.2876C184.633 74.2876 184.568 74.3517 184.568 74.4372V88.6039C184.568 88.6893 184.633 88.7534 184.718 88.7534H201.663C201.748 88.7534 201.812 88.6893 201.812 88.6039V74.4372C201.812 74.3517 201.748 74.2876 201.663 74.2876H184.718Z" fill="white"/>
</g>
</g>
<path opacity="0.81" d="M199.697 77.7278H186.427C186.299 77.7278 186.214 77.6423 186.214 77.5141C186.214 77.3859 186.299 77.3004 186.427 77.3004H199.697C199.825 77.3004 199.91 77.3859 199.91 77.5141C199.91 77.6423 199.804 77.7278 199.697 77.7278Z" fill="white"/>
<path opacity="0.81" d="M199.697 82.1936H186.427C186.299 82.1936 186.214 82.1081 186.214 81.9799C186.214 81.8517 186.299 81.7662 186.427 81.7662H199.697C199.825 81.7662 199.91 81.8517 199.91 81.9799C199.91 82.0868 199.804 82.1936 199.697 82.1936Z" fill="white"/>
<path opacity="0.81" d="M193.564 79.95H186.406C186.278 79.95 186.192 79.8645 186.192 79.7363C186.192 79.6081 186.278 79.5226 186.406 79.5226H193.564C193.692 79.5226 193.778 79.6081 193.778 79.7363C193.778 79.8645 193.692 79.95 193.564 79.95Z" fill="white"/>
<path opacity="0.81" d="M193.564 84.5441H186.406C186.278 84.5441 186.192 84.4586 186.192 84.3304C186.192 84.2022 186.278 84.1167 186.406 84.1167H193.564C193.692 84.1167 193.778 84.2022 193.778 84.3304C193.778 84.4586 193.692 84.5441 193.564 84.5441Z" fill="white"/>
<path opacity="0.81" d="M191.235 86.6808H186.406C186.278 86.6808 186.192 86.5953 186.192 86.4671C186.192 86.3389 186.278 86.2534 186.406 86.2534H191.235C191.363 86.2534 191.449 86.3389 191.449 86.4671C191.449 86.5739 191.363 86.6808 191.235 86.6808Z" fill="white"/>
</g>
</g>
<g opacity="0.81">
<path opacity="0.81" d="M145.487 56.5953H142.346C142.218 56.5953 142.132 56.5098 142.132 56.3816C142.132 56.2534 142.218 56.1679 142.346 56.1679H145.509C145.637 56.1679 145.722 56.2534 145.722 56.3816C145.701 56.4884 145.615 56.5953 145.487 56.5953Z" fill="white"/>
<path opacity="0.81" d="M145.487 61.8089H142.346C142.218 61.8089 142.132 61.7235 142.132 61.5953C142.132 61.4671 142.218 61.3816 142.346 61.3816H145.509C145.637 61.3816 145.722 61.4671 145.722 61.5953C145.701 61.7021 145.615 61.8089 145.487 61.8089Z" fill="white"/>
<g opacity="0.81">
<g opacity="0.81">
<g opacity="0.81">
<path opacity="0.81" d="M147.773 67.0654H128.457C128.137 67.0654 127.88 66.809 127.88 66.4884V50.3346C127.88 50.014 128.137 49.7576 128.457 49.7576H147.773C148.094 49.7576 148.35 50.014 148.35 50.3346V66.4884C148.35 66.809 148.094 67.0654 147.773 67.0654ZM128.457 50.1636C128.372 50.1636 128.308 50.2277 128.308 50.3132V66.4671C128.308 66.5525 128.372 66.6166 128.457 66.6166H147.773C147.859 66.6166 147.923 66.5525 147.923 66.4671V50.3132C147.923 50.2277 147.859 50.1636 147.773 50.1636H128.457Z" fill="white"/>
<path opacity="0.66" d="M147.773 67.0654H128.457C128.137 67.0654 127.88 66.809 127.88 66.4884V50.3346C127.88 50.014 128.137 49.7576 128.457 49.7576H147.773C148.094 49.7576 148.35 50.014 148.35 50.3346V66.4884C148.35 66.809 148.094 67.0654 147.773 67.0654ZM128.457 50.1636C128.372 50.1636 128.308 50.2277 128.308 50.3132V66.4671C128.308 66.5525 128.372 66.6166 128.457 66.6166H147.773C147.859 66.6166 147.923 66.5525 147.923 66.4671V50.3132C147.923 50.2277 147.859 50.1636 147.773 50.1636H128.457Z" fill="white"/>
</g>
</g>
<path opacity="0.81" d="M145.487 54.0739H130.444C130.316 54.0739 130.231 53.9884 130.231 53.8602C130.231 53.732 130.316 53.6465 130.444 53.6465H145.509C145.637 53.6465 145.722 53.732 145.722 53.8602C145.701 53.9671 145.615 54.0739 145.487 54.0739Z" fill="white"/>
<path opacity="0.81" d="M145.487 59.1166H130.444C130.316 59.1166 130.231 59.0311 130.231 58.9029C130.231 58.7747 130.316 58.6893 130.444 58.6893H145.509C145.637 58.6893 145.722 58.7747 145.722 58.9029C145.701 59.0311 145.615 59.1166 145.487 59.1166Z" fill="white"/>
<path opacity="0.81" d="M138.564 56.5953H130.444C130.316 56.5953 130.231 56.5098 130.231 56.3816C130.231 56.2534 130.316 56.1679 130.444 56.1679H138.564C138.692 56.1679 138.778 56.2534 138.778 56.3816C138.778 56.4884 138.671 56.5953 138.564 56.5953Z" fill="white"/>
<path opacity="0.81" d="M138.564 61.8089H130.444C130.316 61.8089 130.231 61.7235 130.231 61.5953C130.231 61.4671 130.316 61.3816 130.444 61.3816H138.564C138.692 61.3816 138.778 61.4671 138.778 61.5953C138.778 61.7021 138.671 61.8089 138.564 61.8089Z" fill="white"/>
<path opacity="0.81" d="M135.914 64.2021H130.444C130.316 64.2021 130.231 64.1167 130.231 63.9885C130.231 63.8602 130.316 63.7748 130.444 63.7748H135.914C136.043 63.7748 136.128 63.8602 136.128 63.9885C136.128 64.1167 136.021 64.2021 135.914 64.2021Z" fill="white"/>
</g>
</g>
<path d="M201.128 49.4158H199.44H192.667H191.513C191.086 49.4158 190.701 49.7363 190.551 50.2064L190.231 51.2534C190.081 51.7235 189.718 52.044 189.269 52.044H175.53C174.974 52.044 174.526 52.5568 174.526 53.1978V68.7748C174.526 69.4158 174.974 69.9286 175.53 69.9286H175.594H199.419H201.107C201.705 69.9286 202.175 69.4158 202.175 68.7748V54.4372V52.044V50.591C202.218 49.95 201.727 49.4158 201.128 49.4158Z" fill="#F94892"/>
<path d="M191.321 52.2149L191.663 51.1679C191.812 50.6978 192.218 50.3773 192.688 50.3773H201.15C201.748 50.3773 202.218 50.8901 202.218 51.5312V52.9842V55.3773V69.715C202.218 70.356 201.727 70.8688 201.15 70.8688H175.637C175.039 70.8688 174.568 70.356 174.568 69.715V54.138C174.568 53.497 175.06 52.9842 175.637 52.9842H190.316C190.765 52.9842 191.171 52.685 191.321 52.2149Z" fill="#F94892"/>
<path opacity="0.12" d="M191.94 53.2833L192.261 52.279C192.41 51.8303 192.795 51.5526 193.222 51.5526H201.192C201.748 51.5526 202.218 52.044 202.218 52.6423V54.0098V56.2748V69.7791C202.218 70.3774 201.769 70.8688 201.192 70.8688H177.154C176.598 70.8688 176.128 70.3774 176.128 69.7791V55.0996C176.128 54.5013 176.577 54.0098 177.154 54.0098H191C191.427 54.0098 191.812 53.732 191.94 53.2833Z" fill="white"/>
<path d="M199.291 69.5653H192.987C192.859 69.5653 192.774 69.4799 192.774 69.3517C192.774 69.2235 192.859 69.138 192.987 69.138H199.291C199.697 69.138 200.039 68.7961 200.039 68.3901V63.3901C200.039 63.2619 200.124 63.1765 200.252 63.1765C200.381 63.1765 200.466 63.2619 200.466 63.3901V68.3901C200.466 69.0525 199.932 69.5653 199.291 69.5653Z" fill="white"/>
<path d="M125.808 67.1295H127.496H134.312H135.466C135.893 67.1295 136.278 67.4928 136.427 68.0056L136.748 69.2022C136.897 69.7364 137.282 70.0782 137.709 70.0782H151.556C152.111 70.0782 152.581 70.6552 152.581 71.3817V88.9031C152.581 89.6296 152.132 90.2065 151.556 90.2065H151.491H127.496H125.808C125.209 90.2065 124.718 89.6296 124.718 88.9031V72.7919V70.0996V68.4543C124.718 67.7064 125.209 67.1295 125.808 67.1295Z" fill="#FFA1C9"/>
<path opacity="0.12" d="M135.679 70.2492L135.338 69.0526C135.188 68.5184 134.782 68.1765 134.312 68.1765H125.808C125.209 68.1765 124.718 68.7534 124.718 69.4799V71.1252V73.8176V89.9287C124.718 90.6552 125.209 91.2321 125.808 91.2321H151.491C152.09 91.2321 152.581 90.6552 152.581 89.9287V72.4073C152.581 71.6808 152.09 71.1039 151.491 71.1039H136.705C136.235 71.1466 135.829 70.7834 135.679 70.2492Z" fill="white"/>
<path opacity="0.12" d="M135.038 71.4672L134.718 70.356C134.568 69.8646 134.184 69.5227 133.756 69.5227H125.744C125.188 69.5227 124.718 70.0783 124.718 70.762V72.3005V74.8432V90.0356C124.718 90.7193 125.167 91.2749 125.744 91.2749H149.932C150.487 91.2749 150.957 90.7193 150.957 90.0356V73.5398C150.957 72.856 150.509 72.3005 149.932 72.3005H136.021C135.573 72.3005 135.188 71.9586 135.038 71.4672Z" fill="white"/>
<path d="M126.684 74.6509C126.577 74.6509 126.491 74.5654 126.491 74.4372V71.4671C126.491 71.0611 126.791 70.7406 127.154 70.7406H131.128C131.235 70.7406 131.321 70.8261 131.321 70.9543C131.321 71.0825 131.235 71.168 131.128 71.168H127.154C127.004 71.168 126.876 71.2962 126.876 71.4671V74.4372C126.876 74.544 126.791 74.6509 126.684 74.6509Z" fill="white"/>
<path d="M178.436 57.9414H150.979C146.427 57.9414 142.731 54.2448 142.731 49.6936C142.731 45.1423 146.427 41.4457 150.979 41.4457H178.436C182.987 41.4457 186.684 45.1423 186.684 49.6936C186.705 54.2448 183.009 57.9414 178.436 57.9414Z" fill="#FFA1C9"/>
<path d="M164.718 54.2876C171.126 54.2876 176.321 49.0929 176.321 42.685C176.321 36.2771 171.126 31.0824 164.718 31.0824C158.31 31.0824 153.115 36.2771 153.115 42.685C153.115 49.0929 158.31 54.2876 164.718 54.2876Z" fill="#F94892"/>
<path d="M178.436 55.5055H150.979C146.427 55.5055 142.731 51.8089 142.731 47.2576C142.731 42.7064 146.427 39.0098 150.979 39.0098H178.436C182.987 39.0098 186.684 42.7064 186.684 47.2576C186.705 51.8089 183.009 55.5055 178.436 55.5055Z" fill="#F94892"/>
<path d="M169.306 50.9028C175.191 48.3672 177.906 41.5409 175.37 35.6558C172.835 29.7708 166.008 27.0555 160.123 29.5912C154.238 32.1268 151.523 38.9531 154.059 44.8381C156.594 50.7232 163.421 53.4384 169.306 50.9028Z" fill="#F94892"/>
<g opacity="0.35">
<g opacity="0.35">
<path opacity="0.35" d="M178.436 55.5055H150.979C146.427 55.5055 142.731 51.8089 142.731 47.2576C142.731 42.7064 146.427 39.0098 150.979 39.0098H178.436C182.987 39.0098 186.684 42.7064 186.684 47.2576C186.705 51.8089 183.009 55.5055 178.436 55.5055Z" fill="#ECF1F7"/>
<path opacity="0.35" d="M169.306 50.9028C175.191 48.3672 177.906 41.5409 175.37 35.6558C172.835 29.7708 166.008 27.0555 160.123 29.5912C154.238 32.1268 151.523 38.9531 154.059 44.8381C156.594 50.7232 163.421 53.4384 169.306 50.9028Z" fill="#ECF1F7"/>
</g>
</g>
<path d="M162.004 41.9799C161.876 41.9799 161.726 41.9371 161.62 41.8303C161.406 41.6166 161.406 41.2747 161.62 41.0824L164.739 38.0269L167.816 41.1038C168.03 41.3175 168.03 41.6593 167.816 41.8516C167.603 42.0653 167.261 42.0653 167.068 41.8516L164.761 39.544L162.41 41.873C162.261 41.9371 162.132 41.9799 162.004 41.9799Z" fill="white"/>
<path d="M164.718 46.232C164.419 46.232 164.184 45.997 164.184 45.6978V38.7534C164.184 38.4542 164.419 38.2192 164.718 38.2192C165.017 38.2192 165.252 38.4542 165.252 38.7534V45.6978C165.252 45.997 165.017 46.232 164.718 46.232Z" fill="white"/>
<path d="M169.761 49.5226H159.59C158.863 49.5226 158.265 48.9243 158.265 48.1978V44.5012C158.265 44.2021 158.5 43.967 158.799 43.967C159.098 43.967 159.333 44.2021 159.333 44.5012V48.1978C159.333 48.3474 159.44 48.4542 159.59 48.4542H169.761C169.953 48.4542 170.103 48.3047 170.103 48.1124V44.5012C170.103 44.2021 170.338 43.967 170.637 43.967C170.936 43.967 171.171 44.2021 171.171 44.5012V48.1124C171.171 48.903 170.53 49.5226 169.761 49.5226Z" fill="white"/>
<path opacity="0.36" d="M180.872 84.8859L151.748 94.5013C151.043 94.7363 150.273 94.3517 150.038 93.6466L140.423 64.5226C140.188 63.8175 140.573 63.0482 141.278 62.8132L170.402 53.1978C171.107 52.9627 171.876 53.3474 172.111 54.0525L181.726 83.1765C181.962 83.8816 181.577 84.6508 180.872 84.8859Z" fill="#F94892"/>
<path d="M178.714 83.7962L149.59 93.4116C148.885 93.6466 148.115 93.262 147.88 92.5569L138.265 63.4329C138.03 62.7277 138.414 61.9585 139.12 61.7235L168.244 52.1081C168.949 51.873 169.718 52.2576 169.953 52.9628L179.568 82.0868C179.825 82.7919 179.44 83.5611 178.714 83.7962Z" fill="white"/>
<path d="M167.724 55.2515L141.41 63.9453L150.103 90.2594L176.418 81.5656L167.724 55.2515Z" fill="#FFA1C9"/>
<path opacity="0.47" d="M149.867 90.4842L147.902 84.5227L150.786 77.5782C151.192 76.6167 152.239 76.1252 153.222 76.4244L158.543 78.0697C158.863 78.1765 159.205 78.0483 159.376 77.7491L163.82 70.356C164.761 68.7961 166.748 68.1551 168.414 68.8816L173.308 70.9756L173.35 71.1038L176.791 81.5312L176.491 81.638L149.867 90.4842ZM148.585 84.5654L150.273 89.6936L175.979 81.2107L172.773 71.5312L168.158 69.544C166.769 68.9457 165.145 69.4799 164.355 70.762L159.91 78.1551C159.59 78.6893 158.949 78.9457 158.35 78.7534L153.03 77.1081C152.346 76.8944 151.641 77.2363 151.363 77.8774L148.585 84.5654Z" fill="white"/>
<path opacity="0.47" d="M158.65 69.9713C157.218 69.9713 155.872 69.0525 155.402 67.6209C154.803 65.826 155.786 63.9029 157.56 63.3046C159.355 62.7064 161.278 63.6893 161.876 65.4628C162.474 67.2576 161.491 69.1807 159.718 69.779C159.376 69.9072 159.013 69.9713 158.65 69.9713ZM158.65 63.7961C158.372 63.7961 158.073 63.8388 157.773 63.9457C156.32 64.4158 155.53 65.997 156.021 67.45C156.491 68.903 158.073 69.6936 159.526 69.2021C160.979 68.732 161.769 67.1508 161.278 65.6978C160.893 64.5226 159.803 63.7961 158.65 63.7961Z" fill="white"/>
<path opacity="0.36" d="M189.633 90.121H166.897C166.15 90.121 165.53 89.5227 165.53 88.7534V66.0183C165.53 65.2705 166.128 64.6508 166.897 64.6508H189.633C190.38 64.6508 191 65.2491 191 66.0183V88.7534C191 89.5227 190.38 90.121 189.633 90.121Z" fill="#F94892"/>
<path d="M188.35 88.8389H165.594C164.846 88.8389 164.226 88.2406 164.226 87.4714V64.7363C164.226 63.9884 164.825 63.3688 165.594 63.3688H188.329C189.077 63.3688 189.697 63.9671 189.697 64.7363V87.4714C189.697 88.2193 189.098 88.8389 188.35 88.8389Z" fill="white"/>
<path opacity="0.39" d="M187.517 65.5483H166.406V86.6594H187.517V65.5483Z" fill="#FBE5E5"/>
<path opacity="0.47" d="M187.859 86.8517H166.107V81.9586L169.868 77.5996C170.402 76.9799 171.342 76.8517 172.004 77.3432L175.466 79.8218C175.637 79.95 175.872 79.9286 176.043 79.8004L181.021 75.5269C182.111 74.5868 183.735 74.6081 184.803 75.5483L187.859 78.262V86.8517ZM166.748 86.2107H187.218V78.5398L184.376 76.0184C183.543 75.2705 182.282 75.2705 181.427 75.997L176.449 80.2705C176.064 80.6124 175.509 80.6338 175.081 80.3346L171.62 77.856C171.214 77.5569 170.658 77.6423 170.338 78.0056L166.726 82.1722V86.2107H166.748Z" fill="white"/>
<path opacity="0.47" d="M178.265 74.2236C176.791 74.2236 175.594 73.027 175.594 71.5526C175.594 70.0782 176.791 68.8817 178.265 68.8817C179.739 68.8817 180.936 70.0782 180.936 71.5526C180.936 73.027 179.739 74.2236 178.265 74.2236ZM178.265 69.5227C177.132 69.5227 176.235 70.4415 176.235 71.5526C176.235 72.6637 177.154 73.5825 178.265 73.5825C179.376 73.5825 180.295 72.6637 180.295 71.5526C180.295 70.4415 179.376 69.5227 178.265 69.5227Z" fill="white"/>
<path opacity="0.36" d="M173.393 92.3005L160.53 97.1082C159.825 97.3646 159.034 97.0227 158.778 96.3176L153.97 83.4543C153.714 82.7492 154.055 81.9586 154.761 81.7022L167.624 76.8945C168.329 76.638 169.12 76.9799 169.376 77.6851L174.184 90.5483C174.462 91.2535 174.098 92.0441 173.393 92.3005Z" fill="#F94892"/>
<path d="M172.325 91.809L159.462 96.6167C158.756 96.8731 157.966 96.5313 157.709 95.8261L152.902 82.9628C152.645 82.2577 152.987 81.4671 153.692 81.2107L166.556 76.403C167.261 76.1466 168.051 76.4885 168.308 77.1936L173.115 90.0569C173.393 90.762 173.03 91.5526 172.325 91.809Z" fill="white"/>
<path d="M167.014 77.7244L154.229 82.5155L159.02 95.301L171.806 90.5099L167.014 77.7244Z" fill="#F94892"/>
<path opacity="0.47" d="M158.799 95.6338L157.645 92.5355L158.949 89.0099C159.162 88.4543 159.739 88.1551 160.316 88.3047L162.966 89.0099C163.051 89.0312 163.137 88.9885 163.179 88.9244L165.209 85.2064C165.679 84.3517 166.726 83.9671 167.645 84.309L170.167 85.2705L172.175 90.6338L158.799 95.6338ZM158.329 92.5355L159.184 94.8218L171.363 90.2492L169.675 85.762L167.431 84.9073C166.812 84.6722 166.107 84.9286 165.786 85.5056L163.756 89.2235C163.564 89.5654 163.179 89.715 162.816 89.6295L160.167 88.9244C159.91 88.8603 159.654 88.9885 159.568 89.2449L158.329 92.5355Z" fill="white"/>
<path opacity="0.47" d="M162.752 85.3133C162.004 85.3133 161.299 84.8646 161.021 84.1167C160.658 83.1551 161.149 82.1081 162.09 81.7449C163.03 81.3816 164.098 81.8731 164.461 82.8133C164.825 83.7748 164.333 84.8218 163.393 85.1851C163.201 85.2919 162.987 85.3133 162.752 85.3133ZM162.752 82.2791C162.602 82.2791 162.474 82.3004 162.325 82.3645C161.705 82.5996 161.385 83.2834 161.62 83.903C161.855 84.5227 162.538 84.8432 163.158 84.6081C163.778 84.3731 164.098 83.6893 163.863 83.0697C163.714 82.5782 163.243 82.2791 162.752 82.2791Z" fill="white"/>
<path d="M138.37 120.957C137.877 120.957 137.437 120.894 137.05 120.767C136.663 120.64 136.333 120.457 136.06 120.217C135.793 119.977 135.587 119.684 135.44 119.337C135.3 118.997 135.23 118.607 135.23 118.167C135.23 117.46 135.473 116.87 135.96 116.397C136.447 115.917 137.21 115.514 138.25 115.187L140.24 114.567V114.507L136.69 114.427V115.137H135.54V114.387C135.54 113.88 135.667 113.51 135.92 113.277C136.18 113.037 136.603 112.934 137.19 112.967L141.1 113.207V115.477L140.59 115.617V115.877C140.59 116.077 140.643 116.217 140.75 116.297C140.857 116.377 141.037 116.417 141.29 116.417H141.59V117.617L141.29 117.917C140.717 117.91 140.29 117.76 140.01 117.467C139.73 117.167 139.59 116.704 139.59 116.077V115.887L138.87 116.077C138.403 116.204 138.01 116.324 137.69 116.437C137.37 116.55 137.11 116.677 136.91 116.817C136.71 116.95 136.563 117.107 136.47 117.287C136.383 117.46 136.34 117.667 136.34 117.907V118.027C136.34 118.26 136.373 118.464 136.44 118.637C136.513 118.817 136.633 118.967 136.8 119.087C136.967 119.207 137.183 119.297 137.45 119.357C137.723 119.424 138.06 119.457 138.46 119.457C138.92 119.457 139.363 119.37 139.79 119.197C140.217 119.03 140.59 118.79 140.91 118.477L141.66 119.657C141.253 120.064 140.76 120.38 140.18 120.607C139.607 120.84 139.003 120.957 138.37 120.957ZM138.24 118.487C138.067 118.487 137.923 118.434 137.81 118.327C137.703 118.22 137.65 118.05 137.65 117.817C137.65 117.584 137.703 117.414 137.81 117.307C137.923 117.2 138.067 117.147 138.24 117.147H138.44C138.613 117.147 138.753 117.2 138.86 117.307C138.973 117.414 139.03 117.584 139.03 117.817C139.03 118.05 138.973 118.22 138.86 118.327C138.753 118.434 138.613 118.487 138.44 118.487H138.24ZM141.292 116.717L141.592 116.417H141.892C142.425 116.417 142.692 116.184 142.692 115.717V114.287H143.792V115.717C143.792 116.184 144.025 116.417 144.492 116.417H144.892V117.617L144.592 117.917C144.058 117.917 143.652 117.81 143.372 117.597C143.098 117.377 142.915 117.034 142.822 116.567H142.762C142.668 117.034 142.508 117.377 142.282 117.597C142.055 117.81 141.725 117.917 141.292 117.917V116.717ZM143.932 113.487C143.758 113.487 143.615 113.434 143.502 113.327C143.395 113.22 143.342 113.05 143.342 112.817C143.342 112.584 143.395 112.414 143.502 112.307C143.615 112.2 143.758 112.147 143.932 112.147H144.132C144.305 112.147 144.445 112.2 144.552 112.307C144.665 112.414 144.722 112.584 144.722 112.817C144.722 113.05 144.665 113.22 144.552 113.327C144.445 113.434 144.305 113.487 144.132 113.487H143.932ZM142.352 113.487C142.178 113.487 142.035 113.434 141.922 113.327C141.815 113.22 141.762 113.05 141.762 112.817C141.762 112.584 141.815 112.414 141.922 112.307C142.035 112.2 142.178 112.147 142.352 112.147H142.552C142.725 112.147 142.865 112.2 142.972 112.307C143.085 112.414 143.142 112.584 143.142 112.817C143.142 113.05 143.085 113.22 142.972 113.327C142.865 113.434 142.725 113.487 142.552 113.487H142.352ZM144.593 116.717L144.893 116.417H145.193C145.726 116.417 145.993 116.184 145.993 115.717V114.287H147.093V115.717C147.093 116.184 147.326 116.417 147.793 116.417H148.193V117.617L147.893 117.917C147.359 117.917 146.953 117.81 146.673 117.597C146.399 117.377 146.216 117.034 146.123 116.567H146.063C145.969 117.034 145.809 117.377 145.583 117.597C145.356 117.81 145.026 117.917 144.593 117.917V116.717ZM146.443 113.487C146.269 113.487 146.126 113.434 146.013 113.327C145.906 113.22 145.853 113.05 145.853 112.817C145.853 112.584 145.906 112.414 146.013 112.307C146.126 112.2 146.269 112.147 146.443 112.147H146.643C146.816 112.147 146.956 112.2 147.063 112.307C147.176 112.414 147.233 112.584 147.233 112.817C147.233 113.05 147.176 113.22 147.063 113.327C146.956 113.434 146.816 113.487 146.643 113.487H146.443ZM150.473 118.427C150.287 118.327 150.12 118.244 149.973 118.177C149.827 118.11 149.683 118.057 149.543 118.017C149.41 117.977 149.273 117.95 149.133 117.937C149 117.924 148.847 117.917 148.673 117.917H147.893V116.717L148.193 116.417H148.793V110.517H149.993V116.567C150.173 116.62 150.357 116.69 150.543 116.777C150.737 116.864 150.953 116.974 151.193 117.107L151.683 117.377L150.973 118.697L150.473 118.427ZM151.987 110.517H153.187V117.917H151.987V110.517ZM155.552 118.817H155.952C156.559 118.817 157.002 118.694 157.282 118.447C157.569 118.2 157.709 117.79 157.702 117.217C157.702 117.064 157.692 116.904 157.672 116.737C157.652 116.564 157.626 116.38 157.592 116.187L157.382 114.857L158.472 114.687L158.622 115.617C158.676 115.937 158.716 116.234 158.742 116.507C158.776 116.774 158.792 116.994 158.792 117.167C158.792 117.647 158.732 118.08 158.612 118.467C158.492 118.854 158.312 119.184 158.072 119.457C157.832 119.737 157.536 119.95 157.182 120.097C156.829 120.244 156.422 120.317 155.962 120.317H155.552V118.817ZM159.441 118.817H160.081C160.714 118.817 161.221 118.737 161.601 118.577C161.987 118.417 162.261 118.197 162.421 117.917H161.261C160.721 117.917 160.297 117.76 159.991 117.447C159.691 117.127 159.541 116.684 159.541 116.117C159.541 115.77 159.591 115.45 159.691 115.157C159.797 114.857 159.941 114.6 160.121 114.387C160.307 114.167 160.524 113.997 160.771 113.877C161.024 113.75 161.297 113.687 161.591 113.687C162.197 113.687 162.677 113.927 163.031 114.407C163.384 114.887 163.577 115.557 163.611 116.417H164.121V117.617L163.821 117.917H163.481C163.294 118.684 162.924 119.274 162.371 119.687C161.824 120.107 161.094 120.317 160.181 120.317H159.441V118.817ZM160.541 115.917C160.541 116.097 160.614 116.227 160.761 116.307C160.907 116.38 161.107 116.417 161.361 116.417H162.611V116.387C162.611 116.027 162.501 115.737 162.281 115.517C162.067 115.297 161.794 115.187 161.461 115.187C161.201 115.187 160.981 115.257 160.801 115.397C160.627 115.53 160.541 115.704 160.541 115.917ZM166.321 115.717C166.321 116.004 166.401 116.2 166.561 116.307L167.001 115.547C167.234 115.14 167.471 114.794 167.711 114.507C167.958 114.22 168.214 113.987 168.481 113.807C168.748 113.627 169.028 113.497 169.321 113.417C169.621 113.33 169.941 113.287 170.281 113.287C171.068 113.287 171.658 113.504 172.051 113.937C172.444 114.364 172.641 114.96 172.641 115.727C172.641 116.48 172.428 117.034 172.001 117.387C171.574 117.74 170.901 117.917 169.981 117.917H167.121C166.588 117.917 166.181 117.81 165.901 117.597C165.628 117.377 165.444 117.034 165.351 116.567H165.291C165.198 117.034 165.038 117.377 164.811 117.597C164.584 117.81 164.254 117.917 163.821 117.917V116.717L164.121 116.417H164.421C164.954 116.417 165.221 116.184 165.221 115.717V115.087H166.321V115.717ZM169.981 116.417C170.301 116.417 170.564 116.407 170.771 116.387C170.984 116.36 171.154 116.32 171.281 116.267C171.414 116.207 171.508 116.127 171.561 116.027C171.614 115.927 171.641 115.797 171.641 115.637C171.641 115.35 171.548 115.137 171.361 114.997C171.174 114.857 170.864 114.787 170.431 114.787H170.131C169.831 114.787 169.568 114.8 169.341 114.827C169.114 114.847 168.914 114.89 168.741 114.957C168.568 115.024 168.411 115.117 168.271 115.237C168.131 115.357 167.998 115.514 167.871 115.707L167.441 116.357L167.471 116.417H169.981ZM178.582 120.957C177.675 120.957 176.972 120.76 176.472 120.367C175.972 119.98 175.722 119.424 175.722 118.697C175.722 118.49 175.748 118.287 175.802 118.087C175.862 117.894 175.965 117.697 176.112 117.497C176.265 117.297 176.472 117.09 176.732 116.877C176.998 116.657 177.338 116.424 177.752 116.177L176.452 114.577V113.027C176.785 112.874 177.135 112.757 177.502 112.677C177.875 112.59 178.238 112.547 178.592 112.547C179.365 112.547 179.932 112.684 180.292 112.957C180.652 113.23 180.832 113.66 180.832 114.247C180.832 114.654 180.735 115.014 180.542 115.327C180.355 115.634 180.062 115.914 179.662 116.167L179.412 116.327C179.538 116.367 179.682 116.394 179.842 116.407C180.002 116.414 180.202 116.417 180.442 116.417H181.612V117.617L181.412 117.917H180.342C180.148 117.917 179.972 117.904 179.812 117.877C179.658 117.85 179.508 117.804 179.362 117.737C179.215 117.664 179.065 117.567 178.912 117.447C178.758 117.32 178.592 117.157 178.412 116.957C178.098 117.157 177.838 117.33 177.632 117.477C177.432 117.617 177.272 117.744 177.152 117.857C177.032 117.964 176.945 118.064 176.892 118.157C176.845 118.25 176.822 118.347 176.822 118.447V118.507C176.822 118.787 176.975 119.014 177.282 119.187C177.588 119.367 178.048 119.457 178.662 119.457C179.068 119.457 179.462 119.37 179.842 119.197C180.228 119.03 180.562 118.79 180.842 118.477L181.592 119.657C181.212 120.07 180.758 120.39 180.232 120.617C179.705 120.844 179.155 120.957 178.582 120.957ZM177.412 114.237L178.632 115.677L179.232 115.337C179.632 115.104 179.832 114.85 179.832 114.577C179.832 114.384 179.738 114.247 179.552 114.167C179.372 114.087 179.052 114.047 178.592 114.047C178.385 114.047 178.175 114.06 177.962 114.087C177.748 114.114 177.565 114.144 177.412 114.177V114.237ZM181.311 116.717L181.611 116.417H183.551C183.778 116.417 183.985 116.404 184.171 116.377C184.365 116.35 184.525 116.304 184.651 116.237C184.785 116.17 184.888 116.08 184.961 115.967C185.035 115.854 185.071 115.71 185.071 115.537V115.077H185.011C184.818 115.604 184.375 115.867 183.681 115.867C183.141 115.867 182.718 115.727 182.411 115.447C182.111 115.16 181.961 114.767 181.961 114.267C181.961 113.92 182.011 113.6 182.111 113.307C182.218 113.007 182.361 112.75 182.541 112.537C182.728 112.317 182.945 112.147 183.191 112.027C183.445 111.9 183.718 111.837 184.011 111.837C184.665 111.837 185.171 112.11 185.531 112.657C185.898 113.204 186.081 113.964 186.081 114.937C186.081 115.544 186.028 116.04 185.921 116.427C185.815 116.814 185.655 117.117 185.441 117.337C185.235 117.557 184.971 117.71 184.651 117.797C184.338 117.877 183.971 117.917 183.551 117.917H181.311V116.717ZM183.991 114.567C184.245 114.567 184.458 114.557 184.631 114.537C184.805 114.51 184.945 114.47 185.051 114.417C185.011 114.09 184.881 113.83 184.661 113.637C184.448 113.437 184.188 113.337 183.881 113.337C183.621 113.337 183.401 113.407 183.221 113.547C183.048 113.68 182.961 113.854 182.961 114.067C182.961 114.247 183.035 114.377 183.181 114.457C183.328 114.53 183.528 114.567 183.781 114.567H183.991ZM183.911 111.037C183.738 111.037 183.595 110.984 183.481 110.877C183.375 110.77 183.321 110.6 183.321 110.367C183.321 110.134 183.375 109.964 183.481 109.857C183.595 109.75 183.738 109.697 183.911 109.697H184.111C184.285 109.697 184.425 109.75 184.531 109.857C184.645 109.964 184.701 110.134 184.701 110.367C184.701 110.6 184.645 110.77 184.531 110.877C184.425 110.984 184.285 111.037 184.111 111.037H183.911ZM185.836 118.817H186.236C186.842 118.817 187.286 118.694 187.566 118.447C187.852 118.2 187.992 117.79 187.986 117.217C187.986 117.064 187.976 116.904 187.956 116.737C187.936 116.564 187.909 116.38 187.876 116.187L187.666 114.857L188.756 114.687L188.906 115.617C188.959 115.937 188.999 116.234 189.026 116.507C189.059 116.774 189.076 116.994 189.076 117.167C189.076 117.647 189.016 118.08 188.896 118.467C188.776 118.854 188.596 119.184 188.356 119.457C188.116 119.737 187.819 119.95 187.466 120.097C187.112 120.244 186.706 120.317 186.246 120.317H185.836V118.817ZM190.024 110.517H191.224V117.917H190.024V110.517ZM189.554 119.767H189.974L189.984 119.717C189.85 119.57 189.784 119.394 189.784 119.187C189.784 118.907 189.884 118.674 190.084 118.487C190.29 118.307 190.554 118.217 190.874 118.217C191.067 118.217 191.254 118.257 191.434 118.337C191.614 118.417 191.77 118.527 191.904 118.667L191.424 119.337C191.264 119.177 191.08 119.097 190.874 119.097C190.76 119.097 190.667 119.124 190.594 119.177C190.527 119.23 190.494 119.294 190.494 119.367C190.494 119.587 190.724 119.697 191.184 119.697H191.924V120.577H189.554V119.767Z" fill="#F94892"/>
<path d="M118.876 128.942V133.078C118.876 133.313 118.836 133.526 118.756 133.718C118.681 133.91 118.572 134.073 118.428 134.206C118.289 134.34 118.121 134.444 117.924 134.518C117.727 134.588 117.511 134.622 117.276 134.622C116.844 134.622 116.495 134.508 116.228 134.278C115.967 134.044 115.799 133.734 115.724 133.35L116.332 133.206C116.385 133.446 116.487 133.644 116.636 133.798C116.785 133.948 117.004 134.022 117.292 134.022C117.58 134.022 117.804 133.934 117.964 133.758C118.124 133.582 118.204 133.316 118.204 132.958V129.534H116.284V128.942H118.876ZM120.322 134.526V128.942H122.546C123.047 128.942 123.431 129.086 123.698 129.374C123.97 129.657 124.106 130.046 124.106 130.542C124.106 131.038 123.97 131.43 123.698 131.718C123.431 132.001 123.047 132.142 122.546 132.142H120.994V134.526H120.322ZM120.994 131.55H122.546C122.813 131.55 123.018 131.481 123.162 131.342C123.311 131.204 123.386 131.006 123.386 130.75V130.334C123.386 130.078 123.311 129.881 123.162 129.742C123.018 129.604 122.813 129.534 122.546 129.534H120.994V131.55ZM125.174 134.526V128.942H128.582V129.534H125.846V131.406H128.422V131.998H125.846V133.934H128.582V134.526H125.174ZM133.454 133.71H133.43C133.36 133.972 133.19 134.19 132.918 134.366C132.651 134.537 132.304 134.622 131.878 134.622C131.536 134.622 131.222 134.561 130.934 134.438C130.651 134.31 130.408 134.126 130.206 133.886C130.003 133.641 129.843 133.34 129.726 132.982C129.614 132.62 129.558 132.204 129.558 131.734C129.558 131.27 129.614 130.86 129.726 130.502C129.838 130.14 129.998 129.838 130.206 129.598C130.414 129.353 130.664 129.166 130.958 129.038C131.251 128.91 131.576 128.846 131.934 128.846C132.435 128.846 132.854 128.958 133.19 129.182C133.526 129.406 133.784 129.702 133.966 130.07L133.414 130.406C133.286 130.108 133.094 129.873 132.838 129.702C132.587 129.532 132.286 129.446 131.934 129.446C131.688 129.446 131.464 129.492 131.262 129.582C131.059 129.668 130.883 129.79 130.734 129.95C130.59 130.11 130.478 130.302 130.398 130.526C130.318 130.75 130.278 131.001 130.278 131.278V132.182C130.278 132.46 130.318 132.713 130.398 132.942C130.478 133.166 130.59 133.358 130.734 133.518C130.883 133.678 131.064 133.804 131.278 133.894C131.491 133.98 131.731 134.022 131.998 134.022C132.19 134.022 132.371 133.998 132.542 133.95C132.718 133.897 132.87 133.82 132.998 133.718C133.131 133.617 133.235 133.492 133.31 133.342C133.384 133.188 133.422 133.006 133.422 132.798V132.246H132.19V131.654H134.078V134.526H133.454V133.71ZM136.819 135.758H137.371C138.016 135.758 138.494 135.617 138.803 135.334C139.112 135.052 139.267 134.657 139.267 134.15V133.974H139.227C139.152 134.15 139.027 134.289 138.851 134.39C138.68 134.492 138.478 134.542 138.243 134.542C137.816 134.542 137.486 134.43 137.251 134.206C137.016 133.977 136.899 133.657 136.899 133.246C136.899 133.006 136.934 132.78 137.003 132.566C137.078 132.353 137.179 132.169 137.307 132.014C137.435 131.854 137.587 131.729 137.763 131.638C137.944 131.542 138.142 131.494 138.355 131.494C138.814 131.494 139.174 131.692 139.435 132.086C139.696 132.481 139.827 133.036 139.827 133.75C139.827 134.598 139.622 135.26 139.211 135.734C138.806 136.209 138.192 136.446 137.371 136.446H136.819V135.758ZM138.403 133.838C138.632 133.838 138.814 133.82 138.947 133.782C139.086 133.74 139.192 133.676 139.267 133.59C139.267 133.158 139.182 132.817 139.011 132.566C138.84 132.31 138.606 132.182 138.307 132.182C138.035 132.182 137.824 132.273 137.675 132.454C137.531 132.636 137.459 132.873 137.459 133.166C137.459 133.401 137.52 133.572 137.643 133.678C137.771 133.785 137.971 133.838 138.243 133.838H138.403ZM140.788 129.582H141.38V134.526H140.788V129.582ZM140.268 128.462H140.556L140.564 128.43C140.521 128.377 140.486 128.316 140.46 128.246C140.433 128.172 140.42 128.097 140.42 128.022C140.42 127.814 140.489 127.641 140.628 127.502C140.766 127.364 140.942 127.294 141.156 127.294C141.278 127.294 141.404 127.326 141.532 127.39C141.66 127.449 141.756 127.529 141.82 127.63L141.524 127.99C141.417 127.868 141.294 127.806 141.156 127.806C141.06 127.806 140.98 127.833 140.916 127.886C140.852 127.934 140.82 127.996 140.82 128.07C140.82 128.182 140.87 128.27 140.972 128.334C141.073 128.398 141.214 128.43 141.396 128.43H141.908V128.942H140.268V128.462ZM147.243 128.942V133.078C147.243 133.313 147.203 133.526 147.123 133.718C147.049 133.91 146.939 134.073 146.795 134.206C146.657 134.34 146.489 134.444 146.291 134.518C146.094 134.588 145.878 134.622 145.643 134.622C145.211 134.622 144.862 134.508 144.595 134.278C144.334 134.044 144.166 133.734 144.091 133.35L144.699 133.206C144.753 133.446 144.854 133.644 145.003 133.798C145.153 133.948 145.371 134.022 145.659 134.022C145.947 134.022 146.171 133.934 146.331 133.758C146.491 133.582 146.571 133.316 146.571 132.958V129.534H144.651V128.942H147.243ZM148.689 134.526V128.942H150.913C151.415 128.942 151.799 129.086 152.065 129.374C152.337 129.657 152.473 130.046 152.473 130.542C152.473 131.038 152.337 131.43 152.065 131.718C151.799 132.001 151.415 132.142 150.913 132.142H149.361V134.526H148.689ZM149.361 131.55H150.913C151.18 131.55 151.385 131.481 151.529 131.342C151.679 131.204 151.753 131.006 151.753 130.75V130.334C151.753 130.078 151.679 129.881 151.529 129.742C151.385 129.604 151.18 129.534 150.913 129.534H149.361V131.55ZM157.157 133.71H157.133C157.064 133.972 156.893 134.19 156.621 134.366C156.354 134.537 156.008 134.622 155.581 134.622C155.24 134.622 154.925 134.561 154.637 134.438C154.354 134.31 154.112 134.126 153.909 133.886C153.706 133.641 153.546 133.34 153.429 132.982C153.317 132.62 153.261 132.204 153.261 131.734C153.261 131.27 153.317 130.86 153.429 130.502C153.541 130.14 153.701 129.838 153.909 129.598C154.117 129.353 154.368 129.166 154.661 129.038C154.954 128.91 155.28 128.846 155.637 128.846C156.138 128.846 156.557 128.958 156.893 129.182C157.229 129.406 157.488 129.702 157.669 130.07L157.117 130.406C156.989 130.108 156.797 129.873 156.541 129.702C156.29 129.532 155.989 129.446 155.637 129.446C155.392 129.446 155.168 129.492 154.965 129.582C154.762 129.668 154.586 129.79 154.437 129.95C154.293 130.11 154.181 130.302 154.101 130.526C154.021 130.75 153.981 131.001 153.981 131.278V132.182C153.981 132.46 154.021 132.713 154.101 132.942C154.181 133.166 154.293 133.358 154.437 133.518C154.586 133.678 154.768 133.804 154.981 133.894C155.194 133.98 155.434 134.022 155.701 134.022C155.893 134.022 156.074 133.998 156.245 133.95C156.421 133.897 156.573 133.82 156.701 133.718C156.834 133.617 156.938 133.492 157.013 133.342C157.088 133.188 157.125 133.006 157.125 132.798V132.246H155.893V131.654H157.781V134.526H157.157V133.71ZM161.338 133.59C161.509 133.59 161.631 133.636 161.706 133.726C161.786 133.812 161.826 133.924 161.826 134.062V134.174C161.826 134.393 161.762 134.633 161.634 134.894C161.506 135.161 161.327 135.393 161.098 135.59H160.562C160.722 135.42 160.85 135.257 160.946 135.102C161.047 134.953 161.119 134.785 161.162 134.598C161.055 134.572 160.975 134.521 160.922 134.446C160.874 134.372 160.85 134.281 160.85 134.174V134.062C160.85 133.924 160.887 133.812 160.962 133.726C161.042 133.636 161.167 133.59 161.338 133.59ZM163.174 134.526V128.942H165.398C165.899 128.942 166.283 129.086 166.55 129.374C166.822 129.657 166.958 130.046 166.958 130.542C166.958 131.038 166.822 131.43 166.55 131.718C166.283 132.001 165.899 132.142 165.398 132.142H163.846V134.526H163.174ZM163.846 131.55H165.398C165.664 131.55 165.87 131.481 166.014 131.342C166.163 131.204 166.238 131.006 166.238 130.75V130.334C166.238 130.078 166.163 129.881 166.014 129.742C165.87 129.604 165.664 129.534 165.398 129.534H163.846V131.55ZM169.377 131.118L168.705 129.878H168.681V134.526H168.025V128.942H168.801L170.841 132.35L171.513 133.59H171.537V128.942H172.193V134.526H171.417L169.377 131.118ZM177.298 133.71H177.274C177.204 133.972 177.034 134.19 176.762 134.366C176.495 134.537 176.148 134.622 175.722 134.622C175.38 134.622 175.066 134.561 174.778 134.438C174.495 134.31 174.252 134.126 174.05 133.886C173.847 133.641 173.687 133.34 173.57 132.982C173.458 132.62 173.402 132.204 173.402 131.734C173.402 131.27 173.458 130.86 173.57 130.502C173.682 130.14 173.842 129.838 174.05 129.598C174.258 129.353 174.508 129.166 174.802 129.038C175.095 128.91 175.42 128.846 175.778 128.846C176.279 128.846 176.698 128.958 177.034 129.182C177.37 129.406 177.628 129.702 177.81 130.07L177.258 130.406C177.13 130.108 176.938 129.873 176.682 129.702C176.431 129.532 176.13 129.446 175.778 129.446C175.532 129.446 175.308 129.492 175.106 129.582C174.903 129.668 174.727 129.79 174.578 129.95C174.434 130.11 174.322 130.302 174.242 130.526C174.162 130.75 174.122 131.001 174.122 131.278V132.182C174.122 132.46 174.162 132.713 174.242 132.942C174.322 133.166 174.434 133.358 174.578 133.518C174.727 133.678 174.908 133.804 175.122 133.894C175.335 133.98 175.575 134.022 175.842 134.022C176.034 134.022 176.215 133.998 176.386 133.95C176.562 133.897 176.714 133.82 176.842 133.718C176.975 133.617 177.079 133.492 177.154 133.342C177.228 133.188 177.266 133.006 177.266 132.798V132.246H176.034V131.654H177.922V134.526H177.298V133.71ZM183.735 134.622C183.175 134.622 182.703 134.593 182.319 134.534C181.94 134.476 181.633 134.382 181.399 134.254C181.164 134.126 180.993 133.958 180.887 133.75C180.785 133.537 180.735 133.278 180.735 132.974C180.735 132.761 180.761 132.542 180.815 132.318C180.873 132.094 180.961 131.846 181.079 131.574L181.575 131.726C181.356 132.18 181.247 132.569 181.247 132.894C181.247 133.22 181.401 133.46 181.711 133.614C182.02 133.764 182.508 133.838 183.175 133.838H185.735L185.751 133.806C185.479 133.593 185.268 133.364 185.119 133.118C184.969 132.868 184.895 132.577 184.895 132.246C184.895 132.033 184.929 131.833 184.999 131.646C185.068 131.46 185.167 131.297 185.295 131.158C185.423 131.014 185.575 130.902 185.751 130.822C185.932 130.737 186.129 130.694 186.343 130.694C186.556 130.694 186.751 130.737 186.927 130.822C187.108 130.902 187.263 131.012 187.391 131.15C187.519 131.289 187.617 131.454 187.687 131.646C187.756 131.833 187.791 132.033 187.791 132.246C187.791 132.577 187.716 132.868 187.567 133.118C187.417 133.364 187.207 133.593 186.935 133.806L186.951 133.838H188.111V134.366L187.951 134.526H187.839C187.567 134.526 187.305 134.497 187.055 134.438C186.804 134.374 186.567 134.281 186.343 134.158C186.231 134.233 186.103 134.3 185.959 134.358C185.815 134.412 185.641 134.46 185.439 134.502C185.236 134.54 184.993 134.569 184.711 134.59C184.433 134.612 184.108 134.622 183.735 134.622ZM186.343 133.598C186.615 133.449 186.831 133.273 186.991 133.07C187.151 132.862 187.231 132.614 187.231 132.326C187.231 132.038 187.153 131.809 186.999 131.638C186.844 131.468 186.639 131.382 186.383 131.382H186.303C186.047 131.382 185.841 131.468 185.687 131.638C185.532 131.809 185.455 132.038 185.455 132.326C185.455 132.614 185.535 132.862 185.695 133.07C185.855 133.273 186.071 133.449 186.343 133.598ZM186.295 129.734C186.188 129.734 186.103 129.705 186.039 129.646C185.975 129.582 185.943 129.481 185.943 129.342C185.943 129.204 185.975 129.105 186.039 129.046C186.103 128.982 186.188 128.95 186.295 128.95H186.383C186.489 128.95 186.575 128.982 186.639 129.046C186.703 129.105 186.735 129.204 186.735 129.342C186.735 129.481 186.703 129.582 186.639 129.646C186.575 129.705 186.489 129.734 186.383 129.734H186.295ZM187.949 133.998L188.109 133.838H188.389C188.843 133.838 189.069 133.612 189.069 133.158V128.606H189.661V133.158C189.661 133.612 189.888 133.838 190.341 133.838H190.621V134.366L190.461 134.526C189.704 134.526 189.261 134.265 189.133 133.742H189.093C189.035 134.036 188.92 134.241 188.749 134.358C188.579 134.47 188.312 134.526 187.949 134.526V133.998ZM190.465 133.998L190.625 133.838C190.801 133.838 190.934 133.83 191.025 133.814C191.121 133.798 191.198 133.766 191.257 133.718C191.241 133.66 191.23 133.601 191.225 133.542C191.22 133.484 191.217 133.42 191.217 133.35C191.217 133.062 191.31 132.801 191.497 132.566C191.689 132.326 191.977 132.081 192.361 131.83L192.753 131.574H193.377L193.945 133.118C193.998 133.262 194.046 133.382 194.089 133.478C194.137 133.569 194.188 133.641 194.241 133.694C194.3 133.748 194.361 133.785 194.425 133.806C194.494 133.828 194.574 133.838 194.665 133.838H194.817V134.366L194.657 134.526C194.406 134.526 194.206 134.492 194.057 134.422C193.908 134.348 193.774 134.204 193.657 133.99L193.609 134.006V134.526H192.657C191.969 134.526 191.526 134.326 191.329 133.926H191.297C191.228 134.129 191.132 134.281 191.009 134.382C190.886 134.478 190.705 134.526 190.465 134.526V133.998ZM191.745 133.278C191.745 133.47 191.822 133.612 191.977 133.702C192.132 133.793 192.374 133.838 192.705 133.838H193.577C193.518 133.716 193.454 133.558 193.385 133.366L192.937 132.158L192.633 132.342C192.393 132.486 192.185 132.636 192.009 132.79C191.833 132.945 191.745 133.108 191.745 133.278ZM194.66 133.998L194.82 133.838H195.052C195.308 133.838 195.492 133.78 195.604 133.662C195.722 133.545 195.78 133.358 195.78 133.102V128.606H196.372V133.102C196.372 133.593 196.266 133.953 196.052 134.182C195.844 134.412 195.511 134.526 195.052 134.526H194.66V133.998ZM197.569 128.606H198.161V134.526H197.569V128.606ZM203.344 136.958C202.998 136.958 202.68 136.913 202.392 136.822C202.11 136.737 201.867 136.606 201.664 136.43C201.462 136.254 201.304 136.038 201.192 135.782C201.086 135.526 201.032 135.23 201.032 134.894C201.032 134.462 201.163 134.07 201.424 133.718C201.691 133.361 202.067 133.078 202.552 132.87V132.83C202.248 132.644 202.011 132.417 201.84 132.15C201.675 131.878 201.592 131.593 201.592 131.294C201.592 131.054 201.632 130.836 201.712 130.638C201.792 130.441 201.899 130.273 202.032 130.134C202.171 129.99 202.334 129.881 202.52 129.806C202.707 129.726 202.904 129.686 203.112 129.686C203.416 129.686 203.68 129.75 203.904 129.878C204.128 130.001 204.315 130.177 204.464 130.406L204.064 130.87C203.926 130.7 203.776 130.574 203.616 130.494C203.462 130.414 203.283 130.374 203.08 130.374C202.776 130.374 202.544 130.46 202.384 130.63C202.23 130.796 202.152 131.017 202.152 131.294C202.152 131.47 202.184 131.622 202.248 131.75C202.318 131.878 202.411 131.982 202.528 132.062C202.646 132.142 202.784 132.204 202.944 132.246C203.11 132.284 203.288 132.302 203.48 132.302C203.704 132.302 203.936 132.278 204.176 132.23L204.824 132.11L204.944 132.734L203.888 132.958C203.115 133.124 202.544 133.345 202.176 133.622C201.808 133.894 201.624 134.244 201.624 134.67V134.83C201.624 135.278 201.776 135.625 202.08 135.87C202.39 136.116 202.811 136.238 203.344 136.238C203.691 136.238 204.008 136.174 204.296 136.046C204.59 135.924 204.872 135.721 205.144 135.438L205.576 135.974C205.246 136.321 204.902 136.572 204.544 136.726C204.192 136.881 203.792 136.958 203.344 136.958ZM205.686 135.758H206.11C206.691 135.758 207.139 135.649 207.454 135.43C207.774 135.217 207.971 134.916 208.046 134.526H207.11C206.683 134.526 206.353 134.414 206.118 134.19C205.883 133.966 205.766 133.652 205.766 133.246C205.766 133.006 205.801 132.78 205.87 132.566C205.945 132.353 206.046 132.169 206.174 132.014C206.302 131.854 206.454 131.729 206.63 131.638C206.811 131.542 207.009 131.494 207.222 131.494C207.665 131.494 208.011 131.692 208.262 132.086C208.518 132.481 208.646 133.036 208.646 133.75V133.838H209.014V134.366L208.854 134.526H208.574C208.457 135.14 208.193 135.612 207.782 135.942C207.377 136.278 206.819 136.446 206.11 136.446H205.686V135.758ZM206.326 133.166C206.326 133.401 206.387 133.572 206.51 133.678C206.638 133.785 206.838 133.838 207.11 133.838H208.086V133.59C208.086 133.158 208.003 132.817 207.838 132.566C207.678 132.31 207.457 132.182 207.174 132.182C206.902 132.182 206.691 132.273 206.542 132.454C206.398 132.636 206.326 132.873 206.326 133.166ZM208.856 133.998L209.016 133.838H209.136C209.488 133.838 209.741 133.796 209.896 133.71C210.056 133.62 210.136 133.449 210.136 133.198C210.136 133.102 210.128 132.98 210.112 132.83C210.101 132.681 210.074 132.484 210.032 132.238L209.92 131.574L210.48 131.486L210.576 132.15C210.613 132.412 210.64 132.625 210.656 132.79C210.672 132.956 210.68 133.092 210.68 133.198C210.68 133.646 210.546 133.98 210.28 134.198C210.018 134.417 209.637 134.526 209.136 134.526H208.856V133.998ZM210.064 130.526C209.957 130.526 209.872 130.497 209.808 130.438C209.744 130.374 209.712 130.273 209.712 130.134C209.712 129.996 209.744 129.897 209.808 129.838C209.872 129.774 209.957 129.742 210.064 129.742H210.152C210.258 129.742 210.344 129.774 210.408 129.838C210.472 129.897 210.504 129.996 210.504 130.134C210.504 130.273 210.472 130.374 210.408 130.438C210.344 130.497 210.258 130.526 210.152 130.526H210.064Z" fill="#736E6E"/>
<rect x="0.9" y="0.9" width="325.2" height="161.2" rx="5.1" stroke="#F94892" stroke-width="1.8" stroke-dasharray="6 6"/>
</svg>
