<svg width="260" height="240" viewBox="0 0 260 240" fill="none" xmlns="http://www.w3.org/2000/svg">
<path d="M133.814 240C196.393 240 247.122 235.546 247.122 230.051C247.122 224.556 196.393 220.102 133.814 220.102C71.2359 220.102 20.5061 224.556 20.5061 230.051C20.5061 235.546 71.2359 240 133.814 240Z" fill="#FFA1C9"/>
<path opacity="0.5" d="M133.814 240C196.393 240 247.122 235.546 247.122 230.051C247.122 224.556 196.393 220.102 133.814 220.102C71.2359 220.102 20.5061 224.556 20.5061 230.051C20.5061 235.546 71.2359 240 133.814 240Z" fill="white"/>
<path d="M18.2709 104.213V110.097" stroke="#263238" stroke-linecap="round" stroke-linejoin="round"/>
<path d="M21.2158 107.158H15.3325" stroke="#263238" stroke-linecap="round" stroke-linejoin="round"/>
<path d="M219.026 53.8041V59.6874" stroke="#263238" stroke-linecap="round" stroke-linejoin="round"/>
<path d="M221.964 56.749H216.081" stroke="#263238" stroke-linecap="round" stroke-linejoin="round"/>
<path d="M135.453 8.26326V14.1466" stroke="#263238" stroke-linecap="round" stroke-linejoin="round"/>
<path d="M138.391 11.2016H132.508" stroke="#263238" stroke-linecap="round" stroke-linejoin="round"/>
<path d="M38.6135 170.104V175.987" stroke="#263238" stroke-linecap="round" stroke-linejoin="round"/>
<path d="M41.552 173.042H35.6687" stroke="#263238" stroke-linecap="round" stroke-linejoin="round"/>
<path d="M216.393 32.599C216.394 33.5622 216.109 34.5041 215.575 35.3056C215.041 36.1071 214.281 36.7321 213.392 37.1016C212.502 37.4711 211.523 37.5685 210.578 37.3814C209.634 37.1943 208.765 36.7311 208.084 36.0505C207.402 35.3699 206.938 34.5024 206.75 33.5579C206.561 32.6133 206.657 31.6341 207.026 30.7441C207.394 29.8541 208.018 29.0933 208.819 28.5581C209.619 28.0229 210.561 27.7372 211.524 27.7372C212.814 27.7372 214.051 28.2492 214.964 29.1608C215.877 30.0723 216.391 31.3089 216.393 32.599Z" stroke="#263238" stroke-linecap="round" stroke-linejoin="round"/>
<path d="M8.21285 149.413C10.6936 148.385 11.8716 145.541 10.8441 143.061C9.81651 140.58 6.97249 139.402 4.49176 140.429C2.01103 141.457 0.832999 144.301 1.86055 146.782C2.8881 149.262 5.73212 150.44 8.21285 149.413Z" stroke="#263238" stroke-linecap="round" stroke-linejoin="round"/>
<path d="M238.5 82.345C238.511 82.4972 238.492 82.6502 238.441 82.7945C238.391 82.9387 238.312 83.071 238.208 83.183C238.104 83.2951 237.979 83.3845 237.839 83.4456C237.699 83.5068 237.548 83.5383 237.395 83.5383C237.242 83.5383 237.091 83.5068 236.952 83.4456C236.812 83.3845 236.686 83.2951 236.582 83.183C236.478 83.071 236.399 82.9387 236.349 82.7945C236.299 82.6502 236.279 82.4972 236.291 82.345C236.312 82.0669 236.438 81.8072 236.643 81.6177C236.848 81.4282 237.116 81.323 237.395 81.323C237.674 81.323 237.943 81.4282 238.148 81.6177C238.352 81.8072 238.478 82.0669 238.5 82.345Z" stroke="#263238" stroke-linecap="round" stroke-linejoin="round"/>
<path d="M69.8077 66.4263C69.8091 66.6456 69.7452 66.8604 69.6243 67.0435C69.5034 67.2265 69.3309 67.3695 69.1286 67.4543C68.9263 67.5392 68.7034 67.5621 68.4881 67.5201C68.2728 67.4781 68.0748 67.3731 67.9192 67.2185C67.7636 67.0639 67.6575 66.8665 67.6142 66.6515C67.5709 66.4364 67.5925 66.2133 67.6761 66.0106C67.7597 65.8078 67.9017 65.6344 68.084 65.5124C68.2663 65.3904 68.4807 65.3252 68.7001 65.3252C68.9927 65.3252 69.2734 65.441 69.481 65.6473C69.6885 65.8536 69.806 66.1336 69.8077 66.4263V66.4263Z" stroke="#263238" stroke-linecap="round" stroke-linejoin="round"/>
<path d="M255.692 131.653V131.62H255.652V131.587C254.73 131.494 245.186 130.678 236.477 135.202C240.324 130.369 242.098 124.208 241.412 118.069C239.309 97.0433 219.47 85.0114 217.938 84.1093V84.1159H217.892H217.845C216.313 85.018 196.474 97.0499 194.372 118.076C193.922 122.146 194.549 126.263 196.189 130.015C185.019 123.336 171.993 124.463 170.792 124.583V124.543V124.589H170.746V124.622C170.155 125.982 162.7 143.911 171.654 159.146C179.667 172.77 196.468 169.168 201.031 167.888C204.865 171.914 211.856 181.081 214.96 196.721H210.609L212.632 226.383H222.422L224.571 196.761H219.444C221.793 186.159 226.03 176.067 231.953 166.966C236.523 168.107 248.887 170.031 254.982 159.67C262.225 147.3 256.176 132.761 255.692 131.653ZM217.58 131.54L207.233 117.167C207.211 117.138 207.195 117.104 207.186 117.068C207.177 117.033 207.175 116.995 207.181 116.959C207.187 116.923 207.199 116.888 207.218 116.856C207.238 116.825 207.263 116.798 207.292 116.776C207.353 116.731 207.429 116.712 207.504 116.724C207.578 116.735 207.645 116.775 207.69 116.836L217.6 130.599V116.04L207.253 101.673C207.208 101.612 207.189 101.536 207.2 101.462C207.212 101.387 207.252 101.32 207.312 101.275C207.374 101.233 207.45 101.216 207.525 101.228C207.599 101.241 207.665 101.281 207.71 101.341L217.62 115.104V93.8794C217.62 93.8428 217.627 93.8066 217.641 93.7728C217.655 93.739 217.675 93.7083 217.701 93.6824C217.727 93.6566 217.758 93.6361 217.792 93.6221C217.825 93.6081 217.862 93.6008 217.898 93.6008C217.972 93.6008 218.043 93.6302 218.095 93.6824C218.148 93.7347 218.177 93.8055 218.177 93.8794V114.368L228.922 100.744C228.968 100.685 229.035 100.647 229.109 100.638C229.183 100.628 229.258 100.649 229.317 100.695C229.376 100.74 229.414 100.808 229.423 100.882C229.433 100.956 229.412 101.03 229.366 101.089L218.177 115.277V129.869L228.922 116.239C228.969 116.18 229.037 116.142 229.111 116.134C229.186 116.125 229.261 116.146 229.32 116.192C229.349 116.215 229.373 116.243 229.391 116.275C229.409 116.307 229.42 116.342 229.424 116.378C229.429 116.415 229.426 116.451 229.416 116.487C229.406 116.522 229.389 116.555 229.366 116.583L218.177 130.778V143.148L228.922 129.524C228.968 129.465 229.035 129.427 229.109 129.417C229.183 129.408 229.258 129.429 229.317 129.474C229.376 129.52 229.414 129.587 229.423 129.661C229.433 129.735 229.412 129.81 229.366 129.869L218.177 144.057V144.328H217.275L207.266 130.4C207.221 130.339 207.202 130.263 207.214 130.188C207.225 130.114 207.265 130.047 207.326 130.002C207.388 129.959 207.464 129.943 207.538 129.955C207.612 129.967 207.679 130.008 207.724 130.068L217.6 143.811V131.514L217.58 131.54ZM201.137 166.621L200.122 165.228L185.53 161.169C185.472 161.149 185.423 161.108 185.394 161.054C185.364 161 185.356 160.937 185.371 160.877C185.388 160.817 185.428 160.766 185.483 160.734C185.538 160.703 185.602 160.695 185.663 160.712L199.645 164.612L193.563 156.294L178.97 152.235C178.91 152.218 178.859 152.178 178.828 152.123C178.796 152.068 178.788 152.004 178.805 151.943C178.824 151.885 178.865 151.836 178.919 151.806C178.973 151.777 179.037 151.769 179.096 151.784L193.085 155.684L185.895 145.841L171.303 141.781C171.273 141.774 171.246 141.76 171.221 141.742C171.197 141.723 171.177 141.7 171.162 141.673C171.147 141.646 171.138 141.617 171.135 141.587C171.132 141.556 171.135 141.525 171.144 141.496C171.151 141.467 171.165 141.439 171.183 141.414C171.202 141.39 171.225 141.369 171.252 141.354C171.278 141.338 171.308 141.328 171.338 141.324C171.368 141.32 171.399 141.322 171.429 141.33L185.417 145.231L175.302 131.395C175.266 131.343 175.251 131.28 175.261 131.218C175.271 131.156 175.305 131.1 175.355 131.063C175.38 131.044 175.408 131.03 175.438 131.023C175.468 131.015 175.499 131.014 175.53 131.019C175.56 131.024 175.589 131.035 175.615 131.052C175.641 131.068 175.663 131.09 175.681 131.116L186.147 145.43L186.101 131.242C186.102 131.179 186.128 131.119 186.172 131.075C186.217 131.031 186.277 131.005 186.339 131.003C186.402 131.005 186.461 131.031 186.504 131.075C186.547 131.12 186.572 131.18 186.572 131.242L186.678 146.053L193.868 155.889L193.762 141.702C193.756 141.668 193.758 141.633 193.767 141.599C193.776 141.566 193.792 141.535 193.815 141.508C193.837 141.482 193.865 141.46 193.896 141.446C193.928 141.431 193.962 141.423 193.997 141.423C194.032 141.423 194.066 141.431 194.097 141.446C194.129 141.46 194.157 141.482 194.179 141.508C194.202 141.535 194.218 141.566 194.227 141.599C194.236 141.633 194.238 141.668 194.232 141.702L194.339 156.52L200.414 164.83L200.308 150.643C200.31 150.581 200.336 150.522 200.38 150.478C200.425 150.435 200.485 150.411 200.547 150.411C200.608 150.411 200.667 150.435 200.711 150.479C200.755 150.522 200.779 150.581 200.779 150.643L200.885 165.461L201.754 166.648L201.137 166.621ZM202.795 166.621C204.918 163.391 211.047 152.785 207.385 142.577C210.232 144.455 213.277 146.012 216.466 147.22V193.279C213.103 179.164 206.775 170.727 202.915 166.621H202.795ZM218.714 190.44V147.433C221.749 146.331 224.659 144.912 227.396 143.201C221.553 152.566 228.1 163.385 229.824 165.938C224.915 173.503 221.17 181.762 218.714 190.44ZM255.141 145.542L243.328 148.859L237.492 156.818L248.84 153.654C248.865 153.646 248.89 153.643 248.916 153.646C248.942 153.648 248.966 153.656 248.989 153.668C249.011 153.681 249.031 153.698 249.046 153.718C249.062 153.738 249.073 153.762 249.079 153.787C249.091 153.835 249.084 153.886 249.06 153.93C249.035 153.973 248.994 154.005 248.946 154.019L237.133 157.335L232.199 164.081L243.547 160.917C243.596 160.905 243.647 160.912 243.69 160.937C243.734 160.961 243.766 161.002 243.779 161.05C243.792 161.099 243.785 161.151 243.761 161.196C243.736 161.24 243.695 161.273 243.647 161.289L231.834 164.605L231.21 165.454C231.098 165.388 230.991 165.328 230.885 165.255L231.237 164.771L231.33 152.752C231.324 152.724 231.325 152.696 231.333 152.668C231.34 152.641 231.353 152.616 231.371 152.594C231.389 152.572 231.411 152.555 231.437 152.542C231.463 152.53 231.49 152.524 231.519 152.524C231.547 152.524 231.575 152.53 231.601 152.542C231.626 152.555 231.649 152.572 231.667 152.594C231.685 152.616 231.698 152.641 231.705 152.668C231.712 152.696 231.713 152.724 231.708 152.752L231.628 164.267L236.51 157.488L236.596 145.469C236.596 145.444 236.601 145.42 236.611 145.397C236.621 145.374 236.635 145.353 236.653 145.336C236.671 145.318 236.692 145.305 236.715 145.296C236.739 145.287 236.764 145.283 236.788 145.284C236.814 145.284 236.839 145.289 236.862 145.298C236.885 145.308 236.907 145.322 236.924 145.34C236.942 145.358 236.957 145.379 236.966 145.402C236.976 145.426 236.981 145.451 236.981 145.476L236.895 156.984L242.731 149.025L242.818 137.006C242.818 136.981 242.823 136.956 242.832 136.932C242.842 136.909 242.856 136.888 242.874 136.87C242.892 136.852 242.913 136.838 242.936 136.828C242.96 136.819 242.985 136.814 243.01 136.814C243.035 136.814 243.06 136.819 243.083 136.828C243.106 136.838 243.126 136.852 243.144 136.87C243.161 136.888 243.175 136.909 243.184 136.933C243.193 136.956 243.197 136.981 243.196 137.006L243.116 148.514L251.606 136.9C251.636 136.86 251.681 136.833 251.731 136.826C251.78 136.819 251.831 136.831 251.871 136.86C251.892 136.874 251.909 136.893 251.922 136.914C251.936 136.936 251.944 136.959 251.948 136.984C251.952 137.009 251.95 137.034 251.944 137.058C251.938 137.083 251.927 137.105 251.911 137.125L243.707 148.355L255.055 145.191C255.104 145.178 255.155 145.185 255.198 145.21C255.241 145.235 255.273 145.276 255.287 145.323C255.293 145.347 255.294 145.372 255.29 145.397C255.285 145.421 255.276 145.444 255.262 145.465C255.249 145.485 255.231 145.503 255.21 145.516C255.189 145.53 255.166 145.538 255.141 145.542Z" fill="#263238"/>
<path d="M190.671 28.4535H88.2602C85.7876 28.4535 83.7831 30.458 83.7831 32.9306V224.678C83.7831 227.151 85.7876 229.155 88.2602 229.155H190.671C193.143 229.155 195.148 227.151 195.148 224.678V32.9306C195.148 30.458 193.143 28.4535 190.671 28.4535Z" fill="#263238" stroke="#263238" stroke-linecap="round" stroke-linejoin="round"/>
<path d="M187.135 28.4535H84.7249C82.2523 28.4535 80.2478 30.458 80.2478 32.9306V224.678C80.2478 227.151 82.2523 229.155 84.7249 229.155H187.135C189.608 229.155 191.612 227.151 191.612 224.678V32.9306C191.612 30.458 189.608 28.4535 187.135 28.4535Z" fill="white"/>
<path d="M191.612 104.187L93.6857 229.162H187.142C188.328 229.16 189.465 228.688 190.303 227.848C191.142 227.009 191.612 225.871 191.612 224.685V104.187Z" fill="#FFA1C9"/>
<path opacity="0.5" d="M191.612 104.187L93.6857 229.162H187.142C188.328 229.16 189.465 228.688 190.303 227.848C191.142 227.009 191.612 225.871 191.612 224.685V104.187Z" fill="white"/>
<path d="M187.135 28.4535H84.7249C82.2523 28.4535 80.2478 30.458 80.2478 32.9306V224.678C80.2478 227.151 82.2523 229.155 84.7249 229.155H187.135C189.608 229.155 191.612 227.151 191.612 224.678V32.9306C191.612 30.458 189.608 28.4535 187.135 28.4535Z" stroke="#263238" stroke-linecap="round" stroke-linejoin="round"/>
<path d="M143.651 40.4456H129.788C129.41 40.4456 129.047 40.2954 128.78 40.0279C128.512 39.7605 128.362 39.3978 128.362 39.0196C128.362 38.8326 128.399 38.6475 128.471 38.4748C128.542 38.3022 128.648 38.1454 128.78 38.0135C128.913 37.8816 129.07 37.7772 129.243 37.7063C129.416 37.6353 129.601 37.5993 129.788 37.6001H143.651C144.027 37.6001 144.388 37.7497 144.654 38.0159C144.921 38.2821 145.07 38.6431 145.07 39.0196C145.071 39.2065 145.035 39.3918 144.964 39.5648C144.893 39.7378 144.789 39.895 144.657 40.0275C144.525 40.16 144.368 40.2652 144.195 40.3369C144.023 40.4087 143.838 40.4456 143.651 40.4456Z" fill="#263238" stroke="#263238" stroke-linecap="round" stroke-linejoin="round"/>
<path d="M184.575 211.22H87.2719V40.6114H110.334L112.928 42.7604C113.833 43.5142 114.973 43.9273 116.151 43.9278H156.843C158.065 43.9229 159.243 43.4751 160.16 42.6676L162.508 40.6114H184.575V211.22Z" fill="#263238" stroke="#263238" stroke-linecap="round" stroke-linejoin="round"/>
<path d="M105.539 174.435H166.322" stroke="white" stroke-linecap="round" stroke-linejoin="round"/>
<path d="M105.539 182.434H166.322" stroke="white" stroke-linecap="round" stroke-linejoin="round"/>
<path d="M105.539 190.433H166.322" stroke="white" stroke-linecap="round" stroke-linejoin="round"/>
<path d="M111.15 100.167C107.33 105.702 105.475 112.357 105.881 119.07C106.287 125.783 108.931 132.166 113.391 137.2C117.85 142.234 123.868 145.628 130.483 146.84C137.098 148.053 143.928 147.013 149.883 143.888C155.838 140.763 160.574 135.733 163.335 129.601C166.095 123.468 166.721 116.587 165.112 110.058C163.503 103.528 159.753 97.7255 154.459 93.5774C149.166 89.4292 142.635 87.1746 135.91 87.1737C134.066 87.1738 132.226 87.3403 130.412 87.6711" stroke="white" stroke-linecap="round" stroke-linejoin="round"/>
<path d="M116.277 94.483C115.267 95.3577 114.314 96.2971 113.425 97.2953" stroke="white" stroke-linecap="round" stroke-linejoin="round"/>
<path d="M159.412 127.261C164.936 114.292 158.9 99.3009 145.932 93.7774C132.963 88.2538 117.972 94.2892 112.448 107.258C106.925 120.227 112.96 135.217 125.929 140.741C138.898 146.265 153.888 140.229 159.412 127.261Z" fill="#FFA1C9"/>
<path d="M124.144 114.607L133.827 125.611L149.667 103.172" stroke="#263238" stroke-width="6" stroke-linecap="round" stroke-linejoin="round"/>
<path d="M160.186 42.6676C159.27 43.4751 158.091 43.9229 156.87 43.9278H116.164C114.986 43.9273 113.846 43.5142 112.941 42.7604L110.347 40.6114H87.2719V58.0623H184.575V40.6114H162.534L160.186 42.6676Z" fill="#FFA1C9" stroke="#263238" stroke-linecap="round" stroke-linejoin="round"/>
<path d="M139.041 216.48C139.042 216.041 138.913 215.612 138.67 215.247C138.427 214.882 138.081 214.597 137.676 214.428C137.271 214.26 136.825 214.215 136.395 214.3C135.965 214.386 135.569 214.597 135.259 214.907C134.949 215.217 134.738 215.613 134.652 216.043C134.567 216.473 134.612 216.919 134.78 217.324C134.949 217.729 135.234 218.075 135.599 218.318C135.964 218.561 136.393 218.69 136.832 218.689C137.417 218.687 137.978 218.454 138.392 218.04C138.806 217.626 139.039 217.065 139.041 216.48Z" fill="#263238" stroke="#263238" stroke-linecap="round" stroke-linejoin="round"/>
<path d="M52.5026 148.627L43.8269 226.23C43.8269 226.23 37.4661 231.762 38.0232 233.997C38.5804 236.233 45.9229 232.671 46.9377 230.827C47.6579 229.292 48.1709 227.668 48.4632 225.998L66.73 167.63L80.7783 230.223C80.7783 230.223 86.7478 235.125 90.0642 234.959C93.3806 234.793 92.1999 233.487 90.3096 231.092C88.4192 228.698 84.1411 227.331 84.1411 227.331L82.0319 146.657L52.5026 148.627Z" fill="#263238" stroke="#263238" stroke-linecap="round" stroke-linejoin="round"/>
<path d="M81.5559 145.299L52.4092 146.781L52.6112 150.755L81.7579 149.274L81.5559 145.299Z" fill="#263238" stroke="#263238" stroke-linecap="round" stroke-linejoin="round"/>
<path d="M70.4909 147.824C70.5373 148.812 69.2837 149.675 67.6786 149.761C66.0734 149.847 64.7203 149.117 64.7203 148.122C64.7203 147.128 65.9341 146.272 67.5326 146.192C69.1312 146.113 70.4378 146.842 70.4909 147.824Z" fill="white"/>
<path d="M65.4963 107.046L54.5389 110.256L55.8987 146.882L81.6008 146.245L78.3507 108.385L65.4963 107.046Z" fill="white" stroke="#263238" stroke-linecap="round" stroke-linejoin="round"/>
<path d="M60.7008 107.457L59.2284 169.958L45.2729 163.199L51.4083 143.46L47.223 110.13L60.7008 107.457Z" fill="#FFA1C9" stroke="#263238" stroke-linecap="round" stroke-linejoin="round"/>
<path d="M71.7974 106.893L79.5975 168.923L92.8034 160.784L84.6982 141.768L85.4808 108.186L71.7974 106.893Z" fill="#FFA1C9" stroke="#263238" stroke-linecap="round" stroke-linejoin="round"/>
<path d="M63.4932 114.454L65.6687 117.996L63.9309 142.657L68.0565 147.539L70.1923 141.675L66.8892 118.043L68.9254 114.62L65.9672 110.786L63.4932 114.454Z" fill="#263238" stroke="#263238" stroke-linecap="round" stroke-linejoin="round"/>
<path d="M66.1861 113.983L62.0804 117.074L58.7905 109.049L60.6411 106.183L70.6898 105.673L73.0643 108.876L71.1076 116.172L66.1861 113.983Z" fill="white" stroke="#263238" stroke-linecap="round" stroke-linejoin="round"/>
<path d="M61.4768 103.099L62.3988 108.2L66.1861 113.983L69.655 107.165L69.4362 102.86L61.4768 103.099Z" fill="white" stroke="#263238" stroke-linecap="round" stroke-linejoin="round"/>
<path d="M47.223 110.13L28.6113 132.661L40.9815 147.307L45.9627 144.07L39.8473 131.594L48.974 124.987L47.223 110.13Z" fill="#FFA1C9" stroke="#263238" stroke-linecap="round" stroke-linejoin="round"/>
<path d="M45.9628 144.07L46.7057 145.688L42.5137 148.063L41.95 146.763L45.9628 144.07Z" fill="white" stroke="#263238" stroke-linecap="round" stroke-linejoin="round"/>
<path d="M46.7056 145.688L50.9772 151.286L49.571 153.017L48.5496 152.573L46.4801 154.337C46.4801 154.337 44.9679 153.913 44.7755 153.429C44.5832 152.945 42.5336 151.711 42.4872 150.888C42.4408 150.066 42.4872 148.063 42.4872 148.063L46.7056 145.688Z" fill="white" stroke="#263238" stroke-linecap="round" stroke-linejoin="round"/>
<path d="M95.8479 112.584C96.1001 111.926 96.1554 111.21 96.0071 110.521C95.702 109.732 95.0255 106.999 95.1581 106.097C95.2908 105.195 96.6572 103.882 96.7765 102.714C96.8959 101.547 96.7765 100.479 96.7765 99.849C96.7875 99.6765 96.8539 99.5122 96.9658 99.3805C97.0777 99.2488 97.2291 99.1567 97.3975 99.1179C97.5659 99.0792 97.7424 99.0958 97.9006 99.1654C98.0588 99.235 98.1903 99.3537 98.2756 99.5041C98.9388 100.273 99.3368 101.063 99.0184 101.879C98.8016 102.791 98.6991 103.727 98.7133 104.664C98.7133 104.664 99.7746 106.13 100.358 107.085C100.942 108.04 100.889 110.541 100.498 111.543C100.133 112.301 99.6184 112.978 98.9853 113.532L99.0516 115.257L95.8479 112.584Z" fill="white" stroke="#263238" stroke-linecap="round" stroke-linejoin="round"/>
<path d="M97.7848 103.285C97.7848 103.285 97.3205 104.651 98.1363 104.963C98.9521 105.275 102.288 105.739 102.322 104.664C102.355 103.59 102.421 103.053 101.884 103.079C101.347 103.106 98.846 103.079 98.846 103.079C98.846 103.079 97.6853 103.019 97.7848 103.285Z" fill="white" stroke="#263238" stroke-linecap="round" stroke-linejoin="round"/>
<path d="M98.1628 109.984C98.1628 109.984 97.8311 110.999 98.4215 111.231C99.0118 111.463 101.413 111.815 101.433 111.012C101.453 110.209 101.499 109.811 101.114 109.831C100.73 109.851 98.9256 109.831 98.9256 109.831C98.9256 109.831 98.0898 109.772 98.1628 109.984Z" fill="white" stroke="#263238" stroke-linecap="round" stroke-linejoin="round"/>
<path d="M97.7185 107.815C97.7185 107.815 97.3338 108.996 98.017 109.268C98.7002 109.539 101.479 109.931 101.506 109.015C101.532 108.1 101.585 107.623 101.134 107.643C100.683 107.662 98.6007 107.643 98.6007 107.643C98.6007 107.643 97.6323 107.589 97.7185 107.815Z" fill="white" stroke="#263238" stroke-linecap="round" stroke-linejoin="round"/>
<path d="M97.4598 105.712C97.4598 105.712 96.9955 107.079 97.818 107.39C98.6404 107.702 101.963 108.166 101.997 107.092C102.03 106.017 102.096 105.48 101.559 105.507C101.022 105.533 98.521 105.507 98.521 105.507C98.521 105.507 97.3603 105.454 97.4598 105.712Z" fill="white" stroke="#263238" stroke-linecap="round" stroke-linejoin="round"/>
<path d="M95.4698 113.944L95.9872 111.861L99.5822 114.003L98.9786 116.265L95.4698 113.944Z" fill="white" stroke="#263238" stroke-linecap="round" stroke-linejoin="round"/>
<path d="M85.4809 108.186L92.3658 122.838L95.7485 113.413L99.0649 116.57L95.6689 134.041C95.563 134.579 95.3022 135.074 94.9186 135.466C94.535 135.857 94.0453 136.128 93.5097 136.245C92.9741 136.362 92.416 136.32 91.904 136.124C91.392 135.928 90.9485 135.587 90.628 135.142L85.1294 127.468L85.4809 108.186Z" fill="#FFA1C9" stroke="#263238" stroke-linecap="round" stroke-linejoin="round"/>
<path d="M58.2732 97.1428C58.2732 97.1428 56.8804 95.657 56.7013 96.7448C56.5222 97.8326 57.086 99.7097 57.9615 100.38C58.837 101.049 59.6064 99.9418 59.6064 99.9418L58.2732 97.1428Z" fill="white" stroke="#263238" stroke-linecap="round" stroke-linejoin="round"/>
<path d="M71.4393 96.4729C71.4393 96.4729 72.6664 94.8544 72.9649 95.9157C73.2634 96.9769 72.8787 98.9071 72.0761 99.6632C71.2735 100.419 70.3914 99.3913 70.3914 99.3913L71.4393 96.4729Z" fill="white" stroke="#263238" stroke-linecap="round" stroke-linejoin="round"/>
<path d="M58.8304 98.6683L57.5038 95.8626C56.4361 94.3599 55.6971 92.6491 55.3349 90.8416C54.6716 87.764 55.766 85.2037 57.1589 84.4144C57.9417 83.9459 58.866 83.7718 59.7656 83.9236C59.7656 83.9236 60.0309 82.1195 64.4085 80.6072C68.7862 79.0949 73.5485 81.821 73.4756 82.7761C73.4026 83.7312 72.2353 84.1557 72.2353 84.1557C72.2353 84.1557 75.6445 85.416 74.4108 87.0277C73.65 88.0123 72.6655 88.8013 71.5388 89.3293C71.7861 90.1421 71.9876 90.9681 72.1424 91.8034C72.3148 92.8712 71.3531 97.4611 71.3531 97.4611L68.9984 91.0074L61.6095 91.3855C61.6095 91.3855 61.1717 94.5162 60.3891 95.6305C59.8895 96.4763 59.6112 97.4344 59.5799 98.4163C59.5799 98.4163 59.235 99.5969 58.8304 98.6683Z" fill="#263238" stroke="#263238" stroke-linecap="round" stroke-linejoin="round"/>
<path d="M60.1437 87.0079C60.131 88.934 59.9915 90.8573 59.7258 92.7651C59.566 93.8267 59.0176 94.7911 58.187 95.4713C58.187 95.4713 59.1289 99.8423 60.3228 102.17C61.5167 104.499 63.9973 106.409 66.4979 106.15C68.9985 105.891 70.995 103.053 71.2337 100.652C71.4725 98.2504 70.2985 89.3758 70.2985 89.3758C70.2985 89.3758 62.4851 90.7488 60.1437 87.0079Z" fill="white" stroke="#263238" stroke-linecap="round" stroke-linejoin="round"/>
<path d="M60.807 95.982C61.2053 95.7463 61.6549 95.6111 62.1172 95.588C62.5794 95.5649 63.0403 95.6546 63.4601 95.8494" stroke="#263238" stroke-linecap="round" stroke-linejoin="round"/>
<path d="M60.7008 93.9922C60.7008 93.9922 60.8534 92.6656 63.0687 92.5462" stroke="#263238" stroke-linecap="round" stroke-linejoin="round"/>
<path d="M66.5974 92.2544C67.0987 92.049 67.6525 92.0097 68.1778 92.1422C68.703 92.2747 69.172 92.5721 69.5158 92.9906" stroke="#263238" stroke-linecap="round" stroke-linejoin="round"/>
<path d="M65.8214 94.3968C65.8214 94.3968 66.1729 97.0499 66.1928 97.3749C66.2127 97.6999 67.3204 97.7596 67.0219 98.4362C66.7234 99.1127 65.7617 99.8291 64.9591 99.3183" stroke="#263238" stroke-linecap="round" stroke-linejoin="round"/>
<path d="M67.0683 101.54C67.0683 101.54 66.226 102.356 64.528 101.666" stroke="#263238" stroke-linecap="round" stroke-linejoin="round"/>
<path d="M68.7465 95.2458C68.7465 95.7366 68.5409 96.1479 68.2357 96.1611C67.9306 96.1744 67.6653 95.7897 67.6388 95.3055C67.6123 94.8213 67.8444 94.4101 68.1495 94.3902C68.4546 94.3703 68.7 94.7616 68.7465 95.2458Z" fill="#263238"/>
</svg>
